<?xml version="1.0" encoding="UTF-8"?>

<svg version="1.1" xmlns="http://www.w3.org/2000/svg" width="2441" height="429">
<path d="M0 0 C0.68470596 -0.00175304 1.36941191 -0.00350607 2.07486653 -0.00531223 C4.36199412 -0.00995249 6.64905757 -0.00751186 8.93618774 -0.00507832 C10.59541055 -0.00694727 12.25463293 -0.00924831 13.9138546 -0.01194364 C18.46796256 -0.01805736 23.02205216 -0.01792855 27.57616329 -0.01674926 C32.4896517 -0.01654515 37.40313421 -0.02206491 42.31661987 -0.02680683 C51.94005536 -0.03511105 61.56348473 -0.03786155 71.1869235 -0.03841921 C79.00754095 -0.03889437 86.82815638 -0.04094914 94.64877319 -0.04411983 C116.81764395 -0.05292494 138.98650987 -0.05753931 161.15538239 -0.05678936 C162.35035773 -0.0567494 163.54533307 -0.05670945 164.77651978 -0.05666828 C166.57116846 -0.05660696 166.57116846 -0.05660696 168.40207267 -0.0565444 C187.80295291 -0.05613773 207.20381377 -0.065713 226.60468841 -0.07980665 C246.52141376 -0.09416103 266.43812965 -0.10107738 286.35486031 -0.10021287 C297.53828882 -0.09988063 308.72169699 -0.10263974 319.90512085 -0.11339092 C329.42421434 -0.12248347 338.94327826 -0.12468136 348.46237421 -0.1178815 C353.31989992 -0.1146103 358.17736887 -0.11458127 363.03488922 -0.12323475 C367.4809605 -0.13107393 371.92692976 -0.12969484 376.37299848 -0.12095062 C377.98192109 -0.11940995 379.59085122 -0.12125304 381.19976497 -0.12681069 C383.38665713 -0.13386494 385.5731908 -0.12858192 387.7600708 -0.12025452 C389.58216285 -0.12058057 389.58216285 -0.12058057 391.44106483 -0.12091321 C395.9932026 0.20941103 400.38660218 0.68498234 403.7550354 3.94113445 C405.75588963 7.83168435 406.00523453 11.77352728 406.02047729 16.09334087 C406.02904251 17.55470722 406.02904251 17.55470722 406.03778076 19.04559612 C406.03889862 20.10287914 406.04001648 21.16016216 406.04116821 22.24948406 C406.04861557 23.9332439 406.04861557 23.9332439 406.05621338 25.6510191 C406.07080818 29.36101171 406.07763164 33.07096161 406.0831604 36.7809782 C406.08891289 39.36020693 406.09467062 41.93943565 406.10043335 44.51866436 C406.10959354 49.23419702 406.11589774 53.94971261 406.1189301 58.66525263 C406.12341281 65.59686031 406.14097722 72.52827099 406.1699307 79.45981878 C406.19417504 85.4735426 406.20187541 91.48717337 406.20360565 97.50095081 C406.20663361 100.05542926 406.2146669 102.60990684 406.22779083 105.16435337 C406.24483424 108.73585135 406.24297523 112.30686823 406.23648071 115.87839031 C406.2456955 116.9336491 406.25491028 117.98890789 406.2644043 119.07614422 C406.23351653 124.49515988 406.01228814 128.47958335 402.8800354 133.12863445 C399.3943841 134.91143317 394.99062636 134.23857083 391.1300354 134.19113445 C390.43265259 134.18662273 389.73526978 134.18211102 389.01675415 134.17746258 C387.30447737 134.16573465 385.59224507 134.14780098 383.8800354 134.12863445 C383.89743774 135.18050945 383.89743774 135.18050945 383.91519165 136.25363445 C384.05831752 151.30229717 384.05831752 151.30229717 381.6300354 155.06613445 C377.62142669 157.4999326 372.95072021 157.25320012 368.39266491 157.25168228 C366.41309694 157.25466885 366.41309694 157.25466885 364.3935377 157.25771576 C362.93047454 157.25486285 361.46741156 157.25191726 360.00434875 157.24888897 C358.44910836 157.24932501 356.89386804 157.25020054 355.33862811 157.25147814 C351.06292373 157.25371654 346.78724435 157.24971072 342.51154315 157.24470007 C337.90149935 157.24038641 333.29145699 157.24184265 328.68141174 157.24260235 C320.69351047 157.243127 312.70561735 157.23998632 304.71771812 157.23436451 C293.16851986 157.22624158 281.61932554 157.22363347 270.07012472 157.22237652 C251.33284987 157.22018725 232.59557937 157.21353054 213.85830688 157.20407391 C195.65550763 157.19489656 177.45270955 157.1878173 159.24990845 157.18356609 C158.12811173 157.18330337 157.00631501 157.18304065 155.85052445 157.18276996 C150.22286684 157.18146494 144.59520922 157.18020122 138.96755159 157.17895806 C92.27170985 157.16858934 45.57587285 157.15097441 -1.1199646 157.12863445 C-1.10038696 158.46341839 -1.10038696 158.46341839 -1.08041382 159.82516766 C-1.07026245 160.99394451 -1.06011108 162.16272137 -1.0496521 163.3669157 C-1.03007446 165.10388714 -1.03007446 165.10388714 -1.01010132 166.87594891 C-1.15676466 171.21816166 -1.7102796 173.51410695 -4.1199646 177.12863445 C-9.62557498 179.72528376 -15.46048688 179.57980352 -21.4324646 179.75363445 C-22.54154175 179.79158123 -23.6506189 179.82952801 -24.79330444 179.86862469 C-39.56395225 180.31569783 -54.34456508 180.21824081 -69.1199646 180.12863445 C-69.17765015 180.88209148 -69.23533569 181.63554852 -69.29476929 182.41183758 C-69.37630249 183.40119305 -69.45783569 184.39054852 -69.5418396 185.40988445 C-69.65930542 186.8803825 -69.65930542 186.8803825 -69.77914429 188.38058758 C-70.21172531 191.86850452 -71.10335609 194.24776515 -73.1199646 197.12863445 C-84.14170602 205.1379313 -103.66090498 202.3684314 -116.6199646 202.25363445 C-118.61865798 202.24357446 -120.61735632 202.234454 -122.61605835 202.2262907 C-127.45081915 202.2045397 -132.28533505 202.17018005 -137.1199646 202.12863445 C-137.17910034 202.8762907 -137.23823608 203.62394695 -137.29916382 204.39425945 C-137.42315552 205.87152508 -137.42315552 205.87152508 -137.5496521 207.37863445 C-137.66929321 208.84043133 -137.66929321 208.84043133 -137.79135132 210.33175945 C-138.25958984 214.31700497 -138.97850436 216.70229806 -141.1199646 220.12863445 C-146.64676189 223.10072727 -151.7915672 223.83772334 -157.9949646 224.31613445 C-158.95861938 224.39653973 -159.92227417 224.476945 -160.91513062 224.5597868 C-175.28134815 225.60805689 -189.72653833 225.30009468 -204.1199646 225.12863445 C-204.17765015 226.02429119 -204.23533569 226.91994793 -204.29476929 227.84274578 C-204.37630249 229.01603436 -204.45783569 230.18932293 -204.5418396 231.3981657 C-204.62015015 232.56194744 -204.69846069 233.72572918 -204.77914429 234.92477703 C-205.17352865 238.63215955 -205.85731037 241.13869851 -208.1199646 244.12863445 C-215.12180165 248.32973668 -225.18116678 247.26413196 -233.0574646 247.2262907 C-234.17814331 247.22487576 -235.29882202 247.22346081 -236.45346069 247.22200298 C-240.00898993 247.21643584 -243.56445462 247.20388943 -247.1199646 247.19113445 C-249.5405366 247.18611521 -251.9611096 247.18155304 -254.38168335 247.17746258 C-260.29446554 247.16647718 -266.20721045 247.14977197 -272.1199646 247.12863445 C-272.09676147 247.99746258 -272.07355835 248.8662907 -272.0496521 249.76144695 C-272.02258179 251.49007977 -272.02258179 251.49007977 -271.9949646 253.25363445 C-271.97176147 254.39058758 -271.94855835 255.5275407 -271.9246521 256.69894695 C-272.18134335 261.20644532 -272.68358792 264.71207638 -275.97787476 267.96090984 C-283.71603228 272.17923757 -295.13199045 270.2454136 -303.7449646 270.19113445 C-305.14470257 270.18610643 -306.5444423 270.18154584 -307.94418335 270.17746258 C-311.33615629 270.16576612 -314.72803693 270.14937531 -318.1199646 270.12863445 C-318.10618774 270.8762907 -318.09241089 271.62394695 -318.07821655 272.39425945 C-318.06750122 273.3791032 -318.05678589 274.36394695 -318.04574585 275.37863445 C-318.03196899 276.3531657 -318.01819214 277.32769695 -318.0039978 278.33175945 C-318.17203861 282.38454987 -319.0194254 284.65187991 -321.1199646 288.12863445 C-327.40403161 293.36535696 -337.16673657 292.40869162 -344.9324646 292.69113445 C-346.0550769 292.73359295 -347.17768921 292.77605145 -348.33432007 292.81979656 C-360.59544839 293.24291702 -372.8533819 293.22724042 -385.1199646 293.12863445 C-385.09676147 294.08125164 -385.07355835 295.03386883 -385.0496521 296.0153532 C-385.02258179 297.89673992 -385.02258179 297.89673992 -384.9949646 299.81613445 C-384.97176147 301.05750164 -384.94855835 302.29886883 -384.9246521 303.5778532 C-385.17312042 308.09500733 -385.90618745 310.9148573 -389.1199646 314.12863445 C-393.2572618 315.06486009 -397.2293931 315.25248044 -401.46014404 315.24888897 C-402.71368683 315.25026363 -403.96722961 315.2516383 -405.25875854 315.25305462 C-406.63485742 315.24951619 -408.01095605 315.24588139 -409.38705444 315.24215984 C-410.84604897 315.24187756 -412.30504364 315.24203651 -413.76403809 315.24260235 C-417.71398255 315.24288873 -421.66389651 315.23701776 -425.6138339 315.23002839 C-429.74580956 315.22376831 -433.87778596 315.22318895 -438.00976562 315.22200298 C-445.82941811 315.21889749 -453.64905659 315.21069465 -461.46870291 315.20065349 C-470.37314471 315.18946807 -479.27758718 315.18397578 -488.18203425 315.17895806 C-506.49468564 315.16851138 -524.80732399 315.15092709 -543.1199646 315.12863445 C-543.10800049 316.24141766 -543.10800049 316.24141766 -543.09579468 317.37668133 C-543.08959106 318.35701336 -543.08338745 319.33734539 -543.07699585 320.34738445 C-543.06503174 321.80048016 -543.06503174 321.80048016 -543.05282593 323.28293133 C-543.14810249 327.32127154 -543.69559151 330.33030622 -545.1199646 334.12863445 C-549.16520436 337.42671239 -552.92143082 337.50314911 -557.9324646 337.31613445 C-558.62533569 337.3025993 -559.31820679 337.28906414 -560.03207397 337.27511883 C-561.72837725 337.2400229 -563.42427596 337.18622388 -565.1199646 337.12863445 C-565.13978394 337.68849041 -565.15960327 338.24834637 -565.18002319 338.82516766 C-565.27534243 341.36429299 -565.38499213 343.90260333 -565.4949646 346.44113445 C-565.5259021 347.32220867 -565.5568396 348.20328289 -565.5887146 349.11105633 C-565.62738647 349.95861492 -565.66605835 350.80617352 -565.7059021 351.6794157 C-565.75303345 352.84984417 -565.75303345 352.84984417 -565.80111694 354.04391766 C-566.1199646 356.12863445 -566.1199646 356.12863445 -568.1199646 359.12863445 C-570.82712702 360.03102193 -572.35773228 360.24714748 -575.13168335 360.2262907 C-575.88900757 360.22306805 -576.64633179 360.21984539 -577.42660522 360.21652508 C-578.21228882 360.20814617 -578.99797241 360.19976727 -579.8074646 360.19113445 C-580.60474976 360.18662273 -581.40203491 360.18211102 -582.22348022 360.17746258 C-584.18900717 360.16569296 -586.15449545 360.14775794 -588.1199646 360.12863445 C-588.09676147 361.05804852 -588.07355835 361.98746258 -588.0496521 362.9450407 C-587.87040397 375.22353779 -587.87040397 375.22353779 -590.1199646 381.12863445 C-597.55655648 383.14533734 -604.43600917 383.34240756 -612.1199646 383.12863445 C-612.08515991 383.68550945 -612.05035522 384.24238445 -612.01449585 384.81613445 C-611.82252447 390.22789896 -612.04414393 395.48865924 -615.1199646 400.12863445 C-624.72132957 406.89961625 -638.82686389 405.45043811 -650.1434021 405.54269695 C-651.62555955 405.56146702 -653.10770698 405.58104445 -654.58984375 405.60138226 C-658.43980924 405.65209431 -662.28980915 405.69204044 -666.1399231 405.72952557 C-670.08908163 405.76995365 -674.03810463 405.82086616 -677.9871521 405.87082195 C-685.69799567 405.96685688 -693.40890643 406.0514864 -701.1199646 406.12863445 C-701.4499646 409.75863445 -701.7799646 413.38863445 -702.1199646 417.12863445 C-1051.9199646 417.12863445 -1401.7199646 417.12863445 -1762.1199646 417.12863445 C-1762.4499646 413.49863445 -1762.7799646 409.86863445 -1763.1199646 406.12863445 C-1764.37953979 406.10881512 -1765.63911499 406.08899578 -1766.93685913 406.06857586 C-1771.67466998 405.99167243 -1776.41220698 405.90309658 -1781.14974976 405.81125164 C-1783.18810564 405.7733078 -1785.22652065 405.73839931 -1787.26498413 405.70675945 C-1818.82852228 405.21091595 -1818.82852228 405.21091595 -1826.1199646 400.12863445 C-1829.51156626 395.01229337 -1829.49027833 389.05365407 -1829.1199646 383.12863445 C-1829.79801147 383.15183758 -1830.47605835 383.1750407 -1831.1746521 383.19894695 C-1837.63670377 383.32424989 -1843.91195034 383.09673291 -1850.1199646 381.12863445 C-1853.26063705 377.987962 -1853.09817914 374.9207539 -1853.21762085 370.5778532 C-1853.20601929 369.33648602 -1853.19441772 368.09511883 -1853.1824646 366.81613445 C-1853.17344116 365.56187664 -1853.16441772 364.30761883 -1853.15512085 363.0153532 C-1853.13771851 361.58642742 -1853.13771851 361.58642742 -1853.1199646 360.12863445 C-1854.14476929 360.15183758 -1855.16957397 360.1750407 -1856.22543335 360.19894695 C-1857.58610311 360.21771481 -1858.9467808 360.23591392 -1860.3074646 360.25363445 C-1860.98099976 360.27039227 -1861.65453491 360.28715008 -1862.34848022 360.3044157 C-1866.39045538 360.34384961 -1869.55471921 360.0970149 -1873.1199646 358.12863445 C-1877.14337055 352.09352552 -1876.24967476 344.16180757 -1876.1199646 337.12863445 C-1876.73742554 337.16343914 -1877.35488647 337.19824383 -1877.99105835 337.2341032 C-1883.96463983 337.4250396 -1889.82233831 337.18847033 -1895.1199646 334.12863445 C-1898.70474711 329.08163802 -1898.25772736 321.82881675 -1898.43637085 315.8825407 C-1898.45715195 315.22656399 -1898.47793304 314.57058727 -1898.49934387 313.89473248 C-1898.56402398 311.826959 -1898.62333926 309.75907344 -1898.6824646 307.69113445 C-1898.72572767 306.27771203 -1898.76934425 304.86430038 -1898.81332397 303.45090008 C-1898.91961976 300.01025975 -1899.02110932 296.56949753 -1899.1199646 293.12863445 C-1900.22251587 293.07111004 -1901.32506714 293.01358562 -1902.46102905 292.95431805 C-1903.73035278 292.88809246 -1904.99967651 292.82186687 -1906.3074646 292.75363445 C-1907.41384277 292.70263592 -1907.41384277 292.70263592 -1908.54257202 292.65060711 C-1912.41732732 292.41932529 -1915.72806253 292.07771251 -1919.1199646 290.12863445 C-1922.32391028 284.09926833 -1921.32089892 275.72597788 -1921.1199646 269.12863445 C-1922.01199585 269.00746258 -1922.9040271 268.8862907 -1923.8230896 268.76144695 C-1924.99355835 268.59386883 -1926.1640271 268.4262907 -1927.3699646 268.25363445 C-1929.11019897 268.01000164 -1929.11019897 268.01000164 -1930.8855896 267.76144695 C-1935.07712278 266.94136437 -1937.31301799 266.30801796 -1939.7449646 262.75363445 C-1944.28730156 250.77838247 -1944.37751994 236.8060807 -1944.1199646 224.12863445 C-1945.06098022 224.16343914 -1946.00199585 224.19824383 -1946.9715271 224.2341032 C-1948.21676147 224.26117352 -1949.46199585 224.28824383 -1950.7449646 224.31613445 C-1951.97473022 224.35093914 -1953.20449585 224.38574383 -1954.4715271 224.4216032 C-1958.62120963 224.08838458 -1960.80678991 223.67909884 -1964.1199646 221.12863445 C-1967.14756616 213.04061314 -1966.3447646 204.09526872 -1966.2449646 195.56613445 C-1966.23491383 194.06548939 -1966.22579169 192.5648378 -1966.21762085 191.06418133 C-1966.19577551 187.41886164 -1966.1613615 183.77379069 -1966.1199646 180.12863445 C-1967.99941772 180.07256023 -1967.99941772 180.07256023 -1969.9168396 180.0153532 C-1971.56791081 179.9496856 -1973.21895115 179.88323853 -1974.8699646 179.81613445 C-1975.6949646 179.79357586 -1976.5199646 179.77101727 -1977.3699646 179.74777508 C-1980.929036 179.58991304 -1983.47970205 179.47247915 -1986.6512146 177.76925945 C-1990.97811356 172.93602125 -1989.20904648 163.15650849 -1989.1199646 157.12863445 C-1990.44060913 157.05515789 -1990.44060913 157.05515789 -1991.78793335 156.98019695 C-1992.94937866 156.90543133 -1994.11082397 156.8306657 -1995.3074646 156.75363445 C-1996.45601929 156.68402508 -1997.60457397 156.6144157 -1998.78793335 156.54269695 C-2001.95588898 156.14902369 -2004.28118437 155.56072037 -2007.1199646 154.12863445 C-2011.55775976 148.42289782 -2011.27758745 141.74527699 -2011.28793335 134.80050945 C-2011.29292595 133.61693859 -2011.29292595 133.61693859 -2011.29801941 132.40945721 C-2011.30306238 130.74538025 -2011.30542855 129.08129326 -2011.30526733 127.41720867 C-2011.30744587 124.90027024 -2011.32560761 122.38377632 -2011.34457397 119.8669157 C-2011.42093079 99.68368174 -2011.42093079 99.68368174 -2007.4715271 93.58175945 C-2004.27396914 91.60585985 -2001.16120161 91.2157597 -1997.4949646 90.87863445 C-1996.4740271 90.76261883 -1996.4740271 90.76261883 -1995.4324646 90.64425945 C-1992.99121465 90.37408159 -1990.57784062 90.12863445 -1988.1199646 90.12863445 C-1988.08258179 89.24820477 -1988.04519897 88.36777508 -1988.00668335 87.4606657 C-1987.94094116 86.29922039 -1987.87519897 85.13777508 -1987.8074646 83.94113445 C-1987.74945679 82.79257977 -1987.69144897 81.64402508 -1987.63168335 80.4606657 C-1986.93529631 75.92617606 -1985.4896075 73.19391226 -1981.8699646 70.37863445 C-1975.53511841 67.49915891 -1968.43680804 67.9862004 -1961.61082709 68.00213462 C-1960.55788544 68.00060807 -1959.5049438 67.99908153 -1958.42009483 67.99750872 C-1954.87325815 67.99359564 -1951.32646376 67.99683012 -1947.77962685 68 C-1945.20752261 67.998654 -1942.63541858 67.99687049 -1940.06331491 67.99468777 C-1934.44383378 67.99063365 -1928.8243619 67.9903083 -1923.20487984 67.99239371 C-1914.79226512 67.99549855 -1906.37965891 67.99285762 -1897.96704481 67.989095 C-1883.63024775 67.98285483 -1869.29345371 67.98138984 -1854.9566555 67.98251247 C-1840.42399562 67.98363612 -1825.89133831 67.98260565 -1811.35867882 67.97894001 C-1810.44142133 67.97871036 -1809.52416385 67.9784807 -1808.57911068 67.97824409 C-1804.84337567 67.97730247 -1801.10764067 67.97634679 -1797.37190568 67.9753729 C-1758.38062389 67.96522292 -1719.38934353 67.96216672 -1680.39806058 67.96158079 C-1676.1998094 67.96151604 -1672.00155823 67.96144811 -1667.80330706 67.96137738 C-1666.76153634 67.96136038 -1665.71976562 67.96134337 -1664.64642609 67.96132585 C-1641.57267958 67.9609176 -1618.49893334 67.95872833 -1595.42518698 67.95622154 C-1585.9277182 67.9551932 -1576.43024941 67.95420318 -1566.93278062 67.95320529 C-1565.35875713 67.9530394 -1565.35875713 67.9530394 -1563.75293517 67.95287017 C-1503.61144183 67.94654514 -1443.46994866 67.94242116 -1383.32845497 67.94287872 C-1381.07722708 67.9428945 -1378.82599919 67.94291024 -1376.5747713 67.94292593 C-1366.41037797 67.94299932 -1356.24598465 67.94308749 -1346.08159133 67.94317982 C-1341.54891057 67.94322094 -1337.01622981 67.94326109 -1332.48354905 67.94330113 C-1330.21485967 67.94332152 -1327.94617028 67.94334254 -1325.67748089 67.94336419 C-1253.92490825 67.94404457 -1182.17234054 67.93672517 -1110.41976929 67.92282391 C-1092.33963332 67.919323 -1074.25949735 67.91585359 -1056.17936134 67.91255951 C-1054.50954946 67.9122552 -1054.50954946 67.9122552 -1052.806004 67.91194474 C-1018.50704417 67.90573173 -984.20808475 67.90196457 -949.90912437 67.90070152 C-948.83259588 67.90066157 -947.75606739 67.90062162 -946.64691682 67.90058046 C-923.0168643 67.89972727 -899.38681182 67.89946596 -875.75675929 67.89975084 C-867.30195559 67.89984732 -858.84715188 67.89989937 -850.39234817 67.89992957 C-848.28894334 67.89993748 -846.18553851 67.89994768 -844.08213367 67.89996019 C-810.54021516 67.90013665 -776.99830087 67.89443301 -743.45638357 67.88580637 C-709.682557 67.87716423 -675.90873627 67.8749585 -642.13490906 67.8815677 C-637.47129022 67.88248003 -632.80767137 67.8833233 -628.14405251 67.88412571 C-626.77271769 67.88436584 -626.77271769 67.88436584 -625.37367915 67.88461082 C-610.87896639 67.88696679 -596.38426372 67.88259942 -581.88955286 67.87545452 C-567.64794961 67.86857435 -553.4063613 67.86879539 -539.16475839 67.87664666 C-530.80838394 67.88103931 -522.45205343 67.87992971 -514.09568259 67.87077987 C-507.90188156 67.86460552 -501.70812908 67.86879448 -495.51433147 67.87711317 C-493.01678581 67.87884219 -490.51923506 67.87718127 -488.02169457 67.87181197 C-484.64098216 67.86502768 -481.26050369 67.87050362 -477.87980044 67.87908679 C-476.42664642 67.87173736 -476.42664642 67.87173736 -474.94413575 67.86423946 C-460.72369266 67.93973618 -460.72369266 67.93973618 -456.41468076 71.56222997 C-454.72348121 73.60831747 -454.40502667 75.27752359 -453.9324646 77.87863445 C-453.77390991 78.6984782 -453.61535522 79.51832195 -453.45199585 80.36300945 C-453.06374912 83.59687636 -453.1199646 86.87154515 -453.1199646 90.12863445 C-407.5799646 90.12863445 -362.0399646 90.12863445 -315.1199646 90.12863445 C-315.1199646 86.49863445 -315.1199646 82.86863445 -315.1199646 79.12863445 C-313.92501417 75.10353828 -313.08910766 72.93625367 -309.8699646 70.25363445 C-302.59264922 67.27655089 -294.16782018 67.80052458 -286.4324646 67.56613445 C-285.76319946 67.54495556 -285.09393433 67.52377666 -284.40438843 67.50195599 C-264.31641125 66.88132937 -244.21476711 67.0383301 -224.1199646 67.12863445 C-224.06227905 66.44663982 -224.00459351 65.7646452 -223.94515991 65.06198406 C-223.86362671 64.16487713 -223.78209351 63.2677702 -223.6980896 62.3434782 C-223.61977905 61.45523357 -223.54146851 60.56698895 -223.46078491 59.65182781 C-223.00505477 56.2779231 -222.03776435 53.93684124 -220.1199646 51.12863445 C-206.46268847 40.95910357 -181.74298092 44.76360616 -165.46939087 44.9226408 C-161.92198197 44.9538896 -158.37450407 44.96714849 -154.82699585 44.98215008 C-147.92448935 45.01387582 -141.02224679 45.06475305 -134.1199646 45.12863445 C-134.1348291 43.47384075 -134.1348291 43.47384075 -134.1499939 41.78561687 C-134.1241257 38.6353749 -133.89336851 36.39817026 -132.9324646 33.44113445 C-132.71203491 32.71539227 -132.49160522 31.98965008 -132.26449585 31.2419157 C-130.25366792 27.52909006 -127.5037666 25.54603684 -123.49105835 24.3356657 C-102.07036083 21.45485285 -80.3969609 22.00016942 -58.83377075 22.0599699 C-54.68308021 22.07035511 -50.53238325 22.07479948 -46.38168335 22.07980633 C-38.29442657 22.09040585 -30.20720039 22.1073837 -22.1199646 22.12863445 C-22.06389038 20.69970867 -22.06389038 20.69970867 -22.00668335 19.2419157 C-21.94094116 17.98765789 -21.87519897 16.73340008 -21.8074646 15.44113445 C-21.74945679 14.19976727 -21.69144897 12.95840008 -21.63168335 11.6794157 C-21.10638726 8.03442225 -20.28787325 6.06423146 -18.1199646 3.12863445 C-13.08714429 -0.4662372 -5.93331119 0.00344075 0 0 Z M-2.1199646 67.12863445 C-3.45614372 71.78823396 -3.45614372 71.78823396 -4.7605896 76.45675945 C-4.96168335 77.0909782 -5.1627771 77.72519695 -5.3699646 78.37863445 C-5.56074585 79.0231657 -5.7515271 79.66769695 -5.9480896 80.33175945 C-8.39115494 84.07779298 -12.7903106 85.04834242 -16.94329834 86.05986309 C-18.37642544 86.31600663 -19.81238163 86.55666373 -21.25033569 86.78415203 C-22.03385595 86.9103357 -22.81737621 87.03651937 -23.62463951 87.16652679 C-32.74406307 88.52186425 -41.83197154 88.60781885 -51.0340271 88.6403532 C-52.86919307 88.65725458 -54.70434785 88.67541184 -56.53948975 88.69475079 C-61.30348202 88.74166554 -66.06742899 88.77184944 -70.83157349 88.79819012 C-75.71946165 88.8282959 -80.6071942 88.87472057 -85.4949646 88.91965008 C-95.03654886 89.00501465 -104.57816577 89.07265208 -114.1199646 89.12863445 C-114.25273804 90.2372282 -114.38551147 91.34582195 -114.52230835 92.48800945 C-114.70056217 93.95156715 -114.87895488 95.41510794 -115.0574646 96.87863445 C-115.14447632 97.60824383 -115.23148804 98.3378532 -115.32113647 99.08957195 C-115.74023869 102.50447887 -116.2372386 105.80466988 -117.1199646 109.12863445 C-134.55808657 111.42653501 -151.99614992 111.55557687 -169.5519104 111.72952557 C-173.46139374 111.77018609 -177.37074559 111.82098817 -181.28012085 111.87082195 C-188.89331045 111.96643204 -196.5065662 112.05118685 -204.1199646 112.12863445 C-204.24113647 113.1650407 -204.36230835 114.20144695 -204.4871521 115.26925945 C-204.65603641 116.63909883 -204.82532871 118.00888795 -204.9949646 119.37863445 C-205.07359741 120.06054852 -205.15223022 120.74246258 -205.23324585 121.4450407 C-206.08706565 128.20992064 -206.08706565 128.20992064 -208.1199646 131.12863445 C-214.2463938 133.74694926 -220.63707313 133.45787448 -227.20980835 133.5075407 C-228.97403893 133.53303242 -228.97403893 133.53303242 -230.77391052 133.55903912 C-234.53504048 133.61197778 -238.29616538 133.65224861 -242.0574646 133.69113445 C-246.96248144 133.75019216 -251.86740399 133.81481027 -256.77230835 133.8825407 C-257.96955536 133.89846264 -259.16680237 133.91438457 -260.40032959 133.93078899 C-271.98365549 134.10380921 -283.54970277 134.56501506 -295.1199646 135.12863445 C-295.34047485 136.08737469 -295.56098511 137.04611492 -295.78817749 138.03390789 C-298.20032174 148.5214916 -298.20032174 148.5214916 -299.1199646 152.12863445 C-305.66114281 154.13257922 -312.04331753 155.37104103 -318.87753296 155.70651531 C-319.61100669 155.74579867 -320.34448042 155.78508204 -321.10018063 155.8255558 C-329.74972277 156.25738341 -338.40282542 156.35726646 -347.06137085 156.4450407 C-348.80827745 156.46568461 -350.5551799 156.48668256 -352.30207825 156.50801373 C-356.83757095 156.56246863 -361.37310276 156.61220615 -365.90866089 156.66086102 C-370.56181196 156.71164575 -375.21490822 156.76703033 -379.86801147 156.82199383 C-388.95194873 156.92863443 -398.03593414 157.03027678 -407.1199646 157.12863445 C-407.1199646 157.78863445 -407.1199646 158.44863445 -407.1199646 159.12863445 C-406.23953491 159.28718914 -405.35910522 159.44574383 -404.45199585 159.6091032 C-395.07310201 161.49320951 -395.07310201 161.49320951 -390.9324646 164.25363445 C-386.52644368 171.24249522 -386.80708839 179.66921613 -386.74105835 187.69113445 C-386.72406387 188.76363445 -386.7070694 189.83613445 -386.68955994 190.94113445 C-386.63679504 194.33690941 -386.59625768 197.73267345 -386.5574646 201.12863445 C-386.51354885 204.55310282 -386.46696224 207.97747703 -386.41465759 211.40182781 C-386.38266121 213.52626691 -386.35578346 215.65079027 -386.33442688 217.77536297 C-386.32093704 218.72725506 -386.3074472 219.67914715 -386.29354858 220.65988445 C-386.28403671 221.50099773 -386.27452484 222.34211102 -386.26472473 223.20871258 C-386.3291504 225.13676236 -386.3291504 225.13676236 -385.1199646 226.12863445 C-369.83943456 226.85424621 -354.38931814 225.71453882 -339.1199646 225.12863445 C-338.98719116 224.0200407 -338.85441772 222.91144695 -338.71762085 221.76925945 C-338.53936703 220.30570175 -338.36097432 218.84216096 -338.1824646 217.37863445 C-338.09545288 216.64902508 -338.00844116 215.9194157 -337.91879272 215.16769695 C-337.49969051 211.75279003 -337.0026906 208.45259902 -336.1199646 205.12863445 C-330.61928228 204.36795939 -325.23119278 203.94026094 -319.6824646 203.8122282 C-318.91692261 203.79144711 -318.15138062 203.77066601 -317.36264038 203.74925518 C-314.9484948 203.68455309 -312.53425279 203.62524904 -310.1199646 203.56613445 C-308.47021557 203.5228735 -306.82047582 203.47925698 -305.17074585 203.43527508 C-301.15391427 203.32895476 -297.13698701 203.227471 -293.1199646 203.12863445 C-292.96140991 201.93625164 -292.80285522 200.74386883 -292.63949585 199.5153532 C-292.40497785 197.948773 -292.1692367 196.38237556 -291.9324646 194.81613445 C-291.83127319 194.03045086 -291.73008179 193.24476727 -291.62582397 192.43527508 C-290.71327297 186.63934302 -290.71327297 186.63934302 -287.81918335 184.1481657 C-282.78186029 182.24550099 -277.87320337 181.88717455 -272.53012085 181.6012907 C-271.79197647 181.55996517 -271.05383209 181.51863964 -270.2933197 181.47606182 C-261.38671732 181.00159681 -252.47335083 180.78187689 -243.5574646 180.56613445 C-241.8523799 180.52277246 -240.14730171 180.47915379 -238.44223022 180.43527508 C-234.33487692 180.33011905 -230.22745273 180.22837903 -226.1199646 180.12863445 C-224.42568227 176.7400698 -224.71734379 172.91353334 -224.49887085 169.1716032 C-223.82102233 163.72785067 -223.82102233 163.72785067 -222.1199646 161.12863445 C-215.18451943 158.77100678 -208.35944328 158.78552732 -201.0887146 158.71457195 C-199.85705566 158.6952058 -198.62539673 158.67583965 -197.35641479 158.65588665 C-193.44433394 158.59637658 -189.5322232 158.5498195 -185.6199646 158.50363445 C-182.95847507 158.46648045 -180.29704014 158.42637526 -177.6355896 158.38644695 C-171.13048839 158.2906985 -164.62531408 158.20556811 -158.1199646 158.12863445 C-158.02199585 156.9478532 -157.9240271 155.76707195 -157.8230896 154.55050945 C-157.67298051 152.99312762 -157.52188713 151.43584043 -157.3699646 149.87863445 C-157.3080896 149.10132977 -157.2462146 148.32402508 -157.1824646 147.5231657 C-156.83105438 144.09691605 -156.42005092 141.64168526 -154.6668396 138.64425945 C-150.6628026 136.26148897 -146.70897702 136.29298047 -142.1199646 136.12863445 C-141.16402405 136.09148327 -140.2080835 136.05433208 -139.22317505 136.01605511 C-136.07154926 135.91900979 -132.92113682 135.86075363 -129.7684021 135.8122282 C-128.62835724 135.79144711 -127.48831238 135.77066601 -126.3137207 135.74925518 C-122.70752407 135.68439085 -119.10126086 135.62517111 -115.4949646 135.56613445 C-113.03532257 135.52288907 -110.57568703 135.47927296 -108.11605835 135.43527508 C-102.11742878 135.32877511 -96.11873446 135.22689704 -90.1199646 135.12863445 C-89.97301147 133.46574383 -89.97301147 133.46574383 -89.8230896 131.76925945 C-89.672973 130.30562261 -89.52187995 128.84208569 -89.3699646 127.37863445 C-89.3080896 126.64902508 -89.2462146 125.9194157 -89.1824646 125.16769695 C-88.81318847 121.7826658 -88.35944599 119.46136524 -86.3543396 116.67550945 C-81.85433203 113.56011959 -76.51425537 113.94129532 -71.20858765 113.83151531 C-70.42757187 113.81186214 -69.64655609 113.79220898 -68.84187317 113.77196026 C-66.27189164 113.70831811 -63.70181154 113.6508641 -61.13168335 113.5934782 C-59.34520052 113.55044883 -57.55872698 113.50703218 -55.77226257 113.46324444 C-51.07882099 113.34924328 -46.38527189 113.24049567 -41.69168091 113.13284588 C-36.89881914 113.02198781 -32.10607786 112.90615583 -27.31332397 112.79074383 C-17.9156487 112.56517568 -8.51785231 112.34515804 0.8800354 112.12863445 C1.04439087 110.44834148 1.04439087 110.44834148 1.21206665 108.7341032 C1.37153434 107.26137223 1.53172857 105.78871981 1.6925354 104.31613445 C1.76278931 103.57814617 1.83304321 102.84015789 1.90542603 102.07980633 C2.52305357 96.61997881 2.52305357 96.61997881 4.08894849 94.46470487 C10.71898288 89.5189969 22.77878849 90.83662455 30.67428589 90.85016155 C31.90552114 90.84436915 33.1367564 90.83857675 34.40530181 90.83260882 C37.78732136 90.8186474 41.16914299 90.81338644 44.55117679 90.81196022 C48.21155537 90.80823994 51.87188956 90.79307165 55.53224182 90.77934551 C61.86228207 90.75715081 68.19230637 90.74209088 74.52237701 90.73197842 C83.67441238 90.71734732 92.82639213 90.69179827 101.97839472 90.66364713 C116.82954532 90.61825935 131.68070398 90.58161154 146.53189087 90.55050945 C160.95215262 90.520291 175.37239473 90.48592566 189.79263306 90.44601727 C190.68259205 90.44355572 191.57255105 90.44109417 192.4894785 90.43855803 C196.95446838 90.42618279 201.41945803 90.41372638 205.88444757 90.40122962 C242.88295032 90.2977819 279.88147602 90.20908135 316.8800354 90.12863445 C316.8800354 82.20863445 316.8800354 74.28863445 316.8800354 66.12863445 C289.01947366 66.10506435 261.15891447 66.0874317 233.29834461 66.07682228 C220.35006676 66.07175613 207.40179543 66.06488142 194.45352173 66.053195 C179.43553718 66.0399056 164.41755731 66.03176281 149.39956665 66.0309782 C148.16769198 66.03091384 146.93581731 66.03084949 145.6666131 66.03078318 C96.3997509 66.03230144 47.14195908 66.45146003 -2.1199646 67.12863445 Z M-1899.1199646 179.12863445 C-1900.39487676 181.67845878 -1900.14593076 183.29328869 -1899.99887085 186.13644695 C-1899.95053101 187.12257977 -1899.90219116 188.10871258 -1899.85238647 189.1247282 C-1899.79631226 190.15726727 -1899.74023804 191.18980633 -1899.6824646 192.25363445 C-1899.63025757 193.29390789 -1899.57805054 194.33418133 -1899.52426147 195.4059782 C-1899.39435514 197.98048561 -1899.25938208 200.55462741 -1899.1199646 203.12863445 C-1898.17894897 203.17761883 -1897.23793335 203.2266032 -1896.2684021 203.27707195 C-1894.40055054 203.38922039 -1894.40055054 203.38922039 -1892.4949646 203.50363445 C-1891.26519897 203.57324383 -1890.03543335 203.6428532 -1888.7684021 203.71457195 C-1885.23896129 204.11512948 -1882.36793027 204.69484781 -1879.1199646 206.12863445 C-1877.98527877 209.53269195 -1877.83038137 212.48529195 -1877.6199646 216.06613445 C-1877.30849177 221.66927978 -1877.30849177 221.66927978 -1876.1199646 227.12863445 C-1875.23953491 227.21500164 -1874.35910522 227.30136883 -1873.45199585 227.3903532 C-1864.01487985 228.53202428 -1864.01487985 228.53202428 -1859.9324646 231.25363445 C-1854.51865489 239.84105675 -1854.97160684 251.28426971 -1854.5574646 261.12863445 C-1854.51428101 262.09414227 -1854.47109741 263.05965008 -1854.42660522 264.0544157 C-1854.32154747 266.41237871 -1854.21939546 268.77042862 -1854.1199646 271.12863445 C-1853.26273804 271.16601727 -1852.40551147 271.20340008 -1851.52230835 271.2419157 C-1839.53066688 271.93140129 -1839.53066688 271.93140129 -1834.1199646 275.12863445 C-1832.83838761 278.97336541 -1832.77468956 282.71998514 -1832.58480835 286.7341032 C-1832.52034264 287.9929105 -1832.52034264 287.9929105 -1832.45457458 289.27714825 C-1832.31826167 291.95662847 -1832.18779322 294.63635713 -1832.0574646 297.31613445 C-1831.96605259 299.13321115 -1831.87426035 300.95026876 -1831.78207397 302.76730633 C-1831.55695878 307.22087294 -1831.33708464 311.67467119 -1831.1199646 316.12863445 C-1830.55189087 316.14845379 -1829.98381714 316.16827312 -1829.39852905 316.18869305 C-1797.21139616 317.36646947 -1797.21139616 317.36646947 -1791.1199646 323.12863445 C-1789.24731658 326.31213609 -1788.78289876 329.71854942 -1788.0730896 333.30832195 C-1787.89423218 334.21050457 -1787.71537476 335.11268719 -1787.53109741 336.04220867 C-1787.39542358 336.73072918 -1787.25974976 337.41924969 -1787.1199646 338.12863445 C-1785.7287439 338.20380291 -1785.7287439 338.20380291 -1784.30941772 338.28048992 C-1780.83505974 338.47191819 -1777.36123896 338.67030413 -1773.88754272 338.87326336 C-1772.39030237 338.95934501 -1770.89290438 339.04273229 -1769.39535522 339.12326336 C-1767.23016039 339.24018388 -1765.06573693 339.36711203 -1762.9012146 339.49582195 C-1761.60248413 339.56913738 -1760.30375366 339.64245281 -1758.96566772 339.71798992 C-1754.26661346 340.21975537 -1749.30934014 340.82564577 -1745.1902771 343.27707195 C-1743.48127746 346.23351659 -1743.31481586 349.41714683 -1742.9949646 352.75363445 C-1742.89729874 357.31317487 -1742.89729874 357.31317487 -1741.1199646 361.12863445 C-1739.40435341 361.23494477 -1737.6843626 361.27106022 -1735.96548462 361.28012371 C-1734.84589355 361.28846737 -1733.72630249 361.29681103 -1732.57278442 361.30540752 C-1730.7113681 361.31168415 -1730.7113681 361.31168415 -1728.81234741 361.31808758 C-1727.51232788 361.32638088 -1726.21230835 361.33467419 -1724.87289429 361.3432188 C-1722.0273948 361.36135101 -1719.18190146 361.3763447 -1716.33637238 361.38899517 C-1711.77663156 361.40935594 -1707.2169523 361.43702351 -1702.65725708 361.46567059 C-1693.71630422 361.52084088 -1684.775319 361.56861253 -1675.83432007 361.61561108 C-1662.33054238 361.68697447 -1648.82679305 361.76309637 -1635.3230896 361.84738445 C-1634.54739309 361.8522197 -1633.77169659 361.85705494 -1632.97249413 361.86203671 C-1611.59753749 361.99674811 -1590.22638992 362.20641156 -1568.8543396 362.59738445 C-1567.77192238 362.61619167 -1566.68950516 362.63499889 -1565.57428741 362.65437603 C-1529.97031748 363.28759774 -1529.97031748 363.28759774 -1523.1199646 367.12863445 C-1518.35330401 372.13973917 -1518.59198469 375.76853401 -1517.1199646 383.12863445 C-1321.7599646 383.12863445 -1126.3999646 383.12863445 -925.1199646 383.12863445 C-924.1299646 378.83863445 -923.1399646 374.54863445 -922.1199646 370.12863445 C-919.6151611 366.2575745 -917.4803478 365.012573 -913.12020874 364.05221844 C-904.89869618 362.53241325 -896.51195065 362.66644044 -888.17855835 362.5387907 C-886.1537702 362.50175728 -884.12898495 362.46456493 -882.10420227 362.4272337 C-849.89836924 361.87157293 -817.68316776 361.78423559 -785.47356546 361.61122382 C-776.14020478 361.56095314 -766.80687053 361.50637658 -757.47353566 361.45155323 C-738.35570323 361.3393471 -719.23784575 361.23219073 -700.1199646 361.12863445 C-700.02199585 360.0200407 -699.9240271 358.91144695 -699.8230896 357.76925945 C-699.672973 356.30562261 -699.52187995 354.84208569 -699.3699646 353.37863445 C-699.3080896 352.64902508 -699.2462146 351.9194157 -699.1824646 351.16769695 C-698.79817995 347.64508768 -698.38273678 345.45844293 -696.15136719 342.65782452 C-691.98024835 339.51790852 -687.21855261 339.85312863 -682.1590271 339.6012907 C-681.37146027 339.55996517 -680.58389343 339.51863964 -679.77246094 339.47606182 C-670.35155666 339.00535757 -660.92446554 338.78269123 -651.4949646 338.56613445 C-649.69808338 338.52277154 -647.90120832 338.47915286 -646.1043396 338.43527508 C-641.77627945 338.3301296 -637.44815225 338.22838741 -633.1199646 338.12863445 C-633.07508911 337.56354168 -633.03021362 336.99844891 -632.98397827 336.41623211 C-632.77289301 333.8606021 -632.54045505 331.30735655 -632.3074646 328.75363445 C-632.20208374 327.41945477 -632.20208374 327.41945477 -632.09457397 326.05832195 C-632.01400757 325.2075407 -631.93344116 324.35675945 -631.85043335 323.48019695 C-631.78235474 322.69467449 -631.71427612 321.90915203 -631.64413452 321.09982586 C-631.1199646 319.12863445 -631.1199646 319.12863445 -628.1199646 317.12863445 C-626.12704468 316.8097868 -626.12704468 316.8097868 -623.88949585 316.71457195 C-623.08705444 316.67590008 -622.28461304 316.6372282 -621.45785522 316.59738445 C-620.20778687 316.5509782 -620.20778687 316.5509782 -618.9324646 316.50363445 C-618.08748413 316.46496258 -617.24250366 316.4262907 -616.37191772 316.38644695 C-614.28828936 316.29227166 -612.20415707 316.2093677 -610.1199646 316.12863445 C-610.06985229 315.1656242 -610.01973999 314.20261395 -609.96810913 313.21042156 C-609.77866066 309.61115623 -609.57854758 306.01254716 -609.37533569 302.41403484 C-609.28912624 300.8614575 -609.20574522 299.30872025 -609.12533569 297.75583172 C-609.00873176 295.51372529 -608.88170484 293.27240579 -608.7527771 291.0309782 C-608.71935211 290.34527248 -608.68592712 289.65956676 -608.65148926 288.95308208 C-608.37894114 284.44262052 -607.63460512 280.38943629 -606.1199646 276.12863445 C-601.61094797 272.68754281 -596.11595878 272.32733474 -590.63168335 271.55832195 C-588.18794662 271.38919869 -588.18794662 271.38919869 -587.1199646 270.12863445 C-586.88247356 266.54742031 -586.72371618 262.97307146 -586.60238647 259.38644695 C-586.42672627 255.51529382 -586.31198772 253.41666913 -584.1199646 250.12863445 C-580.43551291 248.66362628 -576.29369127 248.79236066 -572.3699646 248.56613445 C-571.67258179 248.52295086 -570.97519897 248.47976727 -570.25668335 248.43527508 C-568.54464537 248.32973849 -566.83232899 248.22873536 -565.1199646 248.12863445 C-565.09490845 247.30250652 -565.06985229 246.47637859 -565.04403687 245.62521648 C-564.94798093 242.51265572 -564.84881438 239.40021274 -564.74765015 236.28781414 C-564.68386476 234.29732796 -564.62355533 232.30673135 -564.56332397 230.31613445 C-564.37847141 224.68524088 -564.18401799 219.05279741 -563.77230835 213.43332195 C-563.71937622 212.6880827 -563.66644409 211.94284344 -563.61190796 211.17502117 C-562.97413354 208.5220062 -562.01360065 207.08717984 -560.1199646 205.12863445 C-558.12704468 204.49093914 -558.12704468 204.49093914 -555.88949585 204.30050945 C-555.08705444 204.2231657 -554.28461304 204.14582195 -553.45785522 204.06613445 C-552.62447632 204.00425945 -551.79109741 203.94238445 -550.9324646 203.87863445 C-549.6649939 203.76261883 -549.6649939 203.76261883 -548.37191772 203.64425945 C-546.28934911 203.45600466 -544.20477753 203.29014901 -542.1199646 203.12863445 C-541.9240955 199.31651542 -541.73966895 195.50392911 -541.5574646 191.69113445 C-541.50139038 190.60252117 -541.44531616 189.51390789 -541.38754272 188.39230633 C-541.33920288 187.35783367 -541.29086304 186.32336102 -541.24105835 185.2575407 C-541.193927 184.2992033 -541.14679565 183.3408659 -541.09823608 182.35348797 C-540.86005242 180.15515744 -540.86005242 180.15515744 -542.1199646 179.12863445 C-545.06936806 179.02910676 -547.99539553 178.99613988 -550.94528681 179.00443596 C-552.36071075 179.00251883 -552.36071075 179.00251883 -553.80472912 179.00056297 C-557.0150973 178.99746317 -560.22541769 179.00158565 -563.43578434 179.00558662 C-565.75121576 179.00484796 -568.06664708 179.00367043 -570.38207808 179.00209013 C-576.12898302 178.99932508 -581.87587347 179.00126634 -587.62277748 179.00509322 C-594.548733 179.00943922 -601.47468414 179.00796493 -608.40064038 179.00628469 C-621.34629665 179.00331231 -634.29194843 179.00509941 -647.23760414 179.00942898 C-660.36501365 179.01380005 -673.49242083 179.01600238 -686.61983109 179.01552677 C-687.8614087 179.01548373 -687.8614087 179.01548373 -689.1280687 179.01543983 C-693.34826423 179.01528346 -697.56845975 179.01509151 -701.78865528 179.01488699 C-732.37129175 179.01347777 -762.95392614 179.0169163 -793.53656197 179.0229044 C-823.83298312 179.02882231 -854.12940339 179.03267857 -884.42582512 179.03375721 C-885.36592966 179.03379162 -886.3060342 179.03382603 -887.27462675 179.03386149 C-895.86074829 179.03417468 -904.44686982 179.03446237 -913.03299136 179.03471946 C-934.37928611 179.03535895 -955.72558084 179.03631832 -977.07187557 179.03749466 C-978.53013953 179.03757464 -978.53013953 179.03757464 -980.01786337 179.03765623 C-1027.33469367 179.04027918 -1074.65152339 179.04658732 -1121.96835327 179.053195 C-1138.39299519 179.05548661 -1154.81763712 179.05776196 -1171.24227905 179.0599699 C-1172.7702189 179.06017533 -1172.7702189 179.06017533 -1174.32902623 179.0603849 C-1221.66238369 179.06672633 -1268.99574125 179.07045371 -1316.32909903 179.0735047 C-1319.40116184 179.07370276 -1322.47322465 179.07390195 -1325.54528746 179.07410138 C-1345.90362154 179.07542113 -1366.26195562 179.07669579 -1386.62028969 179.07794024 C-1427.13000967 179.08041688 -1467.63972962 179.08315857 -1508.14944956 179.08608228 C-1510.07872665 179.08622152 -1512.00800374 179.08636058 -1513.93728083 179.08649945 C-1600.8140123 179.09275434 -1687.69074334 179.10209284 -1774.56747437 179.11276531 C-1775.78796518 179.11291522 -1775.78796518 179.11291522 -1777.03311238 179.11306815 C-1817.72872981 179.11806884 -1858.42434722 179.12324538 -1899.1199646 179.12863445 Z M-463.30355835 179.34738445 C-464.35253296 179.41506023 -464.35253296 179.41506023 -465.42269897 179.4841032 C-466.12717163 179.53179852 -466.83164429 179.57949383 -467.5574646 179.62863445 C-468.28900757 179.67632977 -469.02055054 179.72402508 -469.77426147 179.7731657 C-471.55629548 179.88963851 -473.33815023 180.00884861 -475.1199646 180.12863445 C-475.14502075 180.99029217 -475.1700769 181.85194988 -475.19589233 182.73971844 C-475.29178148 185.97711875 -475.39096246 189.21439785 -475.49227905 192.4516325 C-475.53523814 193.84514794 -475.57693515 195.23870295 -475.61727905 196.63229656 C-476.23240832 217.79730004 -476.23240832 217.79730004 -479.1199646 222.12863445 C-482.80175851 223.35589909 -486.47372749 223.73891479 -490.3074646 224.19113445 C-492.8855896 224.50050945 -495.4637146 224.80988445 -498.1199646 225.12863445 C-498.4499646 232.71863445 -498.7799646 240.30863445 -499.1199646 248.12863445 C-483.2799646 248.12863445 -467.4399646 248.12863445 -451.1199646 248.12863445 C-451.4499646 225.35863445 -451.7799646 202.58863445 -452.1199646 179.12863445 C-457.73130151 179.11394151 -457.73130151 179.11394151 -463.30355835 179.34738445 Z " fill="#060606" transform="translate(2023.1199645996094,11.871365547180176)"/>
<path d="M0 0 C0 9.57 0 19.14 0 29 C-11 28 -11 28 -13 26 C-13.56520003 23.34462628 -13.73788198 20.70855287 -14 18 C-14.33 18 -14.66 18 -15 18 C-15.125 10.25 -15.125 10.25 -14 8 C-13.34 8 -12.68 8 -12 8 C-11.731875 7.401875 -11.46375 6.80375 -11.1875 6.1875 C-9.58251934 3.23095667 -8.23452005 1.42436627 -5 0.3125 C-3 0 -3 0 0 0 Z " fill="#6A6A6A" transform="translate(2429,41)"/>
<path d="M0 0 C0 1.32 0 2.64 0 4 C-1.2375 4.391875 -2.475 4.78375 -3.75 5.1875 C-7.74111083 6.65419797 -9.53652667 8.49428796 -12 12 C-12.66 12 -13.32 12 -14 12 C-14.33 16.62 -14.66 21.24 -15 26 C-20 28 -20 28 -21 28 C-22.22206822 13.86134965 -22.22206822 13.86134965 -19.39453125 9.5546875 C-17.34916163 7.84317746 -15.24598187 6.43270889 -13 5 C-12.175 4.030625 -11.35 3.06125 -10.5 2.0625 C-6.89839125 -0.90882722 -4.5690472 -0.38720739 0 0 Z " fill="#292929" transform="translate(2429,37)"/>
<path d="M0 0 C0 6.27 0 12.54 0 19 C-7 13 -7 13 -10 10 C-8.50006099 6.10015857 -4.53875449 0 0 0 Z " fill="#9E9E9E" transform="translate(2429,47)"/>
<path d="M0 0 C0 0.66 0 1.32 0 2 C-2.00817747 3.81991083 -4.12186339 5.47105205 -6.25 7.1484375 C-8.45792908 9.05988838 -8.45792908 9.05988838 -8 13 C-5.70848923 15.62494782 -5.70848923 15.62494782 -3 18 C-2 19 -1 20 0 21 C-0.33 21.66 -0.66 22.32 -1 23 C-2.32 22.67 -3.64 22.34 -5 22 C-5 21.34 -5 20.68 -5 20 C-5.598125 19.979375 -6.19625 19.95875 -6.8125 19.9375 C-9 19 -9 19 -10.8125 15.75 C-12.49630892 10.43270869 -12.49630892 10.43270869 -11 7 C-7.95366563 3.26255694 -5.15293031 0 0 0 Z " fill="#7D7D7D" transform="translate(2429,45)"/>
<path d="M0 0 C0 0.66 0 1.32 0 2 C-1.2375 2.391875 -2.475 2.78375 -3.75 3.1875 C-7.74111083 4.65419797 -9.53652667 6.49428796 -12 10 C-12.66 10 -13.32 10 -14 10 C-14.33 14.62 -14.66 19.24 -15 24 C-18.00163558 19.49754663 -17.93996309 15.26666339 -17 10 C-14.49009676 5.50098036 -11.45607511 2.68521181 -6.8125 0.5 C-4 0 -4 0 0 0 Z " fill="#414141" transform="translate(2429,39)"/>
<path d="M0 0 C0 0.99 0 1.98 0 3 C-1.0725 3.4125 -2.145 3.825 -3.25 4.25 C-6.54509777 5.6412635 -8.55176356 7.37041272 -11 10 C-11.66 10 -12.32 10 -13 10 C-13.33 12.64 -13.66 15.28 -14 18 C-14.33 18 -14.66 18 -15 18 C-15.125 10.25 -15.125 10.25 -14 8 C-13.34 8 -12.68 8 -12 8 C-11.731875 7.401875 -11.46375 6.80375 -11.1875 6.1875 C-9.58251934 3.23095667 -8.23452005 1.42436627 -5 0.3125 C-3 0 -3 0 0 0 Z " fill="#565656" transform="translate(2429,41)"/>
<path d="M0 0 C0 4.29 0 8.58 0 13 C-4.62222222 8.73333333 -4.62222222 8.73333333 -6.0625 5.9375 C-6 4 -6 4 -4.1875 1.75 C-2 0 -2 0 0 0 Z " fill="#B8B8B8" transform="translate(2429,51)"/>
<path d="M0 0 C0.99 0.495 0.99 0.495 2 1 C2.185625 1.78375 2.37125 2.5675 2.5625 3.375 C4.31472273 6.57471107 5.25006332 6.70864747 8.625 7.8125 C10.07804431 8.22732811 11.53508867 8.62925084 13 9 C13 9.66 13 10.32 13 11 C11.20759337 10.88610125 9.41605165 10.75852313 7.625 10.625 C6.12839844 10.52058594 6.12839844 10.52058594 4.6015625 10.4140625 C2 10 2 10 0 8 C-0.26991906 5.31160615 -0.08737357 2.70858064 0 0 Z " fill="#626262" transform="translate(2416,59)"/>
<path d="M0 0 C0.47050781 0.42152344 0.94101563 0.84304687 1.42578125 1.27734375 C2.35970703 2.09912109 2.35970703 2.09912109 3.3125 2.9375 C4.23482422 3.75541016 4.23482422 3.75541016 5.17578125 4.58984375 C7.05241958 6.20081559 7.05241958 6.20081559 10 7 C9.67 7.66 9.34 8.32 9 9 C7.68 8.67 6.36 8.34 5 8 C5 7.34 5 6.68 5 6 C3.68 5.67 2.36 5.34 1 5 C0.67 3.35 0.34 1.7 0 0 Z " fill="#7A7A7A" transform="translate(2419,59)"/>
<path d="M0 0 C0 2.64 0 5.28 0 8 C-1.32 7.34 -2.64 6.68 -4 6 C-4 3 -4 3 -2.5625 1.3125 C-1 0 -1 0 0 0 Z " fill="#D4D4D4" transform="translate(2429,52)"/>
<path d="M0 0 C0 1.32 0 2.64 0 4 C-1.98 4 -3.96 4 -6 4 C-6.33 3.01 -6.66 2.02 -7 1 C-4.50935112 0.31292445 -2.62113708 0 0 0 Z " fill="#393939" transform="translate(2429,71)"/>
<path d="M0 0 C0.33 0 0.66 0 1 0 C1.20625 1.11375 1.4125 2.2275 1.625 3.375 C2.61628301 7.26599195 2.61628301 7.26599195 6.125 8.4375 C7.07375 8.623125 8.0225 8.80875 9 9 C9 9.33 9 9.66 9 10 C5.625 10.125 5.625 10.125 2 10 C0 8 0 8 -0.1953125 6.0546875 C-0.13020833 4.03645833 -0.06510417 2.01822917 0 0 Z " fill="#505050" transform="translate(2416,59)"/>
<path d="M0 0 C1.9453125 -0.29296875 1.9453125 -0.29296875 4.125 -0.1875 C5.40375 -0.125625 6.6825 -0.06375 8 0 C8 0.66 8 1.32 8 2 C4.7 2.33 1.4 2.66 -2 3 C-1.34 2.01 -0.68 1.02 0 0 Z " fill="#2A2A2A" transform="translate(2421,37)"/>
<path d="M0 0 C4.47726973 2.95668756 7.59983652 5.05848696 10 10 C5.86360664 8.40907948 2.76786752 5.39525082 0 2 C0 1.34 0 0.68 0 0 Z " fill="#8C8C8C" transform="translate(2418,56)"/>
<path d="M0 0 C2.64 0.33 5.28 0.66 8 1 C8 1.66 8 2.32 8 3 C5.69 3 3.38 3 1 3 C0.67 2.01 0.34 1.02 0 0 Z " fill="#1F1F1F" transform="translate(2421,74)"/>
</svg>
