<?xml version="1.0" encoding="UTF-8"?>

<svg version="1.1" xmlns="http://www.w3.org/2000/svg" width="547" height="1914">
<path d="M0 0 C180.51 0 361.02 0 547 0 C547 631.62 547 1263.24 547 1914 C366.49 1914 185.98 1914 0 1914 C0 1282.38 0 650.76 0 0 Z " fill="#F8F8F8" transform="translate(0,0)"/>
<path d="M0 0 C169.29 0 338.58 0 513 0 C513 205.26 513 410.52 513 622 C343.71 622 174.42 622 0 622 C0 416.74 0 211.48 0 0 Z " fill="#F8F8F8" transform="translate(17,1186)"/>
<path d="M0 0 C180.51 0 361.02 0 547 0 C547 631.62 547 1263.24 547 1914 C366.49 1914 185.98 1914 0 1914 C0 1282.38 0 650.76 0 0 Z M16 13 C15.97129898 213.37451337 15.97129898 213.37451337 15.95183504 413.74902713 C15.95172566 415.30289189 15.95161624 416.85675664 15.95150678 418.41062139 C15.9514519 419.18974418 15.95139703 419.96886696 15.95134049 420.77159953 C15.94939888 448.29881532 15.94739198 475.8260311 15.94527074 503.35324688 C15.94506885 505.980664 15.94486867 508.60808112 15.94466891 511.23549824 C15.94160245 551.4839237 15.93769868 591.73234885 15.93133545 631.98077393 C15.93119855 632.84678329 15.93106165 633.71279265 15.9309206 634.60504473 C15.92870814 648.5683263 15.92642457 662.53160786 15.92413156 676.49488942 C15.91753079 716.69691056 15.9114529 756.89893147 15.90886021 797.1009531 C15.90880667 797.927087 15.90875314 798.7532209 15.90869798 799.60438916 C15.90753241 817.7368618 15.90663747 835.86933443 15.90599902 854.0018071 C15.90573738 861.29690035 15.90543676 868.59199361 15.90512276 875.88708687 C15.90508933 876.68551981 15.9050559 877.48395274 15.90502146 878.30658062 C15.90392373 904.0631243 15.89964828 929.81966627 15.89371779 955.57620926 C15.8877618 981.50634417 15.88489833 1007.43647741 15.88637601 1033.36661303 C15.88657911 1036.9442842 15.88674649 1040.52195537 15.88689232 1044.09962654 C15.8869222 1044.80099442 15.88695208 1045.50236229 15.88698287 1046.22498374 C15.88736454 1057.36159521 15.88437013 1068.49820317 15.87999014 1079.63481369 C15.87575909 1090.56718674 15.87513342 1101.49955578 15.87816819 1112.43192936 C15.87968866 1118.28770689 15.87956985 1124.14347256 15.87511682 1129.99924885 C15.87110571 1135.31383741 15.87159521 1140.62840472 15.87586002 1145.9429929 C15.87658127 1147.86573415 15.87558314 1149.7884769 15.87276476 1151.71121622 C15.86920767 1154.29961079 15.87167991 1156.88792777 15.8758015 1159.47631973 C15.87329263 1160.23458914 15.87078375 1160.99285855 15.86819885 1161.77410582 C15.57638797 1165.17434107 15.57638797 1165.17434107 17 1168 C19.71892862 1168.09987503 22.41251114 1168.1336043 25.13196564 1168.12584114 C26.43245056 1168.1280213 26.43245056 1168.1280213 27.7592079 1168.13024551 C30.70248541 1168.1339329 33.64571202 1168.1304065 36.58898926 1168.12698364 C38.70516248 1168.12813438 40.82133551 1168.12972158 42.93750811 1168.13171089 C48.78233088 1168.13591071 54.62713746 1168.13381059 60.47196031 1168.13072467 C66.76377364 1168.12847343 73.05558408 1168.1319488 79.34739685 1168.13470459 C90.97063907 1168.1389061 102.59387467 1168.13852531 114.21711706 1168.13579312 C124.95318134 1168.13328174 135.68924371 1168.13261891 146.42530823 1168.13381577 C147.49178128 1168.13393034 147.49178128 1168.13393034 148.57979924 1168.13404724 C151.46560065 1168.13435855 154.35140207 1168.13467695 157.23720348 1168.135007 C184.33157071 1168.1380689 211.42593463 1168.13528794 238.52030135 1168.1299101 C262.61428471 1168.12516418 286.70826278 1168.12558879 310.80224609 1168.13037109 C337.8457235 1168.13572083 364.88919798 1168.13785179 391.93267584 1168.13475883 C394.81334782 1168.13443809 397.69401979 1168.13412525 400.57469177 1168.13381577 C401.63870518 1168.13369715 401.63870518 1168.13369715 402.72421381 1168.13357614 C413.45591894 1168.13243664 424.18762195 1168.1337727 434.91932678 1168.13629532 C447.11659218 1168.13914806 459.31384974 1168.13835694 471.51111472 1168.13301457 C477.7409689 1168.13037636 483.97081232 1168.12937451 490.20066643 1168.13266373 C495.89382085 1168.13562424 501.58695445 1168.13403801 507.28010696 1168.12868617 C509.34939457 1168.12756093 511.4186839 1168.12815551 513.48797041 1168.13056196 C516.28135076 1168.13356351 519.07465796 1168.13052402 521.86803436 1168.12584114 C523.09820889 1168.12935289 523.09820889 1168.12935289 524.35323542 1168.13293558 C527.97481183 1168.4618726 527.97481183 1168.4618726 531 1167 C531.09928234 1164.48314275 531.13252776 1161.99371027 531.1241985 1159.47631973 C531.12547658 1158.67367251 531.12675467 1157.8710253 531.12807148 1157.04405544 C531.13117048 1154.31418644 531.12704932 1151.58437369 531.12304783 1148.85450649 C531.12378651 1146.88527692 531.12496407 1144.91604746 531.12654433 1142.94681838 C531.12963487 1137.48383526 531.12642053 1132.02087053 531.12226619 1126.55788877 C531.11885018 1120.63419022 531.1211993 1114.71049364 531.12284368 1108.78679472 C531.12492379 1098.38771769 531.1232954 1087.98864527 531.11920547 1077.58956909 C531.11483427 1066.42625429 531.11263209 1055.26294222 531.11310768 1044.09962654 C531.11313637 1043.39572612 531.11316507 1042.6918257 531.11319463 1041.96659496 C531.11335099 1038.37769072 531.11354294 1034.78878649 531.11374746 1031.19988225 C531.11515665 1005.19264543 531.11171827 979.18541105 531.10573006 953.17817497 C531.09981207 927.41447882 531.09595586 901.6507837 531.09487724 875.88708687 C531.09484283 875.08762213 531.09480842 874.28815739 531.09477296 873.46446644 C531.09445977 866.16282592 531.09417208 858.86118539 531.09391499 851.55954486 C531.09327551 833.40668092 531.09231613 815.25381701 531.09113979 797.1009531 C531.09105982 795.86084966 531.09105982 795.86084966 531.09097823 794.59569362 C531.0883553 754.3579848 531.08204717 714.12027668 531.07543945 673.88256836 C531.07314784 659.91530355 531.0708725 645.94803875 531.06866455 631.98077393 C531.0685276 631.11454897 531.06839065 630.24832402 531.06824955 629.35584983 C531.06190877 589.10835974 531.05819172 548.86086954 531.05513173 508.61337908 C531.05493116 505.98075862 531.05472886 503.34813817 531.05452599 500.71551771 C531.05241266 473.28055228 531.05042556 445.84558683 531.04849322 418.41062139 C531.04843801 417.62682763 531.04838279 416.84303387 531.04832591 416.03548879 C531.04822552 414.60934843 531.04812528 413.18320807 531.04802525 411.75706771 C531.03867579 278.83804385 531.01851383 145.91902349 531 13 C361.05 13 191.1 13 16 13 Z M17 1186 C17 1391.26 17 1596.52 17 1808 C186.29 1808 355.58 1808 530 1808 C530 1602.74 530 1397.48 530 1186 C360.71 1186 191.42 1186 17 1186 Z " fill="#060606" transform="translate(0,0)"/>
<path d="M0 0 C1.32 0 2.64 0 4 0 C4 0.99 4 1.98 4 3 C183.19 3 362.38 3 547 3 C547 32.7 547 62.4 547 93 C366.49 93 185.98 93 0 93 C0 62.31 0 31.62 0 0 Z " fill="#FAFAFA" transform="translate(0,1821)"/>
<path d="M0 0 C51.31601797 -0.05134089 102.63203779 -0.09910458 153.94807434 -0.12702942 C154.70723259 -0.12744359 155.46639084 -0.12785776 156.24855389 -0.12828448 C172.74600795 -0.13726263 189.24346229 -0.14557326 205.74091704 -0.15319599 C213.8309402 -0.15693809 221.92096328 -0.16082774 230.01098633 -0.16479492 C230.81605274 -0.1651872 231.62111916 -0.16557948 232.45058153 -0.16598364 C258.55811833 -0.178774 284.66563568 -0.20131264 310.77316069 -0.22889166 C337.59583355 -0.25717476 364.41849564 -0.27565292 391.24118316 -0.28174497 C395.02729283 -0.28260947 398.81340247 -0.28358638 402.5995121 -0.28463173 C403.71728359 -0.28493513 403.71728359 -0.28493513 404.85763632 -0.28524467 C416.86638918 -0.28879364 428.8751088 -0.3027181 440.88384808 -0.3204961 C452.94857578 -0.33813653 465.01327044 -0.34490929 477.07801058 -0.34050413 C483.61824696 -0.33841935 490.1584046 -0.34160499 496.69862556 -0.35761642 C502.68012304 -0.37215368 508.66145647 -0.37299266 514.6429613 -0.36269668 C516.81262197 -0.36142309 518.98229264 -0.36528072 521.15193345 -0.37464955 C524.09049177 -0.38660597 527.02844992 -0.38025055 529.9669981 -0.36914349 C531.24440879 -0.38096505 531.24440879 -0.38096505 532.54762575 -0.39302543 C535.9648415 -0.36363395 538.77154585 -0.06694859 542.06456262 0.89807147 C544 3 544 3 544 13 C364.48 13 184.96 13 0 13 C0 8.71 0 4.42 0 0 Z " fill="#050505" transform="translate(0,1901)"/>
<path d="M0 0 C169.95 0 339.9 0 515 0 C515.04040148 290.0601569 515.04040148 290.0601569 515.04816496 400.74902713 C515.04827434 402.30289189 515.04838376 403.85675664 515.04849322 405.41062139 C515.0485481 406.18974418 515.04860297 406.96886696 515.04865951 407.77159953 C515.05060112 435.29881532 515.05260802 462.8260311 515.05472926 490.35324688 C515.05493115 492.980664 515.05513133 495.60808112 515.05533109 498.23549824 C515.05839755 538.4839237 515.06230132 578.73234885 515.06866455 618.98077393 C515.06880145 619.84678329 515.06893835 620.71279265 515.0690794 621.60504473 C515.07129186 635.5683263 515.07357543 649.53160786 515.07586844 663.49488942 C515.08246921 703.69691056 515.0885471 743.89893147 515.09113979 784.1009531 C515.0912201 785.34015395 515.0912201 785.34015395 515.09130202 786.60438916 C515.09246759 804.7368618 515.09336253 822.86933443 515.09400098 841.0018071 C515.09426262 848.29690035 515.09456324 855.59199361 515.09487724 862.88708687 C515.09491067 863.68551981 515.0949441 864.48395274 515.09497854 865.30658062 C515.09607627 891.0631243 515.10035172 916.81966627 515.10628221 942.57620926 C515.1122382 968.50634417 515.11510167 994.43647741 515.11362399 1020.36661303 C515.11342089 1023.9442842 515.11325351 1027.52195537 515.11310768 1031.09962654 C515.1130778 1031.80099442 515.11304792 1032.50236229 515.11301713 1033.22498374 C515.11263546 1044.36159521 515.11562987 1055.49820317 515.12000986 1066.63481369 C515.12424091 1077.56718674 515.12486658 1088.49955578 515.12183181 1099.43192936 C515.12031134 1105.28770689 515.12043015 1111.14347256 515.12488318 1116.99924885 C515.12889429 1122.31383741 515.12840479 1127.62840472 515.12413998 1132.9429929 C515.12341873 1134.86573415 515.12441686 1136.7884769 515.12723524 1138.71121622 C515.13079233 1141.29961079 515.12832009 1143.88792777 515.1241985 1146.47631973 C515.12670737 1147.23458914 515.12921625 1147.99285855 515.13180115 1148.77410582 C515.11415501 1153.88584499 515.11415501 1153.88584499 514 1155 C511.28107138 1155.09987503 508.58748886 1155.1336043 505.86803436 1155.12584114 C505.00104441 1155.12729458 504.13405447 1155.12874802 503.2407921 1155.13024551 C500.29751459 1155.1339329 497.35428798 1155.1304065 494.41101074 1155.12698364 C492.29483752 1155.12813438 490.17866449 1155.12972158 488.06249189 1155.13171089 C482.21766912 1155.13591071 476.37286254 1155.13381059 470.52803969 1155.13072467 C464.23622636 1155.12847343 457.94441592 1155.1319488 451.65260315 1155.13470459 C440.02936093 1155.1389061 428.40612533 1155.13852531 416.78288294 1155.13579312 C406.04681866 1155.13328174 395.31075629 1155.13261891 384.57469177 1155.13381577 C383.86370974 1155.13389215 383.15272771 1155.13396854 382.42020076 1155.13404724 C379.53439935 1155.13435855 376.64859793 1155.13467695 373.76279652 1155.135007 C346.66842929 1155.1380689 319.57406537 1155.13528794 292.47969865 1155.1299101 C268.38571529 1155.12516418 244.29173722 1155.12558879 220.19775391 1155.13037109 C193.1542765 1155.13572083 166.11080202 1155.13785179 139.06732416 1155.13475883 C136.18665218 1155.13443809 133.30598021 1155.13412525 130.42530823 1155.13381577 C129.71596595 1155.13373669 129.00662368 1155.13365761 128.27578619 1155.13357614 C117.54408106 1155.13243664 106.81237805 1155.1337727 96.08067322 1155.13629532 C83.88340782 1155.13914806 71.68615026 1155.13835694 59.48888528 1155.13301457 C53.2590311 1155.13037636 47.02918768 1155.12937451 40.79933357 1155.13266373 C35.10617915 1155.13562424 29.41304555 1155.13403801 23.71989304 1155.12868617 C21.65060543 1155.12756093 19.5813161 1155.12815551 17.51202959 1155.13056196 C14.71864924 1155.13356351 11.92534204 1155.13052402 9.13196564 1155.12584114 C7.90179111 1155.12935289 7.90179111 1155.12935289 6.64676458 1155.13293558 C1.11415034 1155.11415034 1.11415034 1155.11415034 0 1154 C-0.09928234 1151.48314275 -0.13252776 1148.99371027 -0.1241985 1146.47631973 C-0.12611563 1145.27234891 -0.12611563 1145.27234891 -0.12807148 1144.04405544 C-0.13117048 1141.31418644 -0.12704932 1138.58437369 -0.12304783 1135.85450649 C-0.12378651 1133.88527692 -0.12496407 1131.91604746 -0.12654433 1129.94681838 C-0.12963487 1124.48383526 -0.12642053 1119.02087053 -0.12226619 1113.55788877 C-0.11885018 1107.63419022 -0.1211993 1101.71049364 -0.12284368 1095.78679472 C-0.12492379 1085.38771769 -0.1232954 1074.98864527 -0.11920547 1064.58956909 C-0.11483427 1053.42625429 -0.11263209 1042.26294222 -0.11310768 1031.09962654 C-0.11313637 1030.39572612 -0.11316507 1029.6918257 -0.11319463 1028.96659496 C-0.11335099 1025.37769072 -0.11354294 1021.78878649 -0.11374746 1018.19988225 C-0.11515665 992.19264543 -0.11171827 966.18541105 -0.10573006 940.17817497 C-0.09981207 914.41447882 -0.09595586 888.6507837 -0.09487724 862.88708687 C-0.09484283 862.08762213 -0.09480842 861.28815739 -0.09477296 860.46446644 C-0.09445977 853.16282592 -0.09417208 845.86118539 -0.09391499 838.55954486 C-0.09327551 820.40668092 -0.09231613 802.25381701 -0.09113979 784.1009531 C-0.09108648 783.27421747 -0.09103316 782.44748184 -0.09097823 781.59569362 C-0.0883553 741.3579848 -0.08204717 701.12027668 -0.07543945 660.88256836 C-0.07314784 646.91530355 -0.0708725 632.94803875 -0.06866455 618.98077393 C-0.0685276 618.11454897 -0.06839065 617.24832402 -0.06824955 616.35584983 C-0.06190877 576.10835974 -0.05819172 535.86086954 -0.05513173 495.61337908 C-0.05493116 492.98075862 -0.05472886 490.34813817 -0.05452599 487.71551771 C-0.05241266 460.28055228 -0.05042556 432.84558683 -0.04849322 405.41062139 C-0.04843801 404.62682763 -0.04838279 403.84303387 -0.04832591 403.03548879 C-0.04822552 401.60934843 -0.04812528 400.18320807 -0.04802525 398.75706771 C-0.03867579 265.83804385 -0.01851383 132.91902349 0 0 Z M2 2 C2 381.83 2 761.66 2 1153 C170.63 1153 339.26 1153 513 1153 C513 773.17 513 393.34 513 2 C344.37 2 175.74 2 2 2 Z " fill="#A1A1A1" transform="translate(16,13)"/>
<path d="M0 0 C1.09838531 -0.0083016 1.09838531 -0.0083016 2.21896023 -0.0167709 C4.67357561 -0.03038853 7.12717613 -0.01540306 9.58177185 -0.00050354 C11.34102308 -0.0042863 13.10027133 -0.00978598 14.85951233 -0.01687622 C19.63837646 -0.03085278 24.41688145 -0.0196461 29.19572568 -0.00316501 C34.19248832 0.01066983 39.18922977 0.00422729 44.18600464 0.0007019 C52.57661234 -0.00200121 60.96707707 0.01148495 69.35765076 0.03465271 C79.06550247 0.06127173 88.77311524 0.06300717 98.48099095 0.05126435 C107.81208521 0.04049506 117.14309284 0.04666639 126.47418022 0.06081963 C130.44902018 0.06658594 134.42379687 0.06649171 138.39863777 0.06175423 C143.07640575 0.05699105 147.75391117 0.06705863 152.43162918 0.08870888 C154.15096209 0.09428562 155.87032018 0.09473394 157.58965492 0.08975601 C159.93148311 0.08382479 162.27250263 0.09626569 164.61425781 0.11352539 C165.92630471 0.11595529 167.23835161 0.11838518 168.59015751 0.12088871 C171.74363708 0.50120544 171.74363708 0.50120544 173.67091274 1.88407803 C175.12616926 4.07787108 175.04448061 5.58180447 174.93113708 8.18870544 C174.89053162 9.40106873 174.89053162 9.40106873 174.84910583 10.63792419 C174.81430115 11.25280701 174.77949646 11.86768982 174.74363708 12.50120544 C173.75363708 12.83120544 172.76363708 13.16120544 171.74363708 13.50120544 C171.74363708 14.16120544 171.74363708 14.82120544 171.74363708 15.50120544 C148.45676955 15.57122102 125.16991931 15.62415703 101.88296795 15.65664196 C91.07094496 15.67212476 80.25898729 15.69324123 69.44700623 15.7275238 C60.02560423 15.75738295 50.60424954 15.77677016 41.18280154 15.78347093 C36.19210731 15.78738911 31.2015484 15.79662661 26.21089745 15.81839561 C21.51682055 15.83870575 16.82293517 15.84505037 12.12881851 15.84052849 C10.40301919 15.84135615 8.67721368 15.84735432 6.95145226 15.85882187 C4.60070793 15.87368065 2.25069299 15.8701837 -0.10006714 15.86196899 C-1.41730931 15.86473437 -2.73455149 15.86749975 -4.09171009 15.87034893 C-7.25636292 15.50120544 -7.25636292 15.50120544 -9.1411314 14.10365772 C-11.43232565 10.81148978 -11.65648142 8.50239051 -11.25636292 4.50120544 C-8.0446609 0.06311866 -5.29427474 0.00084424 0 0 Z " fill="#828282" transform="translate(187.25636291503906,1209.498794555664)"/>
<path d="M0 0 C0.70846113 -0.00241442 1.41692225 -0.00482883 2.1468519 -0.00731641 C4.52063299 -0.01295195 6.89414481 -0.00429154 9.26791382 0.00431824 C10.96967136 0.00324534 12.67142854 0.00130653 14.3731842 -0.00143433 C18.99487111 -0.00628379 23.61646153 0.00137378 28.23813677 0.01151872 C33.06986922 0.02029537 37.90159861 0.01854186 42.7333374 0.01815796 C50.84562802 0.01909463 58.95788124 0.02777995 67.07015991 0.04142761 C76.45873252 0.05716374 85.84726418 0.06242535 95.23584902 0.06169206 C104.25830634 0.06108246 113.28075028 0.06618103 122.30320358 0.07448387 C126.14766926 0.07802082 129.99213021 0.0798477 133.83659744 0.08037758 C138.35914682 0.08137958 142.88166162 0.08746445 147.4041996 0.09754372 C149.0675199 0.10047282 150.73084417 0.10169326 152.39416695 0.10111618 C154.65726501 0.10062799 156.92026515 0.10625636 159.18334961 0.11352539 C160.45207224 0.11520123 161.72079487 0.11687708 163.02796364 0.11860371 C165.96469116 0.24723816 165.96469116 0.24723816 167.96469116 1.24723816 C168.01868853 2.705167 168.05748293 4.16366528 168.08969116 5.62223816 C168.11289429 6.43434753 168.13609741 7.24645691 168.16000366 8.08317566 C167.96469116 10.24723816 167.96469116 10.24723816 165.96469116 12.24723816 C162.99114227 12.49892044 162.99114227 12.49892044 159.09396362 12.50120544 C158.37904424 12.50432543 157.66412486 12.50744541 156.92754126 12.51065993 C154.51992005 12.51866927 152.11254884 12.512305 149.70492554 12.50602722 C147.98375805 12.50873579 146.26259173 12.51229596 144.54142761 12.51664734 C139.85764809 12.52578965 135.17395637 12.52221953 130.49017525 12.51588917 C125.59703452 12.51083868 120.7039015 12.51551796 115.8107605 12.5186615 C107.59236293 12.52230393 99.37400126 12.5174948 91.15560913 12.50798035 C81.64322644 12.49709527 72.13092948 12.50062065 62.61854887 12.51163316 C54.46312331 12.52069816 46.30772361 12.52199517 38.15229464 12.51675582 C33.27628454 12.51363178 28.40031478 12.51323864 23.52430725 12.5198288 C18.94102131 12.52559022 14.35784629 12.52162755 9.77457237 12.51004028 C8.08867769 12.50738723 6.40277374 12.50816972 4.71688271 12.51256561 C2.42293372 12.5179972 0.12934451 12.51121637 -2.1645813 12.50120544 C-3.45065025 12.50045139 -4.73671921 12.49969734 -6.06175995 12.49892044 C-9.03530884 12.24723816 -9.03530884 12.24723816 -11.03530884 10.24723816 C-11.3052279 7.55884431 -11.12268241 4.9558188 -11.03530884 2.24723816 C-7.37603189 -0.06177171 -4.26675694 -0.00183098 0 0 Z " fill="#878787" transform="translate(191.03530883789063,1127.7527618408203)"/>
<path d="M0 0 C1.32 0 2.64 0 4 0 C4 0.99 4 1.98 4 3 C183.19 3 362.38 3 547 3 C547 3.66 547 4.32 547 5 C546.17592651 5.12846313 546.17592651 5.12846313 545.33520508 5.25952148 C542.82746392 5.65108339 540.31998123 6.0442772 537.8125 6.4375 C536.94818359 6.57220703 536.08386719 6.70691406 535.19335938 6.84570312 C534.35224609 6.97783203 533.51113281 7.10996094 532.64453125 7.24609375 C531.83193848 7.3735498 531.0193457 7.50100586 530.18212891 7.63232422 C528.46950434 7.9208913 526.76839356 8.27789251 525.07421875 8.66015625 C523 9 523 9 520 8 C518.31843422 7.90627512 516.63339314 7.86929667 514.94921875 7.8671875 C513.44536621 7.86452881 513.44536621 7.86452881 511.91113281 7.86181641 C510.84733398 7.86616699 509.78353516 7.87051758 508.6875 7.875 C507.60694336 7.8754834 506.52638672 7.8759668 505.41308594 7.87646484 C498.42199817 7.90682446 491.56009145 8.19849723 484.609375 8.9765625 C482 9 482 9 480.17543411 8.01649666 C477.48987072 6.76163622 475.5436253 6.75377679 472.5836792 6.75949097 C471.48434052 6.75674164 470.38500183 6.75399231 469.25234985 6.75115967 C468.05113495 6.75835022 466.84992004 6.76554077 465.61230469 6.77294922 C464.34375641 6.77265717 463.07520813 6.77236511 461.76821899 6.77206421 C458.29330333 6.77149051 454.8185258 6.78324759 451.34364223 6.79721212 C447.71081175 6.80971658 444.07797808 6.81088976 440.44512939 6.81326294 C433.56745122 6.81947855 426.68983665 6.83589045 419.81218648 6.85596192 C411.98153824 6.87831841 404.15088696 6.88931372 396.32021475 6.89935279 C380.21343927 6.92025661 364.10672775 6.95543415 348 7 C348 6.34 348 5.68 348 5 C343.68721615 5.13811922 339.37486047 5.28678109 335.0625 5.4375 C333.83080078 5.47681641 332.59910156 5.51613281 331.33007812 5.55664062 C330.16025391 5.59853516 328.99042969 5.64042969 327.78515625 5.68359375 C326.15912476 5.73858032 326.15912476 5.73858032 324.50024414 5.79467773 C322.060737 5.72364265 322.060737 5.72364265 321 7 C319.32147377 7.0972349 317.63882052 7.12371529 315.95748043 7.12304783 C314.30858945 7.1260344 314.30858945 7.1260344 312.62638754 7.12908131 C311.40365166 7.12616847 310.18091579 7.12325563 308.92112732 7.12025452 C306.99036719 7.12153615 306.99036719 7.12153615 305.02060181 7.12284368 C301.4313543 7.12509107 297.84213635 7.12106405 294.25289261 7.11606562 C290.38852506 7.11176478 286.52415931 7.11320728 282.65979004 7.1139679 C275.95904073 7.11449336 269.25830112 7.11134418 262.55755424 7.10573006 C252.86928638 7.09761814 243.18102322 7.09500015 233.49275232 7.09374207 C217.77584589 7.09155106 202.05894463 7.08488966 186.34204102 7.07543945 C171.0705569 7.06626659 155.7990742 7.05918514 140.52758789 7.05493164 C139.58694701 7.05466892 138.64630612 7.05440619 137.67716097 7.05413551 C132.95844917 7.05283051 128.23973736 7.05156679 123.52102554 7.05032361 C84.34734673 7.03994948 45.17367371 7.02232984 6 7 C6 6.34 6 5.68 6 5 C4.68 4.34 3.36 3.68 2 3 C2 2.34 2 1.68 2 1 C1.34 0.67 0.68 0.34 0 0 Z " fill="#AEAEAE" transform="translate(0,1821)"/>
<path d="M0 0 C0.73199887 -0.00427212 1.46399774 -0.00854425 2.21817839 -0.01294583 C4.6600506 -0.02115261 7.10018793 0.00626809 9.54190063 0.03364563 C11.29645751 0.03505661 13.05101735 0.03426314 14.80557251 0.03143311 C19.56152327 0.0299995 24.31684252 0.05938025 29.07264662 0.09430289 C34.04540772 0.12557566 39.01818357 0.12849786 43.99102783 0.13442993 C53.40453163 0.14996565 62.81774483 0.19099052 72.23112071 0.24117738 C82.94927361 0.29707923 93.66744044 0.32455948 104.38570285 0.34965456 C126.43093223 0.40190654 148.47590007 0.48984364 170.52090454 0.60127258 C170.52090454 1.26127258 170.52090454 1.92127258 170.52090454 2.60127258 C172.17090454 2.93127258 173.82090454 3.26127258 175.52090454 3.60127258 C176.64590454 6.91377258 176.64590454 6.91377258 177.52090454 10.60127258 C176.86090454 11.59127258 176.20090454 12.58127258 175.52090454 13.60127258 C174.86090454 13.60127258 174.20090454 13.60127258 173.52090454 13.60127258 C173.11871704 14.56033508 173.11871704 14.56033508 172.70840454 15.53877258 C171.52090454 17.60127258 171.52090454 17.60127258 168.52090454 18.60127258 C166.17365661 18.70226795 163.82358905 18.74069657 161.47418213 18.7484436 C160.75235792 18.75212029 160.0305337 18.75579698 159.28683603 18.75958508 C156.86175925 18.77062137 154.43672533 18.77446562 152.0116272 18.77827454 C150.27547571 18.78453911 148.53932556 18.7911859 146.80317688 18.79818726 C142.08209966 18.8155946 137.36103256 18.82614779 132.6399312 18.83439279 C129.69153575 18.83954236 126.74314344 18.84561804 123.79475021 18.85190392 C114.57314456 18.87095325 105.35154692 18.88518626 96.12992537 18.89351588 C85.47861631 18.90329546 74.82751466 18.92963483 64.17627871 18.97001678 C55.94690701 19.00014843 47.71759488 19.01498186 39.48816907 19.0182969 C34.57119826 19.02065028 29.65444912 19.02964844 24.73753738 19.05475807 C20.11312263 19.07799297 15.48907623 19.08229058 10.8646183 19.07199669 C9.16706812 19.07150014 7.46950008 19.07785561 5.77200508 19.09155273 C3.45475767 19.10920519 1.13884183 19.10219958 -1.17840576 19.08901978 C-2.47515921 19.09140813 -3.77191265 19.09379648 -5.10796165 19.09625721 C-9.0464296 18.51797073 -10.70271355 17.40237016 -13.47909546 14.60127258 C-14.17831421 12.41767883 -14.17831421 12.41767883 -14.16659546 10.16377258 C-14.19108765 9.42256165 -14.21557983 8.68135071 -14.24081421 7.91767883 C-12.04871533 1.25144995 -6.27564189 -0.0221285 0 0 Z M-8.47909546 6.60127258 C-8.52034546 7.88002258 -8.56159546 9.15877258 -8.60409546 10.47627258 C-8.62729858 11.19556946 -8.65050171 11.91486633 -8.67440796 12.65596008 C-8.66241234 14.83990903 -8.66241234 14.83990903 -6.47909546 16.60127258 C-3.3556943 16.90744383 -3.3556943 16.90744383 0.39163208 16.85523987 C1.46401115 16.85991984 1.46401115 16.85991984 2.55805445 16.86469436 C4.96567565 16.87270369 7.37304686 16.86633942 9.78067017 16.86006165 C11.50183765 16.86277021 13.22300398 16.86633038 14.94416809 16.87068176 C19.62794761 16.87982407 24.31163934 16.87625395 28.99542046 16.86992359 C33.88856118 16.8648731 38.7816942 16.86955239 43.67483521 16.87269592 C51.89323278 16.87633835 60.11159445 16.87152922 68.32998657 16.86201477 C77.84236926 16.85112969 87.35466622 16.85465507 96.86704683 16.86566758 C105.0224724 16.87473259 113.1778721 16.8760296 121.33330107 16.87079024 C126.20931116 16.8676662 131.08528092 16.86727306 135.96128845 16.87386322 C140.5445744 16.87962464 145.12774942 16.87566197 149.71102333 16.86407471 C151.39691801 16.86142165 153.08282196 16.86220415 154.768713 16.86660004 C157.06266199 16.87203163 159.3562512 16.86525079 161.650177 16.85523987 C162.93624596 16.85448582 164.22231491 16.85373177 165.54735565 16.85295486 C168.63894039 16.91320401 168.63894039 16.91320401 170.52090454 14.60127258 C170.76344267 12.39054281 170.76344267 12.39054281 170.64590454 9.97627258 C170.62785767 9.15900696 170.60981079 8.34174133 170.59121704 7.49971008 C170.56801392 6.87322571 170.54481079 6.24674133 170.52090454 5.60127258 C167.59218781 4.13691422 165.01110555 4.47188117 161.73956299 4.46755981 C161.03422184 4.46529426 160.3288807 4.4630287 159.60216558 4.46069449 C157.22691762 4.45433923 154.85172649 4.45518483 152.47647095 4.45600891 C150.77825344 4.45301835 149.08003661 4.44961607 147.38182068 4.4458313 C142.75991349 4.43697619 138.1380248 4.43465254 133.51610994 4.43401551 C129.66164051 4.43306752 125.80717542 4.42939046 121.95270765 4.42584342 C112.86052887 4.41769299 103.76835999 4.4152597 94.67617798 4.41596985 C85.28880855 4.41657069 75.90149657 4.40601897 66.51414168 4.39022619 C58.46229806 4.37716157 50.41047324 4.3717855 42.35861909 4.37242526 C37.54625518 4.37268058 32.73394229 4.3698107 27.9215889 4.35924721 C23.39575983 4.34958444 18.87003076 4.3494745 14.34419823 4.35676384 C12.68171607 4.35781198 11.01922776 4.35543325 9.35675621 4.34940338 C7.08979007 4.34171269 4.82317176 4.34630869 2.55621338 4.35403442 C1.2867367 4.35348966 0.01726002 4.35294489 -1.29068565 4.35238361 C-4.29000776 4.5865123 -5.96633969 5.0157195 -8.47909546 6.60127258 Z " fill="#D9D9D9" transform="translate(188.47909545898438,1123.3987274169922)"/>
<path d="M0 0 C1.09838531 -0.0083016 1.09838531 -0.0083016 2.21896023 -0.0167709 C4.67357561 -0.03038853 7.12717613 -0.01540306 9.58177185 -0.00050354 C11.34102308 -0.0042863 13.10027133 -0.00978598 14.85951233 -0.01687622 C19.63837646 -0.03085278 24.41688145 -0.0196461 29.19572568 -0.00316501 C34.19248832 0.01066983 39.18922977 0.00422729 44.18600464 0.0007019 C52.57661234 -0.00200121 60.96707707 0.01148495 69.35765076 0.03465271 C79.06550247 0.06127173 88.77311524 0.06300717 98.48099095 0.05126435 C107.81208521 0.04049506 117.14309284 0.04666639 126.47418022 0.06081963 C130.44902018 0.06658594 134.42379687 0.06649171 138.39863777 0.06175423 C143.07640575 0.05699105 147.75391117 0.06705863 152.43162918 0.08870888 C154.15096209 0.09428562 155.87032018 0.09473394 157.58965492 0.08975601 C159.93148311 0.08382479 162.27250263 0.09626569 164.61425781 0.11352539 C165.92630471 0.11595529 167.23835161 0.11838518 168.59015751 0.12088871 C171.74363708 0.50120544 171.74363708 0.50120544 173.67091274 1.88407803 C175.12616926 4.07787108 175.04448061 5.58180447 174.93113708 8.18870544 C174.89053162 9.40106873 174.89053162 9.40106873 174.84910583 10.63792419 C174.81430115 11.25280701 174.77949646 11.86768982 174.74363708 12.50120544 C173.75363708 12.83120544 172.76363708 13.16120544 171.74363708 13.50120544 C171.74363708 14.16120544 171.74363708 14.82120544 171.74363708 15.50120544 C148.45676955 15.57122102 125.16991931 15.62415703 101.88296795 15.65664196 C91.07094496 15.67212476 80.25898729 15.69324123 69.44700623 15.7275238 C60.02560423 15.75738295 50.60424954 15.77677016 41.18280154 15.78347093 C36.19210731 15.78738911 31.2015484 15.79662661 26.21089745 15.81839561 C21.51682055 15.83870575 16.82293517 15.84505037 12.12881851 15.84052849 C10.40301919 15.84135615 8.67721368 15.84735432 6.95145226 15.85882187 C4.60070793 15.87368065 2.25069299 15.8701837 -0.10006714 15.86196899 C-1.41730931 15.86473437 -2.73455149 15.86749975 -4.09171009 15.87034893 C-7.25636292 15.50120544 -7.25636292 15.50120544 -9.1411314 14.10365772 C-11.43232565 10.81148978 -11.65648142 8.50239051 -11.25636292 4.50120544 C-8.0446609 0.06311866 -5.29427474 0.00084424 0 0 Z M-6.25636292 2.50120544 C-6.29761292 3.75933044 -6.33886292 5.01745544 -6.38136292 6.31370544 C-6.40456604 7.02140076 -6.42776917 7.72909607 -6.45167542 8.45823669 C-6.38890753 10.81480263 -6.38890753 10.81480263 -4.25636292 13.50120544 C-1.15467583 13.95716685 -1.15467583 13.95716685 2.57640076 13.87542725 C3.28723659 13.87940165 3.99807241 13.88337606 4.73044872 13.8874709 C7.12436815 13.8971342 9.51770252 13.88525197 11.91160583 13.8735199 C13.62292197 13.87594654 15.3342367 13.87966462 17.04554749 13.88458252 C21.70251486 13.89401263 26.35927284 13.88454837 31.01622391 13.87125039 C35.8813354 13.8599615 40.74643619 13.86404141 45.61155701 13.86599731 C53.78289729 13.8668811 61.95415474 13.85578218 70.12547302 13.83738708 C79.58332904 13.81621816 89.04106366 13.81270908 98.49893856 13.81894904 C107.58333889 13.82463659 116.66769631 13.81900425 125.75209045 13.8077755 C129.62447398 13.80312142 133.49683134 13.80225915 137.36921692 13.80436134 C141.92624789 13.80624 146.48315467 13.79817305 151.04015732 13.78230095 C152.7163733 13.77804528 154.39260186 13.77721611 156.06882095 13.77999115 C158.34964305 13.78319523 160.63008992 13.77417648 162.91087341 13.76190186 C164.82891533 13.75882255 164.82891533 13.75882255 166.78570557 13.75568104 C169.86342345 13.81068226 169.86342345 13.81068226 171.74363708 11.50120544 C172.05901425 7.16476944 172.19261556 5.17467315 169.74363708 1.50120544 C166.6418158 1.0481282 166.6418158 1.0481282 162.91087341 1.13371277 C161.84461967 1.12880951 161.84461967 1.12880951 160.75682545 1.12380719 C158.36289264 1.11649489 155.96956424 1.13071319 153.57566833 1.14476013 C151.86435339 1.1439697 150.15303862 1.14187381 148.44172668 1.13856506 C143.78474945 1.13341829 139.1279921 1.1469918 134.47105026 1.16409206 C129.60594456 1.17909403 124.74084212 1.17795323 119.87571716 1.17875671 C111.70437348 1.18245277 103.53311363 1.19743701 95.36180115 1.21995544 C84.86273138 1.24882912 74.36372918 1.25917804 63.86462402 1.26363754 C54.85280909 1.26761383 45.84100893 1.28011687 36.82920456 1.29398441 C33.92548913 1.29808843 31.02177423 1.30101152 28.11805725 1.3037796 C23.56105661 1.30866449 19.00409717 1.31885419 14.44711685 1.33321762 C12.77089942 1.33774944 11.09467645 1.34058137 9.41845322 1.34162521 C7.13772736 1.3433646 4.85710539 1.35123075 2.57640076 1.36076355 C0.65835884 1.36522554 0.65835884 1.36522554 -1.2984314 1.36977768 C-4.18729614 1.29705935 -4.18729614 1.29705935 -6.25636292 2.50120544 Z " fill="#CCCCCC" transform="translate(187.25636291503906,1209.498794555664)"/>
<path d="M0 0 C1.07282565 -0.00467997 1.07282565 -0.00467997 2.16732454 -0.00945449 C4.56406678 -0.01743226 6.96055568 -0.01111177 9.3572998 -0.00482178 C11.07551726 -0.00753174 12.79373355 -0.0110927 14.51194763 -0.01544189 C19.17921479 -0.02456754 23.84639362 -0.02102091 28.51366234 -0.01468372 C33.39517838 -0.00962466 38.27668679 -0.01431492 43.15820312 -0.01745605 C51.35625569 -0.02109597 59.55427224 -0.01629593 67.75231934 -0.0067749 C77.23403005 0.00410969 86.71565475 0.00058413 96.19736338 -0.01042771 C104.33417704 -0.01949986 112.4709648 -0.02078622 120.60778189 -0.01555037 C125.46929427 -0.01243028 130.33076621 -0.01202243 135.192276 -0.01862335 C139.7624623 -0.02439512 144.33253758 -0.020403 148.90271187 -0.00883484 C150.58131793 -0.00618735 152.25993332 -0.00695486 153.93853569 -0.01136017 C156.2272983 -0.01681358 158.5157036 -0.00998414 160.80444336 0 C162.72688496 0.00113108 162.72688496 0.00113108 164.68816376 0.002285 C167.69994336 0.23812754 169.38104319 0.65978989 171.90222168 2.25396729 C172.01047011 3.85664549 172.08792813 5.46142477 172.15222168 7.06646729 C172.19862793 7.9597876 172.24503418 8.85310791 172.29284668 9.77349854 C171.90222168 12.25396729 171.90222168 12.25396729 170.32547379 13.88644886 C167.0116017 15.75657254 164.53851569 15.62284826 160.73956299 15.61473083 C160.01744007 15.61729411 159.29531716 15.61985738 158.55131173 15.62249833 C156.13127081 15.62744033 153.71185357 15.61093695 151.29187012 15.59454346 C149.55731216 15.59369727 147.82275313 15.59417216 146.0881958 15.59587097 C141.37774517 15.59673269 136.66752312 15.57907838 131.95712566 15.5581491 C127.03504783 15.53941169 122.11296493 15.53763418 117.19085693 15.53407288 C107.86945694 15.52474378 98.54816234 15.50011828 89.22680879 15.47002441 C78.61508271 15.43650732 68.00335164 15.42000116 57.39158583 15.4049381 C35.56173893 15.37356949 13.73198694 15.32079217 -8.09777832 15.25396729 C-8.75777832 13.93396729 -9.41777832 12.61396729 -10.09777832 11.25396729 C-10.75777832 11.25396729 -11.41777832 11.25396729 -12.09777832 11.25396729 C-12.03771754 9.79449024 -11.94890942 8.33617456 -11.84777832 6.87896729 C-11.80137207 6.06685791 -11.75496582 5.25474854 -11.70715332 4.41802979 C-11.09777832 2.25396729 -11.09777832 2.25396729 -9.50330353 1.13458633 C-6.25333622 -0.05516762 -3.46205697 0.00203692 0 0 Z M-9.09777832 4.25396729 C-9.13902832 5.53271729 -9.18027832 6.81146729 -9.22277832 8.12896729 C-9.24598145 8.84826416 -9.26918457 9.56756104 -9.29309082 10.30865479 C-9.28109521 12.49260374 -9.28109521 12.49260374 -7.09777832 14.25396729 C-3.97437717 14.56013853 -3.97437717 14.56013853 -0.22705078 14.50793457 C0.84532829 14.51261454 0.84532829 14.51261454 1.93937159 14.51738906 C4.34699279 14.5253984 6.754364 14.51903412 9.1619873 14.51275635 C10.88315479 14.51546491 12.60432111 14.51902508 14.32548523 14.52337646 C19.00926475 14.53251877 23.69295648 14.52894865 28.37673759 14.52261829 C33.26987832 14.51756781 38.16301134 14.52224709 43.05615234 14.52539062 C51.27454992 14.52903305 59.49291159 14.52422393 67.71130371 14.51470947 C77.2236864 14.50382439 86.73598336 14.50734978 96.24836397 14.51836228 C104.40378953 14.52742729 112.55918924 14.5287243 120.71461821 14.52348495 C125.5906283 14.5203609 130.46659806 14.51996776 135.34260559 14.52655792 C139.92589153 14.53231934 144.50906656 14.52835667 149.09234047 14.51676941 C150.77823515 14.51411635 152.4641391 14.51489885 154.15003014 14.51929474 C156.44397912 14.52472633 158.73756834 14.5179455 161.03149414 14.50793457 C162.3175631 14.50718052 163.60363205 14.50642647 164.92867279 14.50564957 C168.02025753 14.56589871 168.02025753 14.56589871 169.90222168 12.25396729 C170.14475981 10.04323751 170.14475981 10.04323751 170.02722168 7.62896729 C170.0091748 6.81170166 169.99112793 5.99443604 169.97253418 5.15240479 C169.94933105 4.52592041 169.92612793 3.89943604 169.90222168 3.25396729 C166.97350494 1.78960892 164.39242269 2.12457587 161.12088013 2.12025452 C160.41553898 2.11798896 159.71019784 2.1157234 158.98348272 2.11338919 C156.60823476 2.10703393 154.23304363 2.10787953 151.85778809 2.10870361 C150.15957057 2.10571306 148.46135374 2.10231077 146.76313782 2.098526 C142.14123063 2.08967089 137.51934193 2.08734724 132.89742708 2.08671021 C129.04295765 2.08576222 125.18849255 2.08208517 121.33402479 2.07853812 C112.24184601 2.07038769 103.14967713 2.06795441 94.05749512 2.06866455 C84.67012568 2.06926539 75.28281371 2.05871367 65.89545882 2.04292089 C57.8436152 2.02985627 49.79179038 2.02448021 41.73993623 2.02511996 C36.92757232 2.02537528 32.11525942 2.0225054 27.30290604 2.01194191 C22.77707697 2.00227914 18.2513479 2.0021692 13.72551537 2.00945854 C12.06303321 2.01050668 10.4005449 2.00812795 8.73807335 2.00209808 C6.47110721 1.99440739 4.2044889 1.9990034 1.93753052 2.00672913 C0.66805384 2.00618436 -0.60142284 2.00563959 -1.90936852 2.00507832 C-4.90869062 2.239207 -6.58502256 2.6684142 -9.09777832 4.25396729 Z " fill="#B6B6B6" transform="translate(189.0977783203125,1125.7460327148438)"/>
<path d="M0 0 C178.86 0 357.72 0 542 0 C542 0.99 542 1.98 542 3 C542.99 3 543.98 3 545 3 C545 6.63 545 10.26 545 14 C544.67 14 544.34 14 544 14 C544 10.7 544 7.4 544 4 C542.68 3.67 541.36 3.34 540 3 C539.67 2.67 539.34 2.34 539 2 C536.14530257 1.89585918 533.31455983 1.85794767 530.45918941 1.8613348 C529.54800215 1.85849258 528.63681489 1.85565036 527.6980159 1.85272202 C524.60440877 1.84431283 521.51083879 1.84310197 518.41722107 1.84178162 C516.1930897 1.83722049 513.9689592 1.83222114 511.74482971 1.82681805 C505.60164267 1.81317629 499.45846118 1.80580121 493.31526291 1.79939139 C487.38052812 1.7922319 481.44580322 1.7804053 475.51107612 1.76867336 C463.36527832 1.74482582 451.21947727 1.72563725 439.07366753 1.70907402 C427.04211419 1.69265148 415.01056691 1.67417654 402.97902107 1.65294075 C402.2318489 1.65162314 401.48467672 1.65030554 400.71486297 1.648948 C396.92058767 1.64224622 393.12631243 1.63550758 389.33203722 1.62875474 C362.43433602 1.58095011 335.53662917 1.53777706 308.63891602 1.49731445 C282.50284413 1.45798702 256.36677692 1.41656997 230.23071289 1.37231445 C229.42554828 1.37095192 228.62038367 1.36958939 227.79082013 1.36818558 C219.70526713 1.35450059 211.61971419 1.34077301 203.53416132 1.32701423 C187.06192359 1.29898523 170.58968539 1.27124051 154.1174469 1.2436676 C152.98131504 1.2417653 152.98131504 1.2417653 151.82223102 1.23982458 C101.21482827 1.15512195 50.60741489 1.07706775 0 1 C0 0.67 0 0.34 0 0 Z " fill="#8D8D8D" transform="translate(0,1900)"/>
<path d="M0 0 C66 0 132 0 200 0 C200 0.33 200 0.66 200 1 C199.17592651 1.12846313 199.17592651 1.12846313 198.33520508 1.25952148 C195.82746392 1.65108339 193.31998123 2.0442772 190.8125 2.4375 C189.94818359 2.57220703 189.08386719 2.70691406 188.19335938 2.84570312 C187.35224609 2.97783203 186.51113281 3.10996094 185.64453125 3.24609375 C184.83193848 3.3735498 184.0193457 3.50100586 183.18212891 3.63232422 C181.46950434 3.9208913 179.76839356 4.27789251 178.07421875 4.66015625 C176 5 176 5 173 4 C171.31843422 3.90627512 169.63339314 3.86929667 167.94921875 3.8671875 C166.44536621 3.86452881 166.44536621 3.86452881 164.91113281 3.86181641 C163.84733398 3.86616699 162.78353516 3.87051758 161.6875 3.875 C160.60694336 3.8754834 159.52638672 3.8759668 158.41308594 3.87646484 C151.42199817 3.90682446 144.56009145 4.19849723 137.609375 4.9765625 C135 5 135 5 133.17543411 4.01649666 C130.48987072 2.76163622 128.5436253 2.75377679 125.5836792 2.75949097 C123.93467117 2.75536697 123.93467117 2.75536697 122.25234985 2.75115967 C121.05113495 2.75835022 119.84992004 2.76554077 118.61230469 2.77294922 C117.34375641 2.77265717 116.07520813 2.77236511 114.76821899 2.77206421 C111.29330333 2.77149051 107.8185258 2.78324759 104.34364223 2.79721212 C100.71081175 2.80971658 97.07797808 2.81088976 93.44512939 2.81326294 C86.56745122 2.81947855 79.68983665 2.83589045 72.81218648 2.85596192 C64.98153824 2.87831841 57.15088696 2.88931372 49.32021475 2.89935279 C33.21343927 2.92025661 17.10672775 2.95543415 1 3 C0.67 2.01 0.34 1.02 0 0 Z " fill="#C8C8C8" transform="translate(347,1825)"/>
<path d="M0 0 C2.54464286 7.63392857 2.54464286 7.63392857 0.625 12 C0.08875 12.99 -0.4475 13.98 -1 15 C-1.99 15 -2.98 15 -4 15 C-4 14.34 -4 13.68 -4 13 C-3.34 12.67 -2.68 12.34 -2 12 C-2 8.37 -2 4.74 -2 1 C-25.54763483 0.92998503 -49.09525411 0.87704871 -72.64297199 0.84456348 C-83.5760629 0.82908056 -94.50908922 0.80796384 -105.44213867 0.77368164 C-114.96901608 0.74382289 -124.49584673 0.72443538 -134.02276963 0.71773452 C-139.06935456 0.71381627 -144.11580567 0.70457835 -149.16234779 0.68280983 C-153.90895378 0.66250031 -158.65537037 0.65615495 -163.40201569 0.66067696 C-165.14716558 0.65984927 -166.89232159 0.65385074 -168.63743401 0.64238358 C-171.0144501 0.62752579 -173.39074479 0.63102141 -175.76777649 0.63923645 C-176.81106117 0.62612866 -176.81106117 0.62612866 -177.8754223 0.61275607 C-180.70388833 0.63930076 -182.57414861 0.70553674 -184.93638897 2.33895397 C-186.92701474 5.44772299 -186.19189507 8.81664709 -185.625 12.3125 C-185.13882056 14.21534984 -185.13882056 14.21534984 -183 15 C-184.32 15 -185.64 15 -187 15 C-187.93619813 11.84493858 -188.1057123 9.03413498 -188.0625 5.75 C-188.05347656 4.85796875 -188.04445312 3.9659375 -188.03515625 3.046875 C-188.02355469 2.37140625 -188.01195312 1.6959375 -188 1 C-184.33970544 -1.30576134 -181.20280476 -1.26473137 -176.93586731 -1.29193115 C-176.22417804 -1.29913469 -175.51248877 -1.30633822 -174.77923316 -1.31376004 C-172.39421678 -1.3354492 -170.00936744 -1.3430025 -167.62426758 -1.35058594 C-165.91415801 -1.36315872 -164.20405443 -1.37657158 -162.49395752 -1.39076233 C-157.84706928 -1.42665695 -153.2001955 -1.45000632 -148.55321717 -1.4705801 C-144.67175277 -1.48898855 -140.79033977 -1.51373072 -136.90891188 -1.53855062 C-127.74749633 -1.59713134 -118.58606545 -1.64583833 -109.42456055 -1.68798828 C-99.98264102 -1.73155867 -90.54089286 -1.78961904 -81.0991028 -1.85523582 C-72.98773161 -1.91120885 -64.8763413 -1.959153 -56.76488227 -2.0004847 C-51.9227468 -2.02517445 -47.08067058 -2.0526358 -42.23859596 -2.08739471 C-37.68075743 -2.11967811 -33.12297678 -2.14185332 -28.56504822 -2.15640068 C-26.8965846 -2.16335157 -25.22813105 -2.17375395 -23.55971336 -2.18795204 C-15.46978161 -2.25476209 -7.84847648 -2.26029654 0 0 Z " fill="#DDDDDD" transform="translate(363,1210)"/>
<path d="M0 0 C1.65 0.33 3.3 0.66 5 1 C5.08096803 2.45742463 5.13917774 3.91612807 5.1875 5.375 C5.22230469 6.18710938 5.25710938 6.99921875 5.29296875 7.8359375 C5.19628906 8.55007813 5.09960938 9.26421875 5 10 C1.27922921 12.48051386 -0.61349452 12.25594861 -5.06018066 12.26742554 C-6.14503368 12.27422221 -6.14503368 12.27422221 -7.25180292 12.28115618 C-9.68160495 12.29384316 -12.11118408 12.29217708 -14.54101562 12.29052734 C-16.28041371 12.29650982 -18.01980914 12.30331471 -19.75920105 12.31088257 C-24.488427 12.32857595 -29.21758062 12.33323928 -33.94683647 12.33451414 C-37.89092798 12.33641109 -41.83500255 12.34376606 -45.77908754 12.35085833 C-55.08076107 12.36715171 -64.38239587 12.37202632 -73.68408203 12.37060547 C-83.29025626 12.369403 -92.89620619 12.39052356 -102.50232363 12.4220928 C-110.74186403 12.44820941 -118.98133095 12.45897475 -127.22091246 12.45769465 C-132.14563088 12.45718376 -137.07014994 12.46293706 -141.99482727 12.48405075 C-146.62417795 12.50335621 -151.25313746 12.50361071 -155.8825016 12.48901749 C-157.58411032 12.48691885 -159.28574304 12.49169264 -160.98731041 12.5037384 C-163.30527918 12.51908865 -165.62188172 12.50995251 -167.93981934 12.49447632 C-169.23841637 12.49556585 -170.5370134 12.49665539 -171.87496185 12.49777794 C-175 12 -175 12 -176.96079254 10.17222023 C-178.39897404 7.16603806 -177.7909141 5.16365638 -177 2 C-176.67 2 -176.34 2 -176 2 C-175.34 4.97 -174.68 7.94 -174 11 C-151.33045578 10.89290782 -128.66094594 10.78017322 -105.99146366 10.66066074 C-95.46640717 10.6053057 -84.94134729 10.55182002 -74.41625977 10.50268555 C-65.24609272 10.45987159 -56.07595087 10.41360075 -46.90582269 10.36312145 C-42.04716334 10.33649798 -37.18850905 10.31164443 -32.32982063 10.29092598 C-27.76216976 10.27139407 -23.19456695 10.24726084 -18.62695885 10.21950912 C-16.94549046 10.21012036 -15.26401151 10.2024517 -13.58252716 10.19658089 C-11.29695398 10.18835056 -9.0114984 10.1740829 -6.72596741 10.15821838 C-5.44375337 10.15176583 -4.16153933 10.14531328 -2.84047031 10.1386652 C-0.09972938 10.32365853 -0.09972938 10.32365853 1 9 C1.30523962 4.34911285 1.30523962 4.34911285 0 0 Z " fill="#A5A5A5" transform="translate(357,1212)"/>
<path d="M0 0 C1.09559875 -0.00233999 1.09559875 -0.00233999 2.21333081 -0.00472724 C4.67927369 -0.00873991 7.14515582 -0.00554657 9.61109924 -0.00241089 C11.37152645 -0.00376482 13.13195338 -0.00554471 14.89237976 -0.00772095 C19.68776346 -0.01229654 24.48312576 -0.01050512 29.27850986 -0.00734186 C34.28643272 -0.00481851 39.29435368 -0.00715577 44.30227661 -0.00872803 C52.71495393 -0.01054996 61.12762248 -0.00814296 69.54029846 -0.00338745 C79.27814895 0.00205345 89.01597849 0.00029386 98.75382847 -0.00521386 C107.10030943 -0.00974641 115.44678408 -0.01039478 123.79326588 -0.00777519 C128.78441623 -0.00621297 133.77555674 -0.00601711 138.76670647 -0.00931168 C143.45911137 -0.01219238 148.15148918 -0.010211 152.84389114 -0.00441742 C154.57010033 -0.00309082 156.29631177 -0.00348225 158.02252007 -0.00568008 C160.37116435 -0.00839554 162.71972076 -0.00500554 165.06835938 0 C166.38522452 0.00037703 167.70208967 0.00075405 169.05885983 0.0011425 C172.09767151 0.12698364 172.09767151 0.12698364 174.09767151 1.12698364 C173.76767151 1.78698364 173.43767151 2.44698364 173.09767151 3.12698364 C172.10767151 2.79698364 171.11767151 2.46698364 170.09767151 2.12698364 C167.75168756 2.03439651 165.40307701 2.00505809 163.05526733 2.00672913 C162.33399884 2.0058747 161.61273035 2.00502028 160.86960524 2.00413996 C158.44666021 2.00248953 156.02378402 2.00799941 153.60084534 2.01345825 C151.86643475 2.01374024 150.13202404 2.01358216 148.39761353 2.01301575 C143.68305509 2.01272824 138.96852197 2.01861745 134.25396943 2.0255897 C129.32920602 2.03183099 124.40444205 2.03242766 119.47967529 2.03361511 C110.1512038 2.03672613 100.822744 2.04493645 91.49427766 2.0549646 C80.87530651 2.06613283 70.25633482 2.07163798 59.63735926 2.07666004 C37.79079015 2.08711924 15.94423156 2.10471427 -5.90232849 2.12698364 C-6.56232849 4.76698364 -7.22232849 7.40698364 -7.90232849 10.12698364 C-8.23232849 10.12698364 -8.56232849 10.12698364 -8.90232849 10.12698364 C-8.76183331 8.6473004 -8.61478023 7.16823848 -8.46482849 5.68948364 C-8.38361755 4.86577271 -8.30240662 4.04206177 -8.21873474 3.19338989 C-7.52316474 -1.34928333 -3.93070366 0.0011257 0 0 Z " fill="#BABABA" transform="translate(186.90232849121094,1209.8730163574219)"/>
<path d="M0 0 C2.64 0 5.28 0 8 0 C8.33 2.97 8.66 5.94 9 9 C5.625 9.625 5.625 9.625 2 10 C0 8 0 8 -0.1953125 6.0546875 C-0.13020833 4.03645833 -0.06510417 2.01822917 0 0 Z " fill="#6C6C6C" transform="translate(181,1212)"/>
<path d="M0 0 C0.66 0.33 1.32 0.66 2 1 C-0.7826171 3.7826171 -3.10332225 3.40930664 -6.90625 3.65625 C-9.21512259 3.82631807 -9.21512259 3.82631807 -11 6 C-13.05859375 6.265625 -13.05859375 6.265625 -15.4375 6.25 C-16.61119141 6.25773437 -16.61119141 6.25773437 -17.80859375 6.265625 C-20 6 -20 6 -23 4 C-25.22131423 3.6349209 -25.22131423 3.6349209 -27.66796875 3.5859375 C-28.56064453 3.54726562 -29.45332031 3.50859375 -30.37304688 3.46875 C-31.30181641 3.4378125 -32.23058594 3.406875 -33.1875 3.375 C-34.12787109 3.33632812 -35.06824219 3.29765625 -36.03710938 3.2578125 C-38.3578771 3.16356813 -40.67863748 3.07795975 -43 3 C-43 2.67 -43 2.34 -43 2 C-39.12501596 1.97082766 -35.25006042 1.95314327 -31.375 1.9375 C-30.28058594 1.92912109 -29.18617188 1.92074219 -28.05859375 1.91210938 C-26.46337891 1.90727539 -26.46337891 1.90727539 -24.8359375 1.90234375 C-23.37486572 1.89448853 -23.37486572 1.89448853 -21.88427734 1.88647461 C-19 2 -19 2 -15.76025391 2.56860352 C-13.04826124 3.26578148 -13.04826124 3.26578148 -11 2 C-8.70190464 1.69130062 -6.40279871 1.49116352 -4.09375 1.28125 C-1.94556067 1.107845 -1.94556067 1.107845 0 0 Z " fill="#EDEDED" transform="translate(539,1826)"/>
<path d="M0 0 C2.475 0.495 2.475 0.495 5 1 C5.08096803 2.45742463 5.13917774 3.91612807 5.1875 5.375 C5.23970703 6.59316406 5.23970703 6.59316406 5.29296875 7.8359375 C5.19628906 8.55007813 5.09960938 9.26421875 5 10 C1.60102327 12.26598448 0.43680827 12.23742654 -3.54296875 12.1953125 C-5.15268555 12.18564453 -5.15268555 12.18564453 -6.79492188 12.17578125 C-8.47424805 12.15064453 -8.47424805 12.15064453 -10.1875 12.125 C-11.31865234 12.11597656 -12.44980469 12.10695313 -13.61523438 12.09765625 C-16.41036828 12.07406862 -19.20507845 12.041153 -22 12 C-22 11.67 -22 11.34 -22 11 C-21.3387915 10.97494385 -20.67758301 10.9498877 -19.99633789 10.92407227 C-17.01817695 10.80846898 -14.0403608 10.68558246 -11.0625 10.5625 C-9.50112305 10.50352539 -9.50112305 10.50352539 -7.90820312 10.44335938 C-6.42416992 10.38051758 -6.42416992 10.38051758 -4.91015625 10.31640625 C-3.99371338 10.27974854 -3.07727051 10.24309082 -2.13305664 10.20532227 C-0.0179272 10.22996136 -0.0179272 10.22996136 1 9 C1.30523962 4.34911285 1.30523962 4.34911285 0 0 Z " fill="#AFAFAF" transform="translate(357,1212)"/>
<path d="M0 0 C2.31 0 4.62 0 7 0 C7 2.64 7 5.28 7 8 C4.69 8 2.38 8 0 8 C0 5.36 0 2.72 0 0 Z " fill="#575757" transform="translate(351,1129)"/>
<path d="M0 0 C1.2065625 0.0309375 1.2065625 0.0309375 2.4375 0.0625 C2.81813221 2.3885857 3.15019945 4.72305264 3.4375 7.0625 C2.4375 8.0625 2.4375 8.0625 -0.0625 8.1875 C-2.5625 8.0625 -2.5625 8.0625 -3.5625 7.0625 C-3.6875 4.0625 -3.6875 4.0625 -3.5625 1.0625 C-2.5625 0.0625 -2.5625 0.0625 0 0 Z " fill="#5B5B5B" transform="translate(354.5625,1212.9375)"/>
<path d="M0 0 C7.26 0 14.52 0 22 0 C22 0.99 22 1.98 22 3 C22.99 3 23.98 3 25 3 C25 6.63 25 10.26 25 14 C24.67 14 24.34 14 24 14 C24 10.7 24 7.4 24 4 C22.68 3.67 21.36 3.34 20 3 C19.67 2.67 19.34 2.34 19 2 C17.58672053 1.84379445 16.1664541 1.74943827 14.74609375 1.68359375 C13.89208984 1.64169922 13.03808594 1.59980469 12.15820312 1.55664062 C11.26037109 1.51732422 10.36253906 1.47800781 9.4375 1.4375 C8.53580078 1.39431641 7.63410156 1.35113281 6.70507812 1.30664062 C4.47021515 1.20021858 2.23523692 1.09820012 0 1 C0 0.67 0 0.34 0 0 Z " fill="#A4A4A4" transform="translate(520,1900)"/>
<path d="M0 0 C0.99 0 1.98 0 3 0 C3 2.64 3 5.28 3 8 C1.35 8 -0.3 8 -2 8 C-2.125 5.125 -2.125 5.125 -2 2 C-1.34 1.34 -0.68 0.68 0 0 Z " fill="#525252" transform="translate(185,1129)"/>
<path d="M0 0 C-2.35601599 2.35601599 -3.0955573 2.30838856 -6.3125 2.5625 C-8.94213078 2.79042947 -11.29932352 3.07157736 -13.875 3.6875 C-16 4 -16 4 -19 2 C-12.65176798 -0.30844801 -6.70518586 -0.19818283 0 0 Z " fill="#DEDEDE" transform="translate(539,1826)"/>
<path d="M0 0 C-0.804375 0.474375 -1.60875 0.94875 -2.4375 1.4375 C-4.84753488 2.76900154 -4.84753488 2.76900154 -6 4 C-6.15437043 7.47333475 -6.21826098 10.71069536 -5 14 C-4.34 14.33 -3.68 14.66 -3 15 C-4.32 15 -5.64 15 -7 15 C-7.93619813 11.84493858 -8.1057123 9.03413498 -8.0625 5.75 C-8.05347656 4.85796875 -8.04445312 3.9659375 -8.03515625 3.046875 C-8.02355469 2.37140625 -8.01195312 1.6959375 -8 1 C-4.84227798 -0.73807388 -3.46421706 -1.23722038 0 0 Z " fill="#E8E8E8" transform="translate(183,1210)"/>
<path d="M0 0 C4.62 0 9.24 0 14 0 C13.01 1.485 13.01 1.485 12 3 C9.6875 3.328125 9.6875 3.328125 7 3.25 C5.6696875 3.22679687 5.6696875 3.22679687 4.3125 3.203125 C2 3 2 3 0 2 C0 1.34 0 0.68 0 0 Z " fill="#EFEFEF" transform="translate(480,1829)"/>
<path d="M0 0 C0.33 0 0.66 0 1 0 C1.66 2.97 2.32 5.94 3 9 C6.96 9 10.92 9 15 9 C15 9.33 15 9.66 15 10 C12.89695523 10.1080023 10.79233091 10.18558987 8.6875 10.25 C6.92986328 10.31960938 6.92986328 10.31960938 5.13671875 10.390625 C2 10 2 10 0.0625 8.1875 C-1.40286353 5.17057509 -0.795896 3.18358402 0 0 Z " fill="#9C9C9C" transform="translate(180,1214)"/>
<path d="M0 0 C1.65 0 3.3 0 5 0 C5 1.98 5 3.96 5 6 C3.35 5.67 1.7 5.34 0 5 C0 3.35 0 1.7 0 0 Z " fill="#4A4A4A" transform="translate(183,1215)"/>
<path d="M0 0 C1.65 0 3.3 0 5 0 C5 1.65 5 3.3 5 5 C3.35 5 1.7 5 0 5 C0 3.35 0 1.7 0 0 Z " fill="#434343" transform="translate(353,1215)"/>
<path d="M0 0 C0.99 0 1.98 0 3 0 C3.66 2.31 4.32 4.62 5 7 C4.01 7.99 3.02 8.98 2 10 C1.77213542 7.98177083 1.54427083 5.96354167 1.31640625 3.9453125 C1.08707039 1.92595684 1.08707039 1.92595684 0 0 Z " fill="#E9E9E9" transform="translate(361,1127)"/>
<path d="M0 0 C1.32 0.33 2.64 0.66 4 1 C4 3.31 4 5.62 4 8 C3.34 8 2.68 8 2 8 C1.34 5.36 0.68 2.72 0 0 Z " fill="#9F9F9F" transform="translate(357,1212)"/>
</svg>
