<?xml version="1.0" encoding="UTF-8"?>

<svg version="1.1" xmlns="http://www.w3.org/2000/svg" width="548" height="1911">
<path d="M0 0 C180.84 0 361.68 0 548 0 C548 630.63 548 1261.26 548 1911 C367.16 1911 186.32 1911 0 1911 C0 1280.37 0 649.74 0 0 Z " fill="#FDFDFD" transform="translate(0,0)"/>
<path d="M0 0 C173.91 0 347.82 0 527 0 C527 207.24 527 414.48 527 628 C353.09 628 179.18 628 0 628 C0 420.76 0 213.52 0 0 Z " fill="#FEFEFE" transform="translate(11,9)"/>
<path d="M0 0 C173.91 0 347.82 0 527 0 C527 206.25 527 412.5 527 625 C353.09 625 179.18 625 0 625 C0 418.75 0 212.5 0 0 Z " fill="#FEFEFE" transform="translate(11,1199)"/>
<path d="M0 0 C180.84 0 361.68 0 548 0 C548 630.63 548 1261.26 548 1911 C367.16 1911 186.32 1911 0 1911 C0 1280.37 0 649.74 0 0 Z M11 9 C11 216.24 11 423.48 11 637 C184.91 637 358.82 637 538 637 C538 429.76 538 222.52 538 9 C364.09 9 190.18 9 11 9 Z M11 767 C11 903.62 11 1040.24 11 1181 C184.91 1181 358.82 1181 538 1181 C538 1044.38 538 907.76 538 767 C534.37 767 530.74 767 527 767 C527.02320313 768.42054688 527.04640625 769.84109375 527.0703125 771.3046875 C527.08906771 773.16145309 527.10726817 775.01822435 527.125 776.875 C527.14175781 777.81214844 527.15851562 778.74929688 527.17578125 779.71484375 C527.18544922 781.05869141 527.18544922 781.05869141 527.1953125 782.4296875 C527.21102295 783.67081299 527.21102295 783.67081299 527.22705078 784.93701172 C527 787 527 787 525 789 C522.03681785 789.18503384 519.15885358 789.25265955 516.1953125 789.23828125 C514.39712787 789.253701 512.59895064 789.27000464 510.80078125 789.28710938 C507.96093462 789.30357154 505.12162874 789.31249161 502.28173828 789.30541992 C499.54397113 789.30280255 496.8078589 789.33090275 494.0703125 789.36328125 C493.22228058 789.35307449 492.37424866 789.34286774 491.5005188 789.33235168 C490.70644623 789.3455394 489.91237366 789.35872711 489.09423828 789.37231445 C488.05071701 789.37325859 488.05071701 789.37325859 486.9861145 789.3742218 C484.71471706 789.86360824 484.71471706 789.86360824 483.31003094 792.49978578 C481 795 481 795 477.85322857 795.62674582 C476.59928201 795.62755758 475.34533545 795.62836934 474.0533905 795.6292057 C473.35098681 795.63647291 472.64858311 795.64374011 471.92489445 795.65122753 C469.55900982 795.6695507 467.1947316 795.65209014 464.82885742 795.63491821 C463.12058016 795.64067656 461.41230908 795.64861575 459.70405102 795.65855443 C455.0003917 795.6794905 450.29723746 795.66908204 445.59357595 795.65362334 C440.52463902 795.64234131 435.45579082 795.65975686 430.38687134 795.67352295 C420.45315215 795.69579361 410.5196215 795.69093713 400.58589482 795.67645974 C392.51487886 795.66518254 384.44391586 795.66363002 376.37289429 795.66907883 C374.65194023 795.67022807 374.65194023 795.67022807 372.89621943 795.67140054 C370.56573048 795.67299911 368.23524154 795.67462018 365.90475261 795.6762635 C344.03521375 795.69053221 322.16577955 795.67411065 300.29625785 795.64726166 C281.51809082 795.62492189 262.74007831 795.62880171 243.96191406 795.65185547 C222.1723555 795.67859364 200.38288875 795.68915881 178.59331608 795.67379415 C176.27124597 795.67220135 173.94917585 795.6706295 171.62710571 795.66907883 C170.48450686 795.66830745 169.34190801 795.66753607 168.16468495 795.66674132 C160.10035802 795.66241837 152.03608918 795.66972368 143.97177124 795.68147659 C134.14832627 795.69547811 124.32508114 795.69175116 114.50165915 795.66507287 C109.48646399 795.65190304 104.47160239 795.64683609 99.45640945 795.66331863 C94.86954383 795.67816584 90.28332245 795.67011702 85.69651568 795.64343087 C84.03305534 795.63782359 82.3695411 795.64073638 80.70611513 795.65280981 C78.4521625 795.66792047 76.20044357 795.65252431 73.9466095 795.6292057 C72.69266294 795.62839394 71.43871637 795.62758218 70.14677143 795.62674582 C66.13196733 794.82711301 65.24080863 793.31090357 63 790 C61.0089555 789.29115458 61.0089555 789.29115458 58.87402344 789.43237305 C57.67323151 789.43293953 57.67323151 789.43293953 56.44818115 789.43351746 C55.16672211 789.4722271 55.16672211 789.4722271 53.859375 789.51171875 C52.97719299 789.51879349 52.09501099 789.52586823 51.18609619 789.53315735 C48.37319519 789.56110822 45.56229748 789.62384619 42.75 789.6875 C40.84117462 789.71258206 38.93231798 789.73539539 37.0234375 789.75585938 C32.34818848 789.81093701 27.67443367 789.89721306 23 790 C22.67 788.35 22.34 786.7 22 785 C23.59275557 784.99739563 23.59275557 784.99739563 25.21768802 784.99473864 C71.99014688 784.91819381 118.76260349 784.84041978 165.53504944 784.7563324 C166.24259963 784.75506072 166.95014982 784.75378904 167.67914092 784.75247882 C183.05423914 784.72483773 198.42933695 784.69697476 213.80443436 784.66888306 C221.3438253 784.65510926 228.88321634 784.64138452 236.42260742 784.62768555 C237.17288769 784.62632146 237.92316797 784.62495738 238.69618401 784.62355196 C263.03709838 784.57932078 287.37801691 784.5383321 311.71893968 784.49901587 C336.72183583 784.45861334 361.72472421 784.41495765 386.72760741 784.36717889 C390.25498998 784.36043983 393.78237263 784.35373816 397.30975533 784.34705925 C398.00402944 784.34574352 398.69830356 784.34442779 399.41361629 784.3430722 C410.61232544 784.3219457 421.81103754 784.30427257 433.0097545 784.28787469 C444.25442219 784.27133641 455.49907871 784.25111743 466.74373382 784.22733159 C472.8419346 784.21454134 478.94012709 784.20341316 485.03833771 784.19658089 C490.61126166 784.19030197 496.18415711 784.17950223 501.75706548 784.1649667 C503.78263879 784.16050666 505.8082167 784.15776634 507.83379471 784.15683801 C510.56824078 784.15534391 513.30260264 784.14782236 516.03703213 784.1386652 C516.83978653 784.13968787 517.64254092 784.14071054 518.46962121 784.14176419 C522.0301469 784.45374203 522.0301469 784.45374203 525 783 C525.09873816 781.00200428 525.12971799 779.00042842 525.125 777 C525.12886719 775.3603125 525.12886719 775.3603125 525.1328125 773.6875 C525.30547755 771.08169646 525.30547755 771.08169646 524 770 C521.34334377 769.90016124 518.71263187 769.8663911 516.05544281 769.87415886 C515.20871335 769.87270542 514.36198388 769.87125198 513.48959595 769.86975449 C510.61523888 769.86606724 507.74093394 769.86959344 504.86657715 769.87301636 C502.79990152 769.87186561 500.7332261 769.87027841 498.66655111 769.86828911 C492.9585471 769.86408937 487.25055967 769.86618937 481.54255557 769.86927533 C475.39798285 769.8715266 469.25341309 769.86805119 463.10884094 769.86529541 C451.75764136 769.86109393 440.40644859 769.86147468 429.05524917 769.86420688 C418.57045749 769.86671828 408.08566777 769.86738108 397.60087585 769.86618423 C396.90652998 769.86610785 396.21218411 769.86603146 395.49679745 769.86595276 C392.67851941 769.86564145 389.86024136 769.86532305 387.04196331 769.864993 C360.58164413 769.86193111 334.12132835 769.86471205 307.66100969 769.8700899 C284.13093824 769.87483582 260.60087219 769.87441121 237.07080078 769.86962891 C210.66017591 769.86427915 184.24955404 769.86214822 157.8389287 769.86524117 C155.02566052 769.86556191 152.21239233 769.86587475 149.39912415 769.86618423 C148.36000744 769.86630285 148.36000744 769.86630285 147.29989849 769.86642386 C136.81937222 769.86756335 126.33884811 769.86622731 115.85832214 769.86370468 C103.94652014 769.86085192 92.03472453 769.8616431 80.12292278 769.86698543 C74.0388877 769.86962362 67.95486364 769.87062553 61.87082863 769.86733627 C56.31090447 769.86437571 50.75100164 769.86596208 45.19107944 769.87131383 C43.17024374 769.87243905 41.14940627 769.87184454 39.12857169 769.86943804 C36.40054054 769.86643637 33.67258429 769.86947611 30.94455719 769.87415886 C30.14369299 769.87181769 29.34282878 769.86947653 28.51769596 769.86706442 C24.96406768 769.54967194 24.96406768 769.54967194 22 771 C21.67 770.01 21.34 769.02 21 768 C21.66 767.67 22.32 767.34 23 767 C19.04 767 15.08 767 11 767 Z M11 1199 C11 1405.25 11 1611.5 11 1824 C184.91 1824 358.82 1824 538 1824 C538 1617.75 538 1411.5 538 1199 C364.09 1199 190.18 1199 11 1199 Z " fill="#111111" transform="translate(0,0)"/>
<path d="M0 0 C1.3061783 -0.01365544 2.6123566 -0.02731087 3.95811605 -0.04138011 C5.40594651 -0.03126092 6.8537737 -0.02066659 8.3015976 -0.00964832 C9.84091029 -0.016125 11.38021512 -0.02477831 12.91950464 -0.03542262 C17.15151846 -0.0582705 21.38298356 -0.0498398 25.61501622 -0.03628337 C30.17816733 -0.0270438 34.74120819 -0.04650852 39.30432892 -0.06226063 C48.24429043 -0.08837603 57.18405103 -0.08725175 66.12403619 -0.07622244 C73.38838675 -0.06767137 80.65267909 -0.06848899 87.91703033 -0.07601833 C88.95011901 -0.07707322 89.98320769 -0.07812811 91.04760209 -0.07921496 C93.14616678 -0.08138584 95.24473145 -0.08357262 97.34329611 -0.08577511 C117.03108427 -0.10521472 136.7187596 -0.09319753 156.40653855 -0.07098917 C173.30714477 -0.05273623 190.20753258 -0.06364295 207.10811615 -0.09529591 C226.72446646 -0.13203301 246.34068031 -0.1490894 265.95706511 -0.13588363 C268.04799873 -0.1345425 270.13893237 -0.13323352 272.22986603 -0.13195705 C273.77311797 -0.13101106 273.77311797 -0.13101106 275.34754673 -0.13004595 C282.60492094 -0.12701512 289.86219248 -0.13829474 297.11954498 -0.15520763 C305.961418 -0.17550234 314.80298264 -0.17470928 323.64483941 -0.14657523 C328.15797357 -0.13277344 332.67056888 -0.12868091 337.1836834 -0.15052509 C341.31301808 -0.17024811 345.4413369 -0.16240904 349.57060069 -0.13233075 C351.06648713 -0.1263089 352.56245537 -0.13047183 354.05827647 -0.14569398 C364.84302999 -0.24746856 364.84302999 -0.24746856 368.5645594 1.64396119 C372.0884776 5.11725233 372.17494872 9.60157413 372.23750311 14.24519455 C372.22566738 15.24441748 372.21383165 16.24364041 372.20163727 17.27314281 C372.20873166 18.34533782 372.21582604 19.41753282 372.22313541 20.52221859 C372.24073896 24.11532892 372.22259738 27.70736097 372.2045517 31.30045605 C372.2096895 33.87610397 372.21696973 36.45174838 372.22623444 39.02738476 C372.24460411 45.29654523 372.23610399 51.56539383 372.21814621 57.83454455 C372.20411739 62.92878348 372.200228 68.02293778 372.20358849 73.11719418 C372.20406593 73.84237099 372.20454337 74.5675478 372.20503528 75.31469967 C372.20606161 76.78788156 372.20711697 78.26106344 372.20820104 79.73424529 C372.21676642 92.7573545 372.2000971 105.78031315 372.17037201 118.80338573 C372.14152305 131.44277295 372.13445686 144.08194336 372.1498642 156.72135448 C372.16661932 170.48528067 372.17066856 184.24910394 372.15315384 198.01303279 C372.15130944 199.48016698 372.14947471 200.94730118 372.14764977 202.41443539 C372.14673768 203.1362995 372.14582559 203.85816362 372.14488586 204.6019024 C372.13927707 209.69166543 372.1425907 214.78137826 372.14919472 219.87113857 C372.15772629 226.71826576 372.14479181 233.56507436 372.11734581 240.41215038 C372.11044196 242.92928035 372.11038526 245.44643948 372.11756134 247.96356869 C372.12620887 251.39100655 372.1103786 254.81746667 372.08811188 258.2448225 C372.09635264 259.24850687 372.10459341 260.25219124 372.1130839 261.28629029 C372.10203621 262.20320393 372.09098852 263.12011757 372.07960606 264.06481647 C372.07841457 264.85593897 372.07722309 265.64706146 372.0759955 266.46215737 C371.35251367 269.5859249 370.13655093 270.73911339 367.57344818 272.63199902 C364.67674589 273.13454634 364.67674589 273.13454634 361.23591614 273.13815689 C359.26826003 273.15472842 359.26826003 273.15472842 357.26085329 273.17163473 C355.80153229 273.16367709 354.34221332 273.15533938 352.88289642 273.14666271 C351.33548809 273.15198573 349.78808492 273.15905001 348.24069166 273.16770977 C343.98175083 273.18639651 339.72315629 273.18001153 335.46420074 273.16955674 C330.87380012 273.1625818 326.28347187 273.1785496 321.69309235 273.19155407 C312.69787249 273.21322761 303.70277898 273.21305867 294.70754158 273.20492852 C287.39882886 273.19863612 280.09015306 273.19975857 272.78144073 273.2062006 C271.74237712 273.20710225 270.70331351 273.20800391 269.63276312 273.20893289 C267.52211717 273.21078403 265.41147123 273.21264659 263.3008253 273.21452045 C243.49577171 273.23111045 223.6907893 273.22236934 203.88573998 273.20553487 C185.75326077 273.19083514 167.62094721 273.20546805 149.48848933 273.23430503 C130.8838011 273.26367341 112.27918941 273.2746789 93.67447901 273.26512283 C91.57147123 273.26410024 89.46846343 273.26310564 87.36545563 273.26213932 C85.8132578 273.26142474 85.8132578 273.26142474 84.22970244 273.26069571 C76.92729837 273.25852829 69.62496648 273.26835302 62.32257843 273.28291035 C53.42688876 273.30039607 44.53141041 273.30037049 35.63572919 273.27755869 C31.09442882 273.26638246 26.55350125 273.26333005 22.01221657 273.2818594 C17.85833558 273.29859041 13.70515467 273.2924145 9.55131966 273.26764261 C8.04532461 273.26273448 6.53927388 273.26634217 5.03332514 273.27913005 C2.9925952 273.29521415 0.95168205 273.27773618 -1.08901978 273.25841141 C-2.22449359 273.25814172 -3.35996741 273.25787203 -4.52984953 273.25759417 C-7.42655182 272.63199902 -7.42655182 272.63199902 -9.7910127 270.38616222 C-11.47551074 267.54955472 -11.92782567 266.18254269 -11.93270969 262.93897533 C-11.94375738 262.01945395 -11.95480507 261.09993256 -11.96618754 260.15254688 C-11.95382639 258.65036641 -11.95382639 258.65036641 -11.94121552 257.11783886 C-11.94816104 256.04720385 -11.95510657 254.97656883 -11.96226257 253.87349033 C-11.98058416 250.27976157 -11.97025347 246.68668908 -11.95999908 243.09293652 C-11.96705487 240.51905859 -11.97579844 237.94518482 -11.98610687 235.37131786 C-12.0077509 229.10240825 -12.0076191 222.83368013 -11.99948133 216.56474543 C-11.99318226 211.47001899 -11.99431749 206.3753455 -12.0007534 201.28061962 C-12.00165506 200.55559604 -12.00255671 199.83057246 -12.00348569 199.08357847 C-12.00533688 197.61072078 -12.00719944 196.13786311 -12.00907325 194.66500545 C-12.02565292 180.85302058 -12.0169309 167.04113785 -12.00008767 153.22915912 C-11.98538838 140.59070617 -12.00002192 127.9524909 -12.02885783 115.31406856 C-12.05824393 102.33792776 -12.06922657 89.36189669 -12.05967563 76.38572407 C-12.05865308 74.91827553 -12.05765847 73.45082698 -12.05669212 71.98337841 C-12.05621573 71.26136002 -12.05573934 70.53934163 -12.05524852 69.79544389 C-12.05308345 64.70663858 -12.06289324 59.61793706 -12.07746315 54.52915478 C-12.09679865 47.68036315 -12.08991998 40.83202133 -12.06526375 33.98324871 C-12.06024085 31.46653243 -12.06378363 28.94978268 -12.0764122 26.43309307 C-12.09226272 23.00360054 -12.07746541 19.57558118 -12.05474091 16.14615917 C-12.06657663 15.14470552 -12.07841236 14.14325188 -12.09060675 13.11145115 C-12.07818471 12.19192976 -12.06576267 11.27240837 -12.05296421 10.3250227 C-12.05269452 9.53373785 -12.05242483 8.742453 -12.05214697 7.92718983 C-10.36016725 1.71963485 -5.93123444 0.00711571 0 0 Z " fill="#FEFEFE" transform="translate(93.42655181884766,825.3680009841919)"/>
<path d="M0 0 C173.91 0 347.82 0 527 0 C527 24.75 527 49.5 527 75 C523.13697482 77.57535012 519.96286315 77.27822724 515.48417568 77.25447559 C514.59998228 77.25768207 513.71578888 77.26088855 512.80480173 77.26419219 C509.81498866 77.27255365 506.82537271 77.26654654 503.83555603 77.26069641 C501.68124511 77.26371429 499.52693526 77.26760192 497.37262732 77.27228898 C491.43162677 77.28262447 485.49068619 77.28037312 479.54968059 77.27610838 C473.15085557 77.27365122 466.75204537 77.28264264 460.35322571 77.29014587 C447.80987754 77.30292256 435.26655139 77.3046888 422.72319787 77.30234561 C412.53354213 77.30051508 402.34389269 77.3022675 392.15423775 77.30657005 C390.69185931 77.30717244 389.22948088 77.30777364 387.76710244 77.30837366 C385.56362944 77.30928088 383.36015645 77.31018954 381.15668345 77.31110601 C360.66318356 77.31953881 340.16968604 77.32386891 319.67618465 77.31969929 C318.90318008 77.31954291 318.13017551 77.31938654 317.33374656 77.31922542 C313.41557624 77.3184196 309.49740592 77.31757383 305.57923561 77.31671212 C304.80103051 77.31654103 304.02282542 77.31636994 303.22103836 77.31619367 C301.64731851 77.31584702 300.07359866 77.31549849 298.49987881 77.31514808 C274.00275328 77.30978868 249.50566373 77.31772618 225.00854492 77.33618164 C197.50614812 77.35687677 170.00377361 77.36762923 142.50136858 77.36360615 C139.57156122 77.36321079 136.64175386 77.36284924 133.71194649 77.36250877 C132.62980118 77.36237268 132.62980118 77.36237268 131.52579435 77.36223383 C120.61453224 77.36106574 109.70329256 77.36773207 98.79203606 77.37832069 C86.39061566 77.3903429 73.9892543 77.39168643 61.58783215 77.37953053 C55.25452072 77.37361272 48.92130639 77.37262195 42.58800125 77.38453293 C36.79921401 77.39529382 31.01060607 77.39240657 25.22182757 77.37827124 C23.11893471 77.37559707 21.01602823 77.37807478 18.91314863 77.38600711 C16.07187163 77.39598738 13.2312333 77.38780025 10.38998318 77.37473011 C9.55862643 77.38203946 8.72726968 77.3893488 7.8707203 77.39687964 C5.59202427 77.37489682 5.59202427 77.37489682 2 77 C-12.24210683 55.63683976 0 25.67532322 0 0 Z " fill="#FEFEFE" transform="translate(11,1832)"/>
<path d="M0 0 C173.91 0 347.82 0 527 0 C527 25.08 527 50.16 527 76 C353.09 76 179.18 76 0 76 C0 50.92 0 25.84 0 0 Z " fill="#FAFAFA" transform="translate(11,654)"/>
<path d="M0 0 C173.91 0 347.82 0 527 0 C527 6.6 527 13.2 527 20 C353.09 20 179.18 20 0 20 C0 13.4 0 6.8 0 0 Z " fill="#FDFDFD" transform="translate(11,742)"/>
<path d="M0 0 C1.65 0 3.3 0 5 0 C5.00022806 0.67877332 5.00045612 1.35754663 5.00069109 2.05688883 C5.02006759 59.70231405 5.03989825 117.34773911 5.06005859 174.99316406 C5.06045773 176.13454674 5.06085687 177.27592942 5.0612681 178.45189946 C5.0990888 286.57401737 5.13833552 394.69613465 5.20046684 543.2208621 C5.20132518 545.2548184 5.2021831 547.28877471 5.20304088 549.32273101 C5.22734675 606.9546204 5.25204009 664.58650961 5.27725234 722.21839861 C5.27818545 724.35137512 5.27911854 726.48435162 5.28005161 728.61732812 C5.28035979 729.32181282 5.28066798 730.02629751 5.2809855 730.75213023 C5.29257269 757.24200932 5.30407133 783.73188844 5.31551713 810.22176759 C5.31676083 813.09996218 5.31800554 815.97815676 5.31925117 818.85635134 C5.34865876 886.80842846 5.37647289 954.7605057 5.39910889 1022.71258545 C5.39934732 1023.42801454 5.39958575 1024.14344362 5.39983141 1024.88055238 C5.40775806 1048.67231118 5.41553023 1072.46407002 5.42328111 1096.25582888 C5.43028474 1117.7524529 5.43734384 1139.2490769 5.4445858 1160.74570084 C5.44482367 1161.45185684 5.44506155 1162.15801284 5.44530663 1162.88556751 C5.46021437 1207.09806861 5.47752367 1251.31056827 5.49726295 1295.52306747 C5.49756743 1296.20573938 5.4978719 1296.88841128 5.49818559 1297.59177022 C5.51155804 1327.57064628 5.52543169 1357.54952209 5.53987876 1387.52839765 C5.54568826 1399.58840101 5.55142349 1411.6484044 5.55711805 1423.70840781 C5.55806288 1425.70807557 5.55901025 1427.70774332 5.55995762 1429.70741107 C5.57442822 1460.31015506 5.58726323 1490.91289868 5.59528303 1521.51564503 C5.59545613 1522.17606418 5.59562922 1522.83648334 5.59580756 1523.51691519 C5.59875442 1534.80125729 5.60154315 1546.08559942 5.60431816 1557.36994156 C5.61488316 1600.21408556 5.63163192 1643.05822228 5.65705032 1685.90236019 C5.66055654 1691.81491228 5.66399139 1697.7274644 5.66738319 1703.64001656 C5.66838445 1705.37865106 5.66838445 1705.37865106 5.66940594 1707.1524095 C5.6798158 1725.55033125 5.68348338 1743.94824801 5.68437787 1762.34617243 C5.68539338 1780.41064057 5.69345555 1798.4750939 5.70915592 1816.53955538 C5.71815926 1827.14739493 5.72161413 1837.7552023 5.71708247 1848.36304491 C5.71461831 1855.39269061 5.71929266 1862.42230725 5.72997108 1869.45194524 C5.73583354 1873.44678642 5.73848319 1877.44156062 5.73239125 1881.43640298 C5.72692982 1885.05521012 5.7305284 1888.67388655 5.74159838 1892.29267985 C5.74507846 1894.21336623 5.73869567 1896.13406263 5.7319834 1898.05474044 C5.73727778 1899.18659642 5.74257217 1900.31845241 5.74802699 1901.48460706 C5.74841103 1902.46083542 5.74879507 1903.43706379 5.74919075 1904.44287483 C6.00872035 1907.08890831 6.65111065 1908.73147427 8 1911 C5.36 1911 2.72 1911 0 1911 C0 1280.37 0 649.74 0 0 Z " fill="#ECECEC" transform="translate(0,0)"/>
<path d="M0 0 C3.96 0 7.92 0 12 0 C11.01 0.495 11.01 0.495 10 1 C10.33 1.99 10.66 2.98 11 4 C11.33 3.67 11.66 3.34 12 3 C14.65665623 2.90016124 17.28736813 2.8663911 19.94455719 2.87415886 C20.79128665 2.87270542 21.63801612 2.87125198 22.51040405 2.86975449 C25.38476112 2.86606724 28.25906606 2.86959344 31.13342285 2.87301636 C33.20009848 2.87186561 35.2667739 2.87027841 37.33344889 2.86828911 C43.0414529 2.86408937 48.74944033 2.86618937 54.45744443 2.86927533 C60.60201715 2.8715266 66.74658691 2.86805119 72.89115906 2.86529541 C84.24235864 2.86109393 95.59355141 2.86147468 106.94475083 2.86420688 C117.42954251 2.86671828 127.91433223 2.86738108 138.39912415 2.86618423 C139.44064295 2.86606966 139.44064295 2.86606966 140.50320255 2.86595276 C143.32148059 2.86564145 146.13975864 2.86532305 148.95803669 2.864993 C175.41835587 2.86193111 201.87867165 2.86471205 228.33899031 2.8700899 C251.86906176 2.87483582 275.39912781 2.87441121 298.92919922 2.86962891 C325.33982409 2.86427915 351.75044596 2.86214822 378.1610713 2.86524117 C380.97433948 2.86556191 383.78760767 2.86587475 386.60087585 2.86618423 C387.29362032 2.86626331 387.98636479 2.86634239 388.70010151 2.86642386 C399.18062778 2.86756335 409.66115189 2.86622731 420.14167786 2.86370468 C432.05347986 2.86085192 443.96527547 2.8616431 455.87707722 2.86698543 C461.9611123 2.86962362 468.04513636 2.87062553 474.12917137 2.86733627 C479.68909553 2.86437571 485.24899836 2.86596208 490.80892056 2.87131383 C492.82975626 2.87243905 494.85059373 2.87184454 496.87142831 2.86943804 C499.59945946 2.86643637 502.32741571 2.86947611 505.05544281 2.87415886 C506.25673912 2.87064711 506.25673912 2.87064711 507.48230404 2.86706442 C512.88584966 2.88584966 512.88584966 2.88584966 514 4 C514.09873816 5.99799572 514.12971799 7.99957158 514.125 10 C514.12757813 11.093125 514.13015625 12.18625 514.1328125 13.3125 C514 16 514 16 513 17 C510.33734965 17.10402821 507.70038823 17.14205818 505.03703213 17.1386652 C504.18831469 17.14150742 503.33959726 17.14434964 502.46516111 17.14727798 C499.58405929 17.15568622 496.70299735 17.15689795 493.82188416 17.15821838 C491.75037033 17.16277957 489.67885744 17.16777893 487.60734564 17.17318195 C481.88601696 17.18682297 476.16469426 17.19419857 470.44335353 17.20060861 C464.28447888 17.2085865 458.12561677 17.22229318 451.9667511 17.23532104 C441.28647659 17.25712101 430.60620151 17.27528722 419.92591667 17.29092598 C408.72052471 17.30734875 397.51513924 17.32582379 386.30975533 17.34705925 C385.61387798 17.34837686 384.91800064 17.34969446 384.2010361 17.351052 C380.66724246 17.35775378 377.13344888 17.36449242 373.59965534 17.37124526 C348.54878369 17.41904937 323.49790598 17.46222256 298.44702148 17.50268555 C274.10554564 17.54201324 249.76407483 17.58343036 225.42260742 17.62768555 C224.29778061 17.62972934 224.29778061 17.62972934 223.15023002 17.63181442 C215.61980281 17.64549942 208.08937568 17.65922699 200.5589486 17.67298577 C185.21764932 17.70101474 169.87634954 17.72875947 154.53504944 17.7563324 C153.82963129 17.7576006 153.12421314 17.7588688 152.39741868 17.76017542 C105.26495393 17.84487746 58.13247779 17.92293193 11 18 C11.33 19.32 11.66 20.64 12 22 C9 20 9 20 8 17 C7.92948886 14.26134713 7.90642235 11.54972412 7.9375 8.8125 C7.94201172 8.06291016 7.94652344 7.31332031 7.95117188 6.54101562 C7.96293646 4.69397617 7.98087135 2.84697787 8 1 C5.69 1 3.38 1 1 1 C1 136.96 1 272.92 1 413 C174.25 413 347.5 413 526 413 C526 277.04 526 141.08 526 1 C522.7 1.33 519.4 1.66 516 2 C516 1.34 516 0.68 516 0 C519.63 0 523.26 0 527 0 C527 136.62 527 273.24 527 414 C353.09 414 179.18 414 0 414 C0 277.38 0 140.76 0 0 Z " fill="#FBFBFB" transform="translate(11,767)"/>
<path d="M0 0 C1.65 0 3.3 0 5 0 C5 630.63 5 1261.26 5 1911 C2.69 1911 0.38 1911 -2 1911 C-1.51270851 1910.27699024 -1.02541703 1909.55398048 -0.52335913 1908.80906133 C2.05179925 1903.59438869 1.40768342 1897.7319348 1.37374616 1892.05501866 C1.37646964 1890.71267683 1.38050886 1889.37033715 1.38574158 1888.02800275 C1.39634728 1884.32249499 1.38818698 1880.61722626 1.37708356 1876.91172864 C1.36828914 1872.87180575 1.37691743 1868.83191406 1.38333416 1864.79199189 C1.39221226 1857.67864586 1.38986742 1850.56537079 1.38032833 1843.45202664 C1.36610627 1832.80314304 1.36915878 1822.15431255 1.37564412 1811.50542392 C1.38618956 1793.35903106 1.38246862 1775.21266586 1.37107468 1757.06627464 C1.35957897 1738.66951035 1.3545946 1720.27276156 1.35761642 1701.87599373 C1.35780298 1700.71530512 1.35798954 1699.55461651 1.35818175 1698.35875551 C1.35916209 1692.44070049 1.36024692 1686.52264549 1.36136696 1680.60459049 C1.36925191 1637.73602514 1.36245396 1594.86747202 1.34775543 1551.998909 C1.33322513 1509.53468974 1.32444903 1467.07047652 1.32357025 1424.60625458 C1.32350862 1421.94209778 1.32344691 1419.27794097 1.32338512 1416.61378417 C1.32314629 1405.90835382 1.32296273 1395.20292347 1.32283698 1384.49749312 C1.32247862 1354.56963683 1.32112958 1324.64178063 1.31907272 1294.71392441 C1.31902632 1294.03258091 1.31897993 1293.35123741 1.31893212 1292.64924714 C1.31591548 1248.51605314 1.30871888 1204.38286096 1.29820633 1160.24966812 C1.29803863 1159.54498879 1.29787094 1158.84030945 1.29769816 1158.1142762 C1.29224571 1135.22777629 1.2864885 1112.34127646 1.28070599 1089.45477664 C1.27507203 1067.15187831 1.26952559 1044.84897997 1.26428223 1022.54608154 C1.26411432 1021.8322737 1.26394641 1021.11846586 1.26377342 1020.38302748 C1.24786029 952.59675206 1.2429185 884.81047707 1.24031737 817.0242 C1.24017908 813.43579666 1.24003762 809.84739331 1.23989645 806.25898996 C1.23950273 796.23161296 1.2391158 786.20423595 1.23872932 776.17685894 C1.23867422 774.74747101 1.23861912 773.31808309 1.23856402 771.88869516 C1.23852314 770.82783709 1.23852314 770.82783709 1.23848142 769.74554754 C1.23826131 764.03836454 1.23803941 758.33118154 1.23781673 752.62399855 C1.23767803 749.06426909 1.23754058 745.50453964 1.23740576 741.94481019 C1.23576105 698.54284096 1.23280572 655.14087205 1.22809982 611.73890305 C1.22798907 610.71726493 1.22798907 610.71726493 1.22787608 609.67498765 C1.22440717 577.7546146 1.22043795 545.83424161 1.2160995 513.91386867 C1.21600936 513.2505176 1.21591921 512.58716654 1.21582634 511.90371393 C1.21392233 497.90377368 1.21198615 483.90383343 1.21000063 469.9038932 C1.20605539 442.02801595 1.20255692 414.15213875 1.20018864 386.27626133 C1.19539304 330.42710956 1.18834712 274.57796064 1.17204097 218.72881088 C1.17067807 214.0186746 1.16932812 209.30853831 1.16798782 204.59840202 C1.16765696 203.44240505 1.1673261 202.28640808 1.16698522 201.09538089 C1.16181574 182.74106606 1.15997921 164.38675248 1.15949048 146.03243699 C1.15893547 128.01432755 1.15481177 109.9962219 1.14680431 91.9781142 C1.1422051 81.39542827 1.14036192 70.81275029 1.14247873 60.23006353 C1.14360923 53.21968176 1.14117002 46.20930736 1.13571002 39.19892763 C1.13270797 35.21343348 1.13132254 31.22795609 1.13429123 27.24246152 C1.13694939 23.63448003 1.1351013 20.02653149 1.12948508 16.41855364 C1.12770177 14.49878395 1.13086724 12.57901165 1.1341792 10.65924399 C1.13150949 9.53508179 1.12883978 8.4109196 1.12608917 7.25269188 C1.12587726 6.27893556 1.12566534 5.30517923 1.125447 4.30191514 C1.15154955 1.97153261 1.15154955 1.97153261 0 0 Z " fill="#FAFAFA" transform="translate(543,0)"/>
<path d="M0 0 C0.33 0 0.66 0 1 0 C1.05399736 1.45792884 1.09279177 2.91642712 1.125 4.375 C1.14820313 5.18710937 1.17140625 5.99921875 1.1953125 6.8359375 C1 9 1 9 -1 11 C-3.96318215 11.18503384 -6.84114642 11.25265955 -9.8046875 11.23828125 C-11.60287213 11.253701 -13.40104936 11.27000464 -15.19921875 11.28710938 C-18.03906538 11.30357154 -20.87837126 11.31249161 -23.71826172 11.30541992 C-26.45602887 11.30280255 -29.1921411 11.33090275 -31.9296875 11.36328125 C-33.20173538 11.34797112 -33.20173538 11.34797112 -34.4994812 11.33235168 C-35.29355377 11.3455394 -36.08762634 11.35872711 -36.90576172 11.37231445 C-37.94928299 11.37325859 -37.94928299 11.37325859 -39.0138855 11.3742218 C-41.28531525 11.86360918 -41.28531525 11.86360918 -42.68996906 14.49996036 C-45 17 -45 17 -48.14677143 17.62559515 C-49.40071799 17.62586484 -50.65466455 17.62613453 -51.9466095 17.62641239 C-53.00021504 17.6368638 -53.00021504 17.6368638 -54.07510555 17.64752635 C-56.44100038 17.66484287 -58.80527332 17.64636907 -61.17114258 17.62818909 C-62.87941897 17.63323165 -64.58769008 17.64045823 -66.29594898 17.64968723 C-70.99961738 17.66867785 -75.70276839 17.65633758 -80.40642405 17.6389643 C-85.47535397 17.62562952 -90.54420622 17.64101337 -95.61312866 17.65278625 C-105.54685494 17.67119633 -115.48038495 17.66262807 -125.41410518 17.64469803 C-133.48511949 17.63069069 -141.55608041 17.62677521 -149.62710571 17.6301403 C-150.77440841 17.63061775 -151.92171112 17.63109519 -153.10378057 17.6315871 C-155.43426952 17.6326134 -157.76475846 17.63366875 -160.09524739 17.63475286 C-180.71750897 17.64332674 -201.33967559 17.6266226 -221.96191406 17.59692383 C-241.98734527 17.56808479 -262.01263966 17.56100201 -282.03808594 17.57641602 C-303.82763971 17.59316485 -325.61712847 17.59722584 -347.40668392 17.57970566 C-349.72875404 17.5778612 -352.05082416 17.57602648 -354.37289429 17.57420158 C-356.08679256 17.57283345 -356.08679256 17.57283345 -357.83531505 17.57143768 C-365.89963074 17.56582408 -373.96391478 17.56914712 -382.02822876 17.57574654 C-391.85165348 17.58346612 -401.67494336 17.57677684 -411.49834085 17.5515715 C-416.51349146 17.53904446 -421.52843182 17.53296862 -426.54359055 17.54411316 C-431.13037906 17.55411357 -435.71674721 17.54578611 -440.30348432 17.52253198 C-441.96694407 17.51734915 -443.63044113 17.51897657 -445.29388487 17.52792663 C-447.54756302 17.53904803 -449.79980135 17.52577195 -452.0533905 17.50615788 C-453.30733706 17.50496639 -454.56128363 17.50377491 -455.85322857 17.50254732 C-459.5611238 16.91038712 -460.77588782 15.97341241 -463 13 C-463 12.34 -463 11.68 -463 11 C-476.2 11 -489.4 11 -503 11 C-503.33 9.35 -503.66 7.7 -504 6 C-500.82440154 4.41220077 -497.40095461 4.8655036 -493.9139843 4.87695217 C-493.06411302 4.87579833 -492.21424174 4.87464448 -491.33861679 4.87345567 C-488.45960191 4.87078577 -485.58064174 4.87531424 -482.70162964 4.87974548 C-480.62925361 4.87930986 -478.55687764 4.87843511 -476.48450196 4.87715632 C-470.76542363 4.87490965 -465.04636387 4.87893498 -459.32728791 4.88393438 C-453.16911966 4.88823624 -447.01095253 4.88679264 -440.8527832 4.8860321 C-430.17524812 4.8855067 -419.49771974 4.88862045 -408.82018661 4.89426994 C-397.61841681 4.90018165 -386.41664943 4.90403481 -375.21487808 4.90512276 C-374.17116518 4.90522587 -374.17116518 4.90522587 -373.10636716 4.90533106 C-369.57288253 4.90566938 -366.0393979 4.90597077 -362.50591327 4.90625793 C-337.46113454 4.90835981 -312.41635898 4.91510127 -287.37158203 4.92456055 C-263.03694679 4.93374102 -238.70231241 4.94082657 -214.36767578 4.94506836 C-213.24304626 4.94526565 -213.24304626 4.94526565 -212.09569695 4.94546692 C-204.56654943 4.94678541 -197.03740191 4.94806123 -189.50825438 4.94930578 C-174.16973831 4.95184218 -158.83122229 4.95466343 -143.4927063 4.95765686 C-142.43478501 4.9578628 -142.43478501 4.9578628 -141.35549157 4.95807289 C-94.23699303 4.96727764 -47.11849636 4.98314407 0 5 C0 3.35 0 1.7 0 0 Z " fill="#050505" transform="translate(526,779)"/>
<path d="M0 0 C42.57 0 85.14 0 129 0 C129 12.21 129 24.42 129 37 C86.43 37 43.86 37 0 37 C0 24.79 0 12.58 0 0 Z " fill="#F8F8F8" transform="translate(203,674)"/>
<path d="M0 0 C1.55284795 -0.00261773 3.10569331 -0.00787357 4.65852457 -0.015535 C8.91864003 -0.02893798 13.17784874 -0.0049712 17.43784869 0.02513337 C22.03422333 0.05105642 26.6305473 0.04227505 31.22697449 0.03771973 C39.18822267 0.03457437 47.14917571 0.05339116 55.11034966 0.08714676 C66.62080321 0.13591962 78.13111412 0.15153652 89.6416598 0.15907471 C108.31689727 0.17220483 126.99197745 0.21213003 145.66712952 0.26889038 C163.80774651 0.32396874 181.94832078 0.36643725 200.08900452 0.39193726 C201.20728879 0.3935136 202.32557307 0.39508994 203.47774475 0.39671405 C209.08787676 0.4045443 214.69800907 0.41212654 220.30814159 0.41958547 C266.84612607 0.48178069 313.38393901 0.5874552 359.92176819 0.7215271 C359.92176819 1.3815271 359.92176819 2.0415271 359.92176819 2.7215271 C360.51989319 2.9896521 361.11801819 3.2577771 361.73426819 3.5340271 C363.99045081 4.75881195 365.30702667 5.73568488 366.92176819 7.7215271 C367.30241835 9.78640634 367.30241835 9.78640634 367.31046486 12.21251392 C367.3207549 13.1378867 367.33104493 14.06325948 367.34164679 15.01667386 C367.3376831 16.03494392 367.33371942 17.05321397 367.32963562 18.1023407 C367.34088897 19.72304758 367.34088897 19.72304758 367.35236967 21.37649602 C367.37378842 25.01543829 367.37358583 28.65405954 367.37342834 32.2930603 C367.38403616 34.89457708 367.39586518 37.49608911 367.40882874 40.09759521 C367.4409702 47.17817625 367.4507645 54.25868452 367.45647097 61.339329 C367.46021997 65.75981571 367.46902587 70.18028293 367.47896957 74.60075951 C367.50591231 86.83789404 367.5284192 99.07500971 367.53084755 111.3121767 C367.53100312 112.09547895 367.5311587 112.8787812 367.53131898 113.68581988 C367.53161004 115.27379302 367.53189541 116.86176617 367.53217514 118.44973931 C367.53231799 119.23802059 367.53246085 120.02630187 367.53260803 120.83847046 C367.5327477 121.62771301 367.53288737 122.41695555 367.53303127 123.23011454 C367.53616685 136.02004315 367.57275757 148.80963316 367.62424429 161.59944997 C367.67667396 174.72807799 367.70296066 187.85653877 367.70239866 200.98527402 C367.70265143 208.35765236 367.71391654 215.72964162 367.75357437 223.10192299 C367.79068113 230.0353218 367.79177857 236.96792307 367.7684021 243.90137863 C367.76553297 246.44832974 367.77466703 248.99532639 367.79658127 251.54218483 C367.82461844 255.01564782 367.8096567 258.4863443 367.78373718 261.95976257 C367.81125248 263.47712941 367.81125248 263.47712941 367.83932364 265.02515012 C367.72638091 271.70119992 367.72638091 271.70119992 365.37616992 274.68149602 C360.86569296 278.63361422 357.89646773 279.84609448 351.88277054 279.85854149 C350.58666548 279.86361603 349.29056042 279.86869057 347.95517945 279.87391889 C346.50314478 279.87452062 345.05111006 279.87501968 343.59907532 279.87542725 C342.06719849 279.87944027 340.53532272 279.88387822 339.00344825 279.8887068 C334.77816593 279.90069598 330.55289505 279.90632617 326.32759905 279.91088796 C321.77668537 279.91683515 317.22578542 279.92844716 312.67488098 279.93917847 C301.67670831 279.96372221 290.67853109 279.97833223 279.68033946 279.99123853 C276.57549836 279.99494894 273.47065772 279.99892229 270.36581707 280.0029912 C251.09723162 280.02822545 231.82864548 280.05028493 212.56004715 280.06271935 C208.09500882 280.06564918 203.62997052 280.06861083 199.16493225 280.07162476 C198.05512842 280.07237081 196.94532459 280.07311686 195.80189034 280.07388552 C177.81614598 280.08654423 159.83050035 280.11977311 141.84480217 280.16142659 C123.39160671 280.20381348 104.93846184 280.2274106 86.48521781 280.23263991 C76.11937826 280.23605765 65.75369303 280.24785551 55.38790131 280.28074265 C46.56141508 280.30869972 37.7351148 280.31976161 28.90858772 280.30854718 C24.40348911 280.30334943 19.89878017 280.30631942 15.39373779 280.33101273 C11.27054132 280.35342482 7.14801622 280.35282859 3.02480862 280.33380885 C1.53216478 280.33099749 0.03947619 280.33667031 -1.45309541 280.35162179 C-13.99964118 280.4696323 -13.99964118 280.4696323 -17.88014603 277.43352699 C-20.96204798 273.63107405 -22.32517289 271.03693343 -22.34388065 266.12310982 C-22.35217964 265.19922938 -22.36047863 264.27534895 -22.3690291 263.32347214 C-22.36797826 262.31200588 -22.36692742 261.30053961 -22.36584473 260.25842285 C-22.37249254 259.18118072 -22.37914035 258.1039386 -22.38598961 256.99405277 C-22.40572802 253.37209846 -22.41106718 249.75026755 -22.41636658 246.12826538 C-22.42725814 243.53645502 -22.43892946 240.94464784 -22.45132446 238.35284424 C-22.48606294 230.56800409 -22.50165964 222.78316868 -22.51544777 214.99826795 C-22.52241041 211.33204174 -22.53156676 207.66582116 -22.54055595 203.99959946 C-22.56975481 191.81304087 -22.5945504 179.6264878 -22.60517979 167.43989754 C-22.60587048 166.66009802 -22.60656118 165.88029851 -22.6072728 165.07686871 C-22.60796481 164.29520759 -22.60865683 163.51354648 -22.60936981 162.70819867 C-22.61078181 161.12426256 -22.61220262 159.54032647 -22.6136322 157.95639038 C-22.61433737 157.17070395 -22.61504254 156.38501752 -22.61576908 155.57552241 C-22.62802321 142.84063268 -22.670828 130.10604039 -22.7265724 117.37127413 C-22.78333913 104.29686641 -22.81382883 91.22260914 -22.81819195 78.14807689 C-22.82127487 70.80699708 -22.83579268 63.46633074 -22.87947273 56.12537003 C-22.92043174 49.22234648 -22.92567124 42.32009647 -22.90657234 35.41698074 C-22.90530265 32.88130884 -22.91604776 30.34559867 -22.93958664 27.81003571 C-22.96986142 24.35197034 -22.95713255 20.89665415 -22.93347168 17.43859863 C-22.95249733 16.43159381 -22.97152298 15.42458899 -22.99112517 14.38706887 C-22.9172401 9.86215276 -22.61298732 6.51485615 -19.46716881 3.09680557 C-13.79236062 -0.90948765 -6.64102192 -0.08304153 0 0 Z M-19.07823181 8.7215271 C-19.80878654 11.00580362 -19.80878654 11.00580362 -19.7046442 13.41455078 C-19.71706624 14.33407217 -19.72948828 15.25359356 -19.74228674 16.20097923 C-19.73045101 17.20243288 -19.71861529 18.20388653 -19.7064209 19.23568726 C-19.71351529 20.30632227 -19.72060967 21.37695728 -19.72791904 22.48003578 C-19.74554593 26.07391695 -19.7273691 29.66672338 -19.70933533 33.2605896 C-19.71447231 35.83446751 -19.7217519 38.4083419 -19.73101807 40.98220825 C-19.7494002 47.25117284 -19.74087876 53.5198258 -19.72292984 59.78878069 C-19.70890589 64.88351168 -19.70501059 69.97815805 -19.70837212 75.07290649 C-19.70884956 75.79793007 -19.709327 76.52295366 -19.70981891 77.26994765 C-19.71084524 78.74280534 -19.7119006 80.21566302 -19.71298467 81.68852067 C-19.72155289 94.71325705 -19.70487288 107.73784296 -19.67515564 120.76254272 C-19.6463179 133.40192994 -19.6392345 146.04110038 -19.65464783 158.68051147 C-19.67140769 172.44297508 -19.67544642 186.20533576 -19.65793747 199.96780205 C-19.65609307 201.43525059 -19.65425835 202.90269914 -19.6524334 204.37014771 C-19.65152131 205.0921661 -19.65060922 205.81418449 -19.64966949 206.55808222 C-19.64406274 211.64686291 -19.64737255 216.73559337 -19.65397835 221.82437134 C-19.66251581 228.6731298 -19.64955878 235.52157003 -19.62212944 242.3702774 C-19.61523038 244.8869865 -19.61516381 247.40372474 -19.62234497 249.92043304 C-19.63100414 253.34976288 -19.61514206 256.77811874 -19.59289551 260.20736694 C-19.60113627 261.20882059 -19.60937704 262.21027424 -19.61786753 263.24207497 C-19.60681984 264.16159636 -19.59577215 265.08111774 -19.58438969 266.02850342 C-19.5831982 266.81978827 -19.58200672 267.61107311 -19.58077914 268.42633629 C-18.85193793 271.75503703 -17.53757692 273.38556639 -15.07823181 275.7215271 C-12.11489593 276.46806541 -12.11489593 276.46806541 -8.74069977 276.34793949 C-7.42892903 276.36036153 -6.11715829 276.37278357 -4.76563692 276.38558203 C-3.30631432 276.37408032 -1.84699537 276.36210807 -0.38768005 276.34971619 C1.15972991 276.35475928 2.70713404 276.36198628 4.25452471 276.37121433 C8.51355031 276.39019757 12.77200417 276.37786901 17.03101563 276.36049139 C21.62141638 276.34715262 26.21173152 276.3625419 30.80212402 276.37431335 C39.79738211 276.39272046 48.79242339 276.38415718 57.78767478 276.36622513 C65.09639068 276.35221602 72.4050476 276.34830269 79.71377563 276.3516674 C80.75283925 276.35214485 81.79190286 276.35262229 82.86245325 276.3531142 C84.97309921 276.3541405 87.08374515 276.35519586 89.19439107 276.35627996 C107.86999904 276.36485324 126.54550214 276.34815167 145.22108459 276.31845093 C163.35491847 276.28961202 181.48860126 276.28252918 199.62245178 276.29794312 C219.35523695 276.31469312 239.08795034 276.31875175 258.82073736 276.30123276 C260.92374515 276.29938831 263.02675294 276.29755358 265.12976074 276.29572868 C266.16455929 276.29481659 267.19935784 276.2939045 268.26551393 276.29296478 C275.56790088 276.2873519 282.87025287 276.29067354 290.17263794 276.29727364 C299.068314 276.30499437 307.96384118 276.29829981 316.85948718 276.2730986 C321.40073245 276.2605742 325.94174559 276.25449248 330.4829998 276.26564026 C334.63680568 276.27564462 338.79014755 276.26730493 342.94389671 276.24405908 C344.44988705 276.23887854 345.9559186 276.24049966 347.46189123 276.24945373 C349.50265543 276.26058198 351.54351398 276.24487187 353.58423615 276.22768497 C354.71970996 276.22649349 355.85518378 276.22530201 357.0250659 276.22407442 C360.61577547 275.60112415 361.79670122 274.64992283 363.92176819 271.7215271 C364.51390974 269.53364437 364.51390974 269.53364437 364.42792606 267.15434456 C364.43897375 266.23743092 364.45002144 265.32051728 364.46140391 264.37581837 C364.45316314 263.372134 364.44492237 262.36844963 364.43643188 261.33435059 C364.44685018 259.73073805 364.44685018 259.73073805 364.45747894 258.0947293 C364.47582485 254.50022913 364.46546308 250.90638331 364.45521545 247.31185913 C364.4622701 244.73975122 364.47101318 242.16764746 364.48132324 239.59555054 C364.50298196 233.32683675 364.50283145 227.05830437 364.4946977 220.78956546 C364.48840081 215.69434696 364.48953186 210.59918141 364.49596977 205.50396347 C364.49732225 204.41665795 364.49732225 204.41665795 364.49870206 203.30738666 C364.50055325 201.83485317 364.50241581 200.36231969 364.50428962 198.88978623 C364.52087503 185.07586793 364.51214308 171.26205171 364.49530404 157.44813953 C364.480611 144.81029851 364.49522847 132.17269533 364.5240742 119.53488494 C364.55346903 106.55990098 364.56443996 93.58502678 364.554892 80.61001098 C364.55386945 79.14224809 364.55287484 77.67448519 364.55190849 76.20672226 C364.55119391 75.12346326 364.55119391 75.12346326 364.55046489 74.01832024 C364.54830061 68.93049724 364.55810568 63.84277813 364.57267952 58.75497818 C364.59202837 51.90455527 364.5851214 45.05458184 364.56048012 38.20417786 C364.5554607 35.68788246 364.55899106 33.17155355 364.57162857 30.65528488 C364.58750044 27.22390086 364.57266123 23.79398496 364.54995728 20.3626709 C364.561793 19.36344797 364.57362873 18.36422505 364.58582312 17.33472264 C364.52326873 12.69110222 364.43679761 8.20678041 360.91287941 4.73348927 C355.85728322 2.16403355 349.72998525 2.91001379 344.19361877 2.96635437 C342.65430408 2.96015769 341.11499806 2.95134142 339.57571173 2.94012898 C335.34359346 2.91698473 331.11230172 2.9313541 326.88020015 2.95183814 C322.31704895 2.96744676 317.75402408 2.94855577 313.19088745 2.93403625 C304.2508789 2.9111858 295.31118258 2.92070289 286.37118018 2.94153712 C279.10682573 2.95780755 271.84255661 2.96202402 264.57818604 2.95757103 C263.02855302 2.95662502 263.02855302 2.95662502 261.44761428 2.95565989 C259.34904959 2.95431386 257.25048491 2.95293429 255.15192026 2.95152154 C235.46410266 2.93957864 215.77645641 2.96366655 196.08867782 3.00053962 C179.18809124 3.03143344 162.28770198 3.03380434 145.38710022 3.01473999 C125.77074885 2.99263775 106.15450815 2.98647473 86.53815126 3.00706261 C84.44721764 3.0092256 82.356284 3.0113747 80.26535034 3.01350975 C79.23651571 3.01457612 78.20768108 3.01564248 77.14766964 3.01674116 C69.8903165 3.02321622 62.63302021 3.01843868 55.37567139 3.00948524 C46.53381511 2.99895952 37.6921904 3.00641868 28.85037696 3.03694103 C24.33731058 3.05209015 19.82461003 3.05920691 15.31153297 3.04475021 C11.18229059 3.03176126 7.0537739 3.04175547 2.92461568 3.07030895 C1.42873503 3.07660288 -0.06720953 3.07442226 -1.5630601 3.06303851 C-3.59256971 3.04885385 -5.62223173 3.06831123 -7.65167999 3.08952808 C-8.78015649 3.09088192 -9.90863299 3.09223575 -11.07130575 3.09363061 C-15.09131645 3.93307613 -16.5869429 5.51190167 -19.07823181 8.7215271 Z " fill="#292929" transform="translate(101.07823181152344,822.2784729003906)"/>
<path d="M0 0 C1.11293962 -0.0015081 2.22587923 -0.0030162 3.37254429 -0.00457001 C4.64983906 -0.0158493 5.92713383 -0.0271286 7.2431345 -0.03874969 C8.66156327 -0.03097216 10.07998981 -0.02277947 11.49841404 -0.01421356 C12.98989134 -0.01963279 14.48136328 -0.02675433 15.97282505 -0.0354538 C20.02663876 -0.05371565 24.08004605 -0.04660763 28.13386703 -0.03393745 C32.37344106 -0.02382261 36.6129799 -0.03319908 40.85255527 -0.03948212 C47.97382967 -0.04676376 55.09493825 -0.03715817 62.21618748 -0.01811981 C70.45114152 0.00364166 78.68569934 -0.00339494 86.92064375 -0.02542543 C93.98740944 -0.04357474 101.0540558 -0.04613983 108.12083727 -0.03567076 C112.34301915 -0.02943214 116.56501478 -0.02861005 120.78718472 -0.04181671 C124.75751832 -0.05336757 128.72734105 -0.04536398 132.69761944 -0.02223969 C134.15529755 -0.01694807 135.61301861 -0.01847418 137.07067966 -0.02729034 C139.05938786 -0.0382098 141.04818995 -0.02209242 143.03685093 -0.00457001 C144.70682589 -0.00230785 144.70682589 -0.00230785 146.41053772 0 C149.9201087 0.61819768 151.09756117 1.73394043 153.26818943 4.50336456 C153.78285313 6.54521942 153.78285313 6.54521942 153.8016367 8.73358917 C153.8253912 9.97023567 153.8253912 9.97023567 153.84962559 11.23186493 C153.84466572 12.11423325 153.83970585 12.99660156 153.83459568 13.90570831 C153.84079426 14.82042404 153.84699284 15.73513977 153.85337925 16.67757416 C153.86047551 18.60997199 153.85730677 20.54243099 153.84460545 22.47480011 C153.830752 25.42752738 153.86479687 28.37707744 153.90295506 31.32953644 C153.90390641 33.2090945 153.90204657 35.08865653 153.89709568 36.96820831 C153.91035389 37.8485524 153.9236121 38.72889648 153.93727207 39.63591766 C153.92473896 40.46350082 153.91220585 41.29108398 153.89929295 42.14374542 C153.89833118 42.86670303 153.89736942 43.58966064 153.89637852 44.33452606 C152.91485561 47.72325838 150.93171947 49.25853806 148.26818943 51.50336456 C145.32151794 52.13257027 145.32151794 52.13257027 141.99925327 52.13828278 C140.73603748 52.1523819 139.47282169 52.16648102 138.17132664 52.18100739 C136.77905009 52.17128677 135.38677709 52.16104598 133.99450779 52.15033722 C132.52243563 52.15711531 131.05037196 52.16601953 129.57832432 52.17688751 C125.58653172 52.19966323 121.59538591 52.19085262 117.60358214 52.17499208 C113.42540647 52.16232634 109.24728588 52.17407484 105.06910801 52.18192291 C98.0539058 52.19101653 91.03896689 52.17903818 84.02380466 52.15522003 C75.91256184 52.12799852 67.8019472 52.13683119 59.69071954 52.16435206 C52.72580332 52.1870378 45.76107624 52.19024621 38.79613501 52.17715871 C34.63654249 52.16936254 30.47724533 52.16832715 26.31767178 52.18484116 C22.40793837 52.19927949 18.49901555 52.18927708 14.58936977 52.16036987 C13.15427084 52.15375593 11.71910373 52.15566217 10.28403187 52.1666832 C8.32609326 52.18033409 6.36800565 52.16018395 4.41014194 52.13828278 C3.31417163 52.13639765 2.21820131 52.13451252 1.08901978 52.13257027 C-1.73181057 51.50336456 -1.73181057 51.50336456 -4.08435726 49.09923458 C-5.76932314 46.44425651 -6.23281072 45.22773182 -6.23351955 42.14374542 C-6.24290051 41.31616226 -6.25228146 40.4885791 -6.26194668 39.63591766 C-6.2507127 38.75557358 -6.23947872 37.87522949 -6.22790432 36.96820831 C-6.22935955 36.05253586 -6.23081478 35.1368634 -6.23231411 34.1934433 C-6.23065799 32.26278238 -6.21912883 30.33210787 -6.1983633 28.40155792 C-6.16937365 25.44729324 -6.17776721 22.49482012 -6.19079494 19.54047394 C-6.18455819 17.66221002 -6.17616774 15.78395175 -6.16540432 13.90570831 C-6.16833996 13.02334 -6.1712756 12.14097168 -6.17430019 11.23186493 C-6.16161602 10.40743393 -6.14893185 9.58300293 -6.1358633 8.73358917 C-6.13046032 8.01142715 -6.12505733 7.28926514 -6.11949062 6.54521942 C-5.38640164 2.68414563 -3.91837865 0.7220021 0 0 Z M1.26818943 7.50336456 C1.26818943 19.71336456 1.26818943 31.92336456 1.26818943 44.50336456 C43.83818943 44.50336456 86.40818943 44.50336456 130.26818943 44.50336456 C130.26818943 32.29336456 130.26818943 20.08336456 130.26818943 7.50336456 C87.69818943 7.50336456 45.12818943 7.50336456 1.26818943 7.50336456 Z " fill="#131313" transform="translate(201.73181056976318,666.4966354370117)"/>
<path d="M0 0 C3.96 0 7.92 0 12 0 C11.01 0.495 11.01 0.495 10 1 C10.33 1.99 10.66 2.98 11 4 C11.33 3.67 11.66 3.34 12 3 C14.65761001 2.90107634 17.28924571 2.8682361 19.9473505 2.87695217 C20.79437956 2.87579833 21.64140862 2.87464448 22.51410523 2.87345567 C25.38947325 2.87078135 28.26478672 2.87531783 31.14015198 2.87974548 C33.20754015 2.87930995 35.27492827 2.87843537 37.34231609 2.87715632 C43.0522522 2.87490789 48.76216974 2.87893737 54.47210348 2.88393438 C60.61870092 2.88823373 66.76529723 2.88679282 72.91189575 2.8860321 C83.57089586 2.88550654 94.22988925 2.88862198 104.88888741 2.89426994 C116.07194612 2.90018044 127.2550024 2.90403457 138.43806267 2.90512276 C139.13255366 2.9051915 139.82704466 2.90526024 140.54258084 2.90533106 C144.06933438 2.90566938 147.59608792 2.90597077 151.12284147 2.90625793 C176.12380678 2.90836015 201.12476891 2.91510253 226.12573242 2.92456055 C250.418701 2.93374014 274.71166871 2.94082612 299.00463867 2.94506836 C299.75302916 2.94519989 300.50141964 2.94533141 301.27248863 2.94546692 C308.78791236 2.94678541 316.30333611 2.94806123 323.81875985 2.94930578 C339.12949372 2.95184222 354.44022752 2.95466347 369.7509613 2.95765686 C370.45497396 2.95779415 371.15898662 2.95793144 371.884333 2.95807289 C418.92289002 2.96727857 465.96144517 2.9831451 513 3 C513 3.33 513 3.66 513 4 C348 4 183 4 13 4 C13 7.96 13 11.92 13 16 C178 16 343 16 513 16 C513 16.33 513 16.66 513 17 C347.34 17.33 181.68 17.66 11 18 C11.33 19.32 11.66 20.64 12 22 C9 20 9 20 8 17 C7.92948886 14.26134713 7.90642235 11.54972412 7.9375 8.8125 C7.94201172 8.06291016 7.94652344 7.31332031 7.95117188 6.54101562 C7.96293646 4.69397617 7.98087135 2.84697787 8 1 C5.69 1 3.38 1 1 1 C1 136.96 1 272.92 1 413 C174.25 413 347.5 413 526 413 C526 277.04 526 141.08 526 1 C522.7 1.33 519.4 1.66 516 2 C516 1.34 516 0.68 516 0 C519.63 0 523.26 0 527 0 C527 136.62 527 273.24 527 414 C353.09 414 179.18 414 0 414 C0 277.38 0 140.76 0 0 Z " fill="#D6D6D6" transform="translate(11,767)"/>
<path d="M0 0 C24.08645352 -0.04666414 48.1729003 -0.08196138 72.25938988 -0.10362434 C83.44247318 -0.11394895 94.62552844 -0.12803184 105.80859375 -0.15087891 C115.55263812 -0.1707766 125.29666219 -0.18370781 135.0407263 -0.18817699 C140.20294114 -0.19079052 145.36509789 -0.19695791 150.52729416 -0.21146011 C155.38139038 -0.2249869 160.23540431 -0.22923263 165.08951759 -0.22621536 C166.87539555 -0.22676773 168.66127612 -0.23077427 170.44713783 -0.23841095 C172.87691976 -0.24829561 175.30638701 -0.24599283 177.73617554 -0.24050903 C178.45017529 -0.24633472 179.16417504 -0.2521604 179.89981115 -0.25816262 C184.77175758 -0.22824242 184.77175758 -0.22824242 187 2 C187.4375 4.375 187.4375 4.375 187 7 C184.23201156 9.86041643 182.56052614 10.91911274 178.58925152 11.49219131 C177.27385293 11.48850414 175.95845434 11.48481697 174.60319519 11.48101807 C173.5003532 11.48614462 173.5003532 11.48614462 172.37523156 11.49137473 C169.91666594 11.49795266 167.4591971 11.47598023 165.00073242 11.45410156 C163.2364708 11.45297306 161.4722073 11.453607 159.70794678 11.45587158 C154.92104084 11.45701955 150.13453557 11.43349678 145.34772277 11.40557575 C140.34424732 11.38057596 135.34076276 11.37822122 130.3372345 11.37347412 C120.86354114 11.36104018 111.39003235 11.32821284 101.91642028 11.28807616 C91.13056221 11.24337154 80.34469533 11.2213747 69.55876768 11.20129442 C47.37240876 11.15948063 25.186216 11.08912036 3 11 C3 10.34 3 9.68 3 9 C1.68 8.34 0.36 7.68 -1 7 C-0.67 4.69 -0.34 2.38 0 0 Z " fill="#131313" transform="translate(181,1222)"/>
<path d="M0 0 C24.10373158 -0.02332621 48.20746147 -0.0409778 72.31120205 -0.05181217 C83.5021496 -0.05697572 94.69309015 -0.06401954 105.8840332 -0.07543945 C115.63429378 -0.08538449 125.38454929 -0.091853 135.1348148 -0.09408849 C140.30089098 -0.09539591 145.46695267 -0.09848369 150.63302422 -0.10573006 C155.48956334 -0.11248744 160.3460819 -0.11461754 165.20262527 -0.11310768 C166.99053242 -0.11338414 168.77844021 -0.11539092 170.56634331 -0.11920547 C172.99639799 -0.12413833 175.42637377 -0.12299981 177.85643005 -0.12025452 C178.57334265 -0.12316736 179.29025524 -0.1260802 180.02889246 -0.12908131 C184.88587879 -0.11412121 184.88587879 -0.11412121 186 1 C186.04063832 2.66617115 186.042721 4.33388095 186 6 C185.34 6 184.68 6 184 6 C183.67 6.99 183.34 7.98 183 9 C180.02622365 10.48688817 177.34139359 10.13631711 174.02210999 10.14717102 C172.93241328 10.15268605 172.93241328 10.15268605 171.82070249 10.1583125 C169.37403224 10.16937054 166.92740442 10.17319671 164.48071289 10.17700195 C162.73161178 10.18326486 160.982512 10.1899115 159.2334137 10.19691467 C154.47315657 10.21433709 149.71290949 10.22487918 144.95262837 10.2331202 C141.98130508 10.23826627 139.00998494 10.24434209 136.03866386 10.25063133 C126.74978296 10.26968433 117.46091003 10.2839169 108.17201334 10.2922433 C97.43464426 10.3020261 86.69748076 10.3283723 75.96018416 10.36874419 C67.66971789 10.39885129 59.37931074 10.4137069 51.08879083 10.41702431 C46.13274585 10.41938043 41.17692047 10.42841371 36.22093391 10.45348549 C31.56124604 10.47667774 26.90192374 10.48103537 22.24219322 10.47072411 C20.5292909 10.47022652 18.81637112 10.47661224 17.10352325 10.49028015 C14.7701957 10.50786195 12.43819991 10.5009623 10.10487366 10.48774719 C8.79760346 10.49013555 7.49033327 10.4925239 6.14344883 10.49498463 C3 10 3 10 1.0559454 8.3445158 C-0.25883999 5.42529751 -0.21591242 3.16671546 0 0 Z " fill="#0C0C0C" transform="translate(181,592)"/>
<path d="M0 0 C123.42 0 246.84 0 374 0 C374.33 0.99 374.66 1.98 375 3 C372.24160094 4.37919953 370.033067 4.12408644 366.94424248 4.12304783 C364.9945346 4.1260344 364.9945346 4.1260344 363.00543869 4.12908131 C361.54926974 4.12622788 360.09310097 4.12328228 358.63693237 4.12025452 C357.10078035 4.12069021 355.56462839 4.12156507 354.02847683 4.12284368 C349.79160066 4.12508911 345.55474956 4.1210667 341.31787658 4.11606562 C336.75481524 4.111762 332.19175542 4.11320748 327.62869263 4.1139679 C319.71767718 4.11449319 311.80666996 4.11134585 303.89565659 4.10573006 C292.45754668 4.09761575 281.01944076 4.09499991 269.58132829 4.09374207 C251.02540801 4.09155144 232.46949212 4.08489105 213.91357422 4.07543945 C195.88427757 4.06626562 177.85498211 4.05918464 159.82568359 4.05493164 C158.15972823 4.05453756 158.15972823 4.05453756 156.46011721 4.05413551 C150.88858398 4.05283051 145.31705074 4.05156679 139.74551749 4.05032361 C93.49700862 4.03995065 47.24850454 4.02233204 1 4 C0.67 2.68 0.34 1.36 0 0 Z " fill="#343434" transform="translate(86,1098)"/>
<path d="M0 0 C0.99 0.33 1.98 0.66 3 1 C2.34 1 1.68 1 1 1 C1.33 1.99 1.66 2.98 2 4 C2.33 3.67 2.66 3.34 3 3 C5.65761001 2.90107634 8.28924571 2.8682361 10.9473505 2.87695217 C11.79437956 2.87579833 12.64140862 2.87464448 13.51410523 2.87345567 C16.38947325 2.87078135 19.26478672 2.87531783 22.14015198 2.87974548 C24.20754015 2.87930995 26.27492827 2.87843537 28.34231609 2.87715632 C34.0522522 2.87490789 39.76216974 2.87893737 45.47210348 2.88393438 C51.61870092 2.88823373 57.76529723 2.88679282 63.91189575 2.8860321 C74.57089586 2.88550654 85.22988925 2.88862198 95.88888741 2.89426994 C107.07194612 2.90018044 118.2550024 2.90403457 129.43806267 2.90512276 C130.13255366 2.9051915 130.82704466 2.90526024 131.54258084 2.90533106 C135.06933438 2.90566938 138.59608792 2.90597077 142.12284147 2.90625793 C167.12380678 2.90836015 192.12476891 2.91510253 217.12573242 2.92456055 C241.418701 2.93374014 265.71166871 2.94082612 290.00463867 2.94506836 C290.75302916 2.94519989 291.50141964 2.94533141 292.27248863 2.94546692 C299.78791236 2.94678541 307.30333611 2.94806123 314.81875985 2.94930578 C330.12949372 2.95184222 345.44022752 2.95466347 360.7509613 2.95765686 C361.45497396 2.95779415 362.15898662 2.95793144 362.884333 2.95807289 C409.92289002 2.96727857 456.96144517 2.9831451 504 3 C504 3.33 504 3.66 504 4 C339 4 174 4 4 4 C4 7.96 4 11.92 4 16 C169 16 334 16 504 16 C504 16.33 504 16.66 504 17 C338.34 17.33 172.68 17.66 2 18 C2.33 19.32 2.66 20.64 3 22 C2.01 21.34 1.02 20.68 0 20 C-0.34057617 17.93701172 -0.34057617 17.93701172 -0.29296875 15.4296875 C-0.28330078 14.53378906 -0.27363281 13.63789062 -0.26367188 12.71484375 C-0.23853516 11.77769531 -0.21339844 10.84054687 -0.1875 9.875 C-0.17396484 8.93011719 -0.16042969 7.98523438 -0.14648438 7.01171875 C-0.11106306 4.67391221 -0.06167271 2.33723763 0 0 Z " fill="#888888" transform="translate(20,767)"/>
<path d="M0 0 C5.27035453 2.38016011 9.22411428 4.50371136 11.4140625 10.078125 C12.11118356 15.89241132 12.27890336 21.09619803 9.9140625 26.515625 C1.2364652 35.41016224 1.2364652 35.41016224 -5.7109375 35.703125 C-11.91739481 35.28492573 -15.10929197 32.62189078 -19.3359375 28.203125 C-23.0488305 23.04632916 -24.35133259 18.41997001 -23.5859375 12.078125 C-21.32407445 6.56549134 -17.89328506 2.79258328 -12.68359375 -0.0703125 C-8.03022645 -1.95938898 -4.56801853 -1.6284779 0 0 Z " fill="#F7F7F7" transform="translate(164.5859375,674.921875)"/>
<path d="M0 0 C0.66 0.33 1.32 0.66 2 1 C1.5130653 1.91200999 1.5130653 1.91200999 1.01629353 2.84244442 C-0.45307176 7.40766348 -0.27867772 11.7529152 -0.26069641 16.52088928 C-0.26452196 17.59222986 -0.26834751 18.66357044 -0.27228898 19.76737589 C-0.28262169 23.36327747 -0.27862629 26.95901947 -0.2746582 30.55493164 C-0.27900445 33.13042855 -0.28418731 35.70592416 -0.29014587 38.28141785 C-0.30289479 44.55396101 -0.30468642 50.82646137 -0.30234561 57.0990153 C-0.30056289 62.19612103 -0.3023111 67.29321375 -0.30657005 72.39031792 C-0.30716524 73.11563022 -0.30776043 73.84094252 -0.30837366 74.58823399 C-0.30958539 76.0616574 -0.31079953 77.5350808 -0.31201603 79.0085042 C-0.32289183 92.82519929 -0.3207286 106.64186996 -0.31463119 120.45856642 C-0.30945919 133.10410276 -0.32072483 145.74956214 -0.33972941 158.39508326 C-0.35908997 171.37685062 -0.36736712 184.35858154 -0.36360615 197.34036344 C-0.36169176 204.62979283 -0.36420505 211.91915667 -0.37832069 219.2085743 C-0.39145339 226.05972138 -0.38899882 232.91071146 -0.37590981 239.76185799 C-0.37353458 242.28060965 -0.3763123 244.79937205 -0.38453293 247.31811142 C-0.39492179 250.74762112 -0.38696291 254.17660417 -0.3742218 257.60609436 C-0.38159609 258.61046085 -0.38897037 259.61482734 -0.39656812 260.64962918 C-0.38936158 261.56715952 -0.38215503 262.48468986 -0.37473011 263.43002415 C-0.37478513 264.22168871 -0.37484014 265.01335328 -0.37489682 265.82900769 C0.09171275 268.53109991 1.33819475 269.85954725 3 272 C3 272.99 3 273.98 3 275 C-0.91857276 273.51364481 -2.28644294 271.80409029 -4 268 C-4.44589509 264.46858366 -4.40883916 260.95872304 -4.38768005 257.40318298 C-4.39306559 256.3236753 -4.39845113 255.24416762 -4.40399987 254.13194758 C-4.41832755 250.50834122 -4.41116371 246.88509769 -4.40405273 243.26147461 C-4.40975369 240.66627203 -4.41671688 238.07107195 -4.42485046 235.47587585 C-4.44204701 229.15518908 -4.44287689 222.83460168 -4.43763756 216.51389759 C-4.43359695 211.37769415 -4.43503811 206.2415201 -4.44038582 201.10531807 C-4.44113424 200.37445504 -4.44188266 199.64359202 -4.44265376 198.89058163 C-4.44418522 197.40588421 -4.44572357 195.92118681 -4.44726873 194.43648941 C-4.46099635 180.5139126 -4.45555379 166.59139198 -4.44408352 152.66881645 C-4.43414629 139.92625712 -4.44709976 127.18384288 -4.47101771 114.44130593 C-4.49538665 101.36008964 -4.50502231 88.278941 -4.49836498 75.19770247 C-4.49486843 67.85236456 -4.49713372 60.50713833 -4.51461601 53.16181755 C-4.53084344 46.25809655 -4.52619089 39.35465798 -4.50731087 32.4509449 C-4.50360997 29.91284363 -4.50677675 27.37472199 -4.51719666 24.8366394 C-4.53030496 21.38071203 -4.51894865 17.92571963 -4.50120544 14.46983337 C-4.51081045 13.45768499 -4.52041546 12.4455366 -4.53031152 11.40271705 C-4.45808007 4.59858039 -4.45808007 4.59858039 -1.96867466 1.34563541 C-1.31901202 0.90157573 -0.66934938 0.45751604 0 0 Z " fill="#282828" transform="translate(83,825)"/>
<path d="M0 0 C4.32061522 3.40133539 5.65020702 5.71932983 6.625 11.125 C6.7796875 12.7028125 6.7796875 12.7028125 6.9375 14.3125 C8.5875 14.6425 10.2375 14.9725 11.9375 15.3125 C11.6075 16.6325 11.2775 17.9525 10.9375 19.3125 C10.33421875 19.39886719 9.7309375 19.48523438 9.109375 19.57421875 C6.3201963 20.52233885 5.74133326 21.66171728 4.1875 24.125 C1.07959187 28.46360859 -1.9160103 30.81261229 -7.0625 32.3125 C-11.90513357 33.10179172 -15.09746282 32.80379165 -19.5 30.5625 C-21.84250464 28.50566666 -23.02771967 27.20988492 -24.0625 24.3125 C-24.7225 24.3125 -25.3825 24.3125 -26.0625 24.3125 C-26.0625 23.6525 -26.0625 22.9925 -26.0625 22.3125 C-26.7225 22.3125 -27.3825 22.3125 -28.0625 22.3125 C-29.09469171 9.77328222 -29.09469171 9.77328222 -25.4375 4.6875 C-19.00793353 -2.36716321 -8.74193779 -4.57556744 0 0 Z M-21.375 6.25 C-23.92688934 10.88120658 -24.06545353 15.15023921 -23.0625 20.3125 C-21.06496699 23.79600269 -18.67353226 26.50698387 -15.0625 28.3125 C-9.80339753 28.71704634 -6.54752313 28.10318106 -2.0625 25.3125 C1.17484328 22.51263554 2.64355844 20.55485419 3.2109375 16.2265625 C3.40632088 11.8229216 3.44434341 9.95632811 0.625 6.375 C-6.45158786 0.94413024 -14.21096622 0.24770143 -21.375 6.25 Z " fill="#535353" transform="translate(404.0625,676.6875)"/>
<path d="M0 0 C0.86882812 0.144375 1.73765625 0.28875 2.6328125 0.4375 C3.78523438 0.623125 4.93765625 0.80875 6.125 1 C7.26195312 1.185625 8.39890625 1.37125 9.5703125 1.5625 C12.97090994 2.09152518 12.97090994 2.09152518 16.3046875 1.875 C17.19414062 1.91625 18.08359375 1.9575 19 2 C19.99 3.485 19.99 3.485 21 5 C21.33 4.01 21.66 3.02 22 2 C26.95 2 31.9 2 37 2 C38.62651522 5.25303044 38.11453156 8.39225602 38 12 C37 13 37 13 34.125 13.25 C31 13 31 13 29.1875 11.6875 C28 10 28 10 27 7 C26.34 8.98 25.68 10.96 25 13 C21.625 12.3125 21.625 12.3125 18 11 C16.5625 8.375 16.5625 8.375 16 6 C15.67 7.98 15.34 9.96 15 12 C10.79758668 12.67538785 7.15457897 13.15195546 2.9375 12.5 C-1.14775508 11.98123745 -4.00140353 12.25026316 -8 13 C-8.33 12.01 -8.66 11.02 -9 10 C-7.68 9.67 -6.36 9.34 -5 9 C-6.32 8.01 -7.64 7.02 -9 6 C-8.67 4.68 -8.34 3.36 -8 2 C-5.36 2 -2.72 2 0 2 C0 1.34 0 0.68 0 0 Z " fill="#505050" transform="translate(256,1129)"/>
<path d="M0 0 C5.27035453 2.38016011 9.22411428 4.50371136 11.4140625 10.078125 C12.11118356 15.89241132 12.27890336 21.09619803 9.9140625 26.515625 C1.2364652 35.41016224 1.2364652 35.41016224 -5.7109375 35.703125 C-11.91739481 35.28492573 -15.10929197 32.62189078 -19.3359375 28.203125 C-23.0488305 23.04632916 -24.35133259 18.41997001 -23.5859375 12.078125 C-21.32407445 6.56549134 -17.89328506 2.79258328 -12.68359375 -0.0703125 C-8.03022645 -1.95938898 -4.56801853 -1.6284779 0 0 Z M-17.5859375 9.078125 C-19.43758472 12.11154024 -19.81488774 14.29381667 -19.7109375 17.828125 C-19.69289062 18.62734375 -19.67484375 19.4265625 -19.65625 20.25 C-19.63304687 20.85328125 -19.60984375 21.4565625 -19.5859375 22.078125 C-18.9259375 22.078125 -18.2659375 22.078125 -17.5859375 22.078125 C-17.5240625 22.655625 -17.4621875 23.233125 -17.3984375 23.828125 C-16.16315715 27.24890136 -14.74619276 28.27226485 -11.5859375 30.078125 C-5.71311953 30.96883573 -0.53664464 30.57984468 4.4140625 27.078125 C8.07041481 23.17801587 7.91364827 18.77477859 7.76953125 13.67578125 C7.28297346 10.1201666 6.116179 8.40494754 3.4140625 6.078125 C-3.89124889 1.65066355 -12.06873589 2.85358985 -17.5859375 9.078125 Z " fill="#292929" transform="translate(164.5859375,674.921875)"/>
<path d="M0 0 C105.93 0 211.86 0 321 0 C321 0.33 321 0.66 321 1 C320.32614484 1.00173625 319.65228968 1.0034725 318.95801467 1.00526136 C279.05101063 1.10821096 239.14402352 1.21630643 199.23705177 1.33111694 C194.44913162 1.3448871 189.66121136 1.35861411 184.87329102 1.37231445 C183.44346224 1.37640691 183.44346224 1.37640691 181.98474804 1.38058204 C166.53501649 1.42469929 151.08527762 1.46531836 135.63553324 1.50465261 C119.79160364 1.545068 103.94768768 1.58922417 88.10377818 1.63687855 C78.32129227 1.66618306 68.53880742 1.69254327 58.75630376 1.71517897 C52.05497101 1.73096422 45.35365496 1.75037145 38.65234073 1.77266841 C34.78168561 1.7854388 30.91104337 1.7965725 27.04037285 1.80341911 C22.85063231 1.81087167 18.66095434 1.82593081 14.47123718 1.84178162 C13.2387632 1.84275972 12.00628922 1.84373783 10.73646754 1.84474558 C9.61929121 1.85022002 8.50211487 1.85569446 7.35108471 1.8613348 C5.89922403 1.86532186 5.89922403 1.86532186 4.41803282 1.86938947 C1.85660281 1.90079977 1.85660281 1.90079977 -1 3 C-0.67 2.01 -0.34 1.02 0 0 Z " fill="#F5F5F5" transform="translate(85,827)"/>
<path d="M0 0 C0.33 0 0.66 0 1 0 C1 85.8 1 171.6 1 260 C1.66 260 2.32 260 3 260 C1.70700306 262.88437779 0.34058637 264.87219421 -2 267 C-2.99 266.67 -3.98 266.34 -5 266 C-4.350704 265.39176549 -3.701408 264.78353098 -3.03243637 264.15686512 C-0.114427 259.62449101 -0.44003388 255.77648113 -0.48101807 250.49015808 C-0.46976619 248.88503915 -0.46976619 248.88503915 -0.458287 247.24749357 C-0.43796061 243.65592931 -0.44612259 240.06499337 -0.45410156 236.47338867 C-0.44536929 233.90124892 -0.43488473 231.3291146 -0.42277527 228.75698853 C-0.39946016 223.21636895 -0.39071485 217.67588027 -0.39188385 212.13521385 C-0.39355293 204.1243877 -0.37322005 196.11373606 -0.34752855 188.10295645 C-0.30644227 175.10583689 -0.28313331 162.10874872 -0.27099609 149.11157227 C-0.25916835 136.48654158 -0.23897308 123.86156998 -0.20751953 111.23657227 C-0.20558343 110.45828004 -0.20364733 109.67998781 -0.20165256 108.87811097 C-0.191888 104.97362119 -0.18195889 101.06913185 -0.17194796 97.16464269 C-0.089119 64.7764539 -0.0351376 32.38827687 0 0 Z " fill="#323232" transform="translate(465,833)"/>
<path d="M0 0 C0.33 0.99 0.66 1.98 1 3 C0.67 3.33 0.34 3.66 0 4 C-0.10146489 5.39159306 -0.13396729 6.78828489 -0.1386652 8.18356419 C-0.14413964 9.09123808 -0.14961409 9.99891198 -0.15525442 10.93409115 C-0.15623253 11.94282487 -0.15721064 12.95155858 -0.15821838 13.99085999 C-0.16562535 15.58472704 -0.16562535 15.58472704 -0.17318195 17.21079344 C-0.18864111 20.80076492 -0.19694023 24.3907184 -0.20532227 27.98071289 C-0.21489418 30.54240581 -0.22490385 33.10409712 -0.23532104 35.66578674 C-0.25681883 41.19607574 -0.27524861 46.72636167 -0.29092598 52.25667 C-0.31359831 60.25265381 -0.34174474 68.2486109 -0.37124526 76.2445721 C-0.41895359 89.21617756 -0.46220895 102.18779393 -0.50268555 115.15942383 C-0.54202401 127.76327361 -0.58344625 140.36711369 -0.62768555 152.97094727 C-0.63040982 153.74730339 -0.63313409 154.52365952 -0.63594092 155.32354159 C-0.64962012 159.2181296 -0.66334045 163.11271747 -0.67708123 167.00730526 C-0.7910969 199.33818351 -0.89789495 231.66908187 -1 264 C-1.33 264 -1.66 264 -2 264 C-2.04573891 230.65679748 -2.08099959 197.31360275 -2.10213066 163.97037584 C-2.10463219 160.03737942 -2.10722082 156.10438305 -2.10986328 152.17138672 C-2.1103879 151.38837027 -2.11091252 150.60535382 -2.11145304 149.7986096 C-2.12016489 137.10615971 -2.13593913 124.41372787 -2.15430559 111.7212887 C-2.17298299 98.70579734 -2.18411214 85.69031545 -2.18817699 72.67481124 C-2.19092655 64.63812774 -2.19962284 56.60149524 -2.21583293 48.56482743 C-2.22761594 42.41100632 -2.22891683 36.2572244 -2.22621536 30.10339355 C-2.22676805 27.57251546 -2.23077873 25.04163554 -2.23841095 22.51076889 C-2.24828444 19.06945401 -2.24599681 15.6283617 -2.24050903 12.18704224 C-2.24633472 11.17343947 -2.2521604 10.1598367 -2.25816262 9.11551869 C-2.25418052 8.19888695 -2.25019842 7.28225521 -2.24609566 6.33784676 C-2.2468551 5.54271238 -2.24761454 4.74757801 -2.24839699 3.92834866 C-2 2 -2 2 0 0 Z " fill="#0B0B0B" transform="translate(82,828)"/>
<path d="M0 0 C4.22187244 0.66661144 5.87219326 1.21999768 8.5625 4.5625 C9.26017218 7.70486087 9.29932116 10.42506795 8.5625 13.5625 C5.93310874 16.11455622 4.15299214 16.47638656 0.5625 17 C-3.29998842 16.43672044 -4.87221452 15.50503335 -7.4375 12.5625 C-8.11246305 8.43772581 -7.83876114 6.31687094 -5.875 2.625 C-3.4375 0.5625 -3.4375 0.5625 0 0 Z " fill="#1F1F1F" transform="translate(438.4375,683.4375)"/>
<path d="M0 0 C3.9375 0.5 3.9375 0.5 5.875 1.5 C7.5853854 4.71954899 8.15710087 7.86194552 7.9375 11.5 C6.5 14 6.5 14 3.9375 15.5 C1.17865787 15.81529624 -1.26799953 15.68630003 -4.0625 15.5 C-4.7225 14.18 -5.3825 12.86 -6.0625 11.5 C-6.7225 11.5 -7.3825 11.5 -8.0625 11.5 C-8.39859819 7.88694442 -8.25761045 5.87396169 -6.5625 2.625 C-3.91778897 0.37699562 -3.29754139 0.13360205 0 0 Z " fill="#4C4C4C" transform="translate(60.0625,683.5)"/>
<path d="M0 0 C2.9375 1.625 2.9375 1.625 5 4 C5.625 6.9375 5.625 6.9375 5 10 C2.875 12.875 2.875 12.875 0 15 C-3.91636788 15.55948113 -6.68935479 15.20709681 -10 13 C-11.54586876 9.90826248 -11.29359521 7.40570448 -11 4 C-8.10445004 -0.51705794 -5.12679803 -0.7195506 0 0 Z " fill="#323232" transform="translate(87,684)"/>
<path d="M0 0 C2.09765625 0.34375 2.09765625 0.34375 4.16015625 1.90625 C5.46220473 5.29157605 5.54723535 7.74711722 5.09765625 11.34375 C3.59765625 13.78125 3.59765625 13.78125 1.09765625 15.34375 C-1.86658998 15.92228498 -3.80326542 15.73728376 -6.90234375 15.34375 C-8.90234375 13.84375 -8.90234375 13.84375 -9.90234375 11.34375 C-10.38759553 7.89846236 -10.7918492 4.57451225 -8.66015625 1.625 C-5.85344523 -0.42078048 -3.36847544 -0.1314527 0 0 Z " fill="#313131" transform="translate(472.90234375,683.65625)"/>
<path d="M0 0 C2.9375 1.5625 2.9375 1.5625 5 4 C5.63210717 7.93311127 5.60020266 10.02467068 3.5 13.4375 C-0.27828899 15.79893062 -2.57790439 15.56153595 -7 15 C-9 13.5 -9 13.5 -10 11 C-10.49741835 7.46832973 -10.65715177 4.23699157 -8.9375 1 C-5.81022887 -0.61407542 -3.45560099 -0.41705529 0 0 Z " fill="#434343" transform="translate(114,684)"/>
<path d="M0 0 C4.95 0 9.9 0 15 0 C16.62651522 3.25303044 16.11453156 6.39225602 16 10 C15 11 15 11 12.125 11.25 C9 11 9 11 7.1875 9.6875 C6 8 6 8 5 5 C4.34 6.98 3.68 8.96 3 11 C-0.375 10.3125 -0.375 10.3125 -4 9 C-5.72269861 6.07890236 -6 4.38864211 -6 1 C-4.68 1 -3.36 1 -2 1 C-1.67 1.66 -1.34 2.32 -1 3 C-0.67 2.01 -0.34 1.02 0 0 Z " fill="#585858" transform="translate(278,1131)"/>
<path d="M0 0 C7.48052834 -0.44219872 12.96213872 -0.75320994 19 4 C23.03025157 8.43327673 22.70973921 14.28486512 23 20 C22.34 20 21.68 20 21 20 C20.68869141 18.89591797 20.68869141 18.89591797 20.37109375 17.76953125 C17.94965021 10.06121329 17.94965021 10.06121329 12.21484375 4.7265625 C7.6057271 3.21457715 2.77913029 3.64686229 -2 4 C-1.34 2.68 -0.68 1.36 0 0 Z " fill="#262626" transform="translate(388,675)"/>
<path d="M0 0 C0.33 0 0.66 0 1 0 C1.33 2.31 1.66 4.62 2 7 C2.66 7 3.32 7 4 7 C4 5.68 4 4.36 4 3 C6.475 3.495 6.475 3.495 9 4 C8.67 5.32 8.34 6.64 8 8 C7.40058594 8.08507812 6.80117188 8.17015625 6.18359375 8.2578125 C3.37057555 9.21393675 2.68431778 10.42205677 1.0625 12.875 C-1.28318906 16.18028913 -3.19057507 18.35268111 -7 20 C-7.99 20 -8.98 20 -10 20 C-10 19.34 -10 18.68 -10 18 C-12.31 18 -14.62 18 -17 18 C-17 17.67 -17 17.34 -17 17 C-16.41992188 16.91363281 -15.83984375 16.82726562 -15.2421875 16.73828125 C-9.6123448 15.72565278 -5.84724597 14.50409284 -2 10 C-0.95341769 6.69846257 -0.38710679 3.43724134 0 0 Z " fill="#1D1D1D" transform="translate(407,688)"/>
<path d="M0 0 C3.4375 0.1875 3.4375 0.1875 4.4375 1.1875 C4.9001087 7.43271739 4.9001087 7.43271739 3.25 10.125 C0.81646796 11.55155327 -0.78792896 11.54321424 -3.5625 11.1875 C-5.5625 9.1875 -5.5625 9.1875 -5.8125 5.6875 C-5.46844738 0.87076336 -4.82491086 0.25394268 0 0 Z " fill="#1F1F1F" transform="translate(342.5625,685.8125)"/>
<path d="M0 0 C0.66 0.33 1.32 0.66 2 1 C1.01 1.495 1.01 1.495 0 2 C0.33 2.99 0.66 3.98 1 5 C0.14277344 4.96519531 -0.71445313 4.93039062 -1.59765625 4.89453125 C-10.0413112 4.6946251 -14.94460613 5.29640409 -22 10 C-20.32829977 4.83532614 -17.93928697 2.97850905 -13.4453125 0.16796875 C-8.75439687 -2.07258041 -4.92270155 -1.64090052 0 0 Z " fill="#2B2B2B" transform="translate(165,675)"/>
<path d="M0 0 C3.5625 0.1875 3.5625 0.1875 5.5625 2.1875 C5.92737512 5.03352594 5.96449375 6.5739306 4.375 9 C1.92905047 10.60251866 0.42868213 10.6284511 -2.4375 10.1875 C-4.73154844 6.74642734 -4.70043056 5.21910191 -4.4375 1.1875 C-3.4375 0.1875 -3.4375 0.1875 0 0 Z " fill="#545454" transform="translate(341.4375,700.8125)"/>
<path d="M0 0 C3 0.25 3 0.25 5 2.25 C5.3125 5.25 5.3125 5.25 5 8.25 C2 10.25 2 10.25 -0.5625 10 C-3 9.25 -3 9.25 -5 7.25 C-5.25 4.75 -5.25 4.75 -5 2.25 C-3 0.25 -3 0.25 0 0 Z " fill="#DFDFDF" transform="translate(470,686.75)"/>
<path d="M0 0 C4.83766699 0.41465717 6.85646376 2.4198615 10 6 C11.32229189 8.64458379 11.09677194 10.67761301 11.0625 13.625 C11.05347656 14.62789062 11.04445312 15.63078125 11.03515625 16.6640625 C11.02355469 17.43492187 11.01195312 18.20578125 11 19 C10.01 19.33 9.02 19.66 8 20 C7.97421875 19.33613281 7.9484375 18.67226563 7.921875 17.98828125 C7.48592997 11.2014097 6.18967084 8.07575402 1.25 3.3125 C0 2 0 2 0 0 Z " fill="#191919" transform="translate(165,677)"/>
<path d="M0 0 C2.5 0.25 2.5 0.25 4.5 2.25 C4.75 5.25 4.75 5.25 4.5 8.25 C2.5 10.25 2.5 10.25 0 10.5 C-2.5 10.25 -2.5 10.25 -4.5 8.25 C-4.75 5.25 -4.75 5.25 -4.5 2.25 C-2.5 0.25 -2.5 0.25 0 0 Z " fill="#E6E6E6" transform="translate(111.5,686.75)"/>
<path d="M0 0 C2.9375 0.1875 2.9375 0.1875 3.9375 1.1875 C4.125 4.625 4.125 4.625 3.9375 8.1875 C1.9375 10.1875 1.9375 10.1875 -0.5625 10.5 C-1.8 10.3453125 -1.8 10.3453125 -3.0625 10.1875 C-5.21165785 6.96376323 -5.44536803 5.92046326 -5.0625 2.1875 C-3.0625 0.1875 -3.0625 0.1875 0 0 Z " fill="#E8E8E8" transform="translate(84.0625,686.8125)"/>
<path d="M0 0 C0.66 0.33 1.32 0.66 2 1 C1.34 2.32 0.68 3.64 0 5 C-0.66 5 -1.32 5 -2 5 C-2.33 25.79 -2.66 46.58 -3 68 C-3.33 68 -3.66 68 -4 68 C-4.09270357 59.72457704 -4.16376616 51.44937122 -4.20724869 43.17355728 C-4.22811884 39.33068748 -4.25642506 35.48817307 -4.30175781 31.64550781 C-4.34523745 27.93668885 -4.36914142 24.22821158 -4.37950897 20.51915741 C-4.38689667 19.10453665 -4.40132343 17.68993448 -4.42292023 16.27545929 C-4.45197615 14.29352577 -4.45363408 12.311248 -4.45410156 10.32910156 C-4.46742523 8.63699554 -4.46742523 8.63699554 -4.48101807 6.91070557 C-3.89819274 3.38395046 -2.72746243 2.21950918 0 0 Z " fill="#222222" transform="translate(83,825)"/>
<path d="M0 0 C2.5 0.25 2.5 0.25 4.5 2.25 C4.75 5.25 4.75 5.25 4.5 8.25 C3.84 8.91 3.18 9.57 2.5 10.25 C-3.06818182 9.68181818 -3.06818182 9.68181818 -4.5 8.25 C-4.6875 5.3125 -4.6875 5.3125 -4.5 2.25 C-2.5 0.25 -2.5 0.25 0 0 Z " fill="#494949" transform="translate(341.5,673.75)"/>
<path d="M0 0 C3.63 0 7.26 0 11 0 C10.01 0.33 9.02 0.66 8 1 C8 1.66 8 2.32 8 3 C11.96 3 15.92 3 20 3 C20 3.33 20 3.66 20 4 C16.37 4 12.74 4 9 4 C9.33 4.66 9.66 5.32 10 6 C10.08308638 7.37548156 10.10736016 8.75485796 10.09765625 10.1328125 C10.09443359 10.93847656 10.09121094 11.74414062 10.08789062 12.57421875 C10.07951172 13.41597656 10.07113281 14.25773438 10.0625 15.125 C10.05798828 15.97449219 10.05347656 16.82398438 10.04882812 17.69921875 C10.03702874 19.79950909 10.01909306 21.8997633 10 24 C9.34 23.01 8.68 22.02 8 21 C7.34 20.67 6.68 20.34 6 20 C6 15.71 6 11.42 6 7 C6.66 7 7.32 7 8 7 C7.45291273 4.46255685 7.45291273 4.46255685 6 2 C2.94727535 1.10169161 2.94727535 1.10169161 0 1 C0 0.67 0 0.34 0 0 Z " fill="#202020" transform="translate(518,763)"/>
<path d="M0 0 C0.81404297 0.61488281 0.81404297 0.61488281 1.64453125 1.2421875 C2.35996094 1.78101563 3.07539063 2.31984375 3.8125 2.875 C4.52019531 3.40867187 5.22789062 3.94234375 5.95703125 4.4921875 C10.09620873 7.54710625 12.88957403 8.42146121 18 9 C18 9.99 18 10.98 18 12 C13.25440599 12.37964752 9.93011475 12.48228172 5.625 10.25 C3.28517861 8.24443881 1.50602147 6.6773715 0 4 C0 2.68 0 1.36 0 0 Z " fill="#191919" transform="translate(379,697)"/>
<path d="M0 0 C2.5 0.25 2.5 0.25 4.5 2.25 C4.86796448 5.12012296 4.87509409 6.65774618 3.3125 9.125 C1.5 10.25 1.5 10.25 -1.125 10 C-3.5 9.25 -3.5 9.25 -4.5 8.25 C-4.6875 5.3125 -4.6875 5.3125 -4.5 2.25 C-2.5 0.25 -2.5 0.25 0 0 Z " fill="#F2F2F2" transform="translate(439.5,686.75)"/>
<path d="M0 0 C1 1 1 1 1.125 4.5 C1 8 1 8 0 9 C-2.9375 9.1875 -2.9375 9.1875 -6 9 C-8 7 -8 7 -8.3125 4.5 C-8.209375 3.675 -8.10625 2.85 -8 2 C-4.77786243 -0.14809171 -3.72224599 -0.29386153 0 0 Z " fill="#E8E8E8" transform="translate(63,687)"/>
<path d="M0 0 C-0.99 0 -1.98 0 -3 0 C-3.33 2.97 -3.66 5.94 -4 9 C-6.64 9.33 -9.28 9.66 -12 10 C-11.67 9.34 -11.34 8.68 -11 8 C-11.185625 7.175 -11.37125 6.35 -11.5625 5.5 C-11.706875 4.675 -11.85125 3.85 -12 3 C-8.61613364 -0.38386636 -4.56431325 -1.75550509 0 0 Z " fill="#636363" transform="translate(275,1132)"/>
<path d="M0 0 C19.47 0 38.94 0 59 0 C59 0.33 59 0.66 59 1 C58.29256149 1.01030746 57.58512299 1.02061493 56.85624695 1.03123474 C50.19068762 1.12919521 43.52521568 1.23170763 36.85980511 1.33933926 C33.43301772 1.39451353 30.00622172 1.44792466 26.5793457 1.49731445 C22.64004749 1.55416665 18.7008926 1.61867312 14.76171875 1.68359375 C12.9147364 1.70866249 12.9147364 1.70866249 11.03044128 1.73423767 C9.31900688 1.7641555 9.31900688 1.7641555 7.57299805 1.79467773 C6.06409248 1.81799416 6.06409248 1.81799416 4.52470398 1.84178162 C1.87395947 1.8996397 1.87395947 1.8996397 -1 3 C-0.67 2.01 -0.34 1.02 0 0 Z " fill="#F3F3F3" transform="translate(85,827)"/>
<path d="M0 0 C0.33 0 0.66 0 1 0 C1.28780552 3.05073847 1.42606559 5.95821528 1 9 C-1.62939126 11.55205622 -3.40950786 11.91388656 -7 12.4375 C-10.86248842 11.87422044 -12.43471452 10.94253335 -15 8 C-15.3125 4.25 -15.3125 4.25 -15 1 C-14.67 1 -14.34 1 -14 1 C-14 2.98 -14 4.96 -14 7 C-13.34 7 -12.68 7 -12 7 C-12 5.35 -12 3.7 -12 2 C-11.67 2 -11.34 2 -11 2 C-10.34 3.98 -9.68 5.96 -9 8 C-5.39007621 7.34414811 -5.39007621 7.34414811 -2 6 C-2 6.66 -2 7.32 -2 8 C-1.34 8 -0.68 8 0 8 C0 5.36 0 2.72 0 0 Z " fill="#575757" transform="translate(446,688)"/>
<path d="M0 0 C1.625 2.125 1.625 2.125 1.375 4.375 C1.1275 4.9525 0.88 5.53 0.625 6.125 C0.13 4.64 0.13 4.64 -0.375 3.125 C-1.035 3.455 -1.695 3.785 -2.375 4.125 C-3.1160498 2.90937378 -3.1160498 2.90937378 -3.87207031 1.66918945 C-6.69623453 -1.20152995 -8.21134204 -1.48308403 -12.16448975 -1.59394836 C-12.90942688 -1.59001572 -13.65436401 -1.58608307 -14.421875 -1.58203125 C-15.57867767 -1.60471321 -15.57867767 -1.60471321 -16.7588501 -1.62785339 C-19.21453069 -1.67073495 -21.6689823 -1.67956806 -24.125 -1.6875 C-25.79300143 -1.71064421 -27.46097363 -1.7360094 -29.12890625 -1.76367188 C-33.21104614 -1.82652782 -37.2924189 -1.85885956 -41.375 -1.875 C-41.375 -2.205 -41.375 -2.535 -41.375 -2.875 C-36.62485631 -3.06791859 -31.87446652 -3.246533 -27.12329102 -3.41210938 C-25.50823678 -3.47038536 -23.89331677 -3.53251749 -22.27856445 -3.59863281 C-19.95288542 -3.69317843 -17.62707101 -3.7736889 -15.30078125 -3.8515625 C-14.58287918 -3.88375885 -13.86497711 -3.9159552 -13.12532043 -3.9491272 C-7.71455038 -4.10955726 -4.24629665 -3.35233946 0 0 Z " fill="#212121" transform="translate(466.375,827.875)"/>
<path d="M0 0 C1.32 0 2.64 0 4 0 C4.66 1.65 5.32 3.3 6 5 C6.33 3.35 6.66 1.7 7 0 C7.33 0.99 7.66 1.98 8 3 C8.66 3 9.32 3 10 3 C10 4.98 10 6.96 10 9 C4.30769231 9 4.30769231 9 2 8 C0.47835901 5.10888212 0 3.28176588 0 0 Z " fill="#282828" transform="translate(272,1132)"/>
<path d="M0 0 C0.33 0 0.66 0 1 0 C1.33 2.31 1.66 4.62 2 7 C2.66 7 3.32 7 4 7 C4 5.68 4 4.36 4 3 C5.65 3.33 7.3 3.66 9 4 C8.67 5.32 8.34 6.64 8 8 C7.401875 8.103125 6.80375 8.20625 6.1875 8.3125 C3.90759282 8.82969347 3.90759282 8.82969347 2.5 10.625 C2.005 11.07875 1.51 11.5325 1 12 C-1.1875 11.6875 -1.1875 11.6875 -3 11 C-2.690625 10.484375 -2.38125 9.96875 -2.0625 9.4375 C-0.70940713 6.33334577 -0.38640576 3.34884993 0 0 Z " fill="#383838" transform="translate(407,688)"/>
<path d="M0 0 C2.64 0 5.28 0 8 0 C7.360625 0.2475 6.72125 0.495 6.0625 0.75 C3.83668483 1.80815444 3.83668483 1.80815444 3.25 4 C2.95865509 5.99483189 2.95865509 5.99483189 3 8 C3.99 8.33 4.98 8.66 6 9 C4.35425434 9.02688151 2.70838587 9.04634123 1.0625 9.0625 C0.14597656 9.07410156 -0.77054687 9.08570313 -1.71484375 9.09765625 C-4 9 -4 9 -5 8 C-5.04063832 6.33382885 -5.042721 4.66611905 -5 3 C-4.34 2.67 -3.68 2.34 -3 2 C-2.814375 2.9590625 -2.814375 2.9590625 -2.625 3.9375 C-2.315625 4.9584375 -2.315625 4.9584375 -2 6 C-1.34 6.33 -0.68 6.66 0 7 C0 4.69 0 2.38 0 0 Z " fill="#202020" transform="translate(261,1132)"/>
<path d="M0 0 C0.99 0.33 1.98 0.66 3 1 C1.7934375 2.485 1.7934375 2.485 0.5625 4 C-2.32682892 7.99119164 -2.74383767 11.13291572 -3 16 C-4.5 14.9375 -4.5 14.9375 -6 13 C-6.5 9.625 -6.5 9.625 -6 6 C-3.5625 3.125 -3.5625 3.125 -1 1 C-0.67 0.67 -0.34 0.34 0 0 Z " fill="#1F1F1F" transform="translate(147,681)"/>
<path d="M0 0 C0.33 0 0.66 0 1 0 C1.309375 0.969375 1.61875 1.93875 1.9375 2.9375 C2.69523342 5.84065792 2.69523342 5.84065792 4 7 C6.45809998 7.2500773 6.45809998 7.2500773 9 7 C10.95216435 5.04783565 11.84826645 3.46800047 13 1 C13.1875 4.375 13.1875 4.375 13 8 C8.93150591 10.71232939 6.83523216 10.30699887 2 10 C0 8 0 8 -0.1953125 6.0546875 C-0.13020833 4.03645833 -0.06510417 2.01822917 0 0 Z " fill="#1D1D1D" transform="translate(105,689)"/>
<path d="M0 0 C0.33 0 0.66 0 1 0 C1 3.3 1 6.6 1 10 C1.99 9.67 2.98 9.34 4 9 C2.83857315 13.35535069 1.92300495 15.64619703 -2 18 C-2 17.34 -2 16.68 -2 16 C-3.32 16.33 -4.64 16.66 -6 17 C-5.67 16.34 -5.34 15.68 -5 15 C-4.34 15 -3.68 15 -3 15 C-0.5978396 10.1956792 -0.38877771 5.26896105 0 0 Z " fill="#373737" transform="translate(172,687)"/>
<path d="M0 0 C1.21816406 0.03480469 1.21816406 0.03480469 2.4609375 0.0703125 C3.68683594 0.09738281 3.68683594 0.09738281 4.9375 0.125 C5.87722656 0.15980469 5.87722656 0.15980469 6.8359375 0.1953125 C6.8359375 0.5253125 6.8359375 0.8553125 6.8359375 1.1953125 C5.134375 1.659375 5.134375 1.659375 3.3984375 2.1328125 C0.04818651 2.82455781 0.04818651 2.82455781 -1.1640625 4.1953125 C-1.50635538 7.36152163 -1.42038349 8.80015097 0.3359375 11.5078125 C0.8309375 12.0646875 1.3259375 12.6215625 1.8359375 13.1953125 C-0.6015625 12.8203125 -0.6015625 12.8203125 -3.1640625 12.1953125 C-4.27851748 9.96640255 -4.32886536 8.66476144 -4.3515625 6.1953125 C-4.36574219 5.4940625 -4.37992187 4.7928125 -4.39453125 4.0703125 C-4.03391235 1.13646379 -2.88179389 0.2600897 0 0 Z " fill="#272727" transform="translate(467.1640625,684.8046875)"/>
<path d="M0 0 C2.31 0 4.62 0 7 0 C6.01 0.495 6.01 0.495 5 1 C5 2.65 5 4.3 5 6 C4.34 6 3.68 6 3 6 C3 6.33 3 6.66 3 7 C4.94999129 6.80528889 4.94999129 6.80528889 7 6 C8.28436734 4.0162233 8.28436734 4.0162233 9 2 C9.125 4.375 9.125 4.375 9 7 C7 9 7 9 4.5 9.25 C2 9 2 9 0 7 C-0.125 3.375 -0.125 3.375 0 0 Z " fill="#595959" transform="translate(337,688)"/>
<path d="M0 0 C5.26500337 -0.43155765 5.26500337 -0.43155765 8 0 C10.32149052 2.53913025 10.89249317 4.24745218 11.375 7.625 C10.93551743 10.4083896 10.17471852 11.27834784 8 13 C7.01 12.67 6.02 12.34 5 12 C5.66 11.67 6.32 11.34 7 11 C7.16677282 7.58343976 7.16677282 7.58343976 7 4 C4.64046906 1.64046906 3.22104383 1.50858587 0 1 C0 0.67 0 0.34 0 0 Z " fill="#1D1D1D" transform="translate(57,685)"/>
<path d="M0 0 C4.29 0 8.58 0 13 0 C13 0.99 13 1.98 13 3 C15.31 3 17.62 3 20 3 C20 3.33 20 3.66 20 4 C17.36 4.33 14.72 4.66 12 5 C11.67 9.29 11.34 13.58 11 18 C10.67 18 10.34 18 10 18 C10 12.72 10 7.44 10 2 C6.7 1.67 3.4 1.34 0 1 C0 0.67 0 0.34 0 0 Z " fill="#151515" transform="translate(11,766)"/>
<path d="M0 0 C0.66 0.33 1.32 0.66 2 1 C2.48468708 7.42210386 2.48468708 7.42210386 0.375 9.9375 C-2.63422792 11.28373354 -4.73393703 11.34745351 -8 11 C-8.99 10.34 -9.98 9.68 -11 9 C-10.67 8.34 -10.34 7.68 -10 7 C-8.88625 7.20625 -7.7725 7.4125 -6.625 7.625 C-5.42875 7.74875 -4.2325 7.8725 -3 8 C-0.4345406 5.4345406 -0.45953913 3.52313332 0 0 Z " fill="#222222" transform="translate(89,688)"/>
<path d="M0 0 C3.96 0 7.92 0 12 0 C12 0.99 12 1.98 12 3 C7.38 3.33 2.76 3.66 -2 4 C-1.34 2.68 -0.68 1.36 0 0 Z " fill="#121212" transform="translate(388,675)"/>
<path d="M0 0 C1.98 0.99 3.96 1.98 6 3 C6.042721 4.66611905 6.04063832 6.33382885 6 8 C5 9 5 9 2.4375 9.0625 C1.633125 9.041875 0.82875 9.02125 0 9 C-0.33 8.01 -0.66 7.02 -1 6 C0.32 5.67 1.64 5.34 3 5 C1.68 3.68 0.36 2.36 -1 1 C-0.67 0.67 -0.34 0.34 0 0 Z " fill="#3F3F3F" transform="translate(248,1133)"/>
<path d="M0 0 C2.64 1.98 5.28 3.96 8 6 C7.67 7.32 7.34 8.64 7 10 C3.64501065 8.61172854 1.84949545 7.14414226 0 4 C0 2.68 0 1.36 0 0 Z " fill="#212121" transform="translate(379,697)"/>
<path d="M0 0 C0.66 0.33 1.32 0.66 2 1 C1.34 2.32 0.68 3.64 0 5 C-0.66 5 -1.32 5 -2 5 C-2.33 11.6 -2.66 18.2 -3 25 C-3.33 25 -3.66 25 -4 25 C-4.11632513 21.58362047 -4.18728897 18.16775103 -4.25 14.75 C-4.28351563 13.78191406 -4.31703125 12.81382812 -4.3515625 11.81640625 C-4.45112665 4.5980051 -4.45112665 4.5980051 -1.984375 1.328125 C-1.00210938 0.67070313 -1.00210938 0.67070313 0 0 Z " fill="#252525" transform="translate(83,825)"/>
<path d="M0 0 C1.98 0.66 3.96 1.32 6 2 C5.38125 2.28875 4.7625 2.5775 4.125 2.875 C1.86674235 3.93720042 1.86674235 3.93720042 0 6 C-0.64767793 8.57061311 -0.64767793 8.57061311 -1 11 C-1.66 11 -2.32 11 -3 11 C-3.36923077 3.49230769 -3.36923077 3.49230769 -1.5 1 C-1.005 0.67 -0.51 0.34 0 0 Z " fill="#323232" transform="translate(435,684)"/>
<path d="M0 0 C0.33 0 0.66 0 1 0 C1.09765625 6.15234375 1.09765625 6.15234375 1 8 C0 9 0 9 -3.0625 9.0625 C-4.031875 9.041875 -5.00125 9.02125 -6 9 C-6 7.33333333 -6 5.66666667 -6 4 C-4.02 4 -2.04 4 0 4 C0 2.68 0 1.36 0 0 Z " fill="#9E9E9E" transform="translate(293,1133)"/>
<path d="M0 0 C2.31 0 4.62 0 7 0 C8.43088528 2.86177057 7.59991697 4.93375773 7 8 C6.54625 7.525625 6.0925 7.05125 5.625 6.5625 C4.06741796 4.90972192 4.06741796 4.90972192 2 4 C1.01 4.99 0.02 5.98 -1 7 C-0.67 4.69 -0.34 2.38 0 0 Z " fill="#7F7F7F" transform="translate(278,1131)"/>
<path d="M0 0 C1.35015859 4.05047576 0.62084998 6.7920168 0 11 C-0.66 11 -1.32 11 -2 11 C-2.33 11.66 -2.66 12.32 -3 13 C-3.15808824 4.9375 -3.15808824 4.9375 -2 1 C-1.34 0.67 -0.68 0.34 0 0 Z " fill="#0E0E0E" transform="translate(380,684)"/>
<path d="M0 0 C2.97 0 5.94 0 9 0 C11.17766075 4.35532149 11.03039555 5.46625958 10 10 C9.67 10 9.34 10 9 10 C8.34 8.02 7.68 6.04 7 4 C6.21625 3.896875 5.4325 3.79375 4.625 3.6875 C2 3 2 3 0 0 Z " fill="#404040" transform="translate(466,684)"/>
<path d="M0 0 C0 0.66 0 1.32 0 2 C3.63 2 7.26 2 11 2 C11 2.33 11 2.66 11 3 C10.15695312 3.13277344 9.31390625 3.26554688 8.4453125 3.40234375 C7.34960938 3.57894531 6.25390625 3.75554688 5.125 3.9375 C4.03445313 4.11152344 2.94390625 4.28554688 1.8203125 4.46484375 C-0.93821546 4.85551159 -0.93821546 4.85551159 -3 6 C-3.33 5.34 -3.66 4.68 -4 4 C-4.66 3.67 -5.32 3.34 -6 3 C-2.25 0 -2.25 0 0 0 Z " fill="#525252" transform="translate(387,676)"/>
<path d="M0 0 C0.33 0.99 0.66 1.98 1 3 C1.66 3 2.32 3 3 3 C3 4.98 3 6.96 3 9 C1.68 9 0.36 9 -1 9 C-2.25541557 5.23375329 -1.37061958 3.62811066 0 0 Z " fill="#393939" transform="translate(279,1132)"/>
<path d="M0 0 C1 1 1 1 1.0625 4.0625 C1.041875 5.031875 1.02125 6.00125 1 7 C0.67 7 0.34 7 0 7 C-0.33 5.35 -0.66 3.7 -1 2 C-1.33 3.65 -1.66 5.3 -2 7 C-2.33 7 -2.66 7 -3 7 C-3.33 5.02 -3.66 3.04 -4 1 C-5.65 0.67 -7.3 0.34 -9 0 C-9 -0.33 -9 -0.66 -9 -1 C-5.22418216 -2.04883829 -3.3314863 -2.14166977 0 0 Z " fill="#5D5D5D" transform="translate(91,687)"/>
<path d="M0 0 C1.65 0.33 3.3 0.66 5 1 C4.67 2.32 4.34 3.64 4 5 C2.35 5.33 0.7 5.66 -1 6 C-0.67 4.02 -0.34 2.04 0 0 Z " fill="#8F8F8F" transform="translate(411,691)"/>
<path d="M0 0 C6.27 0 12.54 0 19 0 C19 0.33 19 0.66 19 1 C17.21142578 1.09087891 17.21142578 1.09087891 15.38671875 1.18359375 C13.82030075 1.26801149 12.25389512 1.35265887 10.6875 1.4375 C9.90181641 1.47681641 9.11613281 1.51613281 8.30664062 1.55664062 C7.54931641 1.59853516 6.79199219 1.64042969 6.01171875 1.68359375 C5.31522217 1.72025146 4.61872559 1.75690918 3.90112305 1.79467773 C1.7783428 1.95581153 1.7783428 1.95581153 -1 3 C-0.67 2.01 -0.34 1.02 0 0 Z " fill="#DFDFDF" transform="translate(85,827)"/>
<path d="M0 0 C0.66 0 1.32 0 2 0 C4.09350689 3.4019487 4.17942163 6.05272412 4 10 C3.34 10 2.68 10 2 10 C1.34 6.7 0.68 3.4 0 0 Z " fill="#121212" transform="translate(407,685)"/>
<path d="M0 0 C1.65 0 3.3 0 5 0 C5 1.32 5 2.64 5 4 C3.35 4 1.7 4 0 4 C0 2.68 0 1.36 0 0 Z " fill="#414141" transform="translate(436,674)"/>
<path d="M0 0 C1.32 0 2.64 0 4 0 C4 1.65 4 3.3 4 5 C2.35 4.67 0.7 4.34 -1 4 C-0.67 2.68 -0.34 1.36 0 0 Z " fill="#E8E8E8" transform="translate(264,1134)"/>
<path d="M0 0 C1.2065625 0.0309375 1.2065625 0.0309375 2.4375 0.0625 C-0.5625 2.0625 -0.5625 2.0625 -2.5625 2.0625 C-1.31273244 5.71566671 -0.89151247 6.84315836 2.4375 9.0625 C0.77138095 9.105221 -0.89632885 9.10313832 -2.5625 9.0625 C-3.5625 8.0625 -3.5625 8.0625 -3.6875 4.5625 C-3.52762642 0.08603967 -3.52762642 0.08603967 0 0 Z " fill="#1E1E1E" transform="translate(288.5625,1131.9375)"/>
<path d="M0 0 C1.32 0.66 2.64 1.32 4 2 C3.34 2 2.68 2 2 2 C2.33 2.99 2.66 3.98 3 5 C-0.96 4.67 -4.92 4.34 -9 4 C-9 3.67 -9 3.34 -9 3 C-5.92382812 2.70703125 -5.92382812 2.70703125 -2.84765625 2.4140625 C-2.23792969 2.27742187 -1.62820312 2.14078125 -1 2 C-0.67 1.34 -0.34 0.68 0 0 Z " fill="#4D4D4D" transform="translate(163,675)"/>
<path d="M0 0 C0.2475 0.598125 0.495 1.19625 0.75 1.8125 C2.16370012 4.28647521 3.65055383 5.43370255 6 7 C4.00045254 7.04254356 1.99958364 7.04080783 0 7 C-1 6 -1 6 -1.125 3.5 C-1 1 -1 1 0 0 Z " fill="#404040" transform="translate(257,1134)"/>
<path d="M0 0 C2.97 0.495 2.97 0.495 6 1 C6 2.98 6 4.96 6 7 C5.01 7.495 5.01 7.495 4 8 C3.67 6.35 3.34 4.7 3 3 C2.01 2.67 1.02 2.34 0 2 C0 1.34 0 0.68 0 0 Z " fill="#A5A5A5" transform="translate(250,1133)"/>
<path d="M0 0 C2 1.8125 2 1.8125 4 4 C4 4.99 4 5.98 4 7 C2.0625 6.1875 2.0625 6.1875 0 5 C-0.33 4.01 -0.66 3.02 -1 2 C-0.67 1.34 -0.34 0.68 0 0 Z " fill="#2F2F2F" transform="translate(82,1093)"/>
<path d="M0 0 C1.65 1.32 3.3 2.64 5 4 C4.67 5.32 4.34 6.64 4 8 C3.67 7.01 3.34 6.02 3 5 C2.01 5.495 2.01 5.495 1 6 C0.01 4.35 -0.98 2.7 -2 1 C-1.34 0.67 -0.68 0.34 0 0 Z " fill="#414141" transform="translate(463,826)"/>
<path d="M0 0 C0.99 0.33 1.98 0.66 3 1 C3.8125 2.9375 3.8125 2.9375 4 5 C3.34 5.66 2.68 6.32 2 7 C-0.125 6.625 -0.125 6.625 -2 6 C-1.01 5.67 -0.02 5.34 1 5 C1.33 4.34 1.66 3.68 2 3 C1.01 3 0.02 3 -1 3 C-0.67 2.01 -0.34 1.02 0 0 Z " fill="#1A1A1A" transform="translate(342,702)"/>
<path d="M0 0 C2.31 0 4.62 0 7 0 C7 0.66 7 1.32 7 2 C2.375 4.125 2.375 4.125 -1 3 C-0.67 2.01 -0.34 1.02 0 0 Z " fill="#262626" transform="translate(107,684)"/>
<path d="M0 0 C-0.25 1.875 -0.25 1.875 -1 4 C-3.0625 5.25 -3.0625 5.25 -5 6 C-5 3 -5 3 -3.625 1.3125 C-2 0 -2 0 0 0 Z " fill="#252525" transform="translate(466,1094)"/>
<path d="M0 0 C-0.66 0.66 -1.32 1.32 -2 2 C-1.67 2.66 -1.34 3.32 -1 4 C-1.99 4 -2.98 4 -4 4 C-4 3.34 -4 2.68 -4 2 C-6.31 2 -8.62 2 -11 2 C-11 1.67 -11 1.34 -11 1 C-9.5437328 0.63743142 -8.08488815 0.28520207 -6.625 -0.0625 C-5.40683594 -0.35833984 -5.40683594 -0.35833984 -4.1640625 -0.66015625 C-2 -1 -2 -1 0 0 Z " fill="#373737" transform="translate(401,704)"/>
<path d="M0 0 C0 0.99 0 1.98 0 3 C-2 4.6875 -2 4.6875 -4 6 C-4.66 5.67 -5.32 5.34 -6 5 C-5.6875 3.0625 -5.6875 3.0625 -5 1 C-2 0 -2 0 0 0 Z " fill="#1B1B1B" transform="translate(170,703)"/>
<path d="M0 0 C0.33 0 0.66 0 1 0 C2.12880057 3.31114834 3.21302675 6.58978257 4 10 C2.68 9.34 1.36 8.68 0 8 C0 5.36 0 2.72 0 0 Z " fill="#2F2F2F" transform="translate(105,689)"/>
<path d="M0 0 C1.65 0 3.3 0 5 0 C5 0.99 5 1.98 5 3 C4.01 3 3.02 3 2 3 C1.67 4.32 1.34 5.64 1 7 C0.67 4.69 0.34 2.38 0 0 Z " fill="#949494" transform="translate(409,682)"/>
<path d="M0 0 C0.99 0 1.98 0 3 0 C3 1.98 3 3.96 3 6 C2.01 5.67 1.02 5.34 0 5 C0 3.35 0 1.7 0 0 Z " fill="#BEBEBE" transform="translate(258,1133)"/>
<path d="M0 0 C0.66 0.33 1.32 0.66 2 1 C1.34 2.32 0.68 3.64 0 5 C-0.66 5 -1.32 5 -2 5 C-2.66 5.99 -3.32 6.98 -4 8 C-3.50168276 4.31245243 -2.89932357 2.39509338 0 0 Z " fill="#515151" transform="translate(83,825)"/>
<path d="M0 0 C2.475 0.495 2.475 0.495 5 1 C5 1.66 5 2.32 5 3 C3.35 3.33 1.7 3.66 0 4 C0 2.68 0 1.36 0 0 Z " fill="#767676" transform="translate(134,691)"/>
<path d="M0 0 C0.33 0 0.66 0 1 0 C1.23053497 2.84326464 1.35903101 4.46145349 -0.25 6.875 C-2 8 -2 8 -4.1875 7.6875 C-4.785625 7.460625 -5.38375 7.23375 -6 7 C-2.25 4 -2.25 4 0 4 C0 2.68 0 1.36 0 0 Z " fill="#CCCCCC" transform="translate(443,689)"/>
<path d="M0 0 C0.66 0 1.32 0 2 0 C2 2.31 2 4.62 2 7 C1.01 7.33 0.02 7.66 -1 8 C-0.67 5.36 -0.34 2.72 0 0 Z " fill="#272727" transform="translate(476,688)"/>
<path d="M0 0 C0.99 0 1.98 0 3 0 C2.67 1.65 2.34 3.3 2 5 C1.01 4.67 0.02 4.34 -1 4 C-0.67 2.68 -0.34 1.36 0 0 Z " fill="#636363" transform="translate(392,666)"/>
</svg>
