<?xml version="1.0" encoding="UTF-8"?>

<svg version="1.1" xmlns="http://www.w3.org/2000/svg" width="659" height="1590">
<path d="M0 0 C217.47 0 434.94 0 659 0 C659 524.7 659 1049.4 659 1590 C441.53 1590 224.06 1590 0 1590 C0 1065.3 0 540.6 0 0 Z " fill="#FEFEFE" transform="translate(0,0)"/>
<path d="M0 0 C0.83716696 -0.00623996 1.67433393 -0.01247993 2.53686959 -0.01890898 C5.34062695 -0.03485714 8.14351714 -0.02222766 10.94728088 -0.00964355 C12.9579672 -0.0150639 14.96864954 -0.02218607 16.97932434 -0.03088379 C22.44009967 -0.04913153 27.90057297 -0.04204321 33.36135364 -0.02936745 C39.07474254 -0.01924596 44.78810545 -0.02863089 50.50149536 -0.03491211 C60.09756618 -0.04219157 69.69351391 -0.03259353 79.28956604 -0.0135498 C90.38398657 0.00821324 101.47811301 0.00117279 112.5725264 -0.02085543 C122.09623464 -0.03900825 131.61985434 -0.04156811 141.1435743 -0.03110075 C146.83236229 -0.02486441 152.52101207 -0.02403403 158.20979118 -0.0372467 C163.55901221 -0.04880256 168.90785422 -0.04078401 174.2570343 -0.01766968 C176.22021925 -0.01238095 178.1834361 -0.01389916 180.14660835 -0.02272034 C182.82684775 -0.03365303 185.50587309 -0.01993988 188.18603516 0 C188.96279191 -0.00892289 189.73954866 -0.01784577 190.5398435 -0.02703905 C195.69476534 0.04733715 198.77042404 1.10485513 202.6565094 4.50793457 C203.87962162 7.81567062 203.78121122 11.07966135 203.7807079 14.57678199 C203.78407884 16.45872507 203.78407884 16.45872507 203.78751788 18.3786872 C203.78495205 19.77633195 203.78229512 21.17397652 203.77955723 22.57162094 C203.7802966 24.05830011 203.7814749 25.54497912 203.78305373 27.03165764 C203.78613328 31.14083735 203.78293891 35.24999246 203.77877559 39.35917034 C203.77535059 43.82053574 203.77771043 48.28189855 203.77935308 52.74326444 C203.78143035 60.57017561 203.77977703 68.39707919 203.77571487 76.22398949 C203.76969128 87.86240392 203.76937801 99.50081355 203.77025686 111.13922926 C203.77157225 130.71485821 203.7682237 150.29048379 203.76223946 169.86611176 C203.75632737 189.25527717 203.75247451 208.64444118 203.75138664 228.03360748 C203.7513179 229.23806788 203.75124916 230.44252827 203.75117834 231.68348746 C203.75084002 237.80005066 203.75053863 243.91661385 203.75025146 250.03317705 C203.74814969 293.38430161 203.74140853 336.73542433 203.73194885 380.08654785 C203.7227681 422.20796702 203.71568269 464.32938569 203.71144104 506.45080566 C203.71130951 507.74861415 203.71117799 509.04642263 203.71104248 510.38355864 C203.70972398 523.41639469 203.70844817 536.44923075 203.70720362 549.48206681 C203.70466724 576.03270195 203.70184598 602.58333707 203.69885254 629.13397217 C203.69871525 630.35479288 203.69857796 631.5756136 203.69843651 632.83342888 C203.68923205 714.39159821 203.67338641 795.94976651 203.6565094 877.50793457 C204.94686096 877.44992676 206.23721252 877.39191895 207.56666565 877.33215332 C209.28407719 877.28522951 211.00152812 877.23973217 212.7190094 877.19543457 C213.99034729 877.13259277 213.99034729 877.13259277 215.28736877 877.06848145 C220.71993303 876.96360569 224.02315208 877.73947276 228.39050991 881.01430817 C231.01740214 884.11351605 230.58793761 887.97031502 230.49829102 891.84089661 C230.50427199 892.78438577 230.51025296 893.72787494 230.51641518 894.69995469 C230.5279528 897.86386186 230.48943798 901.02517481 230.45118713 904.18884277 C230.44921279 906.4555607 230.45032061 908.7222831 230.45428467 910.98899841 C230.45629576 917.14592184 230.41509787 923.30189357 230.36626697 929.45859551 C230.32255209 935.89143077 230.31839931 942.32428706 230.31008911 948.75724792 C230.29079378 959.55559759 230.24705034 970.35355636 230.18458557 981.1517334 C230.12031799 992.27313519 230.07085654 1003.39444155 230.04103088 1014.51599121 C230.0391549 1015.20867692 230.03727892 1015.90136263 230.03534609 1016.61503881 C230.01915584 1022.6405464 230.0040864 1028.66605666 229.98912716 1034.69156742 C229.92327636 1060.63068533 229.78383006 1086.56887695 229.6565094 1112.50793457 C279.4865094 1112.50793457 329.3165094 1112.50793457 380.6565094 1112.50793457 C380.6565094 1098.97793457 380.6565094 1085.44793457 380.6565094 1071.50793457 C384.6565094 1066.50793457 384.6565094 1066.50793457 387.23072815 1065.91418457 C401.72780662 1066.35073398 416.69545695 1067.50103364 430.6565094 1071.50793457 C434.43546401 1072.11410633 438.23082032 1072.56108353 442.0315094 1073.00793457 C448.34913048 1073.75650686 454.51932654 1074.61772636 460.71363831 1076.07971191 C463.18559097 1076.62454792 465.63417099 1076.88285561 468.1565094 1077.07043457 C472.55133411 1077.40275928 472.55133411 1077.40275928 473.6565094 1078.50793457 C475.43341049 1078.73582883 477.21820908 1078.90283245 479.00416565 1079.04309082 C480.08375549 1079.13010254 481.16334534 1079.21711426 482.27565002 1079.3067627 C483.41195862 1079.39377441 484.54826721 1079.48078613 485.7190094 1079.57043457 C487.42927307 1079.70675293 487.42927307 1079.70675293 489.17408752 1079.8458252 C492.00126681 1080.07058003 494.82871404 1080.29109169 497.6565094 1080.50793457 C497.6565094 1081.16793457 497.6565094 1081.82793457 497.6565094 1082.50793457 C499.24979065 1082.59881348 499.24979065 1082.59881348 500.8752594 1082.69152832 C503.78959665 1082.86293964 506.70379463 1083.03616674 509.6174469 1083.21887207 C510.29082092 1083.26060547 510.96419495 1083.30233887 511.65797424 1083.34533691 C513.71444369 1083.51264801 515.73887962 1083.78126857 517.7815094 1084.07043457 C524.94350296 1084.87904675 532.65009666 1085.41998271 539.6565094 1083.50793457 C539.65626587 1082.48242122 539.65626587 1082.48242122 539.65601742 1081.43619043 C539.64715949 1040.93613896 539.66944512 1000.43621211 539.73229969 959.93620564 C539.73981594 955.07575689 539.74707138 950.21530778 539.75416565 945.3548584 C539.7555824 944.38721076 539.75699915 943.41956313 539.75845884 942.42259284 C539.78079099 926.74462591 539.78198506 911.06672476 539.77539803 895.38874636 C539.76911091 879.3074556 539.78546829 863.22630345 539.82294548 847.14505452 C539.84536337 837.21813271 539.85001626 827.29152638 539.83210604 817.36459406 C539.82152258 810.56176798 539.83289006 803.75920171 539.86167093 796.9564291 C539.87763557 793.02861064 539.88377617 789.10140992 539.86390114 785.17359543 C539.8459243 781.57877113 539.85545824 777.98511698 539.88704823 774.39039626 C539.89670686 772.47140373 539.87676998 770.55233309 539.85584843 768.6334303 C539.96615509 760.49376731 539.96615509 760.49376731 541.96870589 757.63410509 C547.45591468 752.90351854 553.08548019 753.3256896 559.9065094 753.32043457 C560.72764221 753.30818848 561.54877502 753.29594238 562.39479065 753.2833252 C569.0628789 753.26747396 575.16307897 753.25963125 580.34845477 757.93523699 C583.71624785 762.2408494 583.34924878 766.77003151 583.28850842 772.0343771 C583.29607522 773.09950166 583.30364202 774.16462623 583.31143811 775.26202729 C583.33076719 778.84958899 583.31431782 782.43610158 583.29815674 786.02366638 C583.30463079 788.61423665 583.31328253 791.20480224 583.32393104 793.79535872 C583.34354162 799.43721687 583.34450516 805.07884079 583.33328629 810.72071838 C583.31664841 819.11030902 583.32851724 827.49969034 583.34599414 835.88927053 C583.37621777 850.87221798 583.37762062 865.85506519 583.36664111 880.83803305 C583.35705928 893.95034406 583.35633315 907.06261658 583.36452675 920.17492867 C583.36559254 921.93259822 583.36665808 923.69026777 583.36772338 925.44793733 C583.36934442 928.09646136 583.37097672 930.74498539 583.3726364 933.3935094 C583.38789702 958.02272183 583.39339065 982.6519213 583.37803936 1007.28113461 C583.37717121 1008.67428003 583.37717121 1008.67428003 583.37628552 1010.09556981 C583.37152062 1017.63818353 583.36646275 1025.18079705 583.36138779 1032.72341056 C583.34179352 1062.14862421 583.35099879 1091.57370064 583.38380432 1120.99890137 C583.42056973 1154.04616795 583.437686 1187.09335418 583.42439204 1220.14064127 C583.42303451 1223.6628024 583.42173445 1227.18496355 583.42046547 1230.70712471 C583.42013751 1231.57439225 583.41980954 1232.44165979 583.41947164 1233.33520816 C583.41489029 1246.43955818 583.42554375 1259.54383969 583.44371605 1272.64817619 C583.46432171 1287.54722216 583.46379597 1302.44609683 583.43508365 1317.345133 C583.41962136 1325.68663107 583.42074884 1334.02773968 583.44561069 1342.36921717 C583.46230014 1348.59090415 583.44775767 1354.81214466 583.42083917 1361.03378756 C583.41481133 1363.55592008 583.41899528 1366.07810105 583.4342024 1368.60019492 C583.4533224 1372.0194149 583.43575822 1375.43652978 583.40876293 1378.8556509 C583.42309578 1379.84307566 583.43742862 1380.83050041 583.45219579 1381.84784713 C583.35787416 1387.68912389 582.36804748 1390.90678322 578.30813019 1395.17246035 C572.78009742 1399.64233944 565.36306832 1400.25513477 558.55104065 1401.22668457 C557.11120064 1401.44270325 557.11120064 1401.44270325 555.64227295 1401.66308594 C552.58567482 1402.11960723 549.52744724 1402.56392483 546.4690094 1403.00793457 C544.46693829 1403.30531842 542.46498395 1403.60348956 540.46315002 1403.90246582 C529.89358276 1405.47508565 519.31607724 1406.992465 508.7366333 1408.49702454 C504.24162115 1409.1365368 499.74844118 1409.78561858 495.2580719 1410.45715332 C494.40986877 1410.58283691 493.56166565 1410.70852051 492.6877594 1410.8380127 C491.02837896 1411.08449534 489.36955194 1411.33472291 487.7111969 1411.5880127 C482.96620601 1412.28428853 478.45238469 1412.64366689 473.6565094 1412.50793457 C473.6565094 1413.16793457 473.6565094 1413.82793457 473.6565094 1414.50793457 C466.26721413 1415.8514428 457.93144157 1416.695623 450.6565094 1414.50793457 C450.6565094 1413.84793457 450.6565094 1413.18793457 450.6565094 1412.50793457 C450.0583844 1412.30168457 449.4602594 1412.09543457 448.8440094 1411.88293457 C445.77665884 1409.95488565 445.18588246 1407.80196886 443.6565094 1404.50793457 C440.57003906 1399.12365035 437.26127822 1393.8671182 433.99635315 1388.58996582 C431.04363939 1383.8066421 428.15385403 1378.98972747 425.2971344 1374.14855957 C424.2023152 1372.30483588 423.10621656 1370.46188019 422.00953674 1368.6192627 C421.26289722 1367.35932916 420.52049956 1366.09687386 419.78199768 1364.83215332 C418.69434817 1362.97221111 417.59121499 1361.12228409 416.4846344 1359.27355957 C415.8442926 1358.18849121 415.20395081 1357.10342285 414.54420471 1355.98547363 C412.90051709 1353.41580987 412.90051709 1353.41580987 410.57008362 1352.5826416 C407.67745975 1352.46971191 405.9995068 1353.67228305 403.5315094 1355.13293457 C399.77781008 1357.33980746 396.12708176 1359.13065719 392.0940094 1360.75793457 C389.19916522 1362.17116559 387.9500943 1362.78202423 386.73072815 1365.79699707 C386.43122568 1367.52108953 386.18884428 1369.25607493 386.00416565 1370.99621582 C385.4645462 1374.89481473 383.90527777 1377.30514325 381.6565094 1380.50793457 C378.4063031 1381.59133667 376.05891694 1381.63106527 372.63912964 1381.62818909 C371.38129669 1381.62956375 370.12346375 1381.63093842 368.82751465 1381.63235474 C367.43107581 1381.62881559 366.03463722 1381.62518078 364.63819885 1381.62145996 C363.16979474 1381.62117793 361.70139048 1381.62133613 360.23298645 1381.62190247 C356.24360959 1381.62218982 352.2542627 1381.616303 348.26489282 1381.60932851 C344.09686449 1381.60308476 339.9288355 1381.60249036 335.76080322 1381.6013031 C327.86667738 1381.59819281 319.97256536 1381.58998347 312.07844561 1381.57995361 C301.41208197 1381.56669515 290.74571455 1381.56129013 280.07934475 1381.55545139 C263.27172261 1381.54604339 246.46412964 1381.52612245 229.6565094 1381.50793457 C229.6565094 1423.41793457 229.6565094 1465.32793457 229.6565094 1508.50793457 C239.5565094 1508.50793457 249.4565094 1508.50793457 259.6565094 1508.50793457 C265.52372049 1512.02826122 265.52372049 1512.02826122 266.6565094 1515.50793457 C266.93066406 1518.17066956 266.93066406 1518.17066956 266.96290588 1521.23864746 C266.97889328 1522.38986588 266.99488068 1523.54108429 267.01135254 1524.72718811 C267.01939659 1526.58512245 267.01939659 1526.58512245 267.02760315 1528.48059082 C267.03663162 1529.75518661 267.0456601 1531.02978241 267.05496216 1532.34300232 C267.06946911 1535.0372024 267.07914788 1537.73097821 267.08204651 1540.4251709 C267.08744449 1543.87794642 267.12519098 1547.3295598 267.17079067 1550.78200626 C267.20765892 1554.0772993 267.2090708 1557.37261913 267.21510315 1560.66809082 C267.23463547 1561.90873795 267.25416779 1563.14938507 267.27429199 1564.42762756 C267.26821426 1565.57569382 267.26213654 1566.72376007 267.25587463 1567.90661621 C267.26094528 1568.91825333 267.26601593 1569.92989044 267.27124023 1570.97218323 C266.6565094 1573.50793457 266.6565094 1573.50793457 264.24404907 1575.29551697 C263.39016098 1575.69561478 262.53627289 1576.09571259 261.6565094 1576.50793457 C260.9965094 1576.83793457 260.3365094 1577.16793457 259.6565094 1577.50793457 C257.87421049 1577.60232541 256.08833006 1577.63166518 254.30353355 1577.6309824 C253.1604811 1577.63297345 252.01742865 1577.6349645 250.83973825 1577.63701588 C249.57322384 1577.63410304 248.30670943 1577.6311902 247.0018158 1577.62818909 C245.65127976 1577.62862481 244.30074381 1577.62949973 242.95020831 1577.63077825 C239.22640164 1577.63302303 235.50262354 1577.62900216 231.77882051 1577.62400019 C227.76791158 1577.61969563 223.75700435 1577.62114212 219.74609375 1577.62190247 C212.79271943 1577.6224277 205.83935448 1577.61928098 198.88598251 1577.61366463 C188.83248158 1577.60554952 178.7789852 1577.6029344 168.72548135 1577.60167664 C152.41570428 1577.59948613 136.1059322 1577.59282609 119.79615784 1577.58337402 C103.9494784 1577.57419986 88.10280033 1577.56711905 72.25611877 1577.56286621 C71.27989667 1577.56260349 70.30367456 1577.56234076 69.29786997 1577.56207008 C64.40061994 1577.56076507 59.50336991 1577.55950136 54.60611987 1577.55825818 C13.95624528 1577.54788562 -26.69362008 1577.52944734 -67.3434906 1577.50793457 C-67.3434906 1554.40793457 -67.3434906 1531.30793457 -67.3434906 1507.50793457 C-58.7634906 1507.50793457 -50.1834906 1507.50793457 -41.3434906 1507.50793457 C-41.34809957 1504.29661458 -41.35270853 1501.08529459 -41.35745716 1497.77666187 C-41.43751037 1441.60077243 -41.51120281 1385.42487768 -41.5552063 1329.24894714 C-41.55624173 1327.93046823 -41.55624173 1327.93046823 -41.55729807 1326.58535338 C-41.57226151 1307.48407787 -41.58611257 1288.3828017 -41.59881725 1269.28152456 C-41.6050541 1259.91469298 -41.61153685 1250.54786159 -41.6181488 1241.18103027 C-41.6188026 1240.24890223 -41.61945639 1239.31677418 -41.62013 1238.35639983 C-41.6414488 1208.12619468 -41.67901431 1177.89603616 -41.7249767 1147.66585927 C-41.77211095 1116.60863692 -41.80291114 1085.55144039 -41.81306555 1054.49418288 C-41.81450639 1050.11075287 -41.81613458 1045.72732295 -41.81787682 1041.34389305 C-41.81821393 1040.48114427 -41.81855105 1039.61839548 -41.81889838 1038.72950279 C-41.82481426 1024.82386855 -41.84802414 1010.91831398 -41.87765077 997.01271227 C-41.90704543 983.0436223 -41.91834096 969.07461157 -41.91099749 955.10549174 C-41.90718543 946.79917529 -41.91741437 938.49314817 -41.94747832 930.1868838 C-41.96836544 923.99474435 -41.96333553 917.80288622 -41.94798508 911.61073627 C-41.94586125 909.09787005 -41.95230072 906.5849799 -41.96790651 904.07216123 C-41.98781415 900.67042259 -41.9772561 897.27012687 -41.95872974 893.86841297 C-41.97186481 892.88043648 -41.98499988 891.89246 -41.99853298 890.87454483 C-41.94186672 886.30709461 -41.84217761 884.18020737 -39.05503815 880.42290467 C-35.28275151 877.7588112 -32.34727348 877.37953063 -27.7966156 877.41027832 C-26.95227966 877.41350098 -26.10794373 877.41672363 -25.23802185 877.42004395 C-24.36532654 877.42842285 -23.49263123 877.43680176 -22.5934906 877.44543457 C-21.26124451 877.45220215 -21.26124451 877.45220215 -19.90208435 877.45910645 C-17.71581731 877.47086057 -15.52968881 877.48729208 -13.3434906 877.50793457 C-13.34466046 876.37206121 -13.34466046 876.37206121 -13.34585394 875.21324091 C-13.43055001 792.80548257 -13.509082 710.39771921 -13.5552063 627.9899292 C-13.55589658 626.75978055 -13.55658687 625.52963191 -13.55729807 624.26220603 C-13.57226113 597.53049587 -13.58611225 570.79878525 -13.59881725 544.06707393 C-13.60505416 530.95865628 -13.6115369 517.85023875 -13.6181488 504.74182129 C-13.6191295 502.78510934 -13.6191295 502.78510934 -13.62013 500.78886785 C-13.6414529 458.47472951 -13.67902147 416.16062445 -13.7249767 373.84650629 C-13.77209941 330.37866605 -13.80290846 286.91084425 -13.81306555 243.44297889 C-13.81450642 237.30943105 -13.8161346 231.17588327 -13.81787682 225.04233551 C-13.81821393 223.83511483 -13.81855105 222.62789416 -13.81889838 221.38409103 C-13.82481674 201.91786788 -13.84803329 182.45170159 -13.87765077 162.98550166 C-13.90702896 143.43556012 -13.9183451 123.8856752 -13.91099749 104.33571234 C-13.90718231 92.70764969 -13.91744218 81.07979354 -13.94747832 69.45176801 C-13.96615162 61.69573449 -13.966863 53.93983704 -13.95264967 46.18379432 C-13.94506116 41.75706165 -13.94558462 37.33072098 -13.96790651 32.90402946 C-13.98803235 28.88251235 -13.98544686 24.86169576 -13.96419048 20.84019031 C-13.96059831 19.38898011 -13.96551897 17.93771956 -13.97966683 16.48657388 C-13.9975868 14.52526796 -13.98196868 12.56373995 -13.96448308 10.60243011 C-13.96565294 8.96931297 -13.96565294 8.96931297 -13.96684643 7.30320357 C-13.3434906 4.50793457 -13.3434906 4.50793457 -11.04218109 2.15848888 C-7.3934137 -0.07314486 -4.15020528 -0.04753839 0 0 Z " fill="#181818" transform="translate(67.34349060058594,11.4920654296875)"/>
<path d="M0 0 C1.32 0 2.64 0 4 0 C4.33 56.1 4.66 112.2 5 170 C6.32 170 7.64 170 9 170 C9 113.9 9 57.8 9 0 C87.21 0 165.42 0 246 0 C246.25 112.6875 246.25 112.6875 246.29785156 148.3034668 C246.3310606 158.81486688 246.3310606 158.81486688 246.36956787 169.32624817 C246.38661215 174.01772781 246.39242983 178.70907909 246.39154053 183.40058899 C246.39077137 189.37991201 246.40897734 195.35889111 246.44108915 201.33812487 C246.44962959 203.53562044 246.45143066 205.73315464 246.44582415 207.93065965 C246.43922001 210.89381691 246.4569987 213.85584952 246.48101807 216.81889343 C246.47325726 217.68343549 246.46549644 218.54797754 246.45750046 219.43871784 C246.53219891 224.64210909 247.26314401 227.10433569 251 231 C251 231.66 251 232.32 251 233 C325.25 233.495 325.25 233.495 401 234 C401 310.56 401 387.12 401 466 C326.1875 466.4375 326.1875 466.4375 302.53979492 466.56811523 C295.5623509 466.61135457 295.5623509 466.61135457 288.58491516 466.65589905 C285.47005604 466.67574945 282.35519475 466.69283345 279.24031067 466.70826721 C275.27099859 466.72802418 271.3017414 466.75245062 267.33247817 466.78030598 C265.87331052 466.78974221 264.41413099 466.79751691 262.95494497 466.80346954 C260.98838706 466.81172701 259.02186005 466.82657063 257.05534363 466.84178162 C255.40026433 466.85146044 255.40026433 466.85146044 253.71174908 466.8613348 C250.90296681 466.88380687 250.90296681 466.88380687 248 468 C247.835 468.66 247.67 469.32 247.5 470 C247.335 470.66 247.17 471.32 247 472 C246.01 472.33 245.02 472.66 244 473 C244 518.87 244 564.74 244 612 C166.78 612 89.56 612 10 612 C9.67 584.28 9.34 556.56 9 528 C8.01 528 7.02 528 6 528 C5.67 555.39 5.34 582.78 5 611 C3.35 611 1.7 611 0 611 C0 409.37 0 207.74 0 0 Z " fill="#FEFEFE" transform="translate(34,908)"/>
<path d="M0 0 C1.32 0 2.64 0 4 0 C4.95549885 56.96533508 5.10390501 113.92914488 5.11352539 170.90087891 C5.11369152 171.83116231 5.11385764 172.76144572 5.1140288 173.71991953 C5.11804009 197.5556748 5.11302283 221.39142598 5.10463549 245.22717976 C5.09906502 261.05781903 5.09588517 276.88845692 5.09487724 292.71909714 C5.0948085 293.78039759 5.09473976 294.84169804 5.09466894 295.93515912 C5.09433046 301.32818742 5.09402913 306.72121572 5.09374207 312.11424403 C5.0916593 349.99917812 5.0849722 387.88411008 5.07543945 425.76904297 C5.06620775 462.50081369 5.05914754 499.23258382 5.05493164 535.96435547 C5.05480011 537.10294117 5.05466859 538.24152686 5.05453308 539.41461516 C5.0532142 550.85206731 5.05193844 562.28951948 5.05069422 573.72697165 C5.04816016 597.01218482 5.04533892 620.29739796 5.04234314 643.58261108 C5.0421372 645.18741665 5.0421372 645.18741665 5.04192711 646.82464252 C5.03277578 717.8830959 5.0169368 788.9415481 5 860 C4.01 860 3.02 860 2 860 C2 843.17 2 826.34 2 809 C0.35 809 -1.3 809 -3 809 C-3 825.83 -3 842.66 -3 860 C-64.71 860 -126.42 860 -190 860 C-190.33 837.89 -190.66 815.78 -191 793 C-192.32 792.67 -193.64 792.34 -195 792 C-195 814.44 -195 836.88 -195 860 C-195.99 860 -196.98 860 -198 860 C-198 576.53 -198 293.06 -198 1 C-197.01 1 -196.02 1 -195 1 C-194.19306083 5.95962872 -193.84989656 10.77151041 -193.84228516 15.79956055 C-193.83720444 16.5451825 -193.83212372 17.29080444 -193.82688904 18.059021 C-193.81625325 19.66531418 -193.80760693 21.27162156 -193.80076981 22.87793541 C-193.78890231 25.42104522 -193.76943431 27.96399114 -193.74765015 30.5070343 C-193.68626563 37.73290584 -193.63188304 44.95875396 -193.59863281 52.18481445 C-193.57770494 56.61505436 -193.54243137 61.04498363 -193.49787521 65.47504616 C-193.48371589 67.16031052 -193.47499292 68.84562969 -193.47182083 70.53095055 C-193.46691918 72.88384045 -193.44378634 75.23590132 -193.41650391 77.58862305 C-193.42101311 78.63056572 -193.42101311 78.63056572 -193.4256134 79.69355774 C-193.35469317 83.8061586 -192.72318129 85.92981733 -190 89 C-190 89.66 -190 90.32 -190 91 C-186.7 91.33 -183.4 91.66 -180 92 C-179.98018066 93.04454346 -179.96036133 94.08908691 -179.93994141 95.1652832 C-179.86387886 99.0400405 -179.77516272 102.91442257 -179.68261719 106.78881836 C-179.64433007 108.46582634 -179.60947669 110.14291638 -179.578125 111.82006836 C-179.53246821 114.23060432 -179.4744759 116.64057557 -179.4140625 119.05078125 C-179.40251129 119.80087967 -179.39096008 120.55097809 -179.37905884 121.32380676 C-179.27304541 125.06127713 -179.12380918 126.81428623 -177 130 C-174.16990089 130.45513987 -174.16990089 130.45513987 -170.78138733 130.3742218 C-170.1365939 130.37819621 -169.49180048 130.38217061 -168.82746786 130.38626546 C-166.65697413 130.39592512 -164.4871263 130.38404893 -162.31665039 130.37231445 C-160.76459001 130.37474125 -159.21253118 130.37845947 -157.66047668 130.38337708 C-153.43730488 130.39280596 -149.21436403 130.38334359 -144.99121022 130.37004495 C-140.57767136 130.35875263 -136.16414424 130.36283628 -131.75059509 130.36479187 C-124.33670262 130.36567564 -116.92290143 130.35457785 -109.5090332 130.33618164 C-100.93165128 130.31502052 -92.35440322 130.31150198 -83.77700049 130.3177436 C-75.53515289 130.32343454 -67.29335255 130.31779428 -59.05151176 130.30657005 C-55.54000413 130.30191969 -52.02852534 130.30105212 -48.51701546 130.3031559 C-44.38267584 130.30503686 -40.24847283 130.29694975 -36.11416435 130.2810955 C-34.59478699 130.27684565 -33.07539578 130.2760068 -31.55601501 130.27878571 C-29.48572453 130.28199826 -27.41584458 130.27294951 -25.34559631 130.26069641 C-24.185813 130.25864354 -23.02602968 130.25659067 -21.83110142 130.25447559 C-18.79567369 130.20899292 -18.79567369 130.20899292 -16 128 C-15.66228483 125.16975238 -15.51096665 122.54756033 -15.48828125 119.7109375 C-15.47033005 118.89251373 -15.45237885 118.07408997 -15.43388367 117.23086548 C-15.37962486 114.61229636 -15.34583596 111.99391106 -15.3125 109.375 C-15.27934057 107.60153683 -15.24485221 105.82809796 -15.20898438 104.0546875 C-15.12388981 99.70325736 -15.0571536 95.35188321 -15 91 C-14.38511719 90.93941406 -13.77023438 90.87882812 -13.13671875 90.81640625 C-11.92435547 90.69072266 -11.92435547 90.69072266 -10.6875 90.5625 C-9.88699219 90.48128906 -9.08648437 90.40007812 -8.26171875 90.31640625 C-5.83912821 90.04734307 -5.83912821 90.04734307 -3 89 C-0.59527691 84.78794766 -0.69444123 80.44279913 -0.68115234 75.72143555 C-0.67110672 74.90140549 -0.6610611 74.08137543 -0.65071106 73.23649597 C-0.61991681 70.5365771 -0.60285441 67.83675723 -0.5859375 65.13671875 C-0.56722283 63.26055553 -0.54764919 61.38440069 -0.5272522 59.508255 C-0.47595664 54.5780431 -0.43631709 49.64780392 -0.39910889 44.71746826 C-0.35905313 39.68332179 -0.30796794 34.64928856 -0.2578125 29.61523438 C-0.16108369 19.74356916 -0.07666911 9.87183997 0 0 Z " fill="#FDFDFD" transform="translate(259,29)"/>
<path d="M0 0 C1.98 0.33 3.96 0.66 6 1 C8.65753561 1.09191883 11.28161386 1.14007599 13.9375 1.125 C14.95360352 1.13080078 14.95360352 1.13080078 15.99023438 1.13671875 C20.49372282 1.12808311 24.4787419 0.64589401 29 0 C29 201.3 29 402.6 29 610 C24.99265467 612.00367267 22.39539297 612.48720415 18 613 C13.59857783 613.52220263 9.23675806 614.11155386 4.8671875 614.85546875 C-0.80611716 615.81760294 -6.48978831 616.69374602 -12.1796875 617.55078125 C-13.10994751 617.69107254 -14.04020752 617.83136383 -14.99865723 617.97590637 C-17.95738685 618.4217789 -20.91619197 618.86714815 -23.875 619.3125 C-40.62383688 621.82603681 -40.62383688 621.82603681 -57.3359375 624.5703125 C-58.02763031 624.68874008 -58.71932312 624.80716766 -59.43197632 624.92918396 C-62.5532636 625.46587429 -65.67202052 626.01381543 -68.78857422 626.57739258 C-71.85455159 627.11326735 -74.91519073 627.58736552 -78 628 C-78.93247559 628.12697266 -79.86495117 628.25394531 -80.82568359 628.38476562 C-86.99050824 628.86169072 -86.99050824 628.86169072 -89.61914062 626.61791992 C-91.01896024 624.68749858 -92.07783121 622.76622574 -93.125 620.625 C-93.50914062 619.92632813 -93.89328125 619.22765625 -94.2890625 618.5078125 C-97 613.47321429 -97 613.47321429 -97 611 C-97.99 610.67 -98.98 610.34 -100 610 C-100.88671875 608.390625 -100.88671875 608.390625 -101.6875 606.25 C-104.7903827 598.74535346 -109.4245037 592.07930958 -113.74609375 585.234375 C-115 583 -115 583 -115 581 C-116.32 580.34 -117.64 579.68 -119 579 C-119 577.68 -119 576.36 -119 575 C-119.66 575 -120.32 575 -121 575 C-121.51820313 573.63294922 -121.51820313 573.63294922 -122.046875 572.23828125 C-124.49246369 566.54097597 -127.94328285 561.41288962 -131.25 556.1875 C-132.21486328 554.64352539 -132.21486328 554.64352539 -133.19921875 553.06835938 C-139.49944025 542.12845835 -139.49944025 542.12845835 -147.5739134 532.60663193 C-150.07931801 529.78403823 -149.39836994 525.99708446 -149.36076355 522.40107727 C-149.36332682 521.51238313 -149.3658901 520.623689 -149.36853105 519.70806473 C-149.37348811 516.71836155 -149.35694432 513.72915892 -149.34057617 510.73950195 C-149.33973032 508.60115572 -149.34020423 506.46280862 -149.34190369 504.32446289 C-149.34276668 498.50863447 -149.32509169 492.69299056 -149.30418181 486.87720513 C-149.28546565 480.80333398 -149.28366857 474.7294589 -149.28010559 468.65556335 C-149.27077023 457.14897456 -149.24613627 445.64247097 -149.21605712 434.13591975 C-149.18255949 421.03816697 -149.16603877 407.94041019 -149.15097082 394.84262526 C-149.11958802 367.89503621 -149.06679856 340.94752287 -149 314 C-147.23253799 314.15965202 -145.4651022 314.31959428 -143.69767761 314.47966003 C-142.71343402 314.56869693 -141.72919043 314.65773382 -140.71512127 314.7494688 C-122.42205514 316.43741689 -104.31908608 319.27190643 -86.24169922 322.49121094 C-77.4471046 324.01822737 -68.61154732 325.07872468 -59.75 326.125 C-58.2148134 326.30833977 -56.67965691 326.49193191 -55.14453125 326.67578125 C-51.4300293 327.12009011 -47.71513457 327.56100835 -44 328 C-44 328.66 -44 329.32 -44 330 C-42.62714844 329.98259766 -42.62714844 329.98259766 -41.2265625 329.96484375 C-39.44378906 329.95130859 -39.44378906 329.95130859 -37.625 329.9375 C-36.44164062 329.92589844 -35.25828125 329.91429687 -34.0390625 329.90234375 C-31 330 -31 330 -29 331 C-25.33757035 331.53279845 -21.66684317 331.96242018 -17.9921875 332.40234375 C-13.94716333 333.00790999 -9.96798138 334.00800465 -6 335 C-6 360.08 -6 385.16 -6 411 C-1.69421007 413.15289496 0.28052682 413.49678665 5 413 C7.83262072 411.5790541 7.83262072 411.5790541 10 409 C10.44711382 406.11154859 10.58784719 403.82722933 10.48828125 400.953125 C10.48120651 400.18192322 10.47413177 399.41072144 10.46684265 398.6161499 C10.43891578 396.15976788 10.37618739 393.70568949 10.3125 391.25 C10.28741461 389.58206424 10.26460185 387.91409264 10.24414062 386.24609375 C10.18909562 382.16317873 10.10284057 378.08197951 10 374 C8.35 374 6.7 374 5 374 C4.67 384.56 4.34 395.12 4 406 C2.68 405.67 1.36 405.34 0 405 C0 271.35 0 137.7 0 0 Z " fill="#FDFDFD" transform="translate(614,782)"/>
<path d="M0 0 C24.23411804 -0.02254466 48.46822763 -0.04097779 72.70235348 -0.05181217 C83.95383516 -0.05697573 95.20530989 -0.06401956 106.45678711 -0.07543945 C116.2597854 -0.08538447 126.06277865 -0.09185299 135.86578184 -0.09408849 C141.05980367 -0.09539591 146.25381107 -0.09848371 151.44782829 -0.10573006 C156.33063221 -0.11248741 161.21341568 -0.11461755 166.09622383 -0.11310768 C167.89380631 -0.11338414 169.69138944 -0.11539095 171.4889679 -0.11920547 C173.93215962 -0.12413828 176.37527287 -0.12299983 178.81846619 -0.12025452 C179.53926973 -0.12316736 180.26007327 -0.1260802 181.00271934 -0.12908131 C185.88587879 -0.11412121 185.88587879 -0.11412121 187 1 C187.0942174 3.11681317 187.11742761 5.23680758 187.11352539 7.35571289 C187.11367142 8.01910172 187.11381744 8.68249054 187.1139679 9.36598206 C187.11326881 11.56823956 187.10547665 13.77041345 187.09765625 15.97265625 C187.09579206 17.49580336 187.09436816 19.01895107 187.09336853 20.542099 C187.08954346 24.55837651 187.07971328 28.57461808 187.06866455 32.59088135 C187.05845019 36.68623366 187.05387086 40.78159176 187.04882812 44.87695312 C187.038091 52.91798528 187.02101472 60.95898817 187 69 C186.01 69.33 185.02 69.66 184 70 C184.02320313 70.91523437 184.04640625 71.83046875 184.0703125 72.7734375 C184.08835938 73.96195312 184.10640625 75.15046875 184.125 76.375 C184.14820313 77.55835937 184.17140625 78.74171875 184.1953125 79.9609375 C184 83 184 83 182 85 C178.04 85 174.08 85 170 85 C170 97.87 170 110.74 170 124 C168.68 124 167.36 124 166 124 C165.67 112.45 165.34 100.9 165 89 C146.50276951 88.97745382 128.00555009 88.95902132 109.50830936 88.94818783 C100.92032951 88.94302466 92.33235877 88.93598156 83.74438477 88.92456055 C76.26184583 88.91461435 68.77931349 88.90814673 61.29676813 88.90591151 C57.33235414 88.90460429 53.36795905 88.90151774 49.4035511 88.89426994 C45.67639787 88.88751074 41.94927143 88.88538283 38.22211266 88.88689232 C36.85024495 88.88661594 35.4783764 88.88461022 34.10651398 88.88079453 C32.24139037 88.87585892 30.37625256 88.87760206 28.51112366 88.87974548 C27.46488862 88.87882369 26.41865358 88.8779019 25.34071445 88.87695217 C23.04085948 88.73613669 23.04085948 88.73613669 22 90 C21.84011509 92.51880517 21.74065775 95.01342266 21.68359375 97.53515625 C21.66281265 98.28840683 21.64203156 99.04165741 21.62062073 99.81773376 C21.55504575 102.2325599 21.49620379 104.64749798 21.4375 107.0625 C21.3943223 108.69597529 21.35070827 110.3294391 21.30664062 111.96289062 C21.19935638 115.97514464 21.09811179 119.98751164 21 124 C20.01 124 19.02 124 18 124 C18 111.46 18 98.92 18 86 C11.07 85.505 11.07 85.505 4 85 C4 80.05 4 75.1 4 70 C2.68 69.67 1.36 69.34 0 69 C0 46.23 0 23.46 0 0 Z " fill="#FEFEFE" transform="translate(68,29)"/>
<path d="M0 0 C0.66 0 1.32 0 2 0 C2.33 13.86 2.66 27.72 3 42 C4.65 42 6.3 42 8 42 C8.67958603 39.60280568 8.67958603 39.60280568 9 37 C8.34 36.34 7.68 35.68 7 35 C7 23.45 7 11.9 7 0 C109.63 0 212.26 0 318 0 C318 11.88 318 23.76 318 36 C316.515 36.495 316.515 36.495 315 37 C314.26676204 39.01508358 314.26676204 39.01508358 314 41 C316.3260857 41.38063221 318.66055264 41.71269945 321 42 C323.15456969 39.84543031 322.26026626 34.9288373 322.31640625 31.93359375 C322.3475779 30.57065941 322.3475779 30.57065941 322.37937927 29.18019104 C322.44497672 26.26604054 322.5038068 23.35179696 322.5625 20.4375 C322.60567554 18.46678709 322.64928951 16.49608374 322.69335938 14.52539062 C322.80066843 9.68369012 322.90190675 4.84189563 323 0 C323.66 0 324.32 0 325 0 C325.02527124 6.24795675 325.04283344 12.49590041 325.05493164 18.74389648 C325.05997298 20.87118014 325.06680591 22.99846031 325.07543945 25.12573242 C325.08751379 28.17627826 325.09323014 31.22677845 325.09765625 34.27734375 C325.10281754 35.23462875 325.10797882 36.19191376 325.11329651 37.1782074 C325.11340981 38.49946373 325.11340981 38.49946373 325.11352539 39.84741211 C325.115746 40.62684677 325.11796661 41.40628143 325.12025452 42.20933533 C325 44 325 44 324 45 C322.27456433 45.09733247 320.54510273 45.12371482 318.8169241 45.12304783 C317.68631288 45.12503888 316.55570166 45.12702993 315.3908295 45.12908131 C314.1330751 45.12616847 312.87532069 45.12325563 311.57945251 45.12025452 C310.24215393 45.1206901 308.90485543 45.12156477 307.56755739 45.12284368 C303.87569603 45.12509115 300.1838634 45.12106395 296.49200571 45.11606562 C292.51720768 45.11176489 288.54241139 45.11320728 284.56761169 45.1139679 C277.67533417 45.11449337 270.78306609 45.11134411 263.89079094 45.10573006 C253.92560128 45.09761824 243.9604162 45.09500016 233.99522359 45.09374207 C217.82908853 45.09155104 201.6629585 45.0848896 185.49682617 45.07543945 C169.78881862 45.06626663 154.08081243 45.05918516 138.37280273 45.05493164 C137.40527889 45.05466892 136.43775505 45.05440619 135.4409123 45.05413551 C130.58734386 45.05283051 125.7337754 45.0515668 120.88020694 45.05032361 C80.58680093 45.03994943 40.29340119 45.02205539 0 45 C0 30.15 0 15.3 0 0 Z " fill="#FDFDFD" transform="translate(1,1537)"/>
<path d="M0 0 C0.66 0 1.32 0 2 0 C2.33 22.11 2.66 44.22 3 67 C3.33 44.89 3.66 22.78 4 0 C4.33 0 4.66 0 5 0 C5.06951846 10.86584497 5.12282072 21.73163701 5.15543652 32.59765911 C5.17109068 37.64322962 5.19232451 42.68864794 5.22631836 47.73413086 C5.25892053 52.60354419 5.27685489 57.47281116 5.28463173 62.34232521 C5.29017368 64.19987098 5.30099576 66.05740876 5.31719017 67.9148922 C5.33897586 70.51724925 5.34196645 73.11900193 5.34057617 75.72143555 C5.351362 76.4889212 5.36214783 77.25640686 5.3732605 78.04714966 C5.3472453 82.54911338 4.81377391 85.44086473 2 89 C-1.20380017 91.13586678 -2.01939967 91.23132175 -5.6875 91.125 C-6.49574219 91.10695313 -7.30398437 91.08890625 -8.13671875 91.0703125 C-8.75160156 91.04710938 -9.36648437 91.02390625 -10 91 C-9.97905273 92.10512939 -9.95810547 93.21025879 -9.93652344 94.34887695 C-9.8641536 98.44688981 -9.81821164 102.54484614 -9.78027344 106.64331055 C-9.76015097 108.41749569 -9.7328497 110.19161446 -9.69824219 111.96557617 C-9.64975008 114.51497767 -9.62703847 117.06350295 -9.609375 119.61328125 C-9.58872986 120.40712723 -9.56808472 121.20097321 -9.54681396 122.01887512 C-9.54456929 127.52084026 -9.54456929 127.52084026 -11.62468624 129.70933628 C-14.72487211 131.39387055 -16.93365515 131.38027958 -20.4591217 131.38768005 C-21.42887512 131.39575836 -21.42887512 131.39575836 -22.41821951 131.40399987 C-24.58247396 131.41829677 -26.74611827 131.41117195 -28.91040039 131.40405273 C-30.4627583 131.40975532 -32.01511202 131.41671915 -33.56745911 131.42485046 C-37.78222566 131.44280667 -41.99678432 131.44160924 -46.21157765 131.43590808 C-49.72825037 131.43282064 -53.24488289 131.43890352 -56.76154989 131.44494683 C-65.05501576 131.45899771 -73.34837862 131.4574253 -81.6418457 131.44604492 C-90.20458074 131.4345549 -98.7670029 131.44865284 -107.32969671 131.4754414 C-114.67755661 131.49757059 -122.02531808 131.50424232 -129.37320894 131.49836498 C-133.76358721 131.49498851 -138.15376475 131.49745642 -142.54411507 131.51461601 C-146.67037883 131.53003961 -150.79617733 131.52618119 -154.92242241 131.50731087 C-156.43858117 131.5036126 -157.95477407 131.50676937 -159.47090149 131.51719666 C-161.53709743 131.5303248 -163.60173422 131.51893536 -165.66786194 131.50120544 C-166.82504762 131.50099616 -167.9822333 131.50078688 -169.17448521 131.50057125 C-172 131 -172 131 -173.87447262 129.19786167 C-175.57677849 125.87370191 -175.36871214 122.59718266 -175.29296875 118.953125 C-175.28872391 118.18192322 -175.28447906 117.41072144 -175.28010559 116.6161499 C-175.26335383 114.16040685 -175.22570939 111.70549371 -175.1875 109.25 C-175.17244857 107.58204313 -175.15876097 105.91407335 -175.14648438 104.24609375 C-175.11346194 100.16374422 -175.06170484 96.08201268 -175 92 C-176.98644002 92.05671183 -178.97288005 92.11342367 -180.95932007 92.1701355 C-183 92 -183 92 -185.9765625 90.2578125 C-189.09567316 85.23592391 -188.56026576 80.66926514 -188.375 74.875 C-188.35501953 73.61993652 -188.33503906 72.36487305 -188.31445312 71.07177734 C-188.26735812 68.14044217 -188.20274213 65.2100536 -188.12792969 62.27929688 C-187.97187905 56.07740743 -187.86668975 49.87474123 -187.7578125 43.671875 C-187.53292838 31.11396429 -187.27487363 18.55690808 -187 6 C-186.67 6 -186.34 6 -186 6 C-185.67 26.79 -185.34 47.58 -185 69 C-184.01 69.33 -183.02 69.66 -182 70 C-182 74.95 -182 79.9 -182 85 C-179.52604167 84.96744792 -177.05208333 84.93489583 -174.578125 84.90234375 C-172 85 -172 85 -168 86 C-168 98.54 -168 111.08 -168 124 C-167.01 124 -166.02 124 -165 124 C-165.01047363 122.9805127 -165.02094727 121.96102539 -165.03173828 120.91064453 C-165.06788727 117.13496398 -165.09088177 113.35929879 -165.10986328 109.58349609 C-165.11993254 107.94805328 -165.13358881 106.31262851 -165.15087891 104.67724609 C-165.17508705 102.3290563 -165.18647357 99.98110412 -165.1953125 97.6328125 C-165.20563507 96.89942657 -165.21595764 96.16604065 -165.22659302 95.41043091 C-165.22699368 93.60537303 -165.12212755 91.8009217 -165 90 C-163 88 -163 88 -160.53903103 87.75111103 C-159.4950166 87.7516558 -158.45100218 87.75220057 -157.37535095 87.75276184 C-156.17923691 87.74856735 -154.98312286 87.74437286 -153.75076294 87.74005127 C-152.43171967 87.74567078 -151.11267639 87.75129028 -149.75366211 87.75708008 C-148.35599173 87.75600761 -146.95832179 87.75406945 -145.56065369 87.75132751 C-141.75912961 87.74647086 -137.9577225 87.75414468 -134.15621257 87.76428056 C-130.18483657 87.77304627 -126.21346439 87.77130391 -122.24208069 87.7709198 C-115.57306961 87.77185702 -108.90410397 87.78054934 -102.23510742 87.79418945 C-94.5143119 87.80992202 -86.79356615 87.81518737 -79.07275575 87.8144539 C-71.65744517 87.81384448 -64.24215087 87.81894161 -56.82684517 87.82724571 C-53.66536901 87.83078485 -50.50389862 87.83260986 -47.34242058 87.83313942 C-43.62343702 87.83414075 -39.90449557 87.84022006 -36.18552589 87.85030556 C-34.81688571 87.8532371 -33.44824068 87.85445461 -32.07959747 87.85387802 C-30.21894892 87.85339061 -28.35830214 87.85963708 -26.49766541 87.86628723 C-24.93220931 87.868801 -24.93220931 87.868801 -23.33512783 87.87136555 C-21 88 -21 88 -20 89 C-19.91148471 91.59359322 -19.88474055 94.16039691 -19.90234375 96.75390625 C-19.90446617 97.91707619 -19.90446617 97.91707619 -19.90663147 99.10374451 C-19.91224655 101.59003494 -19.92480154 104.0762366 -19.9375 106.5625 C-19.94251306 108.24413933 -19.9470763 109.92578006 -19.95117188 111.60742188 C-19.96222087 115.73831566 -19.97949555 119.86914276 -20 124 C-18.68 124 -17.36 124 -16 124 C-16 111.13 -16 98.26 -16 85 C-10.06 84.505 -10.06 84.505 -4 84 C-3.27562166 80.37810828 -2.88414407 77.76234736 -2.9375 74.1875 C-2.94652344 73.39730469 -2.95554688 72.60710937 -2.96484375 71.79296875 C-2.98224609 70.90544922 -2.98224609 70.90544922 -3 70 C-1.68 69.67 -0.36 69.34 1 69 C0.67 46.23 0.34 23.46 0 0 Z " fill="#1D1D1D" transform="translate(254,29)"/>
<path d="M0 0 C5.28 0 10.56 0 16 0 C16 61.38 16 122.76 16 186 C13.69 186.99 11.38 187.98 9 189 C6.71620967 192.42568549 6.74955347 193.66614187 6.74462891 197.69311523 C6.73766998 198.86120224 6.73071106 200.02928925 6.72354126 201.23277283 C6.72503677 203.12655418 6.72503677 203.12655418 6.7265625 205.05859375 C6.71146897 207.03833148 6.69635259 209.01806935 6.67987633 210.99779606 C6.64206148 215.88364963 6.62494783 220.76952953 6.61914062 225.65551758 C6.61509699 228.39683383 6.60054455 231.13772368 6.57479858 233.87892151 C6.55130882 236.46194341 6.54401223 239.04517263 6.55435181 241.62828064 C6.54108856 242.79951981 6.52782532 243.97075897 6.51416016 245.17749023 C6.51131012 246.20768784 6.50846008 247.23788544 6.50552368 248.29930115 C5.86635584 251.71397769 4.69692705 252.87461437 2 255 C-1.27103749 256.09034583 -3.65020612 256.12311186 -7.0933075 256.12025452 C-9.00529938 256.12231651 -9.00529938 256.12231651 -10.95591736 256.12442017 C-12.37124657 256.12088101 -13.78657555 256.1172462 -15.2019043 256.11352539 C-16.69001259 256.11324336 -18.17812103 256.11340156 -19.66622925 256.1139679 C-23.70932323 256.11425527 -27.75238766 256.10836824 -31.79547477 256.10139394 C-36.01955755 256.0951504 -40.24364098 256.09455581 -44.46772766 256.09336853 C-52.46810131 256.09025817 -60.46846133 256.08204875 -68.46882898 256.07201904 C-79.27869426 256.05876083 -90.08856327 256.05335561 -100.89843464 256.04751682 C-117.93229998 256.03810868 -134.96613654 256.01818778 -152 256 C-152 299.89 -152 343.78 -152 389 C-153.65 389 -155.3 389 -157 389 C-157.0700584 371.59767402 -157.12297259 354.19539201 -157.15543652 336.79295731 C-157.17091024 328.71283506 -157.19200935 320.6328004 -157.22631836 312.55273438 C-157.25620532 305.51074565 -157.27557133 298.46882035 -157.28226548 291.42676997 C-157.28617896 287.69749142 -157.29538648 283.96839433 -157.31719017 280.23917389 C-157.34132434 276.07766138 -157.34197045 271.91646505 -157.34057617 267.75488281 C-157.351362 266.51626495 -157.36214783 265.27764709 -157.3732605 264.00149536 C-157.36913651 262.86850006 -157.36501251 261.73550476 -157.36076355 260.56817627 C-157.36352893 259.58370136 -157.36629431 258.59922646 -157.36914349 257.58491898 C-156.92180988 254.45247547 -156.35569943 253.12415871 -154 251 C-151.22578144 250.50780869 -151.22578144 250.50780869 -147.7928009 250.51898193 C-145.8470037 250.51071695 -145.8470037 250.51071695 -143.86189747 250.502285 C-142.41549653 250.51647242 -140.96909912 250.53102401 -139.52270508 250.54589844 C-137.98044468 250.54712354 -136.43818204 250.54659021 -134.89592266 250.54443741 C-130.76045977 250.54353322 -126.62545851 250.56673959 -122.49010468 250.59487915 C-118.61167421 250.61763546 -114.73335683 250.6187303 -110.8548584 250.62158203 C-99.50734429 250.64258307 -88.15991634 250.69842758 -76.8125 250.75 C-51.464375 250.8325 -26.11625 250.915 0 251 C0 168.17 0 85.34 0 0 Z " fill="#FDFDFD" transform="translate(442,1130)"/>
<path d="M0 0 C42.9 0 85.8 0 130 0 C130 9.24 130 18.48 130 28 C87.1 28 44.2 28 0 28 C0 18.76 0 9.52 0 0 Z " fill="#FDFDFD" transform="translate(96,125)"/>
<path d="M0 0 C5.28 0 10.56 0 16 0 C16 61.38 16 122.76 16 186 C15.67 186 15.34 186 15 186 C15 124.95 15 63.9 15 1 C10.38 1 5.76 1 1 1 C1.07105453 2.79662582 1.14210907 4.59325165 1.21531677 6.44432068 C2.12055447 31.28380728 2.13243935 56.10933326 2.10139394 80.96268392 C2.09504131 86.928282 2.09454737 92.89388087 2.09336853 98.85948181 C2.09028968 110.09941562 2.08212394 121.33933942 2.07201904 132.57926887 C2.06074936 145.39961958 2.05532041 158.21997083 2.05032361 171.04032528 C2.03993747 197.36022235 2.02240652 223.68011061 2 250 C2.66 250 3.32 250 4 250 C4.495 220.795 4.495 220.795 5 191 C5.66 190.67 6.32 190.34 7 190 C6.96194443 197.88465172 6.90258627 205.7687335 6.81609726 213.65298843 C6.77660357 217.31408723 6.74442479 220.97494485 6.72900391 224.63623047 C6.71384913 228.17026922 6.67942639 231.70364501 6.63169098 235.23738861 C6.60965376 237.24028962 6.60752524 239.24337756 6.60565186 241.24639893 C6.58593323 242.46736267 6.5662146 243.68832642 6.54589844 244.94628906 C6.53701599 246.02106506 6.52813354 247.09584106 6.51898193 248.20318604 C5.87352358 251.68158638 4.75519903 252.84517993 2 255 C-1.27103749 256.09034583 -3.65020612 256.12311186 -7.0933075 256.12025452 C-9.00529938 256.12231651 -9.00529938 256.12231651 -10.95591736 256.12442017 C-12.37124657 256.12088101 -13.78657555 256.1172462 -15.2019043 256.11352539 C-16.69001259 256.11324336 -18.17812103 256.11340156 -19.66622925 256.1139679 C-23.70932323 256.11425527 -27.75238766 256.10836824 -31.79547477 256.10139394 C-36.01955755 256.0951504 -40.24364098 256.09455581 -44.46772766 256.09336853 C-52.46810131 256.09025817 -60.46846133 256.08204875 -68.46882898 256.07201904 C-79.27869426 256.05876083 -90.08856327 256.05335561 -100.89843464 256.04751682 C-117.93229998 256.03810868 -134.96613654 256.01818778 -152 256 C-152 299.89 -152 343.78 -152 389 C-153.65 389 -155.3 389 -157 389 C-157.0700584 371.59767402 -157.12297259 354.19539201 -157.15543652 336.79295731 C-157.17091024 328.71283506 -157.19200935 320.6328004 -157.22631836 312.55273438 C-157.25620532 305.51074565 -157.27557133 298.46882035 -157.28226548 291.42676997 C-157.28617896 287.69749142 -157.29538648 283.96839433 -157.31719017 280.23917389 C-157.34132434 276.07766138 -157.34197045 271.91646505 -157.34057617 267.75488281 C-157.351362 266.51626495 -157.36214783 265.27764709 -157.3732605 264.00149536 C-157.36913651 262.86850006 -157.36501251 261.73550476 -157.36076355 260.56817627 C-157.36352893 259.58370136 -157.36629431 258.59922646 -157.36914349 257.58491898 C-156.92180988 254.45247547 -156.35569943 253.12415871 -154 251 C-151.22578144 250.50780869 -151.22578144 250.50780869 -147.7928009 250.51898193 C-145.8470037 250.51071695 -145.8470037 250.51071695 -143.86189747 250.502285 C-142.41549653 250.51647242 -140.96909912 250.53102401 -139.52270508 250.54589844 C-137.98044468 250.54712354 -136.43818204 250.54659021 -134.89592266 250.54443741 C-130.76045977 250.54353322 -126.62545851 250.56673959 -122.49010468 250.59487915 C-118.61167421 250.61763546 -114.73335683 250.6187303 -110.8548584 250.62158203 C-99.50734429 250.64258307 -88.15991634 250.69842758 -76.8125 250.75 C-51.464375 250.8325 -26.11625 250.915 0 251 C0 168.17 0 85.34 0 0 Z " fill="#D0D0D0" transform="translate(442,1130)"/>
<path d="M0 0 C1.65 0 3.3 0 5 0 C5.33 73.26 5.66 146.52 6 222 C77.28 222.495 77.28 222.495 150 223 C150 224.65 150 226.3 150 228 C131.31109654 228.0467163 112.62220493 228.08198703 93.9332552 228.10362434 C85.2556952 228.11393785 76.57817148 228.12799963 67.90063477 228.15087891 C60.3374856 228.17081047 52.77436271 228.18371589 45.21118802 228.18817699 C41.20637999 228.19078476 37.20164712 228.19691574 33.19686317 228.21146011 C29.42699622 228.22504033 25.65723536 228.22922175 21.88734627 228.22621536 C20.50425388 228.22676533 19.12115793 228.2307402 17.7380867 228.23841095 C15.84810711 228.24837845 13.95807052 228.24477344 12.06806946 228.24050903 C11.01077291 228.24235262 9.95347635 228.24419621 8.86414051 228.24609566 C5.82814474 227.98523367 3.6833812 227.44105592 1 226 C-0.31610656 222.05168033 -0.13421069 218.28870974 -0.12025452 214.17329407 C-0.12110894 213.26009862 -0.12196337 212.34690317 -0.12284368 211.40603513 C-0.12449616 208.33357728 -0.11898087 205.26117355 -0.11352539 202.1887207 C-0.11324344 199.99126181 -0.1134014 197.79380283 -0.1139679 195.59634399 C-0.11425557 189.61943132 -0.10836359 183.6425386 -0.10139394 177.66563058 C-0.0951555 171.42358771 -0.09455621 165.18154441 -0.09336853 158.9394989 C-0.09061054 148.45893023 -0.08435834 137.97836774 -0.07543945 127.49780273 C-0.06626204 116.70223019 -0.05918281 105.90665964 -0.05493164 95.11108398 C-0.05466892 94.44577214 -0.05440619 93.7804603 -0.05413551 93.09498749 C-0.05283048 89.75735151 -0.05156903 86.41971553 -0.05032361 83.08207953 C-0.03986249 55.38804791 -0.02226584 27.69402447 0 0 Z " fill="#D7D7D7" transform="translate(285,907)"/>
<path d="M0 0 C83.82 0 167.64 0 254 0 C254.33 1.65 254.66 3.3 255 5 C170.52 5 86.04 5 -1 5 C-0.67 3.35 -0.34 1.7 0 0 Z " fill="#E1E1E1" transform="translate(35,896)"/>
<path d="M0 0 C107.25 0 214.5 0 325 0 C325 0.99 325 1.98 325 3 C217.75 3 110.5 3 0 3 C0 2.01 0 1.02 0 0 Z " fill="#DEDEDE" transform="translate(2,1527)"/>
<path d="M0 0 C5.28 0 10.56 0 16 0 C16 61.38 16 122.76 16 186 C15.67 186 15.34 186 15 186 C15 124.95 15 63.9 15 1 C10.38 1 5.76 1 1 1 C1.07105453 2.79662582 1.14210907 4.59325165 1.21531677 6.44432068 C2.12055447 31.28380728 2.13243935 56.10933326 2.10139394 80.96268392 C2.09504131 86.928282 2.09454737 92.89388087 2.09336853 98.85948181 C2.09028968 110.09941562 2.08212394 121.33933942 2.07201904 132.57926887 C2.06074936 145.39961958 2.05532041 158.21997083 2.05032361 171.04032528 C2.03993747 197.36022235 2.02240652 223.68011061 2 250 C2.66 250 3.32 250 4 250 C4.495 220.795 4.495 220.795 5 191 C5.66 190.67 6.32 190.34 7 190 C6.96194443 197.88465172 6.90258627 205.7687335 6.81609726 213.65298843 C6.77660357 217.31408723 6.74442479 220.97494485 6.72900391 224.63623047 C6.71384913 228.17026922 6.67942639 231.70364501 6.63169098 235.23738861 C6.60965376 237.24028962 6.60752524 239.24337756 6.60565186 241.24639893 C6.58593323 242.46736267 6.5662146 243.68832642 6.54589844 244.94628906 C6.53701599 246.02106506 6.52813354 247.09584106 6.51898193 248.20318604 C5.88391729 251.62557427 4.64272247 252.82003498 2 255 C1.01 254.67 0.02 254.34 -1 254 C-0.67 253.67 -0.34 253.34 0 253 C-50.82 252.67 -101.64 252.34 -154 252 C-154 251.67 -154 251.34 -154 251 C-103.18 251 -52.36 251 0 251 C0 168.17 0 85.34 0 0 Z " fill="#AEAEAE" transform="translate(442,1130)"/>
<path d="M0 0 C0.99 0.33 1.98 0.66 3 1 C3 124.42 3 247.84 3 375 C3.33 375 3.66 375 4 375 C4 385.23 4 395.46 4 406 C2.68 405.67 1.36 405.34 0 405 C0 271.35 0 137.7 0 0 Z " fill="#B8B8B8" transform="translate(614,782)"/>
<path d="M0 0 C66.33 0 132.66 0 201 0 C201 1.32 201 2.64 201 4 C134.34 4 67.68 4 -1 4 C-0.67 2.68 -0.34 1.36 0 0 Z " fill="#CECECE" transform="translate(62,19)"/>
<path d="M0 0 C0.99 0.495 0.99 0.495 2 1 C2 75.91 2 150.82 2 228 C50.84 228 99.68 228 150 228 C150 215.13 150 202.26 150 189 C150.33 189 150.66 189 151 189 C151 202.53 151 216.06 151 230 C101.17 230 51.34 230 0 230 C0 154.1 0 78.2 0 0 Z " fill="#AEAEAE" transform="translate(297,894)"/>
<path d="M0 0 C0.99 0.33 1.98 0.66 3 1 C3 57.76 3 114.52 3 173 C1.68 173.33 0.36 173.66 -1 174 C-1.02332662 151.46087424 -1.04097801 128.92175046 -1.05181217 106.38261509 C-1.05697564 95.91807719 -1.06401929 85.45354677 -1.07543945 74.98901367 C-1.08538476 65.87160565 -1.09185306 56.75420304 -1.09408849 47.63678974 C-1.09539586 42.80606124 -1.09848336 37.97534825 -1.10573006 33.14462471 C-1.11248785 28.60326313 -1.11461746 24.06192353 -1.11310768 19.5205574 C-1.11338412 17.84875431 -1.11539066 16.17695052 -1.11920547 14.50515175 C-1.12413898 12.23274147 -1.12299958 9.96041554 -1.12025452 7.68800354 C-1.12117631 6.41316384 -1.1220981 5.13832415 -1.12304783 3.82485294 C-1 1 -1 1 0 0 Z " fill="#262626" transform="translate(65,163)"/>
<path d="M0 0 C24.23411804 -0.02254466 48.46822763 -0.04097779 72.70235348 -0.05181217 C83.95383516 -0.05697573 95.20530989 -0.06401956 106.45678711 -0.07543945 C116.2597854 -0.08538447 126.06277865 -0.09185299 135.86578184 -0.09408849 C141.05980367 -0.09539591 146.25381107 -0.09848371 151.44782829 -0.10573006 C156.33063221 -0.11248741 161.21341568 -0.11461755 166.09622383 -0.11310768 C167.89380631 -0.11338414 169.69138944 -0.11539095 171.4889679 -0.11920547 C173.93215962 -0.12413828 176.37527287 -0.12299983 178.81846619 -0.12025452 C179.53926973 -0.12316736 180.26007327 -0.1260802 181.00271934 -0.12908131 C185.88587879 -0.11412121 185.88587879 -0.11412121 187 1 C187.0942174 3.11681317 187.11742761 5.23680758 187.11352539 7.35571289 C187.11367142 8.01910172 187.11381744 8.68249054 187.1139679 9.36598206 C187.11326881 11.56823956 187.10547665 13.77041345 187.09765625 15.97265625 C187.09579206 17.49580336 187.09436816 19.01895107 187.09336853 20.542099 C187.08954346 24.55837651 187.07971328 28.57461808 187.06866455 32.59088135 C187.05845019 36.68623366 187.05387086 40.78159176 187.04882812 44.87695312 C187.038091 52.91798528 187.02101472 60.95898817 187 69 C186.67 69 186.34 69 186 69 C186 46.89 186 24.78 186 2 C125.28 2 64.56 2 2 2 C2 24.11 2 46.22 2 69 C2.99 69 3.98 69 5 69 C5 73.95 5 78.9 5 84 C8.96 84 12.92 84 17 84 C17 84.66 17 85.32 17 86 C12.71 85.67 8.42 85.34 4 85 C4 80.05 4 75.1 4 70 C2.68 69.67 1.36 69.34 0 69 C0 46.23 0 23.46 0 0 Z " fill="#AEAEAE" transform="translate(68,29)"/>
<path d="M0 0 C0.66 0 1.32 0 2 0 C2.33 13.86 2.66 27.72 3 42 C6.78723869 42.75744774 9.63794896 43.12458672 13.40977192 43.12304783 C14.4891296 43.12503888 15.56848729 43.12702993 16.68055278 43.12908131 C17.8605097 43.12616847 19.04046662 43.12325563 20.25617981 43.12025452 C22.14306386 43.12153615 22.14306386 43.12153615 24.06806678 43.12284368 C27.55706471 43.12507945 31.04603193 43.1210799 34.53502595 43.11606562 C38.29843607 43.11174815 42.06184445 43.11320847 45.82525635 43.1139679 C52.34477461 43.11449231 58.86428286 43.11135414 65.3837986 43.10573006 C74.80992977 43.09760386 84.2360561 43.09499869 93.6621904 43.09374207 C108.95537903 43.09155331 124.24856232 43.084898 139.54174805 43.07543945 C154.39786757 43.06626078 169.25398564 43.05918217 184.11010742 43.05493164 C185.02580145 43.05466892 185.94149547 43.05440619 186.8849378 43.05413551 C191.47869449 43.05283047 196.0724512 43.05156677 200.66620791 43.05032361 C238.77747567 43.03995649 276.88873749 43.02234295 315 43 C315.33 42.34 315.66 41.68 316 41 C317.2065625 41.2784375 317.2065625 41.2784375 318.4375 41.5625 C319.7059375 41.7790625 319.7059375 41.7790625 321 42 C323.15456969 39.84543031 322.26026626 34.9288373 322.31640625 31.93359375 C322.3475779 30.57065941 322.3475779 30.57065941 322.37937927 29.18019104 C322.44497672 26.26604054 322.5038068 23.35179696 322.5625 20.4375 C322.60567554 18.46678709 322.64928951 16.49608374 322.69335938 14.52539062 C322.80066843 9.68369012 322.90190675 4.84189563 323 0 C323.66 0 324.32 0 325 0 C325.02527124 6.24795675 325.04283344 12.49590041 325.05493164 18.74389648 C325.05997298 20.87118014 325.06680591 22.99846031 325.07543945 25.12573242 C325.08751379 28.17627826 325.09323014 31.22677845 325.09765625 34.27734375 C325.10281754 35.23462875 325.10797882 36.19191376 325.11329651 37.1782074 C325.11340981 38.49946373 325.11340981 38.49946373 325.11352539 39.84741211 C325.115746 40.62684677 325.11796661 41.40628143 325.12025452 42.20933533 C325 44 325 44 324 45 C322.27456433 45.09733247 320.54510273 45.12371482 318.8169241 45.12304783 C317.68631288 45.12503888 316.55570166 45.12702993 315.3908295 45.12908131 C314.1330751 45.12616847 312.87532069 45.12325563 311.57945251 45.12025452 C310.24215393 45.1206901 308.90485543 45.12156477 307.56755739 45.12284368 C303.87569603 45.12509115 300.1838634 45.12106395 296.49200571 45.11606562 C292.51720768 45.11176489 288.54241139 45.11320728 284.56761169 45.1139679 C277.67533417 45.11449337 270.78306609 45.11134411 263.89079094 45.10573006 C253.92560128 45.09761824 243.9604162 45.09500016 233.99522359 45.09374207 C217.82908853 45.09155104 201.6629585 45.0848896 185.49682617 45.07543945 C169.78881862 45.06626663 154.08081243 45.05918516 138.37280273 45.05493164 C137.40527889 45.05466892 136.43775505 45.05440619 135.4409123 45.05413551 C130.58734386 45.05283051 125.7337754 45.0515668 120.88020694 45.05032361 C80.58680093 45.03994943 40.29340119 45.02205539 0 45 C0 30.15 0 15.3 0 0 Z " fill="#C8C8C8" transform="translate(1,1537)"/>
<path d="M0 0 C9.70724962 0.76439245 19.34602204 2.00195677 29 3.25 C29.84350006 3.35849274 30.68700012 3.46698547 31.55606079 3.57876587 C44.11211763 5.19601372 56.65501251 6.89685207 69.1875 8.6875 C69.90526611 8.78977905 70.62303223 8.89205811 71.36254883 8.99743652 C78.11916396 9.96294568 84.86590528 10.96147672 91.59375 12.11328125 C96.43624486 12.93582299 101.21079607 13.38275013 106.11328125 13.65625 C109 14 109 14 112.18359375 14.93359375 C116.99938668 16.27925544 121.7996099 16.91366246 126.75 17.5625 C128.62013215 17.81125564 130.4899419 18.06245054 132.359375 18.31640625 C133.17889648 18.42412354 133.99841797 18.53184082 134.84277344 18.64282227 C137 19 137 19 140 20 C140 20.66 140 21.32 140 22 C132.6991282 22.20997659 125.83283154 21.40462291 118.625 20.28515625 C117.46049316 20.10995956 116.29598633 19.93476288 115.09619141 19.7542572 C111.39649025 19.19654064 107.69822451 18.62991799 104 18.0625 C100.30153906 17.5003513 96.60280224 16.94008691 92.90380859 16.38145447 C90.60949598 16.03439683 88.31552879 15.68504528 86.02197266 15.33302307 C81.30354033 14.61456944 76.59994801 13.93429166 71.8515625 13.44702148 C68 13 68 13 66 12 C63.19152673 11.60912711 60.39143751 11.26365593 57.57421875 10.94921875 C55.81856128 10.74548083 54.06294765 10.54136484 52.30737305 10.33691406 C51.38806 10.23092896 50.46874695 10.12494385 49.52157593 10.01574707 C32.86947921 8.0870754 16.28177871 6.12129031 0 2 C0 1.34 0 0.68 0 0 Z " fill="#BBBBBB" transform="translate(457,1085)"/>
<path d="M0 0 C1.90051047 3.2195845 2.24785625 5.5847372 2.24050903 9.3024292 C2.24325836 10.37652542 2.24600769 11.45062164 2.24884033 12.55726624 C2.24164978 13.73042892 2.23445923 14.90359161 2.22705078 16.11230469 C2.22734283 17.35159225 2.22763489 18.59087982 2.22793579 19.86772156 C2.22678149 23.26210007 2.21675359 26.65623507 2.20278788 30.05057049 C2.19028225 33.59931915 2.18911015 37.14807108 2.18673706 40.69683838 C2.18052179 47.41514543 2.16411036 54.13338736 2.14403808 60.85166574 C2.12168053 68.50093873 2.11068601 76.15021485 2.10064721 83.79951239 C2.07974416 99.53304597 2.04456729 115.26651458 2 131 C1.01 131 0.02 131 -1 131 C-1.0233636 114.65799605 -1.0409962 98.31599752 -1.05181217 81.9739809 C-1.05696776 74.38604995 -1.06399645 66.79812937 -1.07543945 59.21020508 C-1.08540877 52.59633492 -1.09185879 45.98247229 -1.09408849 39.36859483 C-1.09539177 35.8668326 -1.09845348 32.36509189 -1.10573006 28.86333656 C-1.11378854 24.95356469 -1.11398968 21.04381382 -1.11352539 17.1340332 C-1.11712067 15.97381653 -1.12071594 14.81359985 -1.12442017 13.6182251 C-1.1230455 12.55116837 -1.12167084 11.48411163 -1.12025452 10.38471985 C-1.12117631 9.46016149 -1.1220981 8.53560312 -1.12304783 7.58302784 C-0.99829796 4.96427059 -0.58118008 2.5530915 0 0 Z " fill="#F7F7F7" transform="translate(287,1387)"/>
<path d="M0 0 C0 0.99 0 1.98 0 3 C-3.06126063 3.61101149 -6.12384333 4.21370428 -9.1875 4.8125 C-10.01314453 4.97814453 -10.83878906 5.14378906 -11.68945312 5.31445312 C-20.66216915 7.05640898 -29.70335765 8.27274151 -38.75198364 9.54098511 C-44.28336378 10.32268864 -49.81135819 11.12768499 -55.33953667 11.93167305 C-57.37069519 12.22707264 -59.40190113 12.52214409 -61.43312073 12.81712341 C-64.88037214 13.31778626 -68.32758234 13.81873222 -71.77478027 14.31976318 C-77.35590587 15.13089975 -82.93709428 15.94160397 -88.51828384 16.75230026 C-90.44310024 17.03193126 -92.36789742 17.31169449 -94.29269409 17.59146118 C-96.5688173 17.92217159 -98.84500092 18.25246668 -101.1212616 18.58222961 C-102.84947851 18.83303318 -104.57750203 19.08518278 -106.30513 19.3400116 C-110.61353769 19.97118581 -114.65179638 20.07628427 -119 20 C-119 19.34 -119 18.68 -119 18 C-117.8140625 17.81824219 -116.628125 17.63648438 -115.40625 17.44921875 C-107.64123343 16.24726882 -99.89850084 15.013374 -92.1875 13.5 C-86.27189276 12.35191002 -80.34965998 11.46775393 -74.375 10.6875 C-63.84440603 9.31132654 -53.36203148 7.67027454 -42.875 6 C-41.20898875 5.73507989 -39.54297316 5.4701871 -37.87695312 5.20532227 C-35.45680775 4.82045351 -33.03667212 4.43552428 -30.61657715 4.05033875 C-24.37213565 3.05711844 -18.12611587 2.07544803 -11.875 1.125 C-11.10140137 1.00511719 -10.32780273 0.88523437 -9.53076172 0.76171875 C-6.29130793 0.27388095 -3.28876896 0 0 0 Z " fill="#B1B1B1" transform="translate(641,1400)"/>
<path d="M0 0 C-0.66 1.32 -1.32 2.64 -2 4 C-2.66 4 -3.32 4 -4 4 C-4 110.59 -4 217.18 -4 327 C-4.33 327 -4.66 327 -5 327 C-5.06861347 285.7753932 -5.12150199 244.55079297 -5.15319599 203.32614041 C-5.15694827 198.4631137 -5.16083122 193.6000871 -5.16479492 188.73706055 C-5.16558185 187.76888829 -5.16636878 186.80071604 -5.16717956 185.80320523 C-5.18024612 170.11095476 -5.20390681 154.41873715 -5.23145839 138.7265062 C-5.25947787 122.63398717 -5.27616892 106.54148538 -5.28226548 90.44894296 C-5.28638912 80.51286369 -5.29942975 70.57687726 -5.3237494 60.64082656 C-5.33956395 53.83437124 -5.34441011 47.02796416 -5.34050413 40.22149178 C-5.33857588 36.29001406 -5.34160496 32.35869897 -5.35761642 28.42724991 C-5.37215381 24.83163435 -5.37299291 21.23629169 -5.36269668 17.6406639 C-5.3608174 15.71620383 -5.37381142 13.79174723 -5.38724393 11.86733311 C-5.38127078 10.7327398 -5.37529764 9.59814649 -5.36914349 8.42917156 C-5.37085223 6.95452766 -5.37085223 6.95452766 -5.37259549 5.45009297 C-5 3 -5 3 -3.60192853 1.16067678 C-2 0 -2 0 0 0 Z " fill="#191919" transform="translate(613,768)"/>
<path d="M0 0 C1.98 0.99 1.98 0.99 4 2 C4 2.99 4 3.98 4 5 C4.66 5 5.32 5 6 5 C10 9.91428571 10 9.91428571 10 13.6875 C8.80163547 16.45871797 7.41480877 17.2643562 5 19 C4.20376178 21.09415804 4.20376178 21.09415804 4 23 C5.36125 22.5359375 5.36125 22.5359375 6.75 22.0625 C9.16563338 21.2727737 11.52780285 20.57050703 14 20 C18.00390625 24.39453125 18.00390625 24.39453125 19 26 C18.67 26.99 18.34 27.98 18 29 C16.07668936 29.72953162 14.1492764 30.45078153 12.19921875 31.10546875 C9.89141062 32.04416868 8.16915196 33.1875289 6.1875 34.6875 C3 37 3 37 0 37 C0 24.79 0 12.58 0 0 Z " fill="#E7E7E7" transform="translate(455,1329)"/>
<path d="M0 0 C3.99129472 1.33043157 4.80985811 3.73720238 6.6875 7.25 C7.40054091 8.54006061 8.11542744 9.82910261 8.83203125 11.1171875 C9.19377441 11.77041992 9.55551758 12.42365234 9.92822266 13.09667969 C13.48916324 19.42039102 17.44306604 25.52506467 21.3046875 31.66796875 C27.45629871 41.45977069 33.45651348 51.3343082 39.37207031 61.27050781 C41.11439709 64.19180556 42.86579801 67.10756528 44.6171875 70.0234375 C45.80764168 72.01541587 46.99775371 74.00759875 48.1875 76 C48.75251221 76.9379541 49.31752441 77.8759082 49.8996582 78.84228516 C50.68215942 80.157854 50.68215942 80.157854 51.48046875 81.5 C51.94348389 82.2734375 52.40649902 83.046875 52.88354492 83.84375 C53.9524755 85.90821422 54.54736744 87.72877174 55 90 C51.46709507 88.82236502 51.21126074 88.16442366 49.3984375 85.0546875 C48.67043945 83.82190063 48.67043945 83.82190063 47.92773438 82.56420898 C47.41533203 81.67677002 46.90292969 80.78933105 46.375 79.875 C45.83939453 78.96500244 45.30378906 78.05500488 44.75195312 77.11743164 C43.66553824 75.27153227 42.58250514 73.4236382 41.50292969 71.57373047 C39.52262267 68.18250296 37.51805085 64.80637312 35.5 61.4375 C34.97067871 60.55227661 34.97067871 60.55227661 34.43066406 59.64916992 C31.40385042 54.61415589 28.271395 49.6484296 25.125 44.6875 C17.66636723 32.9274533 10.32175537 21.09716946 3.3125 9.0625 C2.66925781 7.96035156 2.02601563 6.85820313 1.36328125 5.72265625 C0 3 0 3 0 0 Z " fill="#C9C9C9" transform="translate(464,1322)"/>
<path d="M0 0 C1.32452283 2.64904565 1.10797792 4.61356131 1.08520508 7.57958984 C1.07801956 8.74775238 1.07083405 9.91591492 1.06343079 11.11947632 C1.04894394 12.38715851 1.03445709 13.6548407 1.01953125 14.9609375 C0.9983448 16.90681259 0.9983448 16.90681259 0.97673035 18.89199829 C0.94475421 21.64096204 0.90752329 24.38980829 0.86791992 27.13867188 C0.81857425 30.65815576 0.79238425 34.17741335 0.77148914 37.69716454 C0.74620308 41.05618854 0.69341442 44.41467525 0.64453125 47.7734375 C0.64016556 49.03707123 0.63579987 50.30070496 0.63130188 51.60263062 C0.60835556 52.77709747 0.58540924 53.95156433 0.56176758 55.16162109 C0.54986893 56.1948349 0.53797028 57.22804871 0.52571106 58.29257202 C-0.12514317 61.64449115 -1.41691757 62.85046364 -4 65 C-4.99 64.67 -5.98 64.34 -7 64 C-6.505 63.505 -6.505 63.505 -6 63 C-7.32 62.34 -8.64 61.68 -10 61 C-8.02 60.505 -8.02 60.505 -6 60 C-5.67 41.19 -5.34 22.38 -5 3 C-4.67 3 -4.34 3 -4 3 C-4 21.81 -4 40.62 -4 60 C-3.34 60 -2.68 60 -2 60 C-1.98969254 59.26306412 -1.97938507 58.52612823 -1.96876526 57.76686096 C-1.87095357 50.83578924 -1.76846284 43.90480098 -1.66066074 36.97387791 C-1.60539973 33.41027032 -1.55197482 29.84665457 -1.50268555 26.28295898 C-1.44599468 22.18984755 -1.38142682 18.0968939 -1.31640625 14.00390625 C-1.29133751 12.07581871 -1.29133751 12.07581871 -1.26576233 10.10877991 C-1.24581711 8.92763107 -1.22587189 7.74648224 -1.20532227 6.52954102 C-1.18977798 5.48363297 -1.1742337 4.43772491 -1.15821838 3.36012268 C-1 1 -1 1 0 0 Z " fill="#C2C2C2" transform="translate(448,1320)"/>
<path d="M0 0 C0.33 0 0.66 0 1 0 C1.33 11.55 1.66 23.1 2 35 C2.66 23.45 3.32 11.9 4 0 C4.33 0 4.66 0 5 0 C5.04934656 5.80239614 5.08569402 11.60467081 5.10986328 17.40722656 C5.11993627 19.38218309 5.13359521 21.35712466 5.15087891 23.33203125 C5.17507039 26.16670418 5.18646991 29.00118038 5.1953125 31.8359375 C5.20563507 32.72243988 5.21595764 33.60894226 5.22659302 34.52230835 C5.2269907 36.68285952 5.12272534 38.84293718 5 41 C4.34 41.66 3.68 42.32 3 43 C0.38419521 42.6730244 -1.64078137 42.17960932 -4 41 C-3.67 39.35 -3.34 37.7 -3 36 C-2.01 36 -1.02 36 0 36 C0 24.12 0 12.24 0 0 Z " fill="#383838" transform="translate(319,1537)"/>
<path d="M0 0 C12.33533669 0.85510672 24.6322354 1.7936784 36.875 3.5625 C38.19213989 3.75259644 38.19213989 3.75259644 39.53588867 3.9465332 C42.83213244 4.44288638 45.82822396 4.94274132 49 6 C49 6.66 49 7.32 49 8 C41.05493961 8.3407588 33.42854514 7.19853155 25.60644531 5.97363281 C23.37426968 5.6248859 21.14050498 5.28826325 18.90625 4.953125 C12.46878817 3.96691075 6.2349006 2.89451635 0 1 C0 0.67 0 0.34 0 0 Z " fill="#CECECE" transform="translate(548,1099)"/>
<path d="M0 0 C3.04885366 2.66190425 4.88369142 5.95739585 6.87109375 9.42578125 C7.23469498 10.05099167 7.5982962 10.67620209 7.97291565 11.32035828 C9.13219994 13.31521233 10.28519252 15.3136091 11.4375 17.3125 C12.5871796 19.30011034 13.73822408 21.28690691 14.89137268 23.27250671 C15.60709789 24.50559767 16.3207247 25.73990996 17.03184509 26.97566223 C18.67660845 29.81577388 20.37643155 32.54183763 22.25024414 35.23901367 C24 38 24 38 24 41 C20.46709507 39.82236502 20.21126074 39.16442366 18.3984375 36.0546875 C17.91213867 35.23170166 17.42583984 34.40871582 16.92480469 33.56079102 C16.41336914 32.67447998 15.90193359 31.78816895 15.375 30.875 C14.30514741 29.04790771 13.23483022 27.22108738 12.1640625 25.39453125 C11.63329102 24.48396973 11.10251953 23.5734082 10.55566406 22.63525391 C9.14048972 20.23798588 7.68978493 17.87006872 6.2109375 15.51171875 C5.79279785 14.83963379 5.3746582 14.16754883 4.94384766 13.47509766 C4.16759571 12.23150712 3.38379284 10.99258721 2.59130859 9.75927734 C0.49649148 6.36389121 -0.44894591 4.00310106 0 0 Z " fill="#C4C4C4" transform="translate(495,1371)"/>
<path d="M0 0 C-0.66 1.32 -1.32 2.64 -2 4 C-2.66 4 -3.32 4 -4 4 C-4 38.65 -4 73.3 -4 109 C-4.33 109 -4.66 109 -5 109 C-5.07005322 95.23116637 -5.12277064 81.46236033 -5.15543652 67.69338512 C-5.17111215 61.30032877 -5.1923852 54.90739188 -5.22631836 48.5144043 C-5.25884389 42.34823236 -5.27683871 36.18217554 -5.28463173 30.01592445 C-5.29018747 27.65991719 -5.30103603 25.30391643 -5.31719017 22.94795799 C-5.33887368 19.65551362 -5.3419707 16.36354886 -5.34057617 13.07104492 C-5.351362 12.09065247 -5.36214783 11.11026001 -5.3732605 10.10015869 C-5.36707451 8.75612221 -5.36707451 8.75612221 -5.36076355 7.38493347 C-5.36352893 6.6060184 -5.36629431 5.82710333 -5.36914349 5.02458477 C-4.7934998 1.86743997 -3.29217505 0 0 0 Z " fill="#2D2D2D" transform="translate(613,768)"/>
<path d="M0 0 C0.67611328 0.00773438 1.35222656 0.01546875 2.04882812 0.0234375 C3.36496094 0.01828125 4.68109375 0.013125 6.03710938 0.0078125 C9.43837333 0.25204265 11.70059117 0.79373593 14.73632812 2.2734375 C14.73632812 3.2634375 14.73632812 4.2534375 14.73632812 5.2734375 C10.64628953 6.42326352 6.70455761 6.38438006 2.48632812 6.3359375 C1.74125 6.33142578 0.99617187 6.32691406 0.22851562 6.32226562 C-1.60224828 6.31052996 -3.4329706 6.292596 -5.26367188 6.2734375 C-5.92367187 4.9534375 -6.58367188 3.6334375 -7.26367188 2.2734375 C-4.79824201 -0.19199236 -3.37076933 0.013416 0 0 Z " fill="#D9D9D9" transform="translate(625.263671875,770.7265625)"/>
<path d="M0 0 C0.66 0 1.32 0 2 0 C2 14.52 2 29.04 2 44 C1.01 44 0.02 44 -1 44 C-0.67 29.48 -0.34 14.96 0 0 Z " fill="#DFDFDF" transform="translate(324,1537)"/>
<path d="M0 0 C0.66 0 1.32 0 2 0 C2.33 14.52 2.66 29.04 3 44 C2.01 44 1.02 44 0 44 C0 29.48 0 14.96 0 0 Z " fill="#DDDDDD" transform="translate(1,1537)"/>
<path d="M0 0 C0.99 0 1.98 0 3 0 C3 9.9 3 19.8 3 30 C2.01 30 1.02 30 0 30 C0 20.1 0 10.2 0 0 Z " fill="#BFBFBF" transform="translate(455,1093)"/>
<path d="M0 0 C6.72569433 0.50310312 13.29044564 1.35248121 19.9296875 2.53125 C24.10803525 3.16916569 28.28528185 3.43215309 32.50390625 3.65625 C35 4 35 4 38 6 C36.12054687 5.87431641 36.12054687 5.87431641 34.203125 5.74609375 C32.55210357 5.64290491 30.90106073 5.54005822 29.25 5.4375 C28.0125 5.35338867 28.0125 5.35338867 26.75 5.26757812 C25.95078125 5.21923828 25.1515625 5.17089844 24.328125 5.12109375 C23.22839355 5.05039673 23.22839355 5.05039673 22.10644531 4.97827148 C20.00296006 4.91160456 20.00296006 4.91160456 18.0546875 5.52734375 C15.45547852 6.12526064 13.43266501 5.82451526 10.796875 5.44140625 C9.8171875 5.30283203 8.8375 5.16425781 7.828125 5.02148438 C6.30445313 4.79428711 6.30445313 4.79428711 4.75 4.5625 C3.71875 4.41490234 2.6875 4.26730469 1.625 4.11523438 C-0.91773403 3.75030495 -3.45923037 3.37832478 -6 3 C-6 2.67 -6 2.34 -6 2 C-4.02 1.67 -2.04 1.34 0 1 C0 0.67 0 0.34 0 0 Z " fill="#A1A1A1" transform="translate(531,1095)"/>
<path d="M0 0 C0 0.99 0 1.98 0 3 C-3.41395062 3.70147833 -6.83146969 4.38372236 -10.25 5.0625 C-11.21808594 5.26166016 -12.18617188 5.46082031 -13.18359375 5.66601562 C-14.11816406 5.84970703 -15.05273438 6.03339844 -16.015625 6.22265625 C-16.87446289 6.39547119 -17.73330078 6.56828613 -18.61816406 6.74633789 C-21.0866852 7.00923185 -22.65221516 6.73668682 -25 6 C-26.66519519 5.65939189 -28.33157466 5.32441604 -30 5 C-30 4.67 -30 4.34 -30 4 C-25.75076277 3.32840975 -21.50049499 2.66357939 -17.25 2 C-16.0434375 1.80921875 -14.836875 1.6184375 -13.59375 1.421875 C-12.43359375 1.24140625 -11.2734375 1.0609375 -10.078125 0.875 C-9.00981445 0.70742187 -7.94150391 0.53984375 -6.84082031 0.3671875 C-4 0 -4 0 0 0 Z " fill="#B8B8B8" transform="translate(641,1400)"/>
<path d="M0 0 C-9.06886599 6.04591066 -24.33702447 6.43522349 -35 6 C-35 5.34 -35 4.68 -35 4 C-28.26272309 2.42796872 -21.56164728 1.5599286 -14.6875 0.875 C-13.81577148 0.78750488 -12.94404297 0.70000977 -12.04589844 0.60986328 C-8.01747391 0.224097 -4.05235709 -0.11697526 0 0 Z " fill="#C4C4C4" transform="translate(557,1414)"/>
<path d="M0 0 C0.33 0 0.66 0 1 0 C1 10.23 1 20.46 1 31 C0.01 31 -0.98 31 -2 31 C-2.30028643 20.47329223 -1.41193641 10.41303106 0 0 Z " fill="#EAEAEA" transform="translate(617,1157)"/>
<path d="M0 0 C0.33 0.66 0.66 1.32 1 2 C-0.65 2 -2.3 2 -4 2 C-4.4640625 2.928125 -4.4640625 2.928125 -4.9375 3.875 C-5.625 5.25 -6.3125 6.625 -7 8 C-7.11786691 9.48012824 -7.17692938 10.96516466 -7.20532227 12.44970703 C-7.22526749 13.37051056 -7.24521271 14.29131409 -7.26576233 15.24002075 C-7.28247482 16.23589203 -7.29918732 17.23176331 -7.31640625 18.2578125 C-7.33718735 19.27600067 -7.35796844 20.29418884 -7.37937927 21.3432312 C-7.44489466 24.60375055 -7.50376902 27.86435206 -7.5625 31.125 C-7.60568332 33.33203983 -7.64929755 35.53907128 -7.69335938 37.74609375 C-7.80057805 43.16397501 -7.90234074 48.58193846 -8 54 C-8.33 54 -8.66 54 -9 54 C-9.10149262 47.25574611 -9.17150433 40.51168945 -9.21972656 33.7668457 C-9.23983106 31.47282552 -9.26711891 29.17885652 -9.30175781 26.88500977 C-9.35032559 23.58597174 -9.37298077 20.28761178 -9.390625 16.98828125 C-9.41127014 15.96414627 -9.43191528 14.94001129 -9.45318604 13.88484192 C-9.45458765 9.42832769 -9.44974993 6.76133867 -7.14746094 2.86401367 C-4.72651519 0.76261294 -3.16513889 0.26376157 0 0 Z " fill="#444444" transform="translate(457,1316)"/>
<path d="M0 0 C4.13364077 1.37788026 5.0527353 4.17052936 7 7.8125 C10.1628361 13.62124449 10.1628361 13.62124449 14 19 C13.67 19.66 13.34 20.32 13 21 C12.01 21 11.02 21 10 21 C9.61328125 20.28714844 9.2265625 19.57429688 8.828125 18.83984375 C8.30734375 17.88207031 7.7865625 16.92429687 7.25 15.9375 C6.70601563 14.93589844 6.16203125 13.93429687 5.6015625 12.90234375 C4.31602813 10.57270464 2.98997025 8.2831337 1.625 6 C0 3 0 3 0 0 Z " fill="#C1C1C1" transform="translate(464,1322)"/>
<path d="M0 0 C-4.16137952 4.16137952 -11.81704438 3.92115736 -17.4609375 4.125 C-20.31030004 4.125 -23.1521991 4.09088726 -26 4 C-25.67 3.34 -25.34 2.68 -25 2 C-16.83957883 -0.27929005 -8.40093015 -0.24389797 0 0 Z " fill="#D7D7D7" transform="translate(618,1405)"/>
<path d="M0 0 C0.72445312 0.11601563 1.44890625 0.23203125 2.1953125 0.3515625 C2.91976562 0.45210937 3.64421875 0.55265625 4.390625 0.65625 C7.4399445 1.09508196 10.26787219 1.62574906 13.1953125 2.6015625 C13.1953125 3.2615625 13.1953125 3.9215625 13.1953125 4.6015625 C5.66811648 4.85672169 -1.39320295 3.88453973 -8.8046875 2.6015625 C-6.45446919 -1.03393144 -4.00465801 -0.54676143 0 0 Z " fill="#AFAFAF" transform="translate(583.8046875,1102.3984375)"/>
<path d="M0 0 C3.85911079 1.24042847 5.31651536 3.62074637 7.18359375 7.11328125 C8.30064207 9.69478527 8.72803204 12.21232843 9 15 C4.99153025 11.3255694 2.4396032 7.87920641 0 3 C0 2.01 0 1.02 0 0 Z " fill="#D3D3D3" transform="translate(475,1341)"/>
<path d="M0 0 C4.62 0 9.24 0 14 0 C13.67 0.99 13.34 1.98 13 3 C8.38 3 3.76 3 -1 3 C-0.67 2.01 -0.34 1.02 0 0 Z " fill="#F3F3F3" transform="translate(36,897)"/>
<path d="M0 0 C13.6332574 -0.3690205 13.6332574 -0.3690205 20 2 C20 2.33 20 2.66 20 3 C12.96517526 3.23668569 6.8165735 2.7879537 0 1 C0 0.67 0 0.34 0 0 Z " fill="#DDDDDD" transform="translate(514,1094)"/>
<path d="M0 0 C-3.0103245 3.0103245 -5.22903621 2.97819673 -9.453125 3.09765625 C-11.33257813 3.08025391 -11.33257813 3.08025391 -13.25 3.0625 C-14.51328125 3.05347656 -15.7765625 3.04445313 -17.078125 3.03515625 C-18.04234375 3.02355469 -19.0065625 3.01195312 -20 3 C-20 2.67 -20 2.34 -20 2 C-13.1834265 0.2120463 -7.03482474 -0.23668569 0 0 Z " fill="#D5D5D5" transform="translate(578,1411)"/>
<path d="M0 0 C-0.33 0.66 -0.66 1.32 -1 2 C-5.28769786 3.29930238 -9.56510345 3.07516774 -14 3 C-14 2.34 -14 1.68 -14 1 C-9.27685687 0.22887459 -4.78478822 -0.09764874 0 0 Z " fill="#DBDBDB" transform="translate(536,1417)"/>
<path d="M0 0 C0.66 0 1.32 0 2 0 C3.2890625 1.64453125 3.2890625 1.64453125 4.625 3.8125 C5.07101562 4.52019531 5.51703125 5.22789063 5.9765625 5.95703125 C7 8 7 8 7 11 C3.66428571 9.88809524 3.41582921 9.53679327 1.8125 6.625 C1.46832031 6.01914063 1.12414062 5.41328125 0.76953125 4.7890625 C0 3 0 3 0 0 Z " fill="#B5B5B5" transform="translate(512,1401)"/>
<path d="M0 0 C0.99 0.99 1.98 1.98 3 3 C0.86447403 6.20328895 -0.73232126 7.12108473 -4 9 C-4.66 9.66 -5.32 10.32 -6 11 C-5.5037037 6.40925926 -5.5037037 6.40925926 -3 4.375 C-2.01 3.694375 -2.01 3.694375 -1 3 C-0.67 2.01 -0.34 1.02 0 0 Z " fill="#3C3C3C" transform="translate(465,1341)"/>
<path d="M0 0 C3 1 3 1 4.75 3.4375 C5.36875 4.7059375 5.36875 4.7059375 6 6 C5 8 5 8 3 9 C0 3.375 0 3.375 0 0 Z " fill="#B7B7B7" transform="translate(464,1322)"/>
<path d="M0 0 C2.8125 -0.1875 2.8125 -0.1875 6 0 C6.99 0.99 7.98 1.98 9 3 C4.05 3 -0.9 3 -6 3 C-6 2.67 -6 2.34 -6 2 C-4.02 1.67 -2.04 1.34 0 1 C0 0.67 0 0.34 0 0 Z " fill="#ADADAD" transform="translate(531,1095)"/>
<path d="M0 0 C2.04136395 -0.05451714 4.08315856 -0.09302485 6.125 -0.125 C7.83042969 -0.15980469 7.83042969 -0.15980469 9.5703125 -0.1953125 C13.05757767 0.00327891 15.7553862 0.7475199 19 2 C19 2.33 19 2.66 19 3 C12.84765625 3.09765625 12.84765625 3.09765625 11 3 C10.67 2.67 10.34 2.34 10 2 C8.31816052 1.76712992 6.6287584 1.58735834 4.9375 1.4375 C4.01839844 1.35371094 3.09929688 1.26992187 2.15234375 1.18359375 C1.08693359 1.09271484 1.08693359 1.09271484 0 1 C0 0.67 0 0.34 0 0 Z " fill="#9F9F9F" transform="translate(530,1088)"/>
<path d="M0 0 C-1.60115576 0.2493357 -3.20620159 0.47378648 -4.8125 0.6875 C-6.15248047 0.87892578 -6.15248047 0.87892578 -7.51953125 1.07421875 C-10 1 -10 1 -11.82421875 -0.48046875 C-12.21222656 -0.98191406 -12.60023438 -1.48335937 -13 -2 C-7.41194975 -3.14301028 -4.75621128 -3.17080752 0 0 Z " fill="#A2A2A2" transform="translate(586,1412)"/>
<path d="M0 0 C0 0.99 0 1.98 0 3 C-2.64 3.33 -5.28 3.66 -8 4 C-8.66 3.01 -9.32 2.02 -10 1 C-6.56484998 0.37542727 -3.50935186 0 0 0 Z " fill="#A0A0A0" transform="translate(641,1400)"/>
<path d="M0 0 C0.969375 0.144375 1.93875 0.28875 2.9375 0.4375 C7.28052169 1.06047442 11.63765234 1.53507859 16 2 C16 2.33 16 2.66 16 3 C14.08364783 3.05423638 12.16685075 3.09289963 10.25 3.125 C8.64898438 3.15980469 8.64898438 3.15980469 7.015625 3.1953125 C4.07529894 3.00487687 2.47638122 2.52670104 0 1 C0 0.67 0 0.34 0 0 Z " fill="#BDBDBD" transform="translate(578,1112)"/>
<path d="M0 0 C2.45484649 2.13464912 3.68134222 3.70720291 4 7 C3.34 7.66 2.68 8.32 2 9 C0.14223235 5.86501708 -0.20140476 3.62528568 0 0 Z " fill="#B8B8B8" transform="translate(501,1381)"/>
<path d="M0 0 C0.33 0.66 0.66 1.32 1 2 C-0.65 2 -2.3 2 -4 2 C-4.28875 2.61875 -4.5775 3.2375 -4.875 3.875 C-6 6 -6 6 -8 8 C-7.25 3.25 -7.25 3.25 -5 1 C-2.375 0.375 -2.375 0.375 0 0 Z " fill="#414141" transform="translate(457,1316)"/>
</svg>
