<?xml version="1.0" encoding="UTF-8"?>

<svg version="1.1" xmlns="http://www.w3.org/2000/svg" width="749" height="1399">
<path d="M0 0 C247.17 0 494.34 0 749 0 C749 461.67 749 923.34 749 1399 C501.83 1399 254.66 1399 0 1399 C0 937.33 0 475.66 0 0 Z " fill="#F8F8F8" transform="translate(0,0)"/>
<path d="M0 0 C247.17 0 494.34 0 749 0 C749 461.67 749 923.34 749 1399 C501.83 1399 254.66 1399 0 1399 C0 937.33 0 475.66 0 0 Z M14 14 C14 399.11 14 784.22 14 1181 C250.94 1181 487.88 1181 732 1181 C732 795.89 732 410.78 732 14 C495.06 14 258.12 14 14 14 Z " fill="#F9F9F9" transform="translate(0,0)"/>
<path d="M0 0 C247.17 0 494.34 0 749 0 C749 395.34 749 790.68 749 1198 C501.83 1198 254.66 1198 0 1198 C0 802.66 0 407.32 0 0 Z M14 14 C14 399.11 14 784.22 14 1181 C250.94 1181 487.88 1181 732 1181 C732 795.89 732 410.78 732 14 C495.06 14 258.12 14 14 14 Z " fill="#010101" transform="translate(0,0)"/>
<path d="M0 0 C247.17 0 494.34 0 749 0 C749 9.9 749 19.8 749 30 C501.83 30 254.66 30 0 30 C0 20.1 0 10.2 0 0 Z " fill="#040404" transform="translate(0,1369)"/>
<path d="M0 0 C1.73139043 -0.00988477 1.73139043 -0.00988477 3.49775845 -0.01996922 C5.40862371 -0.00788462 5.40862371 -0.00788462 7.35809231 0.00444412 C8.72044271 0.00242081 10.08279169 -0.00091733 11.44513601 -0.00546145 C15.19710535 -0.01413394 18.94882831 -0.00402158 22.70077622 0.00908089 C26.7437497 0.01995366 30.78669976 0.01356998 34.82968044 0.00929642 C42.75287487 0.00365482 50.67597276 0.01399323 58.59915072 0.02958438 C67.8184252 0.04709408 77.03768076 0.048543 86.25696927 0.04919997 C102.70145937 0.05088914 119.1459054 0.06671808 135.59037685 0.0906868 C151.56206026 0.11394964 167.53371571 0.1281119 183.50541592 0.13170242 C184.48920548 0.13192519 185.47299504 0.13214796 186.48659641 0.13237748 C188.46834164 0.13282006 190.45008687 0.13326209 192.4318321 0.13370354 C193.89806228 0.13403289 193.89806228 0.13403289 195.39391327 0.1343689 C196.85634599 0.13469288 196.85634599 0.13469288 198.34832281 0.1350234 C213.54898018 0.13872122 228.74963302 0.15008083 243.95028542 0.16249929 C249.4673777 0.16693962 254.98446954 0.17037579 260.5015629 0.17312142 C269.25114395 0.17754772 278.00070829 0.18529926 286.75027878 0.19989583 C290.75045176 0.20651722 294.75060993 0.21157105 298.75078869 0.21235657 C302.40784246 0.21314036 306.06485875 0.21851614 309.72190087 0.22767606 C311.68173264 0.23139512 313.64157179 0.2301999 315.60140663 0.2288692 C316.75305917 0.23271034 317.90471171 0.23655149 319.09126282 0.24050903 C320.09133883 0.24175553 321.09141484 0.24300203 322.12179619 0.2442863 C324.48271084 0.3719368 324.48271084 0.3719368 326.48271084 1.3719368 C326.56368314 3.81010265 326.62318055 6.24558064 326.67021084 8.6844368 C326.70791592 9.71987625 326.70791592 9.71987625 326.74638271 10.77623367 C326.82040458 15.8837426 326.82040458 15.8837426 325.30692953 18.07173026 C322.79199093 19.86424539 321.07902955 19.74795121 318.00224304 19.74946022 C316.28315289 19.76119508 316.28315289 19.76119508 314.52933365 19.77316701 C313.26456961 19.76647485 311.99980558 19.75978268 310.69671535 19.75288773 C309.34403859 19.75634255 307.99136464 19.76110593 306.63869661 19.76706946 C302.91340474 19.77963352 299.1883424 19.77338469 295.46304953 19.7641108 C291.44865722 19.7573426 287.43430529 19.76779048 283.41992092 19.77605057 C275.55221368 19.78941436 267.68459213 19.78649831 259.81688149 19.77781264 C253.4239588 19.77104641 247.03106019 19.77011478 240.63813496 19.77338409 C239.72937783 19.77384379 238.82062071 19.77430349 237.88432549 19.77477712 C236.038377 19.77573627 234.19242853 19.77670891 232.34648006 19.7776949 C215.02271189 19.78625666 197.69899128 19.77640259 180.3752309 19.7602938 C165.50226092 19.74689216 150.62936119 19.74921591 135.75639248 19.76305008 C118.49753758 19.77909591 101.23872442 19.78543023 83.97986311 19.77621329 C82.14027624 19.77525761 80.30068937 19.7743145 78.46110249 19.77338409 C77.55592213 19.77292127 76.65074177 19.77245844 75.71813171 19.77198159 C69.33147696 19.76938854 62.94484863 19.77376953 56.55819798 19.78082275 C48.77692664 19.78922699 40.99574613 19.78698045 33.21448524 19.77098052 C29.24237033 19.76308289 25.27040698 19.76003144 21.29829311 19.76992798 C17.66448335 19.77884484 14.03096609 19.77399212 10.39718299 19.75799532 C8.45473221 19.7530384 6.51226125 19.762871 4.56983143 19.77316701 C3.42116358 19.76534377 2.27249574 19.75752053 1.08901978 19.74946022 C0.09577873 19.74897316 -0.89746232 19.74848611 -1.92080158 19.74798429 C-4.96517717 19.30706949 -6.34330077 18.52684033 -8.51728916 16.3719368 C-9.01338291 13.3406868 -9.01338291 13.3406868 -8.95478916 9.8719368 C-8.9535001 8.7272493 -8.95221104 7.5825618 -8.95088291 6.4031868 C-8.51728916 3.3719368 -8.51728916 3.3719368 -7.33502012 1.70572972 C-4.81823632 -0.14100585 -3.1078192 -0.0018552 0 0 Z " fill="#919191" transform="translate(207.51728916168213,61.6280632019043)"/>
<path d="M0 0 C1.54892705 -0.00375528 1.54892705 -0.00375528 3.12914556 -0.00758642 C4.27975707 -0.00524525 5.43036858 -0.00290409 6.61584711 -0.00049198 C7.83064204 -0.00194542 9.04543697 -0.00339886 10.29704386 -0.00489634 C13.69940125 -0.00793812 17.10170418 -0.00644417 20.50405789 -0.00311839 C24.19400515 -0.00059764 27.88394787 -0.00383523 31.5738945 -0.00636172 C38.05105617 -0.00998646 44.52820951 -0.00985588 51.00537157 -0.00731456 C60.63683486 -0.00354585 70.26829107 -0.00545862 79.8997543 -0.00852287 C97.09742856 -0.01380025 114.29509911 -0.0133276 131.49277373 -0.01044396 C146.54235114 -0.00793275 161.59192719 -0.00726966 176.64150476 -0.0084666 C177.63807423 -0.00854299 178.63464371 -0.00861937 179.66141225 -0.00869807 C183.70636481 -0.00900939 187.75131737 -0.00932779 191.79626993 -0.00965784 C229.77512887 -0.01271986 267.75398544 -0.00993858 305.73284402 -0.00456094 C339.50731525 0.000185 373.28178271 -0.00023961 407.05625391 -0.00502193 C444.96369993 -0.01037146 482.87114386 -0.01250274 520.7785902 -0.00940967 C524.81636063 -0.00908893 528.85413106 -0.00877609 532.89190149 -0.0084666 C533.88617277 -0.00838752 534.88044404 -0.00830845 535.90484474 -0.00822697 C550.94845367 -0.00708739 565.99206109 -0.0084237 581.0356698 -0.01094615 C598.13337976 -0.01379867 615.23108542 -0.01310504 632.32879484 -0.00766541 C641.90892965 -0.0047184 651.48905516 -0.00455282 661.06918974 -0.00831159 C667.45628011 -0.01054212 673.84336297 -0.00918004 680.23045223 -0.00480682 C683.87763439 -0.00241195 687.52479798 -0.0016477 691.17197961 -0.0052128 C695.08718289 -0.00900115 699.00235629 -0.00517632 702.91755915 -0.00049198 C704.06817066 -0.00283314 705.21878217 -0.00517431 706.40426069 -0.00758642 C707.43687873 -0.0050829 708.46949677 -0.00257938 709.53340626 0 C710.43022709 0.00006776 711.32704792 0.00013552 712.25104514 0.00020533 C714.26670313 0.12534916 714.26670313 0.12534916 715.26670313 1.12534916 C715.36638026 3.67162884 715.39998682 6.19082108 715.39205229 8.73764718 C715.39415577 9.95601463 715.39415577 9.95601463 715.39630174 11.19899556 C715.39982285 13.96157961 715.396124 16.72410919 715.39254427 19.48669255 C715.39358597 21.47949556 715.39506614 23.47229837 715.39694864 25.46510077 C715.400876 30.99354232 715.39849543 36.52196663 715.39517068 42.05040793 C715.39265088 48.04508068 715.39588714 54.03975063 715.39841402 60.03442299 C715.40203946 70.5581427 715.40194134 81.08185797 715.39936686 91.60557759 C715.39661995 102.90273582 715.39603175 114.19989104 715.39810419 125.49704945 C715.39823336 126.20938856 715.39836254 126.92172768 715.39849562 127.65565282 C715.39902887 130.55668227 715.39957757 133.45771172 715.4001459 136.35874117 C715.40544149 163.4089453 715.40579118 190.45914742 715.40299845 217.50935185 C715.40291565 218.31167695 715.40283286 219.11400205 715.40274755 219.94064003 C715.40266462 220.74423931 715.40258169 221.5478386 715.40249625 222.37578937 C715.3999762 246.82715045 715.39932022 271.27851069 715.40051889 295.72987187 C715.40059637 297.36526497 715.40067353 299.00065808 715.40075036 300.63605119 C715.40106081 307.20750309 715.40137948 313.77895499 715.40171013 320.35040689 C715.40262728 338.72198696 715.40319777 357.09356704 715.40349627 375.46514714 C715.40350991 376.30184617 715.40352356 377.13854521 715.40353762 378.00059876 C715.40394708 404.67391148 715.40281903 431.34722391 715.40064669 458.02053654 C715.40054131 459.31881886 715.40054131 459.31881886 715.40043381 460.64332911 C715.39928877 474.70012161 715.39806935 488.75691411 715.39684364 502.81370661 C715.39198705 558.56960649 715.39221246 614.32550398 715.39707422 670.08140385 C715.39829535 684.13098983 715.39950637 698.1805758 715.40064669 712.23016179 C715.40075236 713.52766982 715.40075236 713.52766982 715.40086017 714.85139015 C715.40301534 741.49611053 715.40393082 768.14083072 715.40349627 794.78555119 C715.40347589 796.03968597 715.40347589 796.03968597 715.4034551 797.3191568 C715.40314266 815.67009561 715.40250911 834.0210344 715.40158576 852.37197319 C715.4012566 858.93766035 715.40094352 865.5033475 715.40063505 872.06903466 C715.40055766 873.70250735 715.40047893 875.33598003 715.40039886 876.96945271 C715.39920372 901.41632159 715.40022469 925.86318954 715.40274755 950.3100583 C715.40287175 951.51354595 715.40287175 951.51354595 715.40299845 952.74134648 C715.40308113 953.54220093 715.40316381 954.34305537 715.403249 955.16817814 C715.40600299 982.13801206 715.40500125 1009.10784356 715.3997177 1036.07767713 C715.39916531 1038.96966771 715.39862861 1041.86165829 715.39810419 1044.75364888 C715.39797398 1045.46342486 715.39784378 1046.17320084 715.39770962 1046.90448518 C715.39573192 1058.174621 715.39711611 1069.44475382 715.3998732 1080.71488937 C715.40250889 1091.77828657 715.40152256 1102.84167959 715.39685911 1113.9050764 C715.3944636 1119.8310246 715.39370129 1125.75696138 715.39726509 1131.68290925 C715.40046678 1137.06115787 715.39916498 1142.43938479 715.39408443 1147.8176318 C715.39306731 1149.763415 715.39376904 1151.70919994 715.39629037 1153.65498178 C715.39944684 1156.27436536 715.39657458 1158.89367133 715.39205229 1161.51305115 C715.39444303 1162.28043197 715.39683378 1163.04781279 715.39929697 1163.83844757 C715.38085882 1169.01119347 715.38085882 1169.01119347 714.26670313 1170.12534916 C712.69141751 1170.22315211 711.11172504 1170.25057908 709.53340626 1170.25069833 C707.9844792 1170.25445361 707.9844792 1170.25445361 706.40426069 1170.25828475 C705.25364918 1170.25594358 704.10303767 1170.25360242 702.91755915 1170.2511903 C701.70276422 1170.25264375 700.48796929 1170.25409719 699.2363624 1170.25559467 C695.83400501 1170.25863645 692.43170208 1170.2571425 689.02934837 1170.25381672 C685.33940111 1170.25129597 681.64945839 1170.25453355 677.95951176 1170.25706005 C671.48235009 1170.26068479 665.00519675 1170.26055421 658.52803469 1170.25801289 C648.8965714 1170.25424418 639.26511519 1170.25615695 629.63365196 1170.2592212 C612.4359777 1170.26449858 595.23830715 1170.26402593 578.04063253 1170.26114229 C562.99105512 1170.25863108 547.94147907 1170.25796799 532.89190149 1170.25916493 C531.39704729 1170.25927951 531.39704729 1170.25927951 529.87199401 1170.2593964 C525.82704145 1170.25970772 521.78208889 1170.26002611 517.73713633 1170.26035616 C479.75827739 1170.26341819 441.77942081 1170.26063691 403.80056224 1170.25525927 C370.02609101 1170.25051333 336.25162355 1170.25093794 302.47715235 1170.25572026 C264.56970633 1170.26106979 226.6622624 1170.26320107 188.75481606 1170.26010799 C184.71704563 1170.25978726 180.6792752 1170.25947442 176.64150476 1170.25916493 C175.64723349 1170.25908585 174.65296222 1170.25900677 173.62856152 1170.2589253 C158.58495259 1170.25778572 143.54134517 1170.25912202 128.49773645 1170.26164448 C111.4000265 1170.26449699 94.30232084 1170.26380337 77.20461142 1170.25836374 C67.62447661 1170.25541673 58.0443511 1170.25525115 48.46421652 1170.25900991 C42.07712615 1170.26124045 35.69004328 1170.25987837 29.30295403 1170.25550514 C25.65577187 1170.25311028 22.00860827 1170.25234603 18.36142665 1170.25591113 C14.44622337 1170.25969948 10.53104997 1170.25587465 6.61584711 1170.2511903 C5.4652356 1170.25353147 4.31462409 1170.25587264 3.12914556 1170.25828475 C2.09652753 1170.25578123 1.06390949 1170.25327771 0 1170.25069833 C-0.89682083 1170.25063057 -1.79364166 1170.25056281 -2.71763888 1170.250493 C-4.73329687 1170.12534916 -4.73329687 1170.12534916 -5.73329687 1169.12534916 C-5.832974 1166.57906949 -5.86658056 1164.05987725 -5.85864604 1161.51305115 C-5.86004835 1160.70080618 -5.86145067 1159.88856122 -5.86289548 1159.05170276 C-5.86641659 1156.28911872 -5.86271774 1153.52658914 -5.85913801 1150.76400578 C-5.86017971 1148.77120277 -5.86165988 1146.77839995 -5.86354238 1144.78559756 C-5.86746974 1139.25715601 -5.86508917 1133.7287317 -5.86176443 1128.2002904 C-5.85924462 1122.20561765 -5.86248088 1116.2109477 -5.86500776 1110.21627533 C-5.8686332 1099.69255563 -5.86853508 1089.16884035 -5.8659606 1078.64512074 C-5.86321369 1067.34796251 -5.86262549 1056.05080728 -5.86469793 1044.75364888 C-5.86482711 1044.04130976 -5.86495628 1043.32897065 -5.86508937 1042.59504551 C-5.86562261 1039.69401605 -5.86617131 1036.7929866 -5.86673964 1033.89195716 C-5.87203523 1006.84175303 -5.87238492 979.79155091 -5.86959219 952.74134648 C-5.869468 951.53785883 -5.869468 951.53785883 -5.86934129 950.3100583 C-5.86925836 949.50645902 -5.86917544 948.70285973 -5.86908999 947.87490895 C-5.86656994 923.42354788 -5.86591396 898.97218764 -5.86711264 874.52082646 C-5.86719012 872.88543335 -5.86726727 871.25004025 -5.86734411 869.61464714 C-5.86765456 863.04319524 -5.86797322 856.47174334 -5.86830387 849.90029144 C-5.86922102 831.52871136 -5.86979152 813.15713129 -5.87009001 794.78555119 C-5.87010365 793.94885215 -5.8701173 793.11215312 -5.87013136 792.25009957 C-5.87054083 765.57678685 -5.86941277 738.90347442 -5.86724043 712.23016179 C-5.86717018 711.36464024 -5.86709993 710.49911869 -5.86702755 709.60736922 C-5.86588251 695.55057672 -5.86466309 681.49378422 -5.86343738 667.43699172 C-5.85858079 611.68109183 -5.8588062 555.92519435 -5.86366796 500.16929448 C-5.86488909 486.1197085 -5.86610011 472.07012252 -5.86724043 458.02053654 C-5.86731088 457.15553118 -5.86738133 456.29052582 -5.86745391 455.39930818 C-5.86960908 428.7545878 -5.87052456 402.10986761 -5.87009001 375.46514714 C-5.87007642 374.62905729 -5.87006284 373.79296744 -5.87004884 372.93154153 C-5.86973641 354.58060272 -5.86910285 336.22966393 -5.8681795 317.87872514 C-5.86785034 311.31303798 -5.86753726 304.74735082 -5.86722879 298.18166367 C-5.86715141 296.54819098 -5.86707268 294.9147183 -5.8669926 293.28124561 C-5.86579746 268.83437673 -5.86681843 244.38750879 -5.86934129 219.94064003 C-5.86942409 219.13831493 -5.86950689 218.33598983 -5.86959219 217.50935185 C-5.86967487 216.7084974 -5.86975755 215.90764295 -5.86984274 215.08252019 C-5.87259673 188.11268627 -5.87159499 161.14285477 -5.86631145 134.1730212 C-5.86575905 131.28103062 -5.86522235 128.38904004 -5.86469793 125.49704945 C-5.86456773 124.78727347 -5.86443752 124.07749749 -5.86430337 123.34621315 C-5.86232566 112.07607733 -5.86370985 100.8059445 -5.86646694 89.53580896 C-5.86910263 78.47241176 -5.8681163 67.40901874 -5.86345285 56.34562193 C-5.86105735 50.41967373 -5.86029503 44.49373695 -5.86385883 38.56778908 C-5.86706053 33.18954046 -5.86575872 27.81131353 -5.86067817 22.43306653 C-5.85966105 20.48728333 -5.86036279 18.54149838 -5.86288411 16.59571655 C-5.86604058 13.97633297 -5.86316832 11.357027 -5.85864604 8.73764718 C-5.86103678 7.97026636 -5.86342752 7.20288554 -5.86589071 6.41225075 C-5.84518092 0.60220366 -5.77574925 0.00043639 0 0 Z M-3.73329687 2.12534916 C-3.73329687 387.23534916 -3.73329687 772.34534916 -3.73329687 1169.12534916 C233.20670313 1169.12534916 470.14670313 1169.12534916 714.26670313 1169.12534916 C714.26670313 784.01534916 714.26670313 398.90534916 714.26670313 2.12534916 C477.32670313 2.12534916 240.38670313 2.12534916 -3.73329687 2.12534916 Z " fill="#6C6C6C" transform="translate(17.733296871185303,11.874650835990906)"/>
<path d="M0 0 C100.98 0 201.96 0 306 0 C306 1.65 306 3.3 306 5 C302.70487885 7.19674743 301.74429642 7.25032543 297.91999722 7.25168228 C296.3349094 7.25950552 296.3349094 7.25950552 294.7177996 7.26748681 C292.97035417 7.26079465 292.97035417 7.26079465 291.18760681 7.25396729 C289.95322186 7.25708727 288.7188369 7.26020725 287.44704634 7.26342177 C284.01433338 7.27003477 280.58183821 7.26763314 277.14913833 7.26144934 C273.44972399 7.25693622 269.75032909 7.26390289 266.05091858 7.26940918 C258.80152569 7.27831678 251.55217414 7.27637518 244.30277961 7.2705839 C238.41327603 7.26607313 232.52378406 7.26545196 226.63427925 7.26763153 C225.79710407 7.267938 224.95992889 7.26824446 224.09738477 7.26856022 C222.39686683 7.26919964 220.69634889 7.26984807 218.99583096 7.2705054 C203.03890828 7.27621261 187.08200856 7.2696445 171.12508965 7.25890467 C157.42151637 7.24996717 143.71797697 7.25152208 130.0144043 7.26074219 C114.11430333 7.27143511 98.2142225 7.27566497 82.31411844 7.26951766 C80.62004729 7.26888054 78.92597614 7.2682518 77.23190498 7.26763153 C76.39831007 7.26732298 75.56471516 7.26701443 74.70585979 7.26669653 C68.82021264 7.26496677 62.93457821 7.26789069 57.04893303 7.27259064 C49.88100113 7.27818855 42.71311306 7.276706 35.54518621 7.26602915 C31.88523646 7.26075794 28.22535989 7.25874021 24.56541061 7.26532745 C20.60536849 7.27234726 16.64544731 7.26398918 12.68540955 7.25396729 C11.5182152 7.25842873 10.35102086 7.26289017 9.14845699 7.26748681 C8.09433953 7.26227132 7.04022206 7.25705582 5.95416164 7.25168228 C5.03914298 7.25135758 4.12412433 7.25103287 3.18137783 7.25069833 C1 7 1 7 -1 5 C-0.67 3.35 -0.34 1.7 0 0 Z " fill="#CACACA" transform="translate(214,68)"/>
<path d="M0 0 C1.16086933 -0.00644889 2.32173866 -0.01289778 3.51778585 -0.0195421 C4.80423535 -0.01644489 6.09068485 -0.01334769 7.41611767 -0.01015663 C8.78784139 -0.01389013 10.15956299 -0.01849044 11.53128117 -0.02388728 C15.3138577 -0.03617019 19.09634614 -0.03585062 22.87893808 -0.03349853 C26.95335191 -0.03309168 31.027737 -0.04411684 35.10213757 -0.05361366 C43.08994348 -0.07025403 51.07771988 -0.07572459 59.06554166 -0.07683842 C65.55668427 -0.07778754 72.04781712 -0.08189102 78.53895664 -0.08823967 C96.92921395 -0.10586103 115.31944787 -0.11507724 133.70971368 -0.11357872 C134.70193878 -0.11349881 135.69416388 -0.1134189 136.71645641 -0.11333656 C137.70988858 -0.1132548 138.70332074 -0.11317304 139.72685691 -0.1130888 C155.82827627 -0.11227584 171.92960209 -0.13141376 188.03099439 -0.1596133 C204.55073982 -0.18831794 221.0704396 -0.2021549 237.59021062 -0.20042574 C246.87002203 -0.19976096 256.14973542 -0.20529163 265.42952442 -0.22678185 C273.33084198 -0.24496196 281.2320171 -0.24936724 289.13334648 -0.235763 C293.16638521 -0.22921699 297.19915044 -0.22917453 301.23216343 -0.2464695 C304.92287346 -0.26213401 308.61309162 -0.2594052 312.30378916 -0.24190123 C314.27439293 -0.23735307 316.24501156 -0.25254061 318.21555692 -0.26838052 C319.38424949 -0.25918293 320.55294206 -0.24998534 321.75704956 -0.24050903 C323.26993788 -0.24116114 323.26993788 -0.24116114 324.8133896 -0.24182642 C328.34707653 0.39859212 330.03486573 1.75377176 332.56728649 4.25726891 C333.26650524 7.24555016 333.26650524 7.24555016 333.25478649 10.56976891 C333.27927868 11.65902672 333.30377087 12.74828453 333.32900524 13.87055016 C332.27419179 18.56041305 330.52269587 21.44815928 326.56728649 24.25726891 C322.22453597 25.29810473 317.96463993 25.18471066 313.51664257 25.1192379 C312.17175336 25.12444125 310.82687312 25.13271082 309.48201936 25.1437763 C305.79169034 25.16523266 302.10271854 25.14306982 298.41249144 25.1137054 C294.43079371 25.08963661 290.44923519 25.10596658 286.46750927 25.11725426 C278.66921825 25.13296917 270.87145364 25.11137703 263.07323868 25.07726569 C253.99193449 25.03895257 244.91073898 25.03767899 235.82936781 25.03799526 C219.6251145 25.03730835 203.42110388 25.00317046 187.21694469 24.95014 C171.49392912 24.89871563 155.77110024 24.87037407 140.04799938 24.86810875 C139.07977299 24.86796589 138.11154659 24.86782304 137.11398 24.86767586 C136.14742683 24.86753724 135.18087366 24.86739862 134.185031 24.86725581 C132.23892025 24.86696541 130.2928095 24.86666293 128.34669876 24.86634827 C126.90705944 24.8661157 126.90705944 24.8661157 125.4383365 24.86587844 C110.4544966 24.86243784 95.47068482 24.83689264 80.4868726 24.80949218 C75.05678996 24.79988553 69.62671608 24.79375614 64.19662625 24.79019161 C55.5821383 24.78452353 46.96778794 24.76942272 38.35336501 24.73436542 C34.41732821 24.71853831 30.4814313 24.70736341 26.54535961 24.70909309 C22.94109158 24.71049909 19.33714693 24.6980098 15.73295789 24.67447655 C13.81376573 24.66545982 11.89452209 24.67103229 9.97531849 24.67714751 C-3.13053158 24.55945083 -3.13053158 24.55945083 -7.43271351 20.25726891 C-7.55939115 17.26708729 -7.61792189 14.31032783 -7.62021351 11.31976891 C-7.6324596 10.48252281 -7.6447057 9.64527672 -7.65732288 8.78265953 C-7.65925648 7.98150719 -7.66119007 7.18035484 -7.66318226 6.35492516 C-7.66729115 5.61766197 -7.67140003 4.88039879 -7.67563343 4.1207943 C-7.08185862 -0.4342641 -3.75814352 0.00525209 0 0 Z M-4.25044447 4.59106183 C-6.11321785 7.216324 -5.86664731 9.590487 -5.87021351 12.75726891 C-5.88954945 13.90195641 -5.90888538 15.04664391 -5.92880726 16.22601891 C-5.73259651 19.28609055 -5.73259651 19.28609055 -3.75210196 20.92312682 C-0.89914507 22.56418434 0.89110643 22.63318269 4.17359543 22.63479233 C5.32226327 22.64261557 6.47093112 22.65043881 7.65440708 22.65849912 C8.9169404 22.65180696 10.17947372 22.64511479 11.48026562 22.63821983 C12.83451812 22.64167574 14.18876781 22.64643986 15.54301161 22.65240157 C19.26797489 22.66495041 22.99270824 22.65872368 26.71767247 22.64944291 C30.73339134 22.64266866 34.74907005 22.65312552 38.764781 22.66138268 C46.63268404 22.67473924 54.50050135 22.67183383 62.36840779 22.66314475 C68.76083841 22.65637665 75.15324496 22.6554477 81.54567814 22.6587162 C82.4545885 22.6591759 83.36349886 22.6596356 84.29995195 22.66010923 C86.14622463 22.66106838 87.9924973 22.66204102 89.83876996 22.663027 C107.1606047 22.67158641 124.48239184 22.66173789 141.80421876 22.6456259 C156.67749499 22.63221996 171.55070098 22.63455202 186.42397594 22.64838219 C203.68429342 22.6644244 220.94456917 22.67076476 238.20489305 22.6615454 C240.04416557 22.66058972 241.88343808 22.65964661 243.72271061 22.6587162 C244.62773669 22.65825338 245.53276277 22.65779055 246.46521388 22.6573137 C252.85285098 22.65471989 259.24046167 22.65910315 265.62809467 22.66615486 C273.40827244 22.67455489 281.18835936 22.67232128 288.96852667 22.65631263 C292.94052464 22.64841 296.91237098 22.64537205 300.88436794 22.65526009 C304.51685203 22.66416641 308.14904319 22.65934189 311.78150051 22.64332743 C313.72563701 22.63836198 315.66979368 22.64821235 317.6139093 22.65849912 C318.7599694 22.65067588 319.9060295 22.64285264 321.0868187 22.63479233 C322.07989739 22.63430527 323.07297608 22.63381821 324.09614807 22.6333164 C326.59715055 22.44289607 326.59715055 22.44289607 328.39150518 20.95706236 C330.36068738 18.1102719 329.87591927 14.89626142 329.75478649 11.56976891 C329.73448376 10.51692711 329.73448376 10.51692711 329.71377087 9.44281578 C329.67848831 7.71397062 329.62468233 5.98552125 329.56728649 4.25726891 C326.96893024 2.95809078 325.08705226 3.12946969 322.17583847 3.12584114 C321.02418593 3.122 319.87253339 3.11815885 318.68598229 3.11420131 C317.40984139 3.11506779 316.1337005 3.11593427 314.81888866 3.11682701 C313.45811565 3.11424475 312.0973434 3.11123198 310.73657221 3.10782361 C306.98435959 3.09973418 303.23216608 3.09796296 299.47994578 3.09722614 C295.43829909 3.09537899 291.39666241 3.08783344 287.35502148 3.08109093 C278.51224665 3.06749396 269.66947636 3.06148095 260.82669282 3.05708027 C255.30922267 3.05432052 249.79175428 3.0500837 244.27428532 3.0455761 C229.00902097 3.03338235 213.74375804 3.02308279 198.47848892 3.019701 C197.50100214 3.01948144 196.52351535 3.01926187 195.51640775 3.01903565 C194.5365375 3.01881737 193.55666724 3.0185991 192.54710394 3.0183742 C190.56139982 3.01793073 188.57569569 3.01748417 186.58999157 3.01703453 C185.60500663 3.0168131 184.62002169 3.01659167 183.60518872 3.01636353 C167.63500116 3.01241318 151.66485917 2.99495241 135.69468922 2.97167501 C119.31281982 2.94798949 102.93097332 2.93550046 86.54908651 2.93433309 C77.345366 2.93341482 68.14170488 2.92762443 58.93800068 2.90951347 C51.10288965 2.8941503 43.26785635 2.88896959 35.43273313 2.89725158 C31.43238762 2.90117139 27.43219882 2.90016407 23.43187237 2.88619423 C19.77341694 2.87353461 16.11523725 2.87458211 12.45678263 2.88678494 C10.49862226 2.88969313 8.54045747 2.87774636 6.5823341 2.86536288 C4.85094367 2.87524765 4.85094367 2.87524765 3.08457565 2.88533211 C1.5842181 2.88443648 1.5842181 2.88443648 0.0535503 2.88352275 C-2.46646218 3.06523137 -2.46646218 3.06523137 -4.25044447 4.59106183 Z " fill="#D0D0D0" transform="translate(204.43271350860596,58.74273109436035)"/>
<path d="M0 0 C0.99 0 1.98 0 3 0 C3 1.32 3 2.64 3 4 C-244.17 4 -491.34 4 -746 4 C-746 3.34 -746 2.68 -746 2 C-499.82 2 -253.64 2 0 2 C0 1.34 0 0.68 0 0 Z " fill="#454545" transform="translate(746,1194)"/>
<path d="M0 0 C100.65 0 201.3 0 305 0 C304.67 0.99 304.34 1.98 304 3 C204.01 3 104.02 3 1 3 C0.67 2.01 0.34 1.02 0 0 Z " fill="#EAEAEA" transform="translate(214,70)"/>
<path d="M0 0 C42.00600476 -0.0228678 84.01200879 -0.04049896 126.01801854 -0.05106533 C130.97246159 -0.0523161 135.92690462 -0.05361042 140.88134766 -0.05493164 C141.86772591 -0.05519395 142.85410416 -0.05545626 143.87037267 -0.05572652 C159.86074336 -0.06008284 175.85111048 -0.06797017 191.84147905 -0.0771528 C208.23796841 -0.0864904 224.63445589 -0.09205584 241.0309478 -0.09408849 C251.15585713 -0.0954635 261.28075634 -0.09981288 271.40566255 -0.10791647 C278.34011895 -0.11318524 285.27457009 -0.11480399 292.20902835 -0.11350138 C296.21526021 -0.11285821 300.22147435 -0.11387319 304.22770309 -0.11920547 C307.89042095 -0.12404519 311.55310902 -0.12433484 315.2158282 -0.12089889 C317.17879043 -0.12027134 319.14175227 -0.12460796 321.10470951 -0.12908131 C322.25821214 -0.12709026 323.41171478 -0.12509921 324.60017204 -0.12304783 C326.10272539 -0.12361741 326.10272539 -0.12361741 327.63563335 -0.1241985 C330 0 330 0 332 1 C332.0809723 3.43816585 332.14046972 5.87364384 332.1875 8.3125 C332.22520508 9.34793945 332.22520508 9.34793945 332.26367188 10.40429688 C332.33768749 15.51137421 332.33768749 15.51137421 330.82491702 17.7003172 C328.3057237 19.49445479 326.58935987 19.37267 323.50835896 19.36914349 C321.78556861 19.3781032 321.78556861 19.3781032 320.02797443 19.38724393 C318.76048191 19.3785054 317.49298939 19.36976688 316.18708801 19.36076355 C314.83156248 19.36207113 313.47603769 19.36469666 312.12051696 19.36853105 C308.38748225 19.37525746 304.65470446 19.36321397 300.9217025 19.34819686 C296.8992227 19.33527167 292.87675802 19.33962346 288.85426331 19.34190369 C281.88232285 19.34347865 274.91046645 19.33404616 267.93854713 19.31719017 C257.85826881 19.29283495 247.77803125 19.28499847 237.69772669 19.2812262 C221.3441157 19.27465624 204.99054953 19.25468035 188.63696289 19.22631836 C172.74861882 19.19879185 156.86028692 19.17755138 140.97192383 19.16479492 C139.99297745 19.16400675 139.01403107 19.16321858 138.00541965 19.16240653 C133.09445626 19.15849149 128.18349278 19.15470034 123.27252924 19.15097082 C82.51498831 19.11985798 41.75749672 19.0670074 1 19 C1 18.67 1 18.34 1 18 C108.91 17.67 216.82 17.34 328 17 C328.33 15.68 328.66 14.36 329 13 C328.01 12.67 327.02 12.34 326 12 C325.3125 9.9375 325.3125 9.9375 325 8 C325.639375 7.7525 326.27875 7.505 326.9375 7.25 C329.49019039 6.03378366 329.49019039 6.03378366 330 2 C220.77 2 111.54 2 -1 2 C-0.67 1.34 -0.34 0.68 0 0 Z " fill="#A6A6A6" transform="translate(202,62)"/>
<path d="M0 0 C0.66 0.33 1.32 0.66 2 1 C2.625 3.5625 2.625 3.5625 3 6 C41.43897019 6.02286839 79.87793936 6.04049926 118.31691497 6.05106533 C122.85076233 6.0523161 127.38460969 6.05361041 131.91845703 6.05493164 C132.82109807 6.05519395 133.72373911 6.05545626 134.65373291 6.05572652 C149.28613323 6.06008269 163.91852963 6.06796996 178.55092762 6.0771528 C193.55524169 6.08649079 208.5595537 6.09205592 223.56387055 6.09408849 C232.82891525 6.09546342 242.0939489 6.09981236 251.35899021 6.10791647 C257.70475278 6.11318572 264.05050959 6.11480388 270.39627419 6.11350138 C274.06226193 6.11285828 277.7282303 6.11387234 281.39421463 6.11920547 C285.36095141 6.12493427 289.32766259 6.122999 293.29440308 6.12025452 C294.46364378 6.12316736 295.63288448 6.1260802 296.83755672 6.12908131 C297.89352428 6.12709026 298.94949184 6.12509921 300.03745842 6.12304783 C300.9541033 6.12342755 301.87074817 6.12380727 302.81517017 6.1241985 C305.0458563 6.14195946 305.0458563 6.14195946 307 5 C307.65555119 2.47266765 307.65555119 2.47266765 308 0 C308.66 0.33 309.32 0.66 310 1 C310.125 3.875 310.125 3.875 310 7 C308 9 308 9 305.78311002 9.24839699 C304.85127633 9.24763755 303.91944264 9.24687811 302.95937157 9.24609566 C301.88598703 9.25007775 300.81260249 9.25405985 299.70669115 9.25816262 C298.5179957 9.25233693 297.32930026 9.24651125 296.10458374 9.24050903 C294.2215446 9.24307231 294.2215446 9.24307231 292.30046427 9.24568737 C288.80465408 9.25017625 285.30896558 9.24213621 281.81317091 9.23213124 C278.04766299 9.22352112 274.28216233 9.22641517 270.51664734 9.22793579 C263.98887878 9.22898619 257.4611501 9.22269343 250.93339157 9.21146011 C241.49527068 9.19522903 232.05716913 9.18999956 222.6190358 9.18748413 C207.30753636 9.18310326 191.99605819 9.16978355 176.68457031 9.15087891 C161.80794379 9.13253023 146.93132304 9.11836878 132.0546875 9.10986328 C131.1382053 9.10933783 130.22172311 9.10881239 129.27746873 9.10827102 C124.67990016 9.10566101 120.08233155 9.10313357 115.48476291 9.10064721 C77.32316038 9.07990251 39.16158159 9.04466635 1 9 C-0.94566951 5.52452927 -1.07637127 3.87493656 0 0 Z " fill="#9F9F9F" transform="translate(212,68)"/>
<path d="M0 0 C3.3 0 6.6 0 10 0 C9.9278125 0.77085938 9.855625 1.54171875 9.78125 2.3359375 C9.6884375 3.33882813 9.595625 4.34171875 9.5 5.375 C9.4071875 6.37273437 9.314375 7.37046875 9.21875 8.3984375 C8.97207053 10.89703736 8.97207053 10.89703736 9 13 C48.34776944 12.89545179 87.69552114 12.78568833 127.04325619 12.66888306 C131.68354112 12.65511269 136.32382619 12.64138571 140.96411133 12.62768555 C141.88794898 12.62495724 142.81178664 12.62222894 143.76361937 12.61941796 C158.74264537 12.57528506 173.72167897 12.53467142 188.70071828 12.49534739 C204.0587333 12.45495052 219.41673418 12.4107972 234.77472836 12.36312145 C244.25933807 12.33379788 253.74394665 12.30744084 263.22857476 12.28482103 C269.7233834 12.26905156 276.2181747 12.24964927 282.71296411 12.22733159 C286.46590597 12.21454467 290.2188344 12.20341557 293.97179222 12.19658089 C298.03086149 12.18914712 302.08986552 12.17409224 306.14891052 12.15821838 C307.9479958 12.15675122 307.9479958 12.15675122 309.78342623 12.15525442 C310.86178651 12.14977998 311.94014679 12.14430554 313.05118465 12.1386652 C313.98947359 12.13600716 314.92776253 12.13334911 315.89448446 12.13061053 C317.98663572 12.23402118 317.98663572 12.23402118 319 11 C319.23363881 9.15108054 319.41303635 7.29511969 319.5625 5.4375 C319.64628906 4.42558594 319.73007812 3.41367188 319.81640625 2.37109375 C319.87699219 1.58863281 319.93757813 0.80617188 320 0 C321.65 0 323.3 0 325 0 C325 1.65 325 3.3 325 5 C324.34 5.33 323.68 5.66 323 6 C323.78130071 8.49552484 323.78130071 8.49552484 325 11 C325.99 11.33 326.98 11.66 328 12 C328 12.66 328 13.32 328 14 C325.43548445 15.28225777 323.62466336 15.12655293 320.75190163 15.12863445 C319.63221635 15.1318589 318.51253106 15.13508335 317.35891593 15.1384055 C316.11847568 15.1368569 314.87803544 15.1353083 313.6000061 15.13371277 C311.63544576 15.1371111 311.63544576 15.1371111 309.63119733 15.14057809 C305.98352702 15.14671895 302.33587955 15.14655982 298.68820524 15.14538372 C294.75901654 15.14518028 290.82983529 15.15069297 286.90065002 15.15544128 C279.19793409 15.16376098 271.49522581 15.16649672 263.79250576 15.16705366 C257.53352786 15.16752821 251.2745525 15.1695799 245.01557541 15.17275429 C227.28430646 15.18156457 209.55304357 15.1861731 191.82177241 15.18542381 C190.86512853 15.18538386 189.90848465 15.1853439 188.92285156 15.18530273 C187.96504447 15.18526185 187.00723737 15.18522097 186.02040581 15.18517885 C170.49386152 15.18477231 154.96734148 15.19434301 139.4408042 15.2084411 C123.51206504 15.22279068 107.58333771 15.22971206 91.65459192 15.22884732 C82.70627785 15.22851486 73.7579892 15.23128367 64.80968094 15.24202538 C57.19126805 15.25111176 49.57289208 15.25332102 41.95447613 15.24651595 C38.06542911 15.24324125 34.17645301 15.2432281 30.28741264 15.2518692 C26.07620794 15.2611301 21.86516887 15.25498298 17.65396118 15.24723816 C16.41798238 15.25238172 15.18200359 15.25752529 13.90857089 15.26282471 C12.78367011 15.25822592 11.65876933 15.25362712 10.49978065 15.24888897 C9.52726187 15.24910634 8.55474309 15.24932371 7.55275404 15.24954766 C4.90844314 14.99104974 3.26720735 14.34757506 1 13 C1.804375 12.608125 2.60875 12.21625 3.4375 11.8125 C6.23064738 10.23051809 6.23064738 10.23051809 6.8125 7.3125 C6.874375 6.549375 6.93625 5.78625 7 5 C4.69 4.67 2.38 4.34 0 4 C0 2.68 0 1.36 0 0 Z " fill="#7B7B7B" transform="translate(202,64)"/>
<path d="M0 0 C0.66 0 1.32 0 2 0 C2.16528674 1.34984171 2.27987996 2.70590701 2.375 4.0625 C2.44460938 4.81660156 2.51421875 5.57070312 2.5859375 6.34765625 C1.63320956 10.66033806 -0.40097575 13.4298745 -4 16 C-8.43836008 17.04656381 -12.80100491 16.92295873 -17.3433075 16.85523987 C-18.71991921 16.85972653 -20.09652376 16.86728324 -21.47310382 16.87764019 C-25.25097085 16.89716037 -29.02749059 16.87305789 -32.80523217 16.84177744 C-36.88091068 16.81565445 -40.95647238 16.8299513 -45.03219604 16.83924866 C-53.01363852 16.85110797 -60.99455357 16.82580481 -68.97589954 16.78823508 C-78.26610013 16.74602049 -87.55620152 16.74167162 -96.84648357 16.73921572 C-113.41803412 16.73365101 -129.98934574 16.69536505 -146.56079102 16.63793945 C-162.65064905 16.58222594 -178.74037036 16.54683108 -194.83032227 16.53540039 C-195.82171924 16.53469213 -196.81311622 16.53398387 -197.83455553 16.53325415 C-199.83167113 16.53184494 -201.82878673 16.53044054 -203.82590233 16.52904099 C-204.81100214 16.52835029 -205.79610195 16.5276596 -206.81105328 16.52694798 C-207.79362513 16.52626954 -208.77619698 16.52559111 -209.78854374 16.52489213 C-225.11070774 16.51366624 -240.43284925 16.48667914 -255.75498706 16.45691963 C-260.38699695 16.44798167 -265.01900579 16.43979902 -269.65101981 16.43330884 C-279.3910954 16.41958218 -289.13109707 16.4006094 -298.87111553 16.36359514 C-302.89979336 16.34836931 -306.9284144 16.33623214 -310.9571209 16.33261871 C-314.64129994 16.3291727 -318.32532538 16.31651536 -322.00944958 16.29630875 C-323.9813096 16.28785445 -325.95320395 16.28918204 -327.92508143 16.29079729 C-329.08732511 16.2824983 -330.24956879 16.27419932 -331.44703197 16.26564884 C-332.95780702 16.26109624 -332.95780702 16.26109624 -334.49910277 16.25645167 C-337 16 -337 16 -340 14 C-339.67 13.01 -339.34 12.02 -339 11 C-338.11692736 11.48672652 -337.23385471 11.97345304 -336.32402229 12.47492886 C-330.70334028 14.85915222 -324.82254651 14.42355982 -318.81564331 14.40113831 C-317.46847465 14.40674753 -316.12131087 14.41365161 -314.77415478 14.42173427 C-311.08265386 14.44004616 -307.39135719 14.4396926 -303.69982123 14.43615115 C-299.71477618 14.43553808 -295.72979613 14.45210488 -291.74478149 14.46632385 C-283.94280997 14.49121896 -276.14090645 14.49948715 -268.33889852 14.50116099 C-261.99899507 14.50258706 -255.65911404 14.50875422 -249.31921768 14.51826286 C-231.3458574 14.54467127 -213.37255081 14.55852205 -195.39917098 14.55627144 C-194.43068186 14.55615157 -193.46219274 14.5560317 -192.46435547 14.5559082 C-191.00984994 14.55572424 -191.00984994 14.55572424 -189.52596046 14.55553656 C-173.796632 14.55431612 -158.06751862 14.58305403 -142.33825241 14.6253233 C-126.18898406 14.66837927 -110.03982074 14.68913601 -93.89049351 14.68654197 C-84.82309131 14.68554512 -75.75591485 14.69382784 -66.6885643 14.72607613 C-58.97213008 14.75334432 -51.25602402 14.75995562 -43.53956257 14.73954786 C-39.6015465 14.72972954 -35.66416064 14.72966125 -31.72620392 14.7556076 C-28.12244409 14.77910846 -24.51981743 14.77501004 -20.91608633 14.74875521 C-18.99242651 14.74193444 -17.06873243 14.76471217 -15.14520729 14.78847414 C-9.32000392 14.89144979 -9.32000392 14.89144979 -4.12108827 12.69688022 C-1.73210855 9.94190233 -0.37563052 7.26219005 -0.1875 3.625 C-0.125625 2.42875 -0.06375 1.2325 0 0 Z " fill="#E8E8E8" transform="translate(537,68)"/>
<path d="M0 0 C0.66 0.33 1.32 0.66 2 1 C1.34 1.66 0.68 2.32 0 3 C-0.46486718 6.12196336 -0.46486718 6.12196336 -0.625 9.625 C-0.69976562 10.81351563 -0.77453125 12.00203125 -0.8515625 13.2265625 C-0.90054688 14.14179687 -0.94953125 15.05703125 -1 16 C2.30042549 17.96747033 4.78163466 18.25294403 8.5990715 18.26171303 C9.74610605 18.26917852 10.8931406 18.27664401 12.07493377 18.28433573 C13.33562249 18.282401 14.59631122 18.28046626 15.89520264 18.2784729 C17.24746798 18.28347493 18.59973034 18.28935045 19.95198846 18.29602563 C23.67128098 18.31185093 27.39049801 18.3152577 31.10982013 18.31667423 C35.11935252 18.32036387 39.12884329 18.33551716 43.13835144 18.34928894 C50.08622554 18.37157932 57.03408486 18.3865819 63.981987 18.39665604 C74.0275226 18.4112321 84.07300674 18.43676589 94.11851218 18.46498732 C110.41607133 18.51047484 126.71363788 18.54708154 143.01123047 18.578125 C158.8442515 18.60830252 174.67725443 18.64264912 190.51025391 18.68261719 C191.9737989 18.68630951 191.9737989 18.68630951 193.46691045 18.69007643 C198.36161939 18.70245087 203.25632811 18.71490744 208.15103674 18.72740483 C248.76733264 18.83100197 289.38365083 18.92019554 330 19 C330 19.33 330 19.66 330 20 C288.29986025 20.06863237 246.59972701 20.12151162 204.89954199 20.15319599 C199.97900772 20.15694821 195.05847356 20.16083117 190.13793945 20.16479492 C189.15832936 20.16558185 188.17871927 20.16636878 187.16942402 20.16717956 C171.29746212 20.18024161 155.42553275 20.20389985 139.55359016 20.23145839 C123.27347939 20.25949035 106.99338568 20.27617158 90.71325177 20.28226548 C80.66355369 20.28638651 70.61394752 20.29941312 60.56427773 20.3237494 C53.67744668 20.33957933 46.7906633 20.34440659 39.90381537 20.34050413 C35.92753464 20.3385783 31.95141479 20.34157776 27.97516251 20.35761642 C24.3362669 20.37218745 20.69764075 20.37297075 17.05873289 20.36269668 C15.11586833 20.36082375 13.17300705 20.37378762 11.23018819 20.38724393 C10.0776792 20.38127078 8.92517021 20.37529764 7.7377367 20.36914349 C6.74324916 20.37028265 5.74876161 20.37142181 4.72413808 20.37259549 C1.47384267 19.92803454 -0.40962546 18.99768934 -3 17 C-3.59375 13.75 -3.59375 13.75 -3.5 10 C-3.48453125 8.14375 -3.48453125 8.14375 -3.46875 6.25 C-3 3 -3 3 -1.46875 1.0625 C-0.9840625 0.711875 -0.499375 0.36125 0 0 Z " fill="#BBBBBB" transform="translate(200,62)"/>
<path d="M0 0 C1.65 0 3.3 0 5 0 C5 1.65 5 3.3 5 5 C4.01 5.495 4.01 5.495 3 6 C3.78130071 8.49552484 3.78130071 8.49552484 5 11 C5.99 11.33 6.98 11.66 8 12 C8 12.66 8 13.32 8 14 C5.77109005 15.11445498 4.46944894 15.16480286 2 15.1875 C0.948125 15.20876953 0.948125 15.20876953 -0.125 15.23046875 C-2 15 -2 15 -4 13 C-3.01 12.34 -2.02 11.68 -1 11 C-0.41651248 8.3443272 -0.41651248 8.3443272 -0.3125 5.375 C-0.24675781 4.37210937 -0.18101562 3.36921875 -0.11328125 2.3359375 C-0.05720703 1.17964844 -0.05720703 1.17964844 0 0 Z " fill="#6F6F6F" transform="translate(522,64)"/>
<path d="M0 0 C3.3 0 6.6 0 10 0 C9.9278125 0.77085938 9.855625 1.54171875 9.78125 2.3359375 C9.6884375 3.33882813 9.595625 4.34171875 9.5 5.375 C9.4071875 6.37273437 9.314375 7.37046875 9.21875 8.3984375 C8.97207053 10.89703736 8.97207053 10.89703736 9 13 C9.66 13.33 10.32 13.66 11 14 C7.7 14 4.4 14 1 14 C3 11 3 11 6 10 C6.33 8.35 6.66 6.7 7 5 C4.69 4.67 2.38 4.34 0 4 C0 2.68 0 1.36 0 0 Z " fill="#6A6A6A" transform="translate(202,64)"/>
<path d="M0 0 C0.66 0 1.32 0 2 0 C1.67 1.65 1.34 3.3 1 5 C0.01 5.33 -0.98 5.66 -2 6 C-1.43628586 9.26954202 -0.50037734 10.82575883 2 13 C1.01 14.485 1.01 14.485 0 16 C-2.3828125 16.29296875 -2.3828125 16.29296875 -5.125 16.1875 C-6.03507813 16.16042969 -6.94515625 16.13335937 -7.8828125 16.10546875 C-8.58148437 16.07066406 -9.28015625 16.03585938 -10 16 C-10 15.67 -10 15.34 -10 15 C-6.7 14.67 -3.4 14.34 0 14 C0 13.34 0 12.68 0 12 C-0.61875 11.938125 -1.2375 11.87625 -1.875 11.8125 C-4 11 -4 11 -5.25 8.4375 C-5.4975 7.633125 -5.745 6.82875 -6 6 C-5.195625 5.7525 -4.39125 5.505 -3.5625 5.25 C-0.828919 4.27761141 -0.828919 4.27761141 -0.1875 1.875 C-0.125625 1.25625 -0.06375 0.6375 0 0 Z " fill="#8A8A8A" transform="translate(530,64)"/>
<path d="M0 0 C0.33 0.66 0.66 1.32 1 2 C0.67 2.99 0.34 3.98 0 5 C2.64 5.33 5.28 5.66 8 6 C8 6.99 8 7.98 8 9 C6.02 9.33 4.04 9.66 2 10 C1.67 11.32 1.34 12.64 1 14 C0.34 14 -0.32 14 -1 14 C-1.02685938 11.85423363 -1.04633088 9.70837355 -1.0625 7.5625 C-1.07410156 6.36753906 -1.08570313 5.17257813 -1.09765625 3.94140625 C-1 1 -1 1 0 0 Z " fill="#9D9D9D" transform="translate(200,64)"/>
<path d="M0 0 C0.33 0 0.66 0 1 0 C1 4.62 1 9.24 1 14 C0.34 13.67 -0.32 13.34 -1 13 C-1 12.34 -1 11.68 -1 11 C-1.99 10.67 -2.98 10.34 -4 10 C-4.6875 7.9375 -4.6875 7.9375 -5 6 C-4.360625 5.7525 -3.72125 5.505 -3.0625 5.25 C-0.81258459 4.18437567 -0.81258459 4.18437567 -0.25 1.875 C-0.1675 1.25625 -0.085 0.6375 0 0 Z " fill="#9F9F9F" transform="translate(532,64)"/>
<path d="M0 0 C0.98613281 0.00322266 1.97226563 0.00644531 2.98828125 0.00976562 C4.02082031 0.01814453 5.05335938 0.02652344 6.1171875 0.03515625 C7.67759766 0.04192383 7.67759766 0.04192383 9.26953125 0.04882812 C11.84380712 0.06063673 14.41796896 0.0771055 16.9921875 0.09765625 C16.9921875 0.42765625 16.9921875 0.75765625 16.9921875 1.09765625 C16.40203857 1.1227124 15.81188965 1.14776855 15.20385742 1.17358398 C12.52891936 1.28965677 9.8543237 1.41233197 7.1796875 1.53515625 C5.7865332 1.59413086 5.7865332 1.59413086 4.36523438 1.65429688 C3.0262207 1.71713867 3.0262207 1.71713867 1.66015625 1.78125 C0.42688599 1.83623657 0.42688599 1.83623657 -0.83129883 1.89233398 C-3.18686428 2.03193397 -3.18686428 2.03193397 -6.0078125 3.09765625 C-5.6778125 6.06765625 -5.3478125 9.03765625 -5.0078125 12.09765625 C-5.6678125 12.09765625 -6.3278125 12.09765625 -7.0078125 12.09765625 C-8.24981551 9.61365023 -7.99002901 8.27557989 -7.6953125 5.53515625 C-7.61667969 4.72949219 -7.53804687 3.92382812 -7.45703125 3.09375 C-7.30878906 2.43503906 -7.16054687 1.77632813 -7.0078125 1.09765625 C-4.50284246 -0.15482877 -2.79927976 -0.01608781 0 0 Z " fill="#868686" transform="translate(218.0078125,64.90234375)"/>
<path d="M0 0 C1.485 0.99 1.485 0.99 3 2 C3.36328125 4.96875 3.36328125 4.96875 3.3125 8.5 C3.30863281 9.6653125 3.30476562 10.830625 3.30078125 12.03125 C3 15 3 15 1 17 C0.67 11.39 0.34 5.78 0 0 Z " fill="#D9D9D9" transform="translate(534,61)"/>
<path d="M0 0 C1.2065625 0.0309375 1.2065625 0.0309375 2.4375 0.0625 C0.7875 1.7125 -0.8625 3.3625 -2.5625 5.0625 C0.4075 5.3925 3.3775 5.7225 6.4375 6.0625 C6.4375 6.3925 6.4375 6.7225 6.4375 7.0625 C4.95843108 7.08939216 3.47922517 7.10884621 2 7.125 C0.76443359 7.14240234 0.76443359 7.14240234 -0.49609375 7.16015625 C-2.5625 7.0625 -2.5625 7.0625 -3.5625 6.0625 C-3.6875 3.5625 -3.6875 3.5625 -3.5625 1.0625 C-2.5625 0.0625 -2.5625 0.0625 0 0 Z " fill="#8E8E8E" transform="translate(204.5625,72.9375)"/>
<path d="M0 0 C1.65 0 3.3 0 5 0 C5 1.65 5 3.3 5 5 C3.35 5 1.7 5 0 5 C0 3.35 0 1.7 0 0 Z " fill="#636363" transform="translate(522,64)"/>
</svg>
