<?xml version="1.0" encoding="UTF-8"?>

<svg version="1.1" xmlns="http://www.w3.org/2000/svg" width="1056" height="992">
<path d="M0 0 C348.48 0 696.96 0 1056 0 C1056 327.36 1056 654.72 1056 992 C707.52 992 359.04 992 0 992 C0 664.64 0 337.28 0 0 Z " fill="#F8F8F8" transform="translate(0,0)"/>
<path d="M0 0 C0.81081102 0.00262702 1.62162203 0.00525405 2.45700308 0.00796068 C3.74321309 0.00623006 3.74321309 0.00623006 5.05540713 0.00446448 C7.96491815 0.00179137 10.87437526 0.00632467 13.78388354 0.01075399 C15.87094524 0.01031704 17.95800688 0.00944099 20.04506823 0.00816 C25.82101703 0.00590418 31.5969475 0.00994786 37.37289397 0.01493578 C43.68178801 0.01928209 49.99068112 0.01784252 56.29957625 0.01711786 C67.16746625 0.01664543 78.03534945 0.01972858 88.90323779 0.02543295 C104.4751434 0.03359199 120.04704245 0.03553501 135.61895129 0.03640402 C173.07211814 0.04166104 210.52528336 0.05562206 247.97844836 0.06850851 C331.61282336 0.08913351 415.24719836 0.10975851 501.41594836 0.13100851 C501.41594836 271.06100851 501.41594836 541.99100851 501.41594836 821.13100851 C417.78157336 821.15163351 334.14719836 821.17225851 247.97844836 821.19350851 C221.51858752 821.20261251 195.05872668 821.21171652 167.79705187 821.2210964 C135.61895129 821.225613 135.61895129 821.225613 120.58060595 821.22645224 C109.32426774 821.22745003 98.06793565 821.23177368 86.81159937 821.23768194 C75.34750422 821.24361832 63.88341435 821.24577026 52.41931745 821.24445346 C46.19088586 821.24384789 39.96246559 821.24484497 33.73403605 821.25022364 C28.11343229 821.25504822 22.49284798 821.25535941 16.87224337 821.25190962 C14.82943886 821.25148193 12.78663319 821.2527812 10.743831 821.25589109 C7.98153068 821.25985259 5.2193021 821.25777306 2.45700308 821.25405634 C1.64619207 821.25668336 0.83538105 821.25931039 0 821.26201702 C-5.46990638 821.24515378 -5.46990638 821.24515378 -6.58405164 820.13100851 C-6.68231651 818.34171763 -6.70928195 816.54849583 -6.70940081 814.75650871 C-6.71190433 813.58054896 -6.71440784 812.4045892 -6.71698723 811.1929943 C-6.71464606 809.88194825 -6.71230489 808.57090219 -6.70989278 807.22012747 C-6.71093458 805.8225187 -6.71241482 804.42491021 -6.71429715 803.02730233 C-6.71822315 799.15143757 -6.71584464 795.27559743 -6.7125192 791.39973303 C-6.70999875 787.19648395 -6.71323591 782.99323884 -6.71576253 778.78999031 C-6.71938749 771.41159084 -6.71925655 764.03319868 -6.71671537 756.65479887 C-6.71294686 745.68321037 -6.71485932 734.71162809 -6.71792368 723.74003964 C-6.72320121 704.14954301 -6.72272835 684.55904964 -6.71984476 664.9685527 C-6.71733361 647.82503685 -6.71667044 630.68152219 -6.71786741 613.53800619 C-6.71794379 612.40280204 -6.71802018 611.26759789 -6.71809888 610.09799362 C-6.71841019 605.49034633 -6.71872859 600.88269904 -6.71905864 596.27505175 C-6.72212071 553.0124589 -6.71933932 509.74986814 -6.71396174 466.48727561 C-6.7092158 428.01353833 -6.70964042 389.53980436 -6.71442274 351.0660671 C-6.7197722 307.88484987 -6.72190359 264.70363447 -6.71881047 221.52241695 C-6.71848973 216.92294825 -6.71817689 212.32347954 -6.71786741 207.72401083 C-6.71778833 206.59142451 -6.71770925 205.45883819 -6.71762778 204.29193107 C-6.71648817 187.15516492 -6.71782455 170.01840009 -6.72034696 152.88163412 C-6.7231994 133.40506722 -6.72250601 113.9285041 -6.71706622 94.45193768 C-6.71411909 83.53873227 -6.7139538 72.62553503 -6.71771239 61.71232983 C-6.71994278 54.43665215 -6.71858111 47.16098107 -6.71420762 39.88530437 C-6.71181255 35.73060216 -6.71104892 31.57591626 -6.71461361 27.42121452 C-6.71781638 23.65015708 -6.71651188 19.87913056 -6.71143294 16.10807542 C-6.70993242 14.09505756 -6.71339254 12.08203793 -6.71698723 10.06902272 C-6.71448371 8.89306296 -6.71198019 7.71710321 -6.70940081 6.50550831 C-6.70933305 5.48390298 -6.70926529 4.46229765 -6.70919548 3.40973458 C-6.46443619 -1.04705211 -3.84091447 0.0118412 0 0 Z " fill="#F8F8F8" transform="translate(544.5840516425669,11.868991490453482)"/>
<path d="M0 0 C348.48 0 696.96 0 1056 0 C1056 327.36 1056 654.72 1056 992 C707.52 992 359.04 992 0 992 C0 664.64 0 337.28 0 0 Z M9 12 C8.90172701 13.79357038 8.87476968 15.59106322 8.87465084 17.38732386 C8.87214732 18.56615045 8.8696438 19.74497704 8.86706442 20.95952564 C8.86940558 22.27378039 8.87174675 23.58803514 8.87415886 24.94211578 C8.87311706 26.3431354 8.87163682 27.74415475 8.86975449 29.14517349 C8.86582848 33.03050859 8.86820701 36.91581915 8.87153245 40.80115389 C8.87405289 45.01466902 8.87081573 49.22818016 8.86828911 53.44169474 C8.86466415 60.83811896 8.8647951 68.2345359 8.86733627 75.63096046 C8.87110478 86.62935147 8.86919232 97.62773627 8.86612797 108.62612723 C8.86085043 128.2644803 8.8613233 147.90283013 8.86420688 167.54118352 C8.86671803 184.72657814 8.8673812 201.91197157 8.86618423 219.09736633 C8.86610785 220.23534317 8.86603146 221.37332002 8.86595276 222.54578101 C8.86564145 227.16468219 8.86532305 231.78358338 8.864993 236.40248456 C8.86193093 279.77075208 8.86471232 323.13901753 8.8700899 366.50728474 C8.87483584 405.07500734 8.87441123 443.64272664 8.86962891 482.21044922 C8.86427944 525.49714188 8.86214806 568.7838327 8.86524117 612.07052565 C8.86556191 616.68122832 8.86587475 621.29193099 8.86618423 625.90263367 C8.86626331 627.03798629 8.86634239 628.17333891 8.86642386 629.34309616 C8.86756347 646.52172545 8.86622709 663.70035343 8.86370468 680.87898254 C8.86085224 700.40312658 8.86154563 719.92726685 8.86698543 739.45141041 C8.86993256 750.39127723 8.87009784 761.3311359 8.86633925 772.27100252 C8.86410886 779.56445194 8.86547053 786.85789479 8.86984402 794.15134324 C8.87223909 798.31619585 8.87300271 802.4810322 8.86943804 806.64588434 C8.86623527 810.42615204 8.86753974 814.20638888 8.8726187 817.98665429 C8.87411923 820.0045946 8.8706591 822.02253669 8.86706442 824.04047436 C8.86956793 825.21930095 8.87207145 826.39812754 8.87465084 827.61267614 C8.8747186 828.63677716 8.87478635 829.66087818 8.87485617 830.71601257 C8.74332097 832.96577501 8.74332097 832.96577501 10 834 C12.71988266 834.09895956 15.41438764 834.1317584 18.13475895 834.12304783 C19.00236624 834.12420157 19.86997354 834.12535532 20.76387196 834.12654402 C23.70783944 834.12921719 26.65175362 834.1246838 29.59571838 834.12025452 C31.7074688 834.12069147 33.81921916 834.12156752 35.93096924 834.12284851 C41.77529903 834.12510435 47.6196107 834.12106062 53.46393819 834.11607273 C59.84750231 834.11172645 66.23106551 834.11316599 72.6146307 834.11389065 C83.61116723 834.11436308 94.60769779 834.11127992 105.60423279 834.10557556 C121.36046456 834.09741654 137.11668985 834.0954735 152.8729248 834.09460449 C190.76945102 834.08934746 228.66597561 834.07538644 266.5625 834.0625 C351.186875 834.041875 435.81125 834.02125 523 834 C523 562.41 523 290.82 523 11 C396.0634375 10.9690625 396.0634375 10.9690625 266.5625 10.9375 C226.40284546 10.92384399 226.40284546 10.92384399 185.43188477 10.90991211 C161.54424292 10.90656878 161.54424292 10.90656878 137.65660095 10.90455627 C126.2670074 10.90355848 114.8774199 10.89923482 103.48782826 10.89332657 C91.88803679 10.88739021 80.28824998 10.88523825 68.68845695 10.88655505 C62.38629346 10.88716062 56.08414115 10.88616351 49.78197968 10.88078487 C44.09485339 10.87596034 38.40774632 10.87564907 32.7206192 10.87909889 C30.6536238 10.87952659 28.58662724 10.87822728 26.51963413 10.87511742 C23.72465166 10.87115599 20.92974011 10.8732354 18.13475895 10.87695217 C17.31432145 10.87432515 16.49388394 10.87169812 15.6485847 10.86899149 C12.02610017 10.53846805 12.02610017 10.53846805 9 12 Z M538 13 C537.90173513 14.78929088 537.87476969 16.58251268 537.87465084 18.3744998 C537.87214732 19.55045955 537.8696438 20.72641931 537.86706442 21.93801421 C537.86940558 23.24906026 537.87174675 24.56010632 537.87415886 25.91088104 C537.87311706 27.3084898 537.87163682 28.7060983 537.86975449 30.10370618 C537.86582849 33.97957094 537.868207 37.85541108 537.87153245 41.73127548 C537.8740529 45.93452456 537.87081573 50.13776967 537.86828911 54.3410182 C537.86466415 61.71941767 537.86479509 69.09780983 537.86733627 76.47620964 C537.87110478 87.44779814 537.86919232 98.41938042 537.86612797 109.39096887 C537.86085043 128.9814655 537.8613233 148.57195887 537.86420688 168.16245581 C537.86671803 185.30597166 537.8673812 202.44948632 537.86618423 219.59300232 C537.86610785 220.72820647 537.86603146 221.86341062 537.86595276 223.03301489 C537.86564145 227.64066218 537.86532305 232.24830947 537.864993 236.85595676 C537.86193093 280.11854961 537.86471232 323.38114037 537.8700899 366.6437329 C537.87483584 405.11747018 537.87441123 443.59120415 537.86962891 482.06494141 C537.86427944 525.24615864 537.86214806 568.42737404 537.86524117 611.60859156 C537.86556191 616.20806026 537.86587475 620.80752897 537.86618423 625.40699768 C537.86626331 626.539584 537.86634239 627.67217032 537.86642386 628.83907744 C537.86756347 645.97584359 537.86622709 663.11260842 537.86370468 680.24937439 C537.86085224 699.72594129 537.86154564 719.20250441 537.86698543 738.67907083 C537.86993255 749.59227623 537.87009784 760.50547348 537.86633925 771.41867868 C537.86410886 778.69435635 537.86547053 785.97002744 537.86984402 793.24570414 C537.87223909 797.40040635 537.87300272 801.55509225 537.86943804 805.70979398 C537.86623526 809.48085143 537.86753976 813.25187795 537.8726187 817.02293309 C537.87411923 819.03595095 537.87065911 821.04897058 537.86706442 823.06198579 C537.86956793 824.23794555 537.87207145 825.4139053 537.87465084 826.6255002 C537.8747186 827.64710553 537.87478635 828.66871086 537.87485617 829.72127393 C537.74396978 831.96639251 537.74396978 831.96639251 539 833 C541.68874561 833.09894179 544.35181743 833.13176095 547.04105473 833.12304783 C547.89852806 833.12420157 548.7560014 833.12535532 549.63945877 833.12654402 C552.5489698 833.12921714 555.4584269 833.12468384 558.36793518 833.12025452 C560.45499688 833.12069147 562.54205852 833.12156752 564.62911987 833.12284851 C570.40506868 833.12510433 576.18099914 833.12106065 581.95694561 833.11607273 C588.26583966 833.11172642 594.57473276 833.11316599 600.88362789 833.11389065 C611.75151789 833.11436308 622.6194011 833.11127993 633.48728943 833.10557556 C649.05919504 833.09741652 664.63109409 833.0954735 680.20300293 833.09460449 C717.65616978 833.08934747 755.109335 833.07538645 792.5625 833.0625 C876.196875 833.041875 959.83125 833.02125 1046 833 C1046 562.07 1046 291.14 1046 12 C962.365625 11.979375 878.73125 11.95875 792.5625 11.9375 C766.10263916 11.928396 739.64277832 11.91929199 712.38110352 11.90991211 C688.77288062 11.90656878 688.77288062 11.90656878 665.16465759 11.90455627 C653.90831938 11.90355848 642.65198729 11.89923483 631.39565101 11.89332657 C619.93155586 11.88739019 608.467466 11.88523825 597.00336909 11.88655505 C590.7749375 11.88716061 584.54651724 11.88616354 578.3180877 11.88078487 C572.69748394 11.87596029 567.07689962 11.8756491 561.45629501 11.87909889 C559.41349051 11.87952658 557.37068483 11.87822731 555.32788265 11.87511742 C552.56558232 11.87115592 549.80335374 11.87323545 547.04105473 11.87695217 C546.23024371 11.87432515 545.41943269 11.87169812 544.58405164 11.86899149 C540.99554874 11.54422506 540.99554874 11.54422506 538 13 Z " fill="#F7F7F7" transform="translate(0,0)"/>
<path d="M0 0 C348.48 0 696.96 0 1056 0 C1056 279.84 1056 559.68 1056 848 C708.18 848.33 360.36 848.66 2 849 C2 847.02 2 845.04 2 843 C1.34 843 0.68 843 0 843 C0 564.81 0 286.62 0 0 Z M9 12 C8.90172701 13.79357038 8.87476968 15.59106322 8.87465084 17.38732386 C8.87214732 18.56615045 8.8696438 19.74497704 8.86706442 20.95952564 C8.86940558 22.27378039 8.87174675 23.58803514 8.87415886 24.94211578 C8.87311706 26.3431354 8.87163682 27.74415475 8.86975449 29.14517349 C8.86582848 33.03050859 8.86820701 36.91581915 8.87153245 40.80115389 C8.87405289 45.01466902 8.87081573 49.22818016 8.86828911 53.44169474 C8.86466415 60.83811896 8.8647951 68.2345359 8.86733627 75.63096046 C8.87110478 86.62935147 8.86919232 97.62773627 8.86612797 108.62612723 C8.86085043 128.2644803 8.8613233 147.90283013 8.86420688 167.54118352 C8.86671803 184.72657814 8.8673812 201.91197157 8.86618423 219.09736633 C8.86610785 220.23534317 8.86603146 221.37332002 8.86595276 222.54578101 C8.86564145 227.16468219 8.86532305 231.78358338 8.864993 236.40248456 C8.86193093 279.77075208 8.86471232 323.13901753 8.8700899 366.50728474 C8.87483584 405.07500734 8.87441123 443.64272664 8.86962891 482.21044922 C8.86427944 525.49714188 8.86214806 568.7838327 8.86524117 612.07052565 C8.86556191 616.68122832 8.86587475 621.29193099 8.86618423 625.90263367 C8.86626331 627.03798629 8.86634239 628.17333891 8.86642386 629.34309616 C8.86756347 646.52172545 8.86622709 663.70035343 8.86370468 680.87898254 C8.86085224 700.40312658 8.86154563 719.92726685 8.86698543 739.45141041 C8.86993256 750.39127723 8.87009784 761.3311359 8.86633925 772.27100252 C8.86410886 779.56445194 8.86547053 786.85789479 8.86984402 794.15134324 C8.87223909 798.31619585 8.87300271 802.4810322 8.86943804 806.64588434 C8.86623527 810.42615204 8.86753974 814.20638888 8.8726187 817.98665429 C8.87411923 820.0045946 8.8706591 822.02253669 8.86706442 824.04047436 C8.86956793 825.21930095 8.87207145 826.39812754 8.87465084 827.61267614 C8.8747186 828.63677716 8.87478635 829.66087818 8.87485617 830.71601257 C8.74332097 832.96577501 8.74332097 832.96577501 10 834 C12.71988266 834.09895956 15.41438764 834.1317584 18.13475895 834.12304783 C19.00236624 834.12420157 19.86997354 834.12535532 20.76387196 834.12654402 C23.70783944 834.12921719 26.65175362 834.1246838 29.59571838 834.12025452 C31.7074688 834.12069147 33.81921916 834.12156752 35.93096924 834.12284851 C41.77529903 834.12510435 47.6196107 834.12106062 53.46393819 834.11607273 C59.84750231 834.11172645 66.23106551 834.11316599 72.6146307 834.11389065 C83.61116723 834.11436308 94.60769779 834.11127992 105.60423279 834.10557556 C121.36046456 834.09741654 137.11668985 834.0954735 152.8729248 834.09460449 C190.76945102 834.08934746 228.66597561 834.07538644 266.5625 834.0625 C351.186875 834.041875 435.81125 834.02125 523 834 C523 562.41 523 290.82 523 11 C396.0634375 10.9690625 396.0634375 10.9690625 266.5625 10.9375 C226.40284546 10.92384399 226.40284546 10.92384399 185.43188477 10.90991211 C161.54424292 10.90656878 161.54424292 10.90656878 137.65660095 10.90455627 C126.2670074 10.90355848 114.8774199 10.89923482 103.48782826 10.89332657 C91.88803679 10.88739021 80.28824998 10.88523825 68.68845695 10.88655505 C62.38629346 10.88716062 56.08414115 10.88616351 49.78197968 10.88078487 C44.09485339 10.87596034 38.40774632 10.87564907 32.7206192 10.87909889 C30.6536238 10.87952659 28.58662724 10.87822728 26.51963413 10.87511742 C23.72465166 10.87115599 20.92974011 10.8732354 18.13475895 10.87695217 C17.31432145 10.87432515 16.49388394 10.87169812 15.6485847 10.86899149 C12.02610017 10.53846805 12.02610017 10.53846805 9 12 Z M538 13 C537.90173513 14.78929088 537.87476969 16.58251268 537.87465084 18.3744998 C537.87214732 19.55045955 537.8696438 20.72641931 537.86706442 21.93801421 C537.86940558 23.24906026 537.87174675 24.56010632 537.87415886 25.91088104 C537.87311706 27.3084898 537.87163682 28.7060983 537.86975449 30.10370618 C537.86582849 33.97957094 537.868207 37.85541108 537.87153245 41.73127548 C537.8740529 45.93452456 537.87081573 50.13776967 537.86828911 54.3410182 C537.86466415 61.71941767 537.86479509 69.09780983 537.86733627 76.47620964 C537.87110478 87.44779814 537.86919232 98.41938042 537.86612797 109.39096887 C537.86085043 128.9814655 537.8613233 148.57195887 537.86420688 168.16245581 C537.86671803 185.30597166 537.8673812 202.44948632 537.86618423 219.59300232 C537.86610785 220.72820647 537.86603146 221.86341062 537.86595276 223.03301489 C537.86564145 227.64066218 537.86532305 232.24830947 537.864993 236.85595676 C537.86193093 280.11854961 537.86471232 323.38114037 537.8700899 366.6437329 C537.87483584 405.11747018 537.87441123 443.59120415 537.86962891 482.06494141 C537.86427944 525.24615864 537.86214806 568.42737404 537.86524117 611.60859156 C537.86556191 616.20806026 537.86587475 620.80752897 537.86618423 625.40699768 C537.86626331 626.539584 537.86634239 627.67217032 537.86642386 628.83907744 C537.86756347 645.97584359 537.86622709 663.11260842 537.86370468 680.24937439 C537.86085224 699.72594129 537.86154564 719.20250441 537.86698543 738.67907083 C537.86993255 749.59227623 537.87009784 760.50547348 537.86633925 771.41867868 C537.86410886 778.69435635 537.86547053 785.97002744 537.86984402 793.24570414 C537.87223909 797.40040635 537.87300272 801.55509225 537.86943804 805.70979398 C537.86623526 809.48085143 537.86753976 813.25187795 537.8726187 817.02293309 C537.87411923 819.03595095 537.87065911 821.04897058 537.86706442 823.06198579 C537.86956793 824.23794555 537.87207145 825.4139053 537.87465084 826.6255002 C537.8747186 827.64710553 537.87478635 828.66871086 537.87485617 829.72127393 C537.74396978 831.96639251 537.74396978 831.96639251 539 833 C541.68874561 833.09894179 544.35181743 833.13176095 547.04105473 833.12304783 C547.89852806 833.12420157 548.7560014 833.12535532 549.63945877 833.12654402 C552.5489698 833.12921714 555.4584269 833.12468384 558.36793518 833.12025452 C560.45499688 833.12069147 562.54205852 833.12156752 564.62911987 833.12284851 C570.40506868 833.12510433 576.18099914 833.12106065 581.95694561 833.11607273 C588.26583966 833.11172642 594.57473276 833.11316599 600.88362789 833.11389065 C611.75151789 833.11436308 622.6194011 833.11127993 633.48728943 833.10557556 C649.05919504 833.09741652 664.63109409 833.0954735 680.20300293 833.09460449 C717.65616978 833.08934747 755.109335 833.07538645 792.5625 833.0625 C876.196875 833.041875 959.83125 833.02125 1046 833 C1046 562.07 1046 291.14 1046 12 C962.365625 11.979375 878.73125 11.95875 792.5625 11.9375 C766.10263916 11.928396 739.64277832 11.91929199 712.38110352 11.90991211 C688.77288062 11.90656878 688.77288062 11.90656878 665.16465759 11.90455627 C653.90831938 11.90355848 642.65198729 11.89923483 631.39565101 11.89332657 C619.93155586 11.88739019 608.467466 11.88523825 597.00336909 11.88655505 C590.7749375 11.88716061 584.54651724 11.88616354 578.3180877 11.88078487 C572.69748394 11.87596029 567.07689962 11.8756491 561.45629501 11.87909889 C559.41349051 11.87952658 557.37068483 11.87822731 555.32788265 11.87511742 C552.56558232 11.87115592 549.80335374 11.87323545 547.04105473 11.87695217 C546.23024371 11.87432515 545.41943269 11.87169812 544.58405164 11.86899149 C540.99554874 11.54422506 540.99554874 11.54422506 538 13 Z " fill="#050505" transform="translate(0,0)"/>
<path d="M0 0 C348.48 0 696.96 0 1056 0 C1056 3.96 1056 7.92 1056 12 C707.52 12 359.04 12 0 12 C0 8.04 0 4.08 0 0 Z " fill="#080808" transform="translate(0,980)"/>
<path d="M0 0 C0.74677383 -0.00224729 1.49354765 -0.00449459 2.26295099 -0.00680998 C3.06277807 -0.00418297 3.86260515 -0.00155595 4.68666941 0.00115067 C5.5558169 -0.00000318 6.42496439 -0.00115702 7.32044968 -0.00234583 C10.23492894 -0.00499422 13.14935305 -0.00050496 16.06382948 0.00394398 C18.17351919 0.00350792 20.28320884 0.00263236 22.3928982 0.00135481 C28.1918923 -0.00088321 33.99086796 0.00312171 39.78985971 0.00813287 C46.04269216 0.01244709 52.29552355 0.01099026 58.54835707 0.0102306 C69.38241002 0.00970598 80.21645555 0.01281142 91.05050665 0.01846844 C102.41281799 0.02438608 113.77512692 0.02823451 125.13743979 0.02932125 C126.19727331 0.02942436 126.19727331 0.02942436 127.27851761 0.02952956 C130.8667778 0.02986789 134.45503799 0.03016927 138.04329819 0.03045643 C163.45688696 0.03255667 188.87047259 0.03929355 214.28405958 0.04875904 C238.97253598 0.05794385 263.66101151 0.06502728 288.34948927 0.06926686 C289.1105371 0.06939838 289.87158494 0.06952991 290.65569482 0.06966542 C298.29847144 0.07098394 305.94124806 0.07225976 313.58402469 0.07350428 C329.15314953 0.07604047 344.72227431 0.07886172 360.29139906 0.08185536 C361.00723738 0.08199265 361.7230757 0.08212994 362.4606061 0.08227139 C410.26056393 0.09147157 458.06051992 0.10733752 505.8604756 0.1241985 C505.87760595 78.47702695 505.89350668 156.82985562 505.90281874 235.18268543 C505.9029568 236.34135164 505.90309485 237.50001784 505.90323709 238.69379514 C505.90622963 263.87151652 505.90899987 289.04923792 505.91154093 314.22695934 C505.91278832 326.57315821 505.91408487 338.91935706 505.91540724 351.26555592 C505.91560338 353.10850082 505.91560338 353.10850082 505.91580348 354.98867693 C505.92006886 394.85017527 505.92758318 434.71167219 505.93677282 474.57316967 C505.9461951 515.51789903 505.95235864 556.4626276 505.95439059 597.40735803 C505.95467877 603.1834759 505.9550044 608.95959377 505.95535284 614.73571163 C505.95542027 615.87259391 505.95548769 617.00947618 505.95555715 618.18080943 C505.95674131 636.52064175 505.96138593 654.86047165 505.96730763 673.20030298 C505.97318005 691.61429099 505.97544731 710.02827659 505.97397698 728.4422655 C505.97321333 739.39768036 505.97527136 750.35308645 505.98127314 761.30849973 C505.985003 768.61234732 505.9851535 775.91618914 505.98230741 783.22003712 C505.9807872 787.39084728 505.98090469 791.5616408 505.98535878 795.73244923 C505.9893712 799.51813362 505.9888791 803.30378819 505.98461558 807.08947206 C505.98355152 809.1103124 505.9874505 811.13115343 505.99148408 813.15199003 C505.98923678 814.33250626 505.98698949 815.51302249 505.9846741 816.72931194 C505.98483008 817.75488455 505.98498606 818.78045715 505.98514676 819.83710771 C505.8604756 822.1241985 505.8604756 822.1241985 504.8604756 823.1241985 C502.12502357 823.22316682 499.4148037 823.25595565 496.67886454 823.24724633 C495.80619026 823.24840007 494.93351599 823.24955381 494.03439704 823.25074252 C491.07320134 823.25341571 488.11205862 823.24888228 485.15086561 823.24445301 C483.02677084 823.24488997 480.90267611 823.24576601 478.77858168 823.24704701 C472.90006139 823.24930286 467.02155912 823.24525911 461.14304112 823.24027123 C454.72214196 823.23592496 448.30124372 823.23736448 441.8803435 823.23808914 C430.81948356 823.23856158 419.75862954 823.2354784 408.69777113 823.22977406 C392.84937628 823.22161505 377.00098788 823.219672 361.15258986 823.21880299 C323.03438397 823.21354595 284.91617968 823.19958494 246.7979756 823.1866985 C119.1189131 823.155761 119.1189131 823.155761 -11.1395244 823.1241985 C-11.1395244 551.8641985 -11.1395244 280.6041985 -11.1395244 1.1241985 C-3.2645244 -0.0008015 -3.2645244 -0.0008015 0 0 Z M-3.1395244 2.1241985 C-3.23778927 3.91348937 -3.26475471 5.70671118 -3.26487356 7.49869829 C-3.26737708 8.67465805 -3.2698806 9.85061781 -3.27245998 11.06221271 C-3.27011882 12.37325876 -3.26777765 13.68430482 -3.26536554 15.03507954 C-3.26640734 16.4326883 -3.26788758 17.83029679 -3.26976991 19.22790468 C-3.27369591 23.10376943 -3.2713174 26.97960958 -3.26799195 30.85547397 C-3.2654715 35.05872306 -3.26870867 39.26196816 -3.27123529 43.4652167 C-3.27486025 50.84361616 -3.27472931 58.22200833 -3.27218813 65.60040814 C-3.26841962 76.57199663 -3.27033208 87.54357892 -3.27339643 98.51516737 C-3.27867397 118.105664 -3.2782011 137.69615737 -3.27531752 157.28665431 C-3.27280637 174.43017016 -3.2721432 191.57368482 -3.27334017 208.71720082 C-3.27341655 209.85240496 -3.27349294 210.98760911 -3.27357164 212.15721339 C-3.27388295 216.76486068 -3.27420135 221.37250797 -3.2745314 225.98015526 C-3.27759347 269.2427481 -3.27481208 312.50533887 -3.2694345 355.76793139 C-3.26468856 394.24166868 -3.26511317 432.71540265 -3.26989549 471.1891399 C-3.27524496 514.37035714 -3.27737634 557.55157253 -3.27428323 600.73279005 C-3.27396249 605.33225876 -3.27364965 609.93172747 -3.27334017 614.53119618 C-3.27326109 615.6637825 -3.27318201 616.79636882 -3.27310054 617.96327594 C-3.27196093 635.10004209 -3.27329731 652.23680692 -3.27581972 669.37357289 C-3.27867216 688.85013978 -3.27797876 708.3267029 -3.27253897 727.80326933 C-3.26959185 738.71647473 -3.26942656 749.62967197 -3.27318515 760.54287717 C-3.27541554 767.81855485 -3.27405387 775.09422594 -3.26968038 782.36990263 C-3.26728531 786.52460484 -3.26652168 790.67929075 -3.27008636 794.83399248 C-3.27328914 798.60504993 -3.27198464 802.37607644 -3.2669057 806.14713158 C-3.26540517 808.16014944 -3.26886529 810.17316908 -3.27245998 812.18618429 C-3.26995647 813.36214404 -3.26745295 814.5381038 -3.26487356 815.7496987 C-3.26480581 816.77130403 -3.26473805 817.79290936 -3.26466823 818.84547243 C-3.39555462 821.090591 -3.39555462 821.090591 -2.1395244 822.1241985 C0.54922121 822.22314028 3.21229303 822.25595944 5.90153033 822.24724633 C6.75900366 822.24840007 7.616477 822.24955381 8.49993437 822.25074252 C11.4094454 822.25341564 14.3189025 822.24888234 17.22841078 822.24445301 C19.31547248 822.24488997 21.40253412 822.24576602 23.48959547 822.24704701 C29.26554428 822.24930283 35.04147474 822.24525915 40.81742121 822.24027123 C47.12631525 822.23592492 53.43520836 822.23736449 59.74410349 822.23808914 C70.61199349 822.23856157 81.4798767 822.23547843 92.34776503 822.22977406 C107.91967064 822.22161501 123.49156969 822.219672 139.06347853 822.21880299 C176.51664538 822.21354596 213.9698106 822.19958495 251.4229756 822.1866985 C335.0573506 822.1660735 418.6917256 822.1454485 504.8604756 822.1241985 C504.8604756 551.1941985 504.8604756 280.2641985 504.8604756 1.1241985 C421.2261006 1.1035735 337.5917256 1.0829485 251.4229756 1.0616985 C224.96311476 1.05259449 198.50325392 1.04349049 171.24157912 1.03411061 C147.63335622 1.03076728 147.63335622 1.03076728 124.02513319 1.02875477 C112.76879498 1.02775698 101.51246289 1.02343333 90.25612661 1.01752507 C78.79203146 1.01158868 67.3279416 1.00943675 55.86384469 1.01075355 C49.6354131 1.01135911 43.40699283 1.01036204 37.1785633 1.00498337 C31.55795954 1.00015879 25.93737522 0.9998476 20.31677061 1.00329739 C18.2739661 1.00372508 16.23116043 1.0024258 14.18835825 0.99931592 C11.42605792 0.99535441 8.66382934 0.99743395 5.90153033 1.00115067 C5.09071931 0.99852364 4.27990829 0.99589662 3.44452724 0.99318999 C-0.14397566 0.66842356 -0.14397566 0.66842356 -3.1395244 2.1241985 Z " fill="#747474" transform="translate(541.1395244002342,10.875801503658295)"/>
<path d="M0 0 C0.8204375 0.00262702 1.64087501 0.00525405 2.48617425 0.00796068 C3.78758519 0.00623006 3.78758519 0.00623006 5.11528727 0.00446448 C8.05925474 0.00179132 11.00316892 0.00632471 13.94713369 0.01075399 C16.0588841 0.01031704 18.17063447 0.00944099 20.28238454 0.00816 C26.12671434 0.00590416 31.971026 0.00994788 37.81535349 0.01493578 C44.19891761 0.01928206 50.58248081 0.01784252 56.966046 0.01711786 C67.96258253 0.01664543 78.9591131 0.01972859 89.95564809 0.02543295 C105.71187987 0.03359197 121.46810515 0.03553501 137.22434011 0.03640402 C175.12086632 0.04166105 213.01739092 0.05562207 250.9139153 0.06850851 C377.8504778 0.09944601 377.8504778 0.09944601 507.3514153 0.13100851 C507.3514153 271.72100851 507.3514153 543.31100851 507.3514153 823.13100851 C422.7270403 823.15163351 338.1026653 823.17225851 250.9139153 823.19350851 C224.14081228 823.20261251 197.36770925 823.21171652 169.78330007 823.2210964 C137.22434011 823.225613 137.22434011 823.225613 122.00801625 823.22645224 C110.6184227 823.22745003 99.22883521 823.23177369 87.83924356 823.23768194 C76.23945209 823.2436183 64.63966529 823.24577026 53.03987225 823.24445346 C46.73770876 823.24384789 40.43555645 823.244845 34.13339498 823.25022364 C28.4462687 823.25504817 22.75916163 823.25535944 17.0720345 823.25190962 C15.0050391 823.25148192 12.93804254 823.25278123 10.87104943 823.25589109 C8.07606697 823.25985252 5.28115542 823.25777311 2.48617425 823.25405634 C1.66573675 823.25668336 0.84529925 823.25931039 0 823.26201702 C-5.53443943 823.24515378 -5.53443943 823.24515378 -6.6485847 822.13100851 C-6.74685769 820.33743812 -6.77381501 818.53994529 -6.77393386 816.74368465 C-6.77643738 815.56485806 -6.7789409 814.38603147 -6.78152028 813.17148286 C-6.77917911 811.85722812 -6.77683795 810.54297337 -6.77442584 809.18889273 C-6.77546763 807.78787311 -6.77694787 806.38685376 -6.7788302 804.98583502 C-6.78275622 801.10049992 -6.78037769 797.21518936 -6.77705225 793.32985462 C-6.77453181 789.11633949 -6.77776896 784.90282835 -6.78029558 780.68931377 C-6.78392055 773.29288955 -6.7837896 765.89647261 -6.78124842 758.50004805 C-6.77747992 747.50165704 -6.77939237 736.50327224 -6.78245673 725.50488128 C-6.78773427 705.86652821 -6.7872614 686.22817838 -6.78437782 666.58982499 C-6.78186667 649.40443037 -6.7812035 632.21903694 -6.78240046 615.03364218 C-6.78247685 613.89566533 -6.78255323 612.75768849 -6.78263193 611.5852275 C-6.78294325 606.96632632 -6.78326165 602.34742513 -6.7835917 597.72852395 C-6.78665376 554.36025643 -6.78387238 510.99199097 -6.7784948 467.62372377 C-6.77374886 429.05600117 -6.77417347 390.48828187 -6.77895579 351.92055929 C-6.78430526 308.63386663 -6.78643664 265.34717581 -6.78334353 222.06048286 C-6.78302279 217.44978019 -6.78270995 212.83907752 -6.78240046 208.22837484 C-6.78232139 207.09302222 -6.78224231 205.9576696 -6.78216083 204.78791235 C-6.78102122 187.60928306 -6.78235761 170.43065508 -6.78488002 153.25202597 C-6.78773245 133.72788193 -6.78703906 114.20374166 -6.78159927 94.6795981 C-6.77865214 83.73973128 -6.77848686 72.79987261 -6.78224545 61.86000599 C-6.78447583 54.56655657 -6.78311417 47.27311372 -6.77874068 39.97966527 C-6.7763456 35.81481266 -6.77558198 31.64997631 -6.77914666 27.48512417 C-6.78234943 23.70485647 -6.78104495 19.92461962 -6.775966 16.14435422 C-6.77446546 14.12641391 -6.7779256 12.10847182 -6.78152028 10.09053415 C-6.77901676 8.91170756 -6.77651324 7.73288097 -6.77393386 6.51833237 C-6.7738661 5.49423135 -6.77379834 4.47013033 -6.77372853 3.41499594 C-6.52803932 -1.06905304 -3.85872353 0.0117574 0 0 Z M-2.6485847 4.13100851 C-3.10208812 6.63360854 -3.10208812 6.63360854 -3.02118019 9.61803341 C-3.02792207 10.79362985 -3.03466395 11.96922629 -3.04161013 13.18044687 C-3.03372908 14.48594306 -3.02584804 15.79143926 -3.01772818 17.13649595 C-3.01994512 18.53216422 -3.02347875 19.92783091 -3.02821768 21.32349289 C-3.03747553 25.18937025 -3.02785786 29.05501313 -3.01538328 32.92087313 C-3.00512383 37.11494254 -3.01218478 41.30898699 -3.01711575 45.50306106 C-3.02335248 52.86377804 -3.01837933 60.22442247 -3.00620112 67.58513105 C-2.98814254 78.53032901 -2.98718937 89.47548093 -2.98982709 100.42069106 C-2.99377477 118.82965378 -2.98372193 137.23858426 -2.96577487 155.64753759 C-2.94804254 173.88284754 -2.93648082 192.11814407 -2.93321643 210.35346258 C-2.93301021 211.48597042 -2.93280399 212.61847826 -2.93259152 213.78530452 C-2.93157656 219.53640328 -2.9306724 225.28750206 -2.92981089 231.03860085 C-2.92350448 271.80639172 -2.90327797 312.57416503 -2.87490306 353.34194601 C-2.84736368 392.95490081 -2.82615674 432.56785077 -2.81337962 472.1808132 C-2.81256769 474.67047378 -2.81175558 477.16013436 -2.81094328 479.64979494 C-2.80437726 499.87832411 -2.79824941 520.10685342 -2.79222783 540.33538276 C-2.76404949 633.9339413 -2.70384251 727.53245407 -2.6485847 821.13100851 C165.3214153 821.13100851 333.2914153 821.13100851 506.3514153 821.13100851 C506.3514153 550.86100851 506.3514153 280.59100851 506.3514153 2.13100851 C422.9232903 2.08975851 339.4951653 2.04850851 253.5389153 2.00600851 C227.1494695 1.9878005 200.7600237 1.96959249 173.57089772 1.95083273 C150.01460068 1.94414586 150.01460068 1.94414586 126.45830312 1.94012106 C115.2316525 1.93812644 104.00502649 1.92948274 92.77838363 1.91766165 C81.34141537 1.90578123 69.9044683 1.90148666 58.46749298 1.90411861 C52.25518342 1.90532876 46.04291926 1.9033476 39.83061793 1.89257825 C34.22220662 1.88291436 28.61387323 1.88231655 23.0054585 1.88920629 C20.96933896 1.8900602 18.93321472 1.88747403 16.89710453 1.88124335 C14.13895558 1.87329375 11.38109226 1.87749594 8.62294831 1.88491285 C7.81899576 1.8796588 7.01504321 1.87440475 6.18672846 1.86899149 C2.37020487 1.8924251 0.60578141 1.96143111 -2.6485847 4.13100851 Z " fill="#C9C9C9" transform="translate(15.648584697395563,10.868991490453482)"/>
<path d="M0 0 C0.81637092 -0.00322445 1.63274183 -0.00644889 2.47385126 -0.00977105 C3.37033945 -0.00822245 4.26682764 -0.00667385 5.19048214 -0.00507832 C6.14310198 -0.00734387 7.09572183 -0.00960943 8.07720894 -0.01194364 C11.28318665 -0.01829588 14.48912222 -0.0174535 17.69510555 -0.01662922 C19.98784089 -0.01961989 22.28057573 -0.0230222 24.5733099 -0.02680683 C30.81067361 -0.03565894 37.04802361 -0.03798541 43.285393 -0.03862262 C48.4846632 -0.03957051 53.68393019 -0.0432473 58.88319916 -0.04679471 C70.44217569 -0.05447758 82.00114438 -0.05746291 93.56012309 -0.05678936 C94.60074556 -0.05672943 94.60074556 -0.05672943 95.66239071 -0.05666828 C96.70427888 -0.05660696 96.70427888 -0.05660696 97.7672153 -0.0565444 C109.03361014 -0.05613762 120.29997161 -0.06571524 131.56635679 -0.07980665 C143.12649196 -0.09415179 154.68660652 -0.10089452 166.24675125 -0.10021287 C172.74024316 -0.09995721 179.2336973 -0.10284576 185.72718143 -0.11339092 C191.8297196 -0.12303046 197.93218354 -0.12317975 204.03472424 -0.11587429 C206.28018012 -0.11482337 208.52564052 -0.11722113 210.7710886 -0.12323475 C213.82471239 -0.1308861 216.8780754 -0.1263558 219.93169308 -0.11860371 C221.27977144 -0.12631905 221.27977144 -0.12631905 222.65508372 -0.13419026 C228.7693243 -0.09963703 228.7693243 -0.09963703 230.99759579 2.12863445 C231.19290829 4.51144695 231.19290829 4.51144695 231.12259579 7.25363445 C231.10454891 8.16371258 231.08650204 9.0737907 231.06790829 10.01144695 C231.04470516 10.71011883 231.02150204 11.4087907 230.99759579 12.12863445 C230.33759579 12.12863445 229.67759579 12.12863445 228.99759579 12.12863445 C228.99759579 12.78863445 228.99759579 13.44863445 228.99759579 14.12863445 C199.23845277 14.17423217 169.47931093 14.2096396 139.72014053 14.23076511 C136.20902855 14.23326661 132.69791664 14.23585525 129.18680477 14.23849773 C128.48778785 14.23902235 127.78877092 14.23954698 127.06857166 14.24008749 C115.74123326 14.24879674 104.41391509 14.26456957 93.0865887 14.28294004 C81.46891756 14.30162465 69.85125824 14.31259836 58.23357278 14.31681144 C51.70590561 14.31942449 45.17828439 14.32558884 38.6506319 14.34009457 C32.51202294 14.35362579 26.37347906 14.35786616 20.23485661 14.35484982 C17.97692035 14.35540198 15.71898202 14.35940586 13.46105862 14.3670454 C10.38792608 14.37693686 7.31504207 14.3746246 4.24190426 14.36914349 C2.88928919 14.37788201 2.88928919 14.37788201 1.50934857 14.38679707 C0.27771701 14.38082393 0.27771701 14.38082393 -0.97879601 14.37473011 C-2.04334195 14.37586927 -2.04334195 14.37586927 -3.12939388 14.37703145 C-5.00240421 14.12863445 -5.00240421 14.12863445 -8.00240421 12.12863445 C-8.33052921 10.03488445 -8.33052921 10.03488445 -8.25240421 7.62863445 C-8.23693546 6.83457195 -8.22146671 6.04050945 -8.20552921 5.22238445 C-8.00240421 3.12863445 -8.00240421 3.12863445 -7.00240421 1.12863445 C-4.30338979 0.22896298 -2.76692219 0.00276241 0 0 Z " fill="#929292" transform="translate(149.00240421295166,45.871365547180176)"/>
<path d="M0 0 C0.9567034 -0.00482883 1.91340679 -0.00965766 2.8991012 -0.01463282 C6.11916029 -0.02594464 9.33843244 -0.00855348 12.55845642 0.00863647 C14.86104549 0.00649164 17.1636335 0.00261549 19.46621704 -0.00286865 C25.73054277 -0.01258418 31.99458468 0.00276857 38.25887609 0.02303743 C44.80294185 0.04056657 51.34699831 0.03708418 57.89108276 0.03631592 C68.88116587 0.03748111 79.87114413 0.05546958 90.8611908 0.08285522 C102.17664082 0.11103725 113.49199426 0.12519652 124.80747986 0.12387085 C125.50451785 0.12379094 126.20155584 0.12371102 126.91971619 0.12362869 C127.61553196 0.12354798 128.31134774 0.12346727 129.02824885 0.12338412 C141.24739119 0.12207534 153.46649018 0.13236115 165.68562126 0.14896774 C170.89493048 0.15604507 176.10422571 0.1596959 181.31353951 0.16075516 C187.44236388 0.16275834 193.57108609 0.17492122 199.69987679 0.19508743 C201.95500056 0.2009489 204.21013609 0.20338586 206.46526718 0.20223236 C209.53204924 0.20125698 212.59854137 0.21250244 215.6652832 0.22705078 C217.01919799 0.22240498 217.01919799 0.22240498 218.40046459 0.21766531 C224.5407921 0.26611864 224.5407921 0.26611864 226.76914978 2.49447632 C227.06993103 4.55307007 227.06993103 4.55307007 227.08164978 6.93197632 C227.09840759 7.71443726 227.11516541 8.49689819 227.13243103 9.30307007 C226.67756376 12.04694681 225.91519916 12.77165337 223.76914978 14.49447632 C221.90600348 14.87052381 221.90600348 14.87052381 219.76953888 14.87199974 C218.95378466 14.87982298 218.13803044 14.88764622 217.2975564 14.89570653 C216.40175033 14.88901437 215.50594426 14.8823222 214.58299255 14.87542725 C213.63107828 14.88010722 212.679164 14.88478719 211.69840384 14.88960898 C208.49463239 14.9016171 205.29128411 14.89207897 202.08750916 14.88265991 C199.79639434 14.88672302 197.50528148 14.89206343 195.21417236 14.89859009 C188.98082769 14.91230042 182.7476315 14.90694968 176.51428413 14.89745283 C170.00137548 14.88987548 163.48847982 14.89689648 156.97557068 14.90161133 C145.33543982 14.90742477 133.69537694 14.8980819 122.05525678 14.88283332 C111.4964753 14.86942963 100.93779276 14.87175758 90.37901306 14.8855896 C78.12401624 14.9016361 65.86908991 14.9076245 53.61408281 14.89875281 C47.12446243 14.89406749 40.63491024 14.89347499 34.14529419 14.90336227 C28.04516987 14.91200638 21.94523301 14.9060568 15.84512901 14.8886795 C13.60171 14.88470098 11.35827529 14.88587189 9.11486244 14.8924675 C6.06146178 14.90061913 3.00866856 14.89043873 -0.04469299 14.87542725 C-0.94049906 14.88211941 -1.83630513 14.88881158 -2.75925684 14.89570653 C-3.57501106 14.88788329 -4.39076528 14.88006005 -5.23123932 14.87199974 C-5.93627264 14.87151268 -6.64130595 14.87102563 -7.36770391 14.87052381 C-9.84085275 14.37135667 -10.72599711 13.49302907 -12.23085022 11.49447632 C-12.60778629 8.03922898 -12.67297391 5.51826466 -11.28434086 2.30272484 C-7.93447332 -0.64707825 -4.31402342 -0.04928913 0 0 Z " fill="#8E8E8E" transform="translate(681.2308502197266,45.505523681640625)"/>
<path d="M0 0 C1.2306033 0.00394052 1.2306033 0.00394052 2.48606727 0.00796065 C3.78700158 0.00622988 3.78700158 0.00622988 5.1142174 0.00446415 C8.05850582 0.00178973 11.00274098 0.00632639 13.9470267 0.01075396 C16.06391247 0.01031843 18.18079819 0.00944385 20.29768363 0.00816479 C26.14443845 0.00591632 31.99117515 0.0099459 37.83792767 0.01494285 C44.13176575 0.01924215 50.42560272 0.0178013 56.71944186 0.01704058 C67.63381299 0.01651501 78.54817731 0.0196305 89.4625468 0.02527842 C100.91354984 0.03118889 112.36455051 0.03504304 123.81555507 0.03613123 C124.8822458 0.03623434 124.8822458 0.03623434 125.97048585 0.03633953 C129.58171993 0.03667785 133.19295401 0.03697924 136.8041881 0.03726641 C162.40412497 0.03936863 188.00405874 0.04611104 213.60399386 0.05556902 C238.47899369 0.06474859 263.35399268 0.07183459 288.22899386 0.07607684 C288.99531302 0.07620836 289.76163218 0.07633989 290.55117313 0.0764754 C298.24663766 0.07779388 305.9421022 0.0790697 313.63756675 0.08031426 C329.31509145 0.08285069 344.99261609 0.08567195 360.67014071 0.08866534 C361.39101924 0.08880263 362.11189777 0.08893992 362.8546211 0.08908137 C411.02018483 0.09828706 459.18574672 0.1141536 507.35130832 0.13100848 C507.35130832 0.46100848 507.35130832 0.79100848 507.35130832 1.13100848 C254.40630832 1.62600848 254.40630832 1.62600848 -3.64869168 2.13100848 C-3.64869168 272.40100848 -3.64869168 542.67100848 -3.64869168 821.13100848 C249.29630832 821.62600848 249.29630832 821.62600848 507.35130832 822.13100848 C507.35130832 822.46100848 507.35130832 822.79100848 507.35130832 823.13100848 C458.45758657 823.14811816 409.56386462 823.1640399 360.67014071 823.17335162 C359.94708341 823.17348967 359.22402611 823.17362773 358.47905798 823.17376997 C342.76699502 823.17676252 327.05493203 823.17953276 311.34286899 823.18207381 C303.63824394 823.1833212 295.9336189 823.18461774 288.22899386 823.18594012 C287.07890855 823.18613626 287.07890855 823.18613626 285.90558919 823.18633636 C261.03114951 823.19060157 236.1567121 823.19811575 211.2822738 823.2073057 C185.73138396 823.21672847 160.18049536 823.22289164 134.62960381 823.22492347 C131.02492089 823.22521164 127.42023798 823.22553728 123.81555507 823.22588572 C123.10606629 823.22595314 122.39657752 823.22602057 121.66558909 823.22609003 C110.22139859 823.22727408 98.77721195 823.23191842 87.33302303 823.23784051 C75.84191641 823.24371362 64.35081515 823.24589876 52.8597068 823.24450985 C46.62783345 823.24386613 40.39597149 823.24488785 34.16410014 823.25021395 C28.46905687 823.25504601 22.77403275 823.25534841 17.07898863 823.25190737 C15.0089976 823.25148149 12.93900542 823.25277884 10.86901668 823.25589166 C8.07467613 823.2598524 5.28040652 823.2577739 2.48606727 823.2540563 C1.66566507 823.25668332 0.84526287 823.25931033 0 823.26201695 C-5.53454589 823.24515427 -5.53454589 823.24515427 -6.64869168 822.13100848 C-6.74696467 820.33743809 -6.773922 818.53994526 -6.77404085 816.74368462 C-6.77654437 815.56485803 -6.77904788 814.38603144 -6.78162727 813.17148283 C-6.7792861 811.85722809 -6.77694494 810.54297334 -6.77453282 809.18889269 C-6.77557462 807.78787307 -6.77705486 806.38685373 -6.77893719 804.98583499 C-6.7828632 801.10049988 -6.78048468 797.21518933 -6.77715924 793.32985459 C-6.77463879 789.11633946 -6.77787595 784.90282831 -6.78040257 780.68931374 C-6.78402753 773.29288952 -6.78389659 765.89647258 -6.78135541 758.50004801 C-6.7775869 747.50165701 -6.77949936 736.5032722 -6.78256372 725.50488125 C-6.78784126 705.86652817 -6.78736839 686.22817835 -6.78448481 666.58982496 C-6.78197366 649.40443034 -6.78131049 632.21903691 -6.78250745 615.03364214 C-6.78258383 613.8956653 -6.78266022 612.75768846 -6.78273892 611.58522747 C-6.78305024 606.96632629 -6.78336863 602.3474251 -6.78369868 597.72852392 C-6.78676075 554.36025639 -6.78397937 510.99199094 -6.77860179 467.62372374 C-6.77385584 429.05600113 -6.77428046 390.48828183 -6.77906278 351.92055926 C-6.78441224 308.6338666 -6.78654363 265.34717577 -6.78345051 222.06048283 C-6.78312978 217.44978016 -6.78281694 212.83907748 -6.78250745 208.22837481 C-6.78242837 207.09302219 -6.78234929 205.95766957 -6.78226782 204.78791232 C-6.78112821 187.60928302 -6.78246459 170.43065505 -6.784987 153.25202593 C-6.78783944 133.7278819 -6.78714605 114.20374163 -6.78170626 94.67959806 C-6.77875913 83.73973125 -6.77859384 72.79987257 -6.78235243 61.86000596 C-6.78458282 54.56655653 -6.78322116 47.27311368 -6.77884766 39.97966524 C-6.77645259 35.81481263 -6.77568897 31.64997628 -6.77925365 27.48512414 C-6.78245641 23.70485644 -6.78115194 19.92461959 -6.77607299 16.14435419 C-6.77457245 14.12641387 -6.77803259 12.10847179 -6.78162727 10.09053412 C-6.77912375 8.91170753 -6.77662023 7.73288094 -6.77404085 6.51833233 C-6.77397309 5.49423131 -6.77390533 4.47013029 -6.77383552 3.41499591 C-6.52814441 -1.06908769 -3.85873506 0.01175681 0 0 Z " fill="#787878" transform="translate(15.648691684007645,10.868991523981094)"/>
<path d="M0 0 C0.99 0 1.98 0 3 0 C3 1.32 3 2.64 3 4 C350.49 4 697.98 4 1056 4 C1056 4.66 1056 5.32 1056 6 C708.18 6.33 360.36 6.66 2 7 C2 5.02 2 3.04 2 1 C1.34 0.67 0.68 0.34 0 0 Z " fill="#707070" transform="translate(0,842)"/>
<path d="M0 0 C1.65 0 3.3 0 5 0 C4.67 0.66 4.34 1.32 4 2 C3.34 2 2.68 2 2 2 C2 271.61 2 541.22 2 819 C1.34 819 0.68 819 0 819 C0 548.73 0 278.46 0 0 Z " fill="#DDDDDD" transform="translate(11,13)"/>
<path d="M0 0 C0.83753199 0.00291284 1.67506398 0.00582568 2.53797573 0.00882679 C3.42087746 0.00797237 4.3037792 0.00711794 5.21343553 0.00623763 C8.19536925 0.00458011 11.17724769 0.01010861 14.15917629 0.01555592 C16.28737554 0.01583776 18.41557488 0.01568012 20.54377407 0.01511341 C26.34105907 0.01482531 32.13832358 0.02072408 37.9356038 0.02768737 C43.9868064 0.03391881 50.03800942 0.03452454 56.08921474 0.03571278 C67.55687621 0.03882672 79.02452819 0.04704094 90.49218547 0.05706227 C103.54395424 0.06822147 116.59572346 0.07373337 129.64749581 0.0787577 C156.50417777 0.0892235 183.3608513 0.10682415 210.2175259 0.12908131 C211.3425259 3.87908131 211.3425259 3.87908131 210.2175259 6.12908131 C138.6075259 6.12908131 66.9975259 6.12908131 -6.7824741 6.12908131 C-6.7824741 -0.78926285 -6.29716722 0.01661969 0 0 Z " fill="#D1D1D1" transform="translate(686.7824741005898,49.870918691158295)"/>
<path d="M0 0 C1.3015795 -0.00339833 1.3015795 -0.00339833 2.62945354 -0.00686532 C5.5421162 -0.01320442 8.45473232 -0.01237603 11.36740112 -0.0115509 C13.4533901 -0.01454236 15.53937852 -0.01794485 17.62536621 -0.02172852 C23.29450728 -0.03057181 28.96363326 -0.0329067 34.63278055 -0.0335443 C39.35988871 -0.03449286 44.08699334 -0.03817035 48.81410015 -0.0417164 C59.96012416 -0.04986139 71.1061401 -0.0523005 82.25216675 -0.05158997 C93.7674807 -0.05098841 105.28274793 -0.06155554 116.79805005 -0.07733363 C126.67324168 -0.09038454 136.54841799 -0.09577493 146.4236182 -0.09513456 C152.32688405 -0.09487895 158.23010834 -0.09776502 164.13336563 -0.10831261 C169.68025421 -0.11795304 175.22706113 -0.11810083 180.77395248 -0.11079597 C182.81461455 -0.10974522 184.85528159 -0.11214184 186.89593506 -0.11815643 C189.67144385 -0.12581005 192.44666589 -0.12127605 195.22216797 -0.11352539 C196.03849485 -0.11866895 196.85482172 -0.12381252 197.69588578 -0.12911195 C203.25582861 -0.09455896 203.25582861 -0.09455896 205.48410034 2.13371277 C205.15410034 3.45371277 204.82410034 4.77371277 204.48410034 6.13371277 C132.54410034 6.13371277 60.60410034 6.13371277 -13.51589966 6.13371277 C-13.18589966 4.48371277 -12.85589966 2.83371277 -12.51589966 1.13371277 C-8.34284004 -0.03099472 -4.30406907 -0.00820985 0 0 Z " fill="#BFBFBF" transform="translate(165.51589965820313,49.86628723144531)"/>
<path d="M0 0 C0.96501936 -0.0055344 1.93003872 -0.01106879 2.92430109 -0.0167709 C6.16654503 -0.03041316 9.40802395 -0.0153885 12.6502533 -0.00050354 C14.97107267 -0.00428538 17.29188979 -0.0097843 19.61270142 -0.01687622 C25.92247767 -0.03086483 32.23198229 -0.01963734 38.54174352 -0.00316501 C45.13605683 0.01065912 51.73035395 0.00422849 58.32467651 0.0007019 C69.39873988 -0.00273284 80.47270093 0.01140525 91.54673767 0.03465271 C102.94554156 0.05857931 114.34420224 0.06565501 125.74302673 0.05516052 C139.4740073 0.04254158 153.20488697 0.04503472 166.9358654 0.06081963 C172.18343591 0.06658888 177.4309585 0.06648939 182.67852974 0.06175423 C188.85336765 0.05699407 195.02800646 0.06704629 201.20280647 0.08870888 C203.47363615 0.09428979 205.74448492 0.09473017 208.01531601 0.08975601 C211.10589317 0.0838335 214.19585535 0.09625002 217.28637695 0.11352539 C218.64657214 0.10451032 218.64657214 0.10451032 220.03424603 0.09531313 C220.85983373 0.10375307 221.68542144 0.11219301 222.53602695 0.12088871 C223.60643375 0.1224324 223.60643375 0.1224324 224.69846493 0.12400728 C227.16427892 0.61841767 228.06188731 1.52844207 229.57969666 3.50120544 C229.87266541 6.20042419 229.87266541 6.20042419 229.76719666 9.18870544 C229.72659119 10.67950623 229.72659119 10.67950623 229.68516541 12.20042419 C229.65036072 12.95968201 229.61555603 13.71893982 229.57969666 14.50120544 C228.58969666 14.83120544 227.59969666 15.16120544 226.57969666 15.50120544 C226.57969666 16.16120544 226.57969666 16.82120544 226.57969666 17.50120544 C196.43839687 17.59240013 166.29710181 17.66321532 136.15569459 17.70546676 C132.59951862 17.71046976 129.04334292 17.71564703 125.48716736 17.72093201 C124.77917859 17.72198125 124.07118982 17.72303049 123.34174684 17.72411153 C111.86887988 17.74153024 100.39609285 17.77307594 88.92327335 17.80981663 C77.15644472 17.84718537 65.38965805 17.86943266 53.62277251 17.87755942 C47.01120869 17.88278564 40.39982634 17.89511473 33.78832054 17.92412567 C27.5708664 17.95118762 21.35366925 17.95966909 15.1361618 17.95363617 C12.84918892 17.95474054 10.56220783 17.9627489 8.27528572 17.97802734 C5.1625025 17.99781065 2.05070075 17.99318704 -1.06210327 17.98222351 C-1.97551949 17.99387488 -2.88893571 18.00552624 -3.83003122 18.01753068 C-9.92203444 17.9591835 -9.92203444 17.9591835 -12.47809124 15.60981369 C-13.53088892 13.25372225 -13.8533893 11.57900862 -13.85780334 9.00120544 C-13.87713928 8.24839294 -13.89647522 7.49558044 -13.91639709 6.71995544 C-12.28055668 -0.59624419 -6.12632787 -0.06505154 0 0 Z M-10.42030334 3.50120544 C-11.59081764 5.84223403 -11.61952795 7.39473498 -11.67030334 10.00120544 C-11.69608459 10.79526794 -11.72186584 11.58933044 -11.74842834 12.40745544 C-11.64014709 13.09839294 -11.53186584 13.78933044 -11.42030334 14.50120544 C-8.37539717 16.5311429 -7.8094304 16.75095304 -4.39669514 16.7473011 C-3.16506357 16.75327425 -3.16506357 16.75327425 -1.90855056 16.75936806 C-0.5559355 16.75062954 -0.5559355 16.75062954 0.82400513 16.74171448 C2.26117692 16.74427775 2.26117692 16.74427775 3.72738248 16.74689281 C6.95191055 16.75019854 10.17623254 16.73916615 13.40074158 16.72825623 C15.70657344 16.72769235 18.01240566 16.72800822 20.3182373 16.72914124 C26.59061814 16.72971666 32.86292297 16.71793174 39.13528609 16.70399332 C45.68562548 16.69151746 52.23596648 16.69031795 58.78631592 16.6879425 C69.78475772 16.68275947 80.7831728 16.66992143 91.78160095 16.65208435 C103.11070109 16.63373009 114.43979364 16.61957136 125.76890564 16.61106873 C126.81615883 16.61028056 126.81615883 16.61028056 127.88456865 16.60947646 C131.38702938 16.60686641 134.88949015 16.60433899 138.39195096 16.60185266 C167.45455106 16.5811147 196.51712348 16.54573586 225.57969666 16.50120544 C225.57969666 15.84120544 225.57969666 15.18120544 225.57969666 14.50120544 C226.23969666 14.50120544 226.89969666 14.50120544 227.57969666 14.50120544 C227.63365144 12.87656703 227.6724686 11.25142003 227.70469666 9.62620544 C227.72789978 8.72128357 227.75110291 7.81636169 227.77500916 6.88401794 C227.82294501 4.3131355 227.82294501 4.3131355 225.57969666 2.50120544 C222.52782266 2.30526441 219.56675578 2.23649452 216.51379395 2.25396729 C215.56273409 2.25155287 214.61167424 2.24913845 213.63179439 2.24665087 C210.4249882 2.240987 207.21837885 2.24969728 204.01158142 2.25828552 C201.72061611 2.2572133 199.42965106 2.25527551 197.13868713 2.25253296 C190.90117315 2.24767164 184.66373033 2.25535654 178.42622495 2.265486 C171.9106461 2.27424662 165.39506962 2.27250944 158.87948608 2.27212524 C147.93473595 2.27306286 136.990014 2.28170578 126.04527283 2.2953949 C114.77834064 2.30947975 103.51143269 2.31656583 92.24449158 2.31590271 C91.20386911 2.31584278 91.20386911 2.31584278 90.14222396 2.31578163 C89.4496899 2.31574128 88.75715584 2.31570092 88.0436359 2.31565934 C75.87737215 2.3150047 63.71112013 2.32015024 51.54485893 2.32845116 C46.35870728 2.33198847 41.17255913 2.33381505 35.98640633 2.33434486 C29.88224929 2.33534719 23.77811786 2.34143484 17.67396927 2.351511 C15.42893696 2.35443944 13.18390171 2.35566068 10.93886757 2.35508347 C7.88341189 2.35459505 4.82802863 2.3602261 1.77258301 2.36749268 C0.87609482 2.36594407 -0.02039337 2.36439547 -0.94404787 2.36279994 C-1.76041879 2.36602439 -2.5767897 2.36924883 -3.41789913 2.37257099 C-4.12347452 2.37327542 -4.82904991 2.37397984 -5.55600637 2.37470561 C-7.65069145 2.43840254 -7.65069145 2.43840254 -10.42030334 3.50120544 Z " fill="#D2D2D2" transform="translate(152.42030334472656,43.49879455566406)"/>
<path d="M0 0 C0.81862091 -0.00583219 1.63724183 -0.01166439 2.48066944 -0.01767331 C3.37968434 -0.01389399 4.27869923 -0.01011467 5.20495701 -0.00622082 C6.16024927 -0.01004636 7.11554154 -0.01387191 8.09978205 -0.01781338 C11.31495443 -0.02816859 14.52994907 -0.02414645 17.7451334 -0.02018261 C20.04447693 -0.02452768 22.343819 -0.02971014 24.64315891 -0.03567028 C30.89926491 -0.04909338 37.15531062 -0.04963528 43.41142821 -0.04710698 C48.62791069 -0.04603954 53.84438085 -0.0509148 59.06086069 -0.0557124 C72.06793123 -0.06745462 85.07496731 -0.06657596 98.08204008 -0.06015559 C109.38266975 -0.05498588 120.68321323 -0.06624218 131.98382585 -0.08525381 C143.58239685 -0.1046174 155.18092334 -0.11259915 166.77951056 -0.10913056 C173.2932025 -0.10731394 179.80681552 -0.10999161 186.32049465 -0.1238451 C192.44441393 -0.13638157 198.56816019 -0.13451902 204.69207668 -0.12143421 C206.9431422 -0.11905976 209.19421974 -0.12183397 211.44527149 -0.13005733 C214.51144747 -0.14045307 217.57703517 -0.13248187 220.64318943 -0.11974621 C221.53997361 -0.12712049 222.43675778 -0.13449478 223.36071724 -0.14209253 C229.34226214 -0.08960256 229.34226214 -0.08960256 232.54058266 1.61575508 C234.62101405 3.97186227 234.48753426 5.65600222 234.42506504 8.75447559 C234.42313145 10.19306934 234.42313145 10.19306934 234.42115879 11.66072559 C233.91612996 14.68179897 233.34968212 15.38994852 230.98756504 17.25447559 C229.11159468 17.63052309 229.11159468 17.63052309 226.9567194 17.63199902 C226.13399839 17.63982226 225.31127738 17.6476455 224.46362543 17.65570581 C223.10824348 17.64566756 223.10824348 17.64566756 221.72548008 17.63542652 C220.28535801 17.64244648 220.28535801 17.64244648 218.81614256 17.64960825 C215.58473325 17.66161682 212.35374346 17.65207806 209.12233067 17.64265919 C206.81151169 17.64672228 204.50069466 17.65206267 202.18988132 17.65858936 C195.90281978 17.67229993 189.61590543 17.66694885 183.32884121 17.65745211 C176.75987815 17.64987487 170.19092799 17.65689572 163.62196445 17.6616106 C151.88163699 17.66802466 140.14137163 17.65808107 128.40105492 17.64283259 C117.75131016 17.6294289 107.1016635 17.63175685 96.45192051 17.64558887 C84.09145048 17.66163525 71.73104302 17.66762384 59.37056398 17.65875208 C52.82505245 17.65406671 46.27960853 17.65347442 39.7341013 17.66336155 C33.58144791 17.67200551 27.42898039 17.66605635 21.27634716 17.64867878 C19.01357743 17.64470017 16.75079214 17.6458713 14.48802853 17.65246677 C11.40835532 17.66061808 8.32928443 17.65043838 5.24965 17.63542652 C4.34606204 17.64211869 3.44247407 17.64881085 2.51150465 17.65570581 C1.68878364 17.64788257 0.86606263 17.64005933 0.01841068 17.63199902 C-0.69269816 17.63151196 -1.403807 17.6310249 -2.1364646 17.63052309 C-4.60272648 17.13614875 -5.4939558 16.22792171 -7.01243496 14.25447559 C-7.41087246 11.40681934 -7.41087246 11.40681934 -7.38743496 8.19197559 C-7.39516933 7.12849903 -7.40290371 6.06502247 -7.41087246 4.96931934 C-7.27938808 4.07342091 -7.14790371 3.17752247 -7.01243496 2.25447559 C-3.97351335 0.22852785 -3.40507507 0.00417148 0 0 Z M-5.0659256 4.06272411 C-6.45455865 7.27826394 -6.38937103 9.79922825 -6.01243496 13.25447559 C-4.50758185 15.25302835 -3.62243749 16.13135594 -1.14928865 16.63052309 C-0.44425534 16.63101014 0.26077798 16.6314972 0.98717594 16.63199902 C1.80293016 16.63982226 2.61868438 16.6476455 3.45915842 16.65570581 C4.35496449 16.64901364 5.25077056 16.64232148 6.17372227 16.63542652 C7.60159368 16.64244648 7.60159368 16.64244648 9.05831099 16.64960825 C12.26208243 16.66161638 15.46543071 16.65207825 18.66920567 16.64265919 C20.96032048 16.6467223 23.25143334 16.65206271 25.54254246 16.65858936 C31.77588713 16.67229969 38.00908332 16.66694895 44.24243069 16.65745211 C50.75533935 16.64987475 57.268235 16.65689575 63.78114414 16.6616106 C75.421275 16.66742405 87.06133788 16.65808117 98.70145804 16.64283259 C109.26023952 16.62942891 119.81892206 16.63175685 130.37770176 16.64558887 C142.63269858 16.66163537 154.88762491 16.66762378 167.14263201 16.65875208 C173.63225239 16.65406677 180.12180458 16.65347427 186.61142063 16.66336155 C192.71154496 16.67200566 198.81148181 16.66605608 204.91158581 16.64867878 C207.15500483 16.64470025 209.39843953 16.64587117 211.64185238 16.65246677 C214.69525304 16.6606184 217.74804626 16.65043801 220.80140781 16.63542652 C221.69721388 16.64211869 222.59301995 16.64881085 223.51597166 16.65570581 C224.33172588 16.64788257 225.1474801 16.64005933 225.98795414 16.63199902 C226.69298746 16.63151196 227.39802077 16.6310249 228.12441874 16.63052309 C230.56478835 16.13797193 231.46397614 15.18584379 232.98756504 13.25447559 C233.42341766 11.04325241 233.42341766 11.04325241 233.30006504 8.69197559 C233.29619785 7.90693653 233.29233067 7.12189747 233.28834629 6.31306934 C233.16459527 4.03320726 233.16459527 4.03320726 230.98756504 2.25447559 C227.92351778 2.05194539 224.9493097 1.97653076 221.88369846 1.98705006 C220.92855506 1.98251894 219.97341165 1.97798783 218.98932451 1.97331941 C215.76871901 1.96059568 212.54828088 1.96230089 209.32765293 1.96394825 C207.02683384 1.95796801 204.72601677 1.95116364 202.42520237 1.94359303 C196.16084568 1.92587535 189.89654356 1.92123525 183.63216424 1.91996145 C178.41066609 1.91806646 173.18918078 1.91071361 167.96768755 1.90361726 C156.35782973 1.88824625 144.74799862 1.88228132 133.13813145 1.88362797 C132.44109346 1.88370788 131.74405547 1.88378779 131.02589512 1.88387012 C130.3280092 1.88395189 129.63012327 1.88403365 128.91108929 1.88411789 C117.59676466 1.88493107 106.28257308 1.86578699 94.96828694 1.83759339 C83.35958013 1.80889365 71.75094438 1.79541811 60.14220136 1.79678094 C53.62123062 1.7972921 47.10041038 1.79152412 40.57947063 1.77042484 C34.44896501 1.75113145 28.31875484 1.75085684 22.1882391 1.76545811 C19.93352549 1.76755834 17.67879382 1.76277371 15.42411137 1.75073719 C12.35519306 1.73541036 9.28730964 1.74450945 6.21841526 1.75999928 C5.31803612 1.74971215 4.41765699 1.73942502 3.48999363 1.72882617 C-1.21523242 1.67433701 -1.21523242 1.67433701 -5.0659256 4.06272411 Z " fill="#D1D1D1" transform="translate(675.0124349594116,43.745524406433105)"/>
<path d="M0 0 C71.61 0 143.22 0 217 0 C217 0.99 217 1.98 217 3 C145.39 3 73.78 3 0 3 C0 2.01 0 1.02 0 0 Z " fill="#E4E4E4" transform="translate(152,52)"/>
<path d="M0 0 C0.9567034 -0.00482883 1.91340679 -0.00965766 2.8991012 -0.01463282 C6.11916029 -0.02594464 9.33843244 -0.00855348 12.55845642 0.00863647 C14.86104549 0.00649164 17.1636335 0.00261549 19.46621704 -0.00286865 C25.73054277 -0.01258418 31.99458468 0.00276857 38.25887609 0.02303743 C44.80294185 0.04056657 51.34699831 0.03708418 57.89108276 0.03631592 C68.88116587 0.03748111 79.87114413 0.05546958 90.8611908 0.08285522 C102.17664082 0.11103725 113.49199426 0.12519652 124.80747986 0.12387085 C125.50451785 0.12379094 126.20155584 0.12371102 126.91971619 0.12362869 C127.61553196 0.12354798 128.31134774 0.12346727 129.02824885 0.12338412 C141.24739119 0.12207534 153.46649018 0.13236115 165.68562126 0.14896774 C170.89493048 0.15604507 176.10422571 0.1596959 181.31353951 0.16075516 C187.44236388 0.16275834 193.57108609 0.17492122 199.69987679 0.19508743 C201.95500056 0.2009489 204.21013609 0.20338586 206.46526718 0.20223236 C209.53204924 0.20125698 212.59854137 0.21250244 215.6652832 0.22705078 C217.01919799 0.22240498 217.01919799 0.22240498 218.40046459 0.21766531 C224.5407921 0.26611864 224.5407921 0.26611864 226.76914978 2.49447632 C227.06993103 4.55307007 227.06993103 4.55307007 227.08164978 6.93197632 C227.09840759 7.71443726 227.11516541 8.49689819 227.13243103 9.30307007 C226.67756376 12.04694681 225.91519916 12.77165337 223.76914978 14.49447632 C221.90600348 14.87052381 221.90600348 14.87052381 219.76953888 14.87199974 C218.95378466 14.87982298 218.13803044 14.88764622 217.2975564 14.89570653 C216.40175033 14.88901437 215.50594426 14.8823222 214.58299255 14.87542725 C213.63107828 14.88010722 212.679164 14.88478719 211.69840384 14.88960898 C208.49463239 14.9016171 205.29128411 14.89207897 202.08750916 14.88265991 C199.79639434 14.88672302 197.50528148 14.89206343 195.21417236 14.89859009 C188.98082769 14.91230042 182.7476315 14.90694968 176.51428413 14.89745283 C170.00137548 14.88987548 163.48847982 14.89689648 156.97557068 14.90161133 C145.33543982 14.90742477 133.69537694 14.8980819 122.05525678 14.88283332 C111.4964753 14.86942963 100.93779276 14.87175758 90.37901306 14.8855896 C78.12401624 14.9016361 65.86908991 14.9076245 53.61408281 14.89875281 C47.12446243 14.89406749 40.63491024 14.89347499 34.14529419 14.90336227 C28.04516987 14.91200638 21.94523301 14.9060568 15.84512901 14.8886795 C13.60171 14.88470098 11.35827529 14.88587189 9.11486244 14.8924675 C6.06146178 14.90061913 3.00866856 14.89043873 -0.04469299 14.87542725 C-0.94049906 14.88211941 -1.83630513 14.88881158 -2.75925684 14.89570653 C-3.57501106 14.88788329 -4.39076528 14.88006005 -5.23123932 14.87199974 C-5.93627264 14.87151268 -6.64130595 14.87102563 -7.36770391 14.87052381 C-9.84085275 14.37135667 -10.72599711 13.49302907 -12.23085022 11.49447632 C-12.60778629 8.03922898 -12.67297391 5.51826466 -11.28434086 2.30272484 C-7.93447332 -0.64707825 -4.31402342 -0.04928913 0 0 Z M-7.23085022 1.49447632 C-6.90085022 3.80447632 -6.57085022 6.11447632 -6.23085022 8.49447632 C-7.16835022 11.43197632 -7.16835022 11.43197632 -8.23085022 13.49447632 C21.03574481 13.51727091 50.30233921 13.53497669 79.56894129 13.54554165 C83.02125689 13.54679241 86.47357248 13.54808673 89.92588806 13.54940796 C90.95686323 13.54980142 90.95686323 13.54980142 92.00866617 13.55020284 C103.14914286 13.55455849 114.2896144 13.56244547 125.43008803 13.57162911 C136.85452314 13.58096855 148.27895407 13.58645765 159.7033931 13.58856481 C166.12314301 13.58987183 172.54288124 13.59295713 178.96262741 13.60020638 C184.99862345 13.6069674 191.03460295 13.60909311 197.07060242 13.607584 C199.29186722 13.60786029 201.51313254 13.60986492 203.73439407 13.61368179 C206.75526716 13.6186203 209.77607689 13.61747399 212.79695129 13.61473083 C213.68604372 13.61764368 214.57513614 13.62055652 215.49117076 13.62355763 C219.76528992 13.73898517 219.76528992 13.73898517 223.76914978 12.49447632 C223.76914978 11.83447632 223.76914978 11.17447632 223.76914978 10.49447632 C222.77914978 10.49447632 221.78914978 10.49447632 220.76914978 10.49447632 C221.09914978 7.52447632 221.42914978 4.55447632 221.76914978 1.49447632 C146.19914978 1.49447632 70.62914978 1.49447632 -7.23085022 1.49447632 Z " fill="#A9A9A9" transform="translate(681.2308502197266,45.505523681640625)"/>
<path d="M0 0 C0.81760431 -0.00199105 1.63520863 -0.0039821 2.47758883 -0.00603348 C3.37544126 -0.00312064 4.27329369 -0.0002078 5.19835377 0.00279331 C6.15238474 0.00193889 7.10641572 0.00108446 8.08935672 0.00020415 C11.30000906 -0.00144866 14.51060965 0.0040675 17.72125721 0.00952244 C20.01723701 0.00980438 22.31321691 0.00964644 24.60919666 0.00907993 C30.85469545 0.00879223 37.10017516 0.01468465 43.34566951 0.02165389 C49.86798459 0.02789187 56.39030008 0.02849158 62.91261768 0.0296793 C73.86397105 0.0324374 84.81531735 0.03868981 95.76666737 0.04760838 C107.04726597 0.05678553 118.32786266 0.06386488 129.60846424 0.06811619 C130.65123694 0.06851027 130.65123694 0.06851027 131.71507575 0.06891232 C135.20255244 0.07021734 138.69002914 0.07148106 142.17750585 0.07272422 C171.11567827 0.08309317 200.05384355 0.10078256 228.99200916 0.12304783 C228.99200916 0.45304783 228.99200916 0.78304783 228.99200916 1.12304783 C152.43200916 1.12304783 75.87200916 1.12304783 -3.00799084 1.12304783 C-2.34799084 2.44304783 -1.68799084 3.76304783 -1.00799084 5.12304783 C-1.38299084 7.87304783 -1.38299084 7.87304783 -2.00799084 10.12304783 C-2.99799084 10.12304783 -3.98799084 10.12304783 -5.00799084 10.12304783 C-4.67799084 10.78304783 -4.34799084 11.44304783 -4.00799084 12.12304783 C72.88200916 12.12304783 149.77200916 12.12304783 228.99200916 12.12304783 C228.99200916 12.78304783 228.99200916 13.44304783 228.99200916 14.12304783 C199.23286615 14.16864555 169.47372431 14.20405298 139.7145539 14.22517849 C136.20344193 14.22767998 132.69233002 14.23026862 129.18121815 14.23291111 C128.48220122 14.23343573 127.7831843 14.23396035 127.06298504 14.23450087 C115.73564663 14.24321012 104.40832847 14.25898294 93.08100208 14.27735342 C81.46333093 14.29603803 69.84567162 14.30701174 58.22798616 14.31122482 C51.70031898 14.31383786 45.17269776 14.32000222 38.64504528 14.33450794 C32.50643632 14.34803917 26.36789244 14.35227953 20.22926998 14.34926319 C17.97133373 14.34981536 15.71339539 14.35381924 13.45547199 14.36145878 C10.38233945 14.37135024 7.30945544 14.36903797 4.23631763 14.36355686 C2.88370257 14.37229539 2.88370257 14.37229539 1.50376195 14.38121045 C0.27213038 14.3752373 0.27213038 14.3752373 -0.98438263 14.36914349 C-2.04892858 14.37028265 -2.04892858 14.37028265 -3.1349805 14.37144482 C-5.00799084 14.12304783 -5.00799084 14.12304783 -8.00799084 12.12304783 C-8.33611584 10.02929783 -8.33611584 10.02929783 -8.25799084 7.62304783 C-8.24252209 6.82898533 -8.22705334 6.03492283 -8.21111584 5.21679783 C-8.00799084 3.12304783 -8.00799084 3.12304783 -7.00799084 1.12304783 C-4.30441573 0.22185613 -2.77148938 -0.00148925 0 0 Z " fill="#A9A9A9" transform="translate(149.00799083709717,45.876952171325684)"/>
<path d="M0 0 C29.66579905 -0.02279004 59.33159769 -0.04049801 88.99740365 -0.05106533 C92.49607185 -0.05231611 95.99474003 -0.05361042 99.4934082 -0.05493164 C100.18995913 -0.05519395 100.88651007 -0.05545626 101.6041686 -0.05572652 C112.89728418 -0.06008328 124.1903947 -0.06797086 135.48350727 -0.0771528 C147.06274912 -0.08648918 158.64198741 -0.09198068 170.22123295 -0.09408849 C176.72870034 -0.09539604 183.23615621 -0.09848466 189.74361992 -0.10573006 C195.86086959 -0.1124862 201.97810294 -0.11461779 208.09535599 -0.11310768 C210.3476794 -0.11338419 212.60000333 -0.11539171 214.85232353 -0.11920547 C217.91295764 -0.12413639 220.97352906 -0.12300052 224.03416443 -0.12025452 C224.93784254 -0.12316736 225.84152065 -0.1260802 226.77258295 -0.12908131 C232.88587879 -0.11412121 232.88587879 -0.11412121 234 1 C234.07205511 2.68608966 234.08386068 4.37500659 234.0625 6.0625 C234.05347656 6.98160156 234.04445313 7.90070312 234.03515625 8.84765625 C234.01775391 9.91306641 234.01775391 9.91306641 234 11 C233.34 11 232.68 11 232 11 C231.67 10.01 231.34 9.02 231 8 C229.68 8 228.36 8 227 8 C227.33 5.69 227.66 3.38 228 1 C226.68 1 225.36 1 224 1 C224.99 2.485 224.99 2.485 226 4 C226.125 6.6875 226.125 6.6875 226 9 C225.01 8.505 225.01 8.505 224 8 C223.6278958 6.67696283 223.29369827 5.34262065 223 4 C221.18313279 2.18313279 218.67166187 2.8746697 216.25302321 2.86625659 C215.4207464 2.86848732 214.5884696 2.87071804 213.73097229 2.87301636 C212.85356524 2.87145637 211.97615819 2.86989638 211.07216305 2.86828911 C208.10872026 2.86427518 205.145328 2.86747028 202.18188477 2.87060547 C200.06678233 2.86925159 197.95168012 2.86747174 195.83657837 2.86529541 C190.07428453 2.86071917 184.3120085 2.86251149 178.54971433 2.8656745 C172.53281177 2.86819745 166.51591079 2.86586071 160.49900818 2.86428833 C150.39150721 2.8624663 140.28401353 2.86487366 130.17651367 2.86962891 C118.47552771 2.87507012 106.77455918 2.87331002 95.07357365 2.8678025 C85.04557825 2.86327056 75.01758811 2.86262127 64.98959202 2.86524117 C58.99239786 2.86680368 52.9952119 2.86699844 46.99801826 2.86370468 C41.36008129 2.86082484 35.72216686 2.86280376 30.08423233 2.86859894 C28.00971069 2.86992599 25.93518717 2.86953334 23.86066628 2.86733627 C21.03908864 2.8646226 18.21758426 2.86800863 15.39601135 2.87301636 C14.56596527 2.87078564 13.73591919 2.86855491 12.8807202 2.86625659 C8.80897083 2.78105211 8.80897083 2.78105211 5 4 C5 3.01 5 2.02 5 1 C4.01 1 3.02 1 2 1 C1.67 1.99 1.34 2.98 1 4 C0.67 2.68 0.34 1.36 0 0 Z " fill="#868686" transform="translate(146,47)"/>
<path d="M0 0 C0.33 0 0.66 0 1 0 C1 1.65 1 3.3 1 5 C72.61 5 144.22 5 218 5 C218 5.99 218 6.98 218 8 C144.08 8 70.16 8 -6 8 C-6 7.67 -6 7.34 -6 7 C-4.02 7 -2.04 7 0 7 C0 4.69 0 2.38 0 0 Z " fill="#939393" transform="translate(679,51)"/>
<path d="M0 0 C1.98 0 3.96 0 6 0 C5.67 2.97 5.34 5.94 5 9 C5.99 9 6.98 9 8 9 C8 9.66 8 10.32 8 11 C4.70094353 12.64952823 1.03206174 12.11129754 -2.59255981 12.08229065 C-3.49265018 12.07906152 -4.39274055 12.07583239 -5.32010639 12.07250541 C-8.35423409 12.06038395 -11.38827331 12.0410208 -14.42236328 12.02172852 C-16.59011643 12.01159064 -18.75787168 12.00189644 -20.92562866 11.99261475 C-26.8261775 11.96608458 -32.72667743 11.93331517 -38.62718821 11.89946485 C-44.78780821 11.86517039 -50.94845447 11.83655948 -57.10910034 11.80735779 C-68.78215948 11.75115724 -80.45518574 11.68981053 -92.12820899 11.62663645 C-105.41456144 11.55498003 -118.70093955 11.48902783 -131.987324 11.42356598 C-159.32491688 11.28874563 -186.6624686 11.14672541 -214 11 C-214 10.67 -214 10.34 -214 10 C-143.38 10 -72.76 10 0 10 C0 6.7 0 3.4 0 0 Z " fill="#808080" transform="translate(897,47)"/>
<path d="M0 0 C0.99 0 1.98 0 3 0 C3.33 2.97 3.66 5.94 4 9 C8.62 9 13.24 9 18 9 C18 9.33 18 9.66 18 10 C7.605 10.495 7.605 10.495 -3 11 C-3.33 10.01 -3.66 9.02 -4 8 C-3.01 8 -2.02 8 -1 8 C-0.67 5.36 -0.34 2.72 0 0 Z " fill="#7F7F7F" transform="translate(148,48)"/>
<path d="M0 0 C0.99 0 1.98 0 3 0 C4.55136786 2.46393719 5.03039129 3.68089146 4.75 6.625 C4 9 4 9 2 11 C-0.125 10.625 -0.125 10.625 -2 10 C-2.25 3.375 -2.25 3.375 0 0 Z " fill="#9D9D9D" transform="translate(671,47)"/>
<path d="M0 0 C1.32 0 2.64 0 4 0 C3.67 2.31 3.34 4.62 3 7 C4.65 6.67 6.3 6.34 8 6 C8 7.32 8 8.64 8 10 C2.76528314 10.75612577 -1.77254141 11.2063366 -7 10 C-7 9.67 -7 9.34 -7 9 C-2.545 8.505 -2.545 8.505 2 8 C1.34 5.36 0.68 2.72 0 0 Z " fill="#808080" transform="translate(370,48)"/>
<path d="M0 0 C1.98 0 3.96 0 6 0 C5.67 3.63 5.34 7.26 5 11 C3.02 11 1.04 11 -1 11 C-0.649375 10.484375 -0.29875 9.96875 0.0625 9.4375 C1.3615641 6.05993333 0.67217681 3.49531943 0 0 Z " fill="#6D6D6D" transform="translate(674,47)"/>
<path d="M0 0 C1.98 0 3.96 0 6 0 C5.34 3.63 4.68 7.26 4 11 C3.01 11 2.02 11 1 11 C0.67 7.37 0.34 3.74 0 0 Z " fill="#6C6C6C" transform="translate(897,47)"/>
<path d="M0 0 C0.66 0.33 1.32 0.66 2 1 C2 4.3 2 7.6 2 11 C1.34 11 0.68 11 0 11 C-0.33 10.01 -0.66 9.02 -1 8 C-2.32 8 -3.64 8 -5 8 C-5 6.68 -5 5.36 -5 4 C-3.35 4 -1.7 4 0 4 C0 2.68 0 1.36 0 0 Z " fill="#9D9D9D" transform="translate(378,47)"/>
<path d="M0 0 C0.99 0 1.98 0 3 0 C3 3.3 3 6.6 3 10 C2.01 10 1.02 10 0 10 C0 6.7 0 3.4 0 0 Z " fill="#636363" transform="translate(148,48)"/>
<path d="M0 0 C0.66 0.33 1.32 0.66 2 1 C2 3.97 2 6.94 2 10 C1.01 10.495 1.01 10.495 0 11 C0 9.68 0 8.36 0 7 C-1.32 7 -2.64 7 -4 7 C-4 6.34 -4 5.68 -4 5 C-2.35 5 -0.7 5 1 5 C0.67 3.35 0.34 1.7 0 0 Z " fill="#B7B7B7" transform="translate(906,47)"/>
<path d="M0 0 C1.32 0 2.64 0 4 0 C4 3.3 4 6.6 4 10 C2.68 10 1.36 10 0 10 C0 9.34 0 8.68 0 8 C0.66 8 1.32 8 2 8 C1.34 5.36 0.68 2.72 0 0 Z " fill="#676767" transform="translate(370,48)"/>
<path d="M0 0 C0.99 0 1.98 0 3 0 C3.33 1.65 3.66 3.3 4 5 C2.35 5 0.7 5 -1 5 C-1.33 5.66 -1.66 6.32 -2 7 C-1.125 2.25 -1.125 2.25 0 0 Z " fill="#979797" transform="translate(903,47)"/>
<path d="M0 0 C2.97 0 5.94 0 9 0 C9 1.32 9 2.64 9 4 C7.68 4 6.36 4 5 4 C5 3.01 5 2.02 5 1 C3.35 1.33 1.7 1.66 0 2 C0 1.34 0 0.68 0 0 Z " fill="#7D7D7D" transform="translate(369,47)"/>
</svg>
